<svg id="Layer_1" data-name="Layer 1" xmlns="http://www.w3.org/2000/svg" viewBox="0 0 573 479"><defs><style>.color-1{fill:#a1d1dd;}.color-2{fill:#e6e6e6;}</style></defs><path class="color-1" d="M571.83,256H387.42C340.22,256,293,269.84,257,297.51s-54,63.93-54,100.19V539.4H387.42c47.19,0,94.39-13.84,130.4-41.5s54-63.94,54-100.2Z" transform="translate(-203 -117)"/><path class="color-2" d="M493.52,548.84l43.4,33.35C548,590.72,563.37,596,580.32,596s32.29-5.28,43.4-13.81l43.4-33.35-43.4-33.35c-11.11-8.53-26.45-13.81-43.4-13.81S548,507,536.92,515.49Z" transform="translate(-203 -117)"/><rect class="text-wrap" height="150" width="100" x="250px" y="50px" style="fill:none"/><text id="wrap" class="txt1" x="430" y="50" font-size="12" dy='1'></text><image class="img1" x="90" y="230" href="sample_img.png" width="100"/><text class="lb1" x="200" y="80" font-size="40px">L</text></svg>