<svg id="Layer_1" data-name="Layer 1" xmlns="http://www.w3.org/2000/svg" viewBox="0 0 167 632"><defs><style>.cls-1{fill:#a1d13b;}.cls-2{fill:#fff;}.cls-3{fill:#23282b;}.cls-4{fill:#b2b2b2;}</style></defs><polygon class="cls-1" points="54.22 0 0 47.71 0 47.72 0 407.13 108.4 407.13 108.4 47.71 54.22 0"/><path class="cls-2" d="M416.6,410.07a11.28,11.28,0,0,1,9.56,5.23l7.48-3.23c-2.88-4.53-8.09-8.8-17-8.8-12.33,0-21.83,7.5-21.83,18.62s9.5,18.6,21.83,18.6c8.95,0,14.16-4.38,17-8.84l-7.48-3.19a11.28,11.28,0,0,1-9.56,5.24c-7.48,0-12.88-5-12.88-11.81S409.12,410.07,416.6,410.07Z" transform="translate(-360 -45)"/><polygon class="cls-2" points="54.22 78.43 19.27 47.71 54.22 16.95 89.16 47.71 54.22 78.43"/><polygon class="cls-1" points="167 469.25 6.89 469.25 0 407.13 108.4 407.13 167 469.25"/><path class="cls-3" d="M450.92,602.55h-8a17.94,17.94,0,0,1-11.86-4.32,13.81,13.81,0,0,1-4.91-10.44h9.59a5.88,5.88,0,0,0,2.09,4.48,7.62,7.62,0,0,0,5.09,1.85h8a7.78,7.78,0,0,0,5.12-1.87,5.81,5.81,0,0,0,0-8.93,7.77,7.77,0,0,0-5.09-1.84h-8a17.94,17.94,0,0,1-11.86-4.32,13.56,13.56,0,0,1,0-20.88A18,18,0,0,1,443,552h8a18,18,0,0,1,11.84,4.28,13.84,13.84,0,0,1,4.95,10.47h-9.59a5.92,5.92,0,0,0-2.1-4.47,7.82,7.82,0,0,0-5.1-1.84h-8a7.64,7.64,0,0,0-5.09,1.85,5.83,5.83,0,0,0,0,8.94A7.66,7.66,0,0,0,443,573h8a18,18,0,0,1,11.85,4.3,13.53,13.53,0,0,1,0,20.89A18,18,0,0,1,450.92,602.55Z" transform="translate(-360 -45)"/><rect class="cls-3" x="82.14" y="501.34" width="9.58" height="9.85"/><rect class="cls-3" x="82.14" y="553.33" width="9.58" height="9.84"/><rect class="cls-4" x="48.55" y="575.68" width="76.8" height="6.26"/><rect class="cls-4" x="6.89" y="588.2" width="160.11" height="6.26"/><rect class="cls-4" x="6.89" y="600.71" width="160.11" height="6.26"/><rect class="cls-4" x="6.89" y="613.23" width="160.11" height="6.25"/><rect class="cls-4" x="6.89" y="625.74" width="80.05" height="6.26"/></svg>