<svg id="Layer_1" data-name="Layer 1" xmlns="http://www.w3.org/2000/svg" viewBox="0 0 385 561"><defs><style>.color-1{fill:#f75c2a;}</style></defs><path class="color-1" d="M322.39,466.77c37.55,40.32,86.78,60.51,136.06,60.51,106.22,0,192.4-92.55,192.39-206.61,0-52.92-18.79-105.79-56.33-146.1S507.68,114,458.44,114H266V320.66C266,373.54,284.75,426.36,322.39,466.77ZM458.45,189.48c67.45,0,122.11,58.74,122.1,131.18S525.9,451.79,458.45,451.79,336.29,393.1,336.29,320.67,391,189.49,458.45,189.48Z" transform="translate(-266 -114)"/><rect class="text-wrap" x="119.9" y="467.14" width="265.1" height="90.57" style="fill:none"/><text id="wrap" x="119.9" y="467.14" dy="1" class="txt1"></text><text class="lb1" x="120" y="230" font-size="30">L</text><image class="img1" preserveAspectRatio="none" x='3' y='430' href='sample_img.png' width='100' height='100'/></svg>