<svg id="Layer_1" data-name="Layer 1" xmlns="http://www.w3.org/2000/svg" viewBox="0 0 630 574"><defs><style>.cls-1{fill:#a1d13b;}.cls-2{fill:#23282b;}.cls-3{fill:#b2b2b2;}.cls-4{fill:#fff;}</style></defs><path class="cls-1" d="M435.58,651h169.2C611.36,523.85,701.91,422,815,414.61V224.33C608.49,232,442.42,418.82,435.58,651Z" transform="translate(-185 -77)"/><path class="cls-2" d="M630.26,422.08c7.4-1.68,13.5-9.19,13.5-20.1,0-11.74-7.65-22.44-22.48-22.44H580.1v87.9h42.43c15,0,22.72-10.56,22.72-23.88C645.25,432.63,638.73,423.59,630.26,422.08ZM596.77,396h20.82c5.67,0,9.18,3.82,9.18,9.25,0,5.61-3.51,9.17-9.18,9.17H596.77ZM618.32,451H596.77V431h21.55c6.45,0,9.94,4.42,9.94,10C628.26,447.25,624.54,451,618.32,451Z" transform="translate(-185 -77)"/><rect class="cls-3" x="52.11" y="35.69" width="104.22" height="12.4"/><rect class="cls-3" y="60.49" width="208.44" height="12.41"/><rect class="cls-3" y="85.31" width="208.44" height="12.41"/><rect class="cls-3" y="110.11" width="208.44" height="12.41"/><rect class="cls-3" y="134.93" width="104.22" height="12.41"/><path class="cls-2" d="M505.69,173.6c0,28-20.17,50.73-45.08,50.73s-45.12-22.72-45.12-50.73,20.2-50.69,45.12-50.69S505.69,145.58,505.69,173.6Z" transform="translate(-185 -77)"/><rect class="cls-2" x="264.32" y="11.6" width="22.55" height="35.88"/><path class="cls-2" d="M477.05,82.79a6.14,6.14,0,0,0-1.52-4.09,4.94,4.94,0,0,0-3.66-1.7H449.32a4.86,4.86,0,0,0-3.64,1.7,6.13,6.13,0,0,0-1.51,4.09h0a6.2,6.2,0,0,0,1.51,4.11,4.82,4.82,0,0,0,3.64,1.7h22.55a4.91,4.91,0,0,0,3.66-1.7,6.21,6.21,0,0,0,1.52-4.11Z" transform="translate(-185 -77)"/><polygon class="cls-2" points="320.64 56.01 311.71 45.96 302.47 56.39 311.37 66.4 320.64 56.01"/><path class="cls-2" d="M509.75,133.05a3.77,3.77,0,0,0,.91-2.4,3.51,3.51,0,0,0-.85-2.34l-8.92-10a2.75,2.75,0,0,0-2.08-1,2.84,2.84,0,0,0-2.11,1h0a3.63,3.63,0,0,0-.84,2.36,3.5,3.5,0,0,0,.84,2.32l8.94,10a2.77,2.77,0,0,0,2.07,1,3,3,0,0,0,2.15-1.05Z" transform="translate(-185 -77)"/><path class="cls-2" d="M520.06,124.48a1.85,1.85,0,1,1-1.84-2.09A2,2,0,0,1,520.06,124.48Z" transform="translate(-185 -77)"/><path class="cls-2" d="M520.06,102.81c0,3.63-2.64,6.62-5.9,6.62s-5.9-3-5.9-6.62,2.63-6.63,5.9-6.63S520.06,99.15,520.06,102.81Z" transform="translate(-185 -77)"/><path class="cls-4" d="M479.46,182.4c-6.19-.54-13.63-2.92-18.85-8.8-10.42-11.72-27.32-11.72-37.75,0,0,23.41,16.93,42.45,37.75,42.45,20.66,0,37.52-18.82,37.72-42C497.91,179,490.57,183.33,479.46,182.4Z" transform="translate(-185 -77)"/><path class="cls-4" d="M459.64,113.15a2.37,2.37,0,1,1-2.35-2.65A2.52,2.52,0,0,1,459.64,113.15Z" transform="translate(-185 -77)"/><path class="cls-4" d="M469.29,134c0,3.53-2.55,6.35-5.67,6.35S458,137.49,458,134s2.5-6.35,5.65-6.35S469.29,130.43,469.29,134Z" transform="translate(-185 -77)"/><path class="cls-4" d="M438.13,157.61a3,3,0,1,1-2.94-3.31A3.14,3.14,0,0,1,438.13,157.61Z" transform="translate(-185 -77)"/><path class="cls-2" d="M450.2,190.81a4.45,4.45,0,1,1-4.44-5A4.71,4.71,0,0,1,450.2,190.81Z" transform="translate(-185 -77)"/><path class="cls-2" d="M469.09,204.86a1.86,1.86,0,1,1-3.68,0,1.85,1.85,0,1,1,3.68,0Z" transform="translate(-185 -77)"/><path class="cls-2" d="M481.78,196.85a3,3,0,1,1-2.95-3.32A3.12,3.12,0,0,1,481.78,196.85Z" transform="translate(-185 -77)"/></svg>