<svg id="Layer_1" data-name="Layer 1" xmlns="http://www.w3.org/2000/svg" viewBox="0 0 704 536"><defs><style>.color1{fill:#00b9c4;}</style></defs><rect class="text-wrap" x="230.94" y="6.42" width="438.11" height="102.7" style="fill:none"/><text font-size="15" x="250.94" y="16.42" dy="1" id="wrap" class="txt1"></text><path class="color1" d="M680.73,392.15c0,65.86-63.44,119.23-141.75,119.23S397.24,458,397.24,392.15,460.68,273,539,273,680.73,326.31,680.73,392.15Z" transform="translate(-187 -105)"/><path class="color1" d="M734,641,891,509c-52.93-41.68-113.78-72.08-178.29-91.45C698.35,487.29,626,540.48,539,540.48S379.63,487.29,365.27,417.56C300.75,436.94,239.92,467.34,187,509L344,641C455,557.92,623,557.91,734,641Z" transform="translate(-187 -105)"/><image preserveAspectRatio="none"  class="img1" x='300' y='230' href='sample_img.png' width='100' height='100'/><text class="lb1" x="0" y="46" font-size="40">L</text></svg>