<svg id="Layer_1" data-name="Layer 1" xmlns="http://www.w3.org/2000/svg" viewBox="0 0 729 286"><defs><style>.color1,.lbl1{fill:#fc8751;}.color2{fill:#fffbf5;}.lbl1{font-size:133.46px;font-family:BebasNeueBold, Bebas Neue;}</style></defs><polygon class="color1" points="729 142.99 636.71 11.09 636.4 44.68 237.55 44.68 237.55 241.32 636.4 241.32 636.71 274.91 729 142.99"/><rect class="text-wrap" height="150" width="300" x="310" y="80" style="fill:none"/><text id="wrap" class="txt1" y="80" x="310" font-size="20">Here is a long text that we want to wrap but SVG won't wrap it by itself.</text><ellipse class="color2" cx="156.22" cy="143" rx="134.96" ry="123.54"/><path class="color1" d="M312.22,292.93c62.69,0,113.69,46.68,113.69,104.07s-51,104.07-113.69,104.07S198.53,454.39,198.53,397s51-104.07,113.69-104.07m0-38.93C225.94,254,156,318,156,397s69.94,143,156.22,143,156.22-64,156.22-143S398.49,254,312.22,254Z" transform="translate(-156 -254)"/><text class="lbl1" transform="translate(96.91 188.23) scale(1.09 1)">04</text></svg>