<svg id="Layer_1" data-name="Layer 1" xmlns="http://www.w3.org/2000/svg" viewBox="0 0 518 604"><defs><style>@import url('https://fonts.googleapis.com/css2?family=Kiwi+Maru:wght@500&display=swap');@import url('https://fonts.googleapis.com/css2?family=Balsamiq+Sans:ital@1&family=Kiwi+Maru:wght@500&display=swap');
    .lb1{font-family:Kiwi Maru, serif; font-size: 50px;}.lb1{fill:#2c7bb6;}.txt1{font-family: Balsamiq Sans, cursive; font-size: 25px;}.color-1{fill:#59bdc9;}.cls-2,.cls-7{font-size:27.77px;font-family:FiraSans-Regular, Fira Sans;}.cls-2{fill:#fff;}.cls-3{letter-spacing:-0.02em;}.cls-4{letter-spacing:0em;}.cls-5{letter-spacing:-0.03em;}.cls-6{letter-spacing:0em;}.cls-7{fill:#5c6c76;}.cls-8{letter-spacing:-0.02em;}.cls-9{letter-spacing:-0.01em;}.color-10{letter-spacing:0em;}.color-11{letter-spacing:-0.01em;}</style></defs><rect class="color-1" y="472.16" width="28.72" height="117.03"/><path class="color-1" d="M451.52,261.83l-37.66,57.22,16.27-2.19c1-.09,109.28-14.79,183.54-33.88C711.09,257.81,767,216.1,767,168.46,767,103.66,679,51,570.67,51S374.43,103.66,374.43,168.46c0,36.69,28.63,71.19,77.09,93.37Z" transform="translate(-249 -51)"/><path class="color-1" d="M283.48,315.52C283.48,334,300.72,349,322,349s38.51-15,38.51-33.5S343.28,282,322,282s-38.53,15-38.53,33.54Zm0,0" transform="translate(-249 -51)"/><path class="color-1" d="M347.61,357.2a14.82,14.82,0,0,0-2-.85,48.09,48.09,0,0,0-14-5.37l-9.61,8.4-9.3-8.5h-.09a48.9,48.9,0,0,0-14.09,5.34,17.2,17.2,0,0,0-2.27,1c-23.41,12.49-39,22.94-47.24,62.32h62.63l1-4.84,9.27-54.05h.2l9.28,54.05,1.1,4.84h62.38c-8.22-39.39-23.83-49.83-47.25-62.32Zm0,0" transform="translate(-249 -51)"/><rect class="text-wrap" height="150" width="300" x="100" y="20" style="fill:none"/><text id="wrap" class="txt1" fill="whitesmoke" y="70" x="180" dy="1" font-size="22">Here is a long text that we want to wrap but SVG won't wrap it by itself.</text><text class="lb1" font-size="80" x="200" y="550">04</text><image class="img1" x='50' y='470' href='sample_img.png' width='120'/></svg>