<svg id="Layer_1" data-name="Layer 1" xmlns="http://www.w3.org/2000/svg" viewBox="0 0 428 525"><defs><style>.cls-1{fill:#162d3b;}.cls-2,.cls-7{font-size:24.26px;font-family:FiraSans-Regular, Fira Sans;}.cls-2{fill:#fff;}.cls-3{letter-spacing:-0.02em;}.cls-4{letter-spacing:0em;}.cls-5{letter-spacing:-0.03em;}.cls-6{letter-spacing:0em;}.cls-7{fill:#5c6c76;}.cls-8{letter-spacing:-0.02em;}.cls-9{letter-spacing:-0.01em;}.cls-10{letter-spacing:-0.02em;}.cls-11{letter-spacing:-0.01em;}</style></defs><rect class="cls-1" y="409.79" width="23.73" height="102.27"/><path class="cls-1" d="M701.75,101H415.48c-14.56,0-26.36,10.86-26.36,24.26V258.31c0,13.4,11.8,24.26,26.36,24.26h26.45v58c0,5.74,7.45,8.71,12,4.78l72.72-62.77H701.75c14.56,0,26.37-10.86,26.37-24.26v-133C728.12,111.86,716.31,101,701.75,101Z" transform="translate(-301 -101)"/><path class="cls-1" d="M330.8,329.35c0,16.17,14.24,29.27,31.83,29.27s31.83-13.1,31.83-29.27S380.2,300,362.63,300s-31.83,13.12-31.83,29.31Zm0,0" transform="translate(-301 -101)"/><path class="cls-1" d="M383.79,365.77a13.18,13.18,0,0,0-1.63-.74,38.13,38.13,0,0,0-11.6-4.69l-7.94,7.34-7.68-7.43h-.08a38.57,38.57,0,0,0-11.64,4.67,13,13,0,0,0-1.88.84c-19.34,10.91-32.24,20.05-39,54.45h51.75l.82-4.22,7.66-47.23h.17L370.37,416l.92,4.22h51.54c-6.8-34.41-19.69-43.54-39-54.45Zm0,0" transform="translate(-301 -101)"/><text class="cls-2" transform="translate(145.85 58.74) scale(1.09 1)">Donec sed orna<tspan class="cls-3" x="170.93" y="0">r</tspan><tspan x="179.74" y="0">e </tspan><tspan class="cls-4" x="0" y="38.82">l</tspan><tspan x="7.01" y="38.82">o</tspan><tspan class="cls-3" x="21.18" y="38.82">r</tspan><tspan x="29.99" y="38.82">em. </tspan><tspan class="cls-5" x="76.06" y="38.82">L</tspan><tspan x="87.54" y="38.82">o</tspan><tspan class="cls-3" x="101.71" y="38.82">r</tspan><tspan x="110.51" y="38.82">em ipsum </tspan><tspan x="0" y="77.64">do</tspan><tspan class="cls-4" x="28.48" y="77.64">l</tspan><tspan x="35.5" y="77.64">or sit ame</tspan><tspan class="cls-6" x="145.5" y="77.64">t</tspan><tspan x="154.36" y="77.64">.</tspan></text><text class="cls-7" transform="translate(63.27 427.99) scale(1.09 1)"><tspan class="cls-8">L</tspan><tspan x="11.48" y="0">o</tspan><tspan class="cls-3" x="25.65" y="0">r</tspan><tspan x="34.45" y="0">em ipsum do</tspan><tspan class="cls-9" x="176.44" y="0">l</tspan><tspan x="183.45" y="0">or sit ame</tspan><tspan class="cls-6" x="293.45" y="0">t</tspan><tspan x="302.31" y="0">, </tspan><tspan class="cls-10" x="0" y="38.82">c</tspan><tspan x="11.23" y="38.82">onsec</tspan><tspan class="cls-10" x="75.58" y="38.82">t</tspan><tspan x="83.97" y="38.82">etuer adipiscing eli</tspan><tspan class="cls-6" x="293.55" y="38.82">t</tspan><tspan x="302.41" y="38.82">, </tspan><tspan x="0" y="77.64">sed diam nonum</tspan><tspan class="cls-11" x="183.25" y="77.64">m</tspan><tspan x="203.7" y="77.64">y nibh.</tspan></text></svg>