<svg id="Layer_1" data-name="Layer 1" xmlns="http://www.w3.org/2000/svg" viewBox="0 0 839 612"><defs><style>.cls-1{fill:#f75c2a;}.cls-2{fill:#23282b;}.cls-3{fill:#fff;}.cls-4{fill:#b2b2b2;}</style></defs><path class="cls-1" d="M510.51,603.6c94.2,0,179.52,31.53,241.21,82.4L930,539C822.65,450.44,674.41,395.72,510.51,395.72S198.34,450.44,91,539L269.31,686C331,635.13,416.29,603.6,510.51,603.6Z" transform="translate(-91 -74)"/><polygon class="cls-1" points="497.36 256.05 341.66 256.05 315.68 329.41 523.31 329.41 497.36 256.05"/><polygon class="cls-1" points="150.5 298.26 15.65 362.49 37.67 436.75 217.46 351.13 150.5 298.26"/><polygon class="cls-1" points="823.43 362.49 688.55 298.26 621.58 351.13 801.39 436.74 823.43 362.49"/><rect class="cls-2" x="123.79" y="113.05" width="52.47" height="16.42"/><rect class="cls-2" x="106.47" y="132.09" width="87.12" height="5.87"/><path class="cls-2" d="M328.38,75.53A7,7,0,0,0,323.94,74H158.11a7,7,0,0,0-4.44,1.53,4.78,4.78,0,0,0-1.85,3.66v100a4.81,4.81,0,0,0,1.85,3.69,7,7,0,0,0,4.44,1.51H323.94a6.9,6.9,0,0,0,4.44-1.51,4.78,4.78,0,0,0,1.85-3.69v-100A4.75,4.75,0,0,0,328.38,75.53Z" transform="translate(-91 -74)"/><rect class="cls-3" x="72.36" y="9.51" width="155.34" height="80.62"/><rect class="cls-2" x="96.94" y="59.34" width="15.01" height="14.64"/><rect class="cls-2" x="119.74" y="37.25" width="15" height="36.74"/><rect class="cls-2" x="142.52" y="51.47" width="15" height="22.52"/><rect class="cls-2" x="165.32" y="43.8" width="15" height="30.19"/><rect class="cls-2" x="188.1" y="25.66" width="15.01" height="48.33"/><rect class="cls-4" x="401.85" width="250.9" height="15.32"/><rect class="cls-4" x="276.4" y="30.65" width="501.81" height="15.33"/><rect class="cls-4" x="276.4" y="61.32" width="501.81" height="15.33"/><rect class="cls-4" x="276.4" y="91.97" width="501.81" height="15.33"/><rect class="cls-4" x="276.4" y="122.63" width="250.91" height="15.33"/></svg>