<svg id="Layer_1" data-name="Layer 1" xmlns="http://www.w3.org/2000/svg" viewBox="0 0 167.5 178.46"><defs><style>.color1,.lb1{fill:#59bdc9;}.color2{fill:#fffbf5;}.color3,.color4{fill:#5c6c76;}.lb1{font-size:8px;font-family:BebasNeueBold, Bebas Neue;}.color4{font-size:13px;font-family:FiraSans-SemiBold, Fira Sans;font-weight:600;}</style></defs><image preserveAspectRatio="none" class="img1" x="90" y="45" href="sample_img.png" width="50" height="50"/><path class="color1" d="M467.74,294.27a30.82,30.82,0,0,1,30.83,30.83c0,26.66-30.83,52.29-30.83,52.29s-30.82-27-30.82-52.3a30.82,30.82,0,0,1,30.82-30.82Zm0,55.17a24.69,24.69,0,1,0-24.68-24.69,24.7,24.7,0,0,0,24.68,24.69Z" transform="translate(-422.85 -294.27)"/><path class="color2" d="M467.74,390.65a5.82,5.82,0,1,1,5.83-5.82A5.83,5.83,0,0,1,467.74,390.65Z" transform="translate(-422.85 -294.27)"/><path class="color3" d="M467.74,381a3.82,3.82,0,1,1-3.82,3.82,3.83,3.83,0,0,1,3.82-3.82m0-4a7.82,7.82,0,1,0,7.83,7.82,7.82,7.82,0,0,0-7.83-7.82Z" transform="translate(-422.85 -294.27)"/><text class="lb1" transform="translate(25.81 30.56)">01</text><rect class="text-wrap" height="350px" width="70" x="85" y="13" style="fill:none"/><text id="wrap" class="txt1" y="113" x="20" dy="1" font-size="6">Here is a long text that we want to wrap but SVG won't wrap it by itself.</text></svg>