<svg id="Layer_1" data-name="Layer 1" xmlns="http://www.w3.org/2000/svg" viewBox="0 0 395 57"><defs><style>.cls-1{fill:#59bdc9;}.cls-2{font-size:10px;fill:#fff;font-family:FiraSans-Regular, Fira Sans;}.cls-3{letter-spacing:-0.03em;}.cls-4{letter-spacing:-0.02em;}.cls-5{letter-spacing:0em;}.cls-6{letter-spacing:0em;}.cls-7{letter-spacing:-0.01em;}.cls-8{letter-spacing:-0.02em;}.cls-9{letter-spacing:-0.01em;}.cls-10{fill:none;stroke:#fff;stroke-linecap:round;stroke-linejoin:round;stroke-width:1.2px;}.cls-11{font-size:30px;fill:#5c6c76;font-family:BebasNeueBold, Bebas Neue;}</style></defs><polygon class="cls-1" points="278 57 0 57 0 0 278 0 285 28.5 278 57"/><text class="cls-2" transform="translate(18.04 23.55)"><tspan class="cls-3">L</tspan><tspan x="4.73" y="0">o</tspan><tspan class="cls-4" x="10.57" y="0">r</tspan><tspan x="14.2" y="0">em ipsum do</tspan><tspan class="cls-5" x="72.72" y="0">l</tspan><tspan x="75.61" y="0">or sit ame</tspan><tspan class="cls-6" x="120.95" y="0">t</tspan><tspan x="124.6" y="0">, </tspan><tspan class="cls-7" x="129.65" y="0">c</tspan><tspan x="134.28" y="0">onsec</tspan><tspan class="cls-8" x="160.8" y="0">t</tspan><tspan x="164.26" y="0">etuer adipiscing </tspan><tspan x="0" y="16">eli</tspan><tspan class="cls-6" x="11.14" y="16">t</tspan><tspan x="14.79" y="16">, sed diam nonum</tspan><tspan class="cls-9" x="95.37" y="16">m</tspan><tspan x="103.8" y="16">y nibh euismod tincidunt u</tspan><tspan class="cls-6" x="224.88" y="16">t</tspan><tspan x="228.53" y="16">.</tspan></text><polygon class="cls-1" points="395 57 343 57 336 28.5 343 0 395 0 395 57"/><path class="cls-10" d="M687.28,389.41a14.32,14.32,0,0,1,.82-5.23c1.59-3.6,4-4.31,3.74-8.68-.36-5.95-5.17-7.23-8.59-7.23s-8.23,1.28-8.59,7.23c-.26,4.37,2.15,5.08,3.74,8.68a14.32,14.32,0,0,1,.82,5.23Z" transform="translate(-314.7 -355.5)"/><path class="cls-10" d="M677.74,375.69c.07-1.19.26-4.35,5.51-4.35a8.12,8.12,0,0,1,3.07.51" transform="translate(-314.7 -355.5)"/><line class="cls-10" x1="364.52" y1="36.45" x2="372.58" y2="36.45"/><line class="cls-10" x1="364.52" y1="38.86" x2="372.58" y2="38.86"/><line class="cls-10" x1="364.52" y1="41.33" x2="372.58" y2="41.33"/><path class="cls-10" d="M685.54,396.83a2.3,2.3,0,1,1-4.59,0" transform="translate(-314.7 -355.5)"/><text class="cls-11" transform="translate(300.64 38.24)">01</text></svg>