<svg id="Layer_1" data-name="Layer 1" xmlns="http://www.w3.org/2000/svg" viewBox="0 0 163.5 262.52"><defs><style>.cls-1{fill:#b71044;}.cls-2,.cls-6{fill:none;}.cls-2{stroke:#fff;stroke-linecap:round;stroke-linejoin:round;stroke-width:1.2px;}.cls-3,.cls-7{font-size:13px;font-family:FiraSans-SemiBold, Fira Sans;font-weight:600;}.cls-3{fill:#fff;}.cls-4{letter-spacing:-0.03em;}.cls-5{letter-spacing:-0.02em;}.cls-6{stroke:#5c6c76;stroke-miterlimit:10;}.cls-7{fill:#5c6c76;}.cls-8{letter-spacing:-0.02em;}.cls-9{letter-spacing:-0.01em;}.cls-10{font-size:10px;font-family:FiraSans-Regular, Fira Sans;font-weight:400;}.cls-11{letter-spacing:-0.03em;}.cls-12{letter-spacing:-0.02em;}.cls-13{letter-spacing:0em;}.cls-14{letter-spacing:0em;}.cls-15{letter-spacing:-0.01em;}.cls-16{letter-spacing:-0.02em;}.cls-17{letter-spacing:0em;}.cls-18{letter-spacing:-0.01em;}.cls-19{letter-spacing:-0.02em;}</style></defs><path class="cls-1" d="M542.2,298.81a30,30,0,1,0-30,30A30,30,0,0,0,542.2,298.81Z" transform="translate(-430.45 -252.74)"/><circle class="cls-2" cx="81.75" cy="47.39" r="5.91"/><path class="cls-2" d="M519.75,292.49h3.58a2.7,2.7,0,0,1,2.68,2.69v11.95a2.69,2.69,0,0,1-2.68,2.68H501.07a2.69,2.69,0,0,1-2.68-2.68V295.18a2.7,2.7,0,0,1,2.68-2.69h3.59l3.16-4.68h8.76Z" transform="translate(-430.45 -252.74)"/><rect class="cls-1" x="15.5" y="217.25" width="132.5" height="29.77"/><text class="cls-3" transform="translate(43.78 236.77)"><tspan class="cls-4">L</tspan><tspan x="6.29" y="0">o</tspan><tspan class="cls-5" x="13.88" y="0">r</tspan><tspan x="18.77" y="0">em ipsum</tspan></text><rect class="cls-6" x="0.5" y="0.5" width="162.5" height="261.52"/><text class="cls-7" transform="translate(38.08 101.13)">Amet e<tspan class="cls-8" x="41.04" y="0">r</tspan><tspan x="45.86" y="0">at e</tspan><tspan class="cls-9" x="68.24" y="0">g</tspan><tspan x="75.22" y="0" xml:space="preserve">et  </tspan><tspan class="cls-10"><tspan class="cls-11" x="-19.83" y="16">L</tspan><tspan x="-15.1" y="16">o</tspan><tspan class="cls-12" x="-9.26" y="16">r</tspan><tspan x="-5.63" y="16">em ipsum do</tspan><tspan class="cls-13" x="52.89" y="16">l</tspan><tspan x="55.78" y="16">or sit ame</tspan><tspan class="cls-14" x="101.11" y="16">t</tspan><tspan x="104.76" y="16">, </tspan><tspan x="-18.55" y="32">do</tspan><tspan class="cls-13" x="-6.81" y="32">l</tspan><tspan x="-3.92" y="32">or </tspan><tspan class="cls-15" x="8.4" y="32">c</tspan><tspan x="13.03" y="32">onsec</tspan><tspan class="cls-16" x="39.55" y="32">t</tspan><tspan x="43.01" y="32">etuer adipisc</tspan><tspan x="101.85" y="32">-</tspan><tspan x="-18.89" y="48">ing eli</tspan><tspan class="cls-17" x="8.65" y="48">t</tspan><tspan x="12.3" y="48">, sed diam nonum</tspan><tspan class="cls-18" x="92.87" y="48">m</tspan><tspan x="101.3" y="48">y </tspan><tspan x="-21.74" y="64">nibh euismod sit tincidunt ut </tspan><tspan x="-18.89" y="80">do</tspan><tspan class="cls-13" x="-7.15" y="80">l</tspan><tspan x="-4.26" y="80">or sit amet </tspan><tspan class="cls-13" x="47.33" y="80">l</tspan><tspan x="50.23" y="80">o</tspan><tspan class="cls-19" x="56.06" y="80">r</tspan><tspan x="59.69" y="80">em ipsum.</tspan></tspan></text></svg>