<svg id="Layer_1" data-name="Layer 1" xmlns="http://www.w3.org/2000/svg" viewBox="0 0 854 637"><defs><style>.cls-1{fill:#a1d13b;}.cls-2{fill:#fff;}.cls-3{fill:#23282b;}.cls-4{fill:#b2b2b2;}</style></defs><path class="cls-1" d="M104,312.86H290c47.64,0,95.25,14.26,131.53,42.9S476,421.86,476,459.39V605.85H290c-47.62,0-95.07-14.3-131.54-42.92C122.23,534.36,104,496.84,104,459.39Z" transform="translate(-104 -57)"/><path class="cls-2" d="M298,424.07c13.91,0,26.17,7,31.9,15.63l24.92-9.63c-9.58-13.55-27-26.28-56.82-26.28-41.13,0-72.78,22.39-72.78,55.59,0,33,31.65,55.54,72.78,55.54,29.84,0,47.24-13.07,56.82-26.39L329.9,479c-5.73,8.69-18,15.63-31.9,15.63-25,0-42.95-15-42.95-35.25S273,424.07,298,424.07Z" transform="translate(-104 -57)"/><path class="cls-3" d="M808.38,694H958V576.13H808.38ZM876,682.31H857.55V667.77H876Zm0-26.64H857.55V641.13H876ZM876,629H857.55V614.5H876Zm49.19-41.15h18.43v14.5H925.19Zm0,26.62h18.43V629H925.19Zm0,26.63h18.43v41.18H925.19Zm-33.83-53.25h18.47v14.5H891.36Zm0,26.62h18.47V629H891.36Zm0,26.63h18.47v14.54H891.36Zm0,26.64h18.47v14.54H891.36Zm-67.61-79.89H876v14.5H823.75Zm0,26.62h18.42V629H823.75Zm0,26.63h18.42v14.54H823.75Zm0,26.64h18.42v14.54H823.75Z" transform="translate(-104 -57)"/><path class="cls-3" d="M808.38,517.68v52.48H958V517.68Zm135.24,41.16H822.74V529H943.62Z" transform="translate(-104 -57)"/><rect class="cls-4" x="344.6" width="292.5" height="19.61"/><rect class="cls-4" x="186.02" y="39.18" width="609.67" height="19.61"/><rect class="cls-4" x="186.02" y="78.37" width="609.67" height="19.61"/><rect class="cls-4" x="186.02" y="117.53" width="609.67" height="19.6"/><rect class="cls-4" x="186.02" y="156.73" width="304.84" height="19.59"/></svg>