<svg id="Layer_1" data-name="Layer 1" xmlns="http://www.w3.org/2000/svg" viewBox="0 0 520 607"><defs><style>.cls-1{fill:#00b9c4;}.cls-2{fill:#fff;}.cls-3{fill:#23282b;}.cls-4{fill:#b2b2b2;}</style></defs><path class="cls-1" d="M635.67,255.89c0,111.46-97.55,201.86-217.84,201.86S200,367.35,200,255.89,297.53,54,417.83,54,635.67,144.38,635.67,255.89Z" transform="translate(-200 -54)"/><path class="cls-1" d="M417.83,457.53V255.89H200v403.5C200,547.92,297.53,457.53,417.83,457.53Z" transform="translate(-200 -54)"/><path class="cls-2" d="M417.83,357.66C357.26,357.66,308,312,308,255.89S357.26,154.1,417.83,154.1s109.83,45.66,109.83,101.79S478.39,357.66,417.83,357.66Zm0-191.08c-53.12,0-96.34,40-96.34,89.31s43.22,89.28,96.34,89.28,96.34-40.07,96.34-89.28S471,166.58,417.83,166.58Z" transform="translate(-200 -54)"/><path class="cls-2" d="M417.83,357.66c-32.66,0-58.29-44.74-58.29-101.77S385.17,154.1,417.83,154.1v12.48c-24.28,0-44.8,40.89-44.8,89.31s20.52,89.28,44.8,89.28Z" transform="translate(-200 -54)"/><path class="cls-2" d="M417.83,357.66V345.17c24.27,0,44.8-40.91,44.8-89.28s-20.53-89.31-44.8-89.31V154.1c32.71,0,58.29,44.7,58.29,101.79S450.54,357.66,417.83,357.66Z" transform="translate(-200 -54)"/><rect class="cls-2" x="211.09" y="106.35" width="13.48" height="191.07"/><rect class="cls-2" x="114.73" y="195.63" width="206.19" height="12.5"/><path class="cls-2" d="M417.83,214.35a282.12,282.12,0,0,1-82.56-12.21l4.23-11.86a272.47,272.47,0,0,0,156.73,0l4.18,11.86A281.76,281.76,0,0,1,417.83,214.35Z" transform="translate(-200 -54)"/><path class="cls-2" d="M339.5,321.47l-4.23-11.88a286.81,286.81,0,0,1,165.14,0l-4.18,11.88A272,272,0,0,0,339.5,321.47Z" transform="translate(-200 -54)"/><path class="cls-3" d="M355.4,582.47A27.36,27.36,0,0,1,378.83,596l18.33-8.36c-7.06-11.69-19.82-22.68-41.76-22.68-30.22,0-53.49,19.35-53.49,48s23.27,48,53.49,48c21.94,0,34.7-11.29,41.76-22.84L378.83,630a27.34,27.34,0,0,1-23.43,13.49c-18.33,0-31.57-12.94-31.57-30.47S337.07,582.47,355.4,582.47Z" transform="translate(-200 -54)"/><rect class="cls-4" x="294.57" y="512.52" width="150.28" height="10.32"/><rect class="cls-4" x="219.43" y="533.16" width="300.57" height="10.32"/><rect class="cls-4" x="219.43" y="553.8" width="300.57" height="10.32"/><rect class="cls-4" x="219.43" y="574.43" width="300.57" height="10.33"/><rect class="cls-4" x="219.43" y="595.08" width="150.28" height="10.31"/></svg>