<svg id="svg" height="960" width="1280" xmlns="http://www.w3.org/2000/svg"><image x="0" y="0" height="960" width="1280" preserveAspectRatio="none" href="images/background3.jpg"></image><svg width="350" height="350" id="vg0" x="22.358341217041016" y="385.01874923706055"><svg id="Layer_1" data-name="Layer 1" xmlns="http://www.w3.org/2000/svg" viewBox="0 0 573 479"><defs><style>
      @import url('https://fonts.googleapis.com/css2?family=Kiwi+Maru:wght@500&amp;display=swap');@import url('https://fonts.googleapis.com/css2?family=Balsamiq+Sans:ital@1&amp;family=Kiwi+Maru:wght@500&amp;display=swap');
    .lb1{font-family:Kiwi Maru, serif; font-size: 50px;}.lb1{fill:#2c7bb6;}.txt1{font-family: Balsamiq Sans, cursive; font-size: 24px;}.color-1{fill:#a1d1dd;}.color-2{fill:#e6e6e6;}.color-10{fill:#d7191c;}</style></defs><path class="color-10" d="M571.83,256H387.42C340.22,256,293,269.84,257,297.51s-54,63.93-54,100.19V539.4H387.42c47.19,0,94.39-13.84,130.4-41.5s54-63.94,54-100.2Z" transform="translate(-203 -117)"></path><path class="color-2" d="M493.52,548.84l43.4,33.35C548,590.72,563.37,596,580.32,596s32.29-5.28,43.4-13.81l43.4-33.35-43.4-33.35c-11.11-8.53-26.45-13.81-43.4-13.81S548,507,536.92,515.49Z" transform="translate(-203 -117)"></path><rect class="text-wrap" height="150" width="120" x="250px" y="50px" style="fill:none"></rect><text id="wrap" class="txt1" x="430" y="50" dy="1"><tspan x="430" y="50" dy="1em">The</tspan><tspan x="430" y="50" dy="2.1em">United</tspan><tspan x="430" y="50" dy="3.2em">States</tspan><tspan x="430" y="50" dy="4.300000000000001em">has</tspan><tspan x="430" y="50" dy="5.4em">maintained</tspan><tspan x="430" y="50" dy="6.5em">its</tspan><tspan x="430" y="50" dy="7.6000000000000005em">position of</tspan><tspan x="430" y="50" dy="8.700000000000001em">being the</tspan><tspan x="430" y="50" dy="9.8em">world’s</tspan><tspan x="430" y="50" dy="10.9em">largest</tspan><tspan x="430" y="50" dy="12em">economy</tspan><tspan x="430" y="50" dy="13.100000000000001em">since</tspan><tspan x="430" y="50" dy="14.200000000000001em">1871.</tspan></text><image class="img1" x="90" y="200" href="images/usa.svg" width="180"></image><text class="lb1" x="140" y="80">USA</text></svg></svg><svg width="350" height="350" id="vg1" x="238.8916778564453" y="225.81875801086426"><svg id="Layer_1" data-name="Layer 1" xmlns="http://www.w3.org/2000/svg" viewBox="0 0 573 479"><defs><style>
      @import url('https://fonts.googleapis.com/css2?family=Kiwi+Maru:wght@500&amp;display=swap');@import url('https://fonts.googleapis.com/css2?family=Balsamiq+Sans:ital@1&amp;family=Kiwi+Maru:wght@500&amp;display=swap');
    .lb1{font-family:Kiwi Maru, serif; font-size: 50px;}.lb1{fill:#2c7bb6;}.txt1{font-family: Balsamiq Sans, cursive; font-size: 24px;}.color-1{fill:#a1d1dd;}.color-2{fill:#e6e6e6;}.color-11{fill:#fdae61;}</style></defs><path class="color-11" d="M571.83,256H387.42C340.22,256,293,269.84,257,297.51s-54,63.93-54,100.19V539.4H387.42c47.19,0,94.39-13.84,130.4-41.5s54-63.94,54-100.2Z" transform="translate(-203 -117)"></path><path class="color-2" d="M493.52,548.84l43.4,33.35C548,590.72,563.37,596,580.32,596s32.29-5.28,43.4-13.81l43.4-33.35-43.4-33.35c-11.11-8.53-26.45-13.81-43.4-13.81S548,507,536.92,515.49Z" transform="translate(-203 -117)"></path><rect class="text-wrap" height="150" width="120" x="250px" y="50px" style="fill:none"></rect><text id="wrap" class="txt1" x="430" y="50" dy="1"><tspan x="430" y="50" dy="1em">In China,</tspan><tspan x="430" y="50" dy="2.1em">the</tspan><tspan x="430" y="50" dy="3.2em">dragons</tspan><tspan x="430" y="50" dy="4.300000000000001em">are</tspan><tspan x="430" y="50" dy="5.4em">associated</tspan><tspan x="430" y="50" dy="6.5em">with</tspan><tspan x="430" y="50" dy="7.6000000000000005em">wealth,</tspan><tspan x="430" y="50" dy="8.700000000000001em">power, and</tspan><tspan x="430" y="50" dy="9.8em">leadership</tspan></text><image class="img1" x="90" y="200" href="images/china.svg" width="180"></image><text class="lb1" x="140" y="80">CHINA</text></svg></svg><svg width="350" height="350" id="vg2" x="462.8916549682617" y="390.6187438964844"><svg id="Layer_1" data-name="Layer 1" xmlns="http://www.w3.org/2000/svg" viewBox="0 0 573 479"><defs><style>
      @import url('https://fonts.googleapis.com/css2?family=Kiwi+Maru:wght@500&amp;display=swap');@import url('https://fonts.googleapis.com/css2?family=Balsamiq+Sans:ital@1&amp;family=Kiwi+Maru:wght@500&amp;display=swap');
    .lb1{font-family:Kiwi Maru, serif; font-size: 50px;}.lb1{fill:#2c7bb6;}.txt1{font-family: Balsamiq Sans, cursive; font-size: 24px;}.color-1{fill:#a1d1dd;}.color-2{fill:#e6e6e6;}.color-12{fill:#ffffbf;}</style></defs><path class="color-12" d="M571.83,256H387.42C340.22,256,293,269.84,257,297.51s-54,63.93-54,100.19V539.4H387.42c47.19,0,94.39-13.84,130.4-41.5s54-63.94,54-100.2Z" transform="translate(-203 -117)"></path><path class="color-2" d="M493.52,548.84l43.4,33.35C548,590.72,563.37,596,580.32,596s32.29-5.28,43.4-13.81l43.4-33.35-43.4-33.35c-11.11-8.53-26.45-13.81-43.4-13.81S548,507,536.92,515.49Z" transform="translate(-203 -117)"></path><rect class="text-wrap" height="150" width="120" x="250px" y="50px" style="fill:none"></rect><text id="wrap" class="txt1" x="430" y="50" dy="1"><tspan x="430" y="50" dy="1em">It’s</tspan><tspan x="430" y="50" dy="2.1em">estimated</tspan><tspan x="430" y="50" dy="3.2em">that</tspan><tspan x="430" y="50" dy="4.300000000000001em">between</tspan><tspan x="430" y="50" dy="5.4em">15% and</tspan><tspan x="430" y="50" dy="6.5em">30% of</tspan><tspan x="430" y="50" dy="7.6000000000000005em">India’s</tspan><tspan x="430" y="50" dy="8.700000000000001em">population</tspan><tspan x="430" y="50" dy="9.8em">follow a</tspan><tspan x="430" y="50" dy="10.9em">strict</tspan><tspan x="430" y="50" dy="12em">vegetarian</tspan><tspan x="430" y="50" dy="13.100000000000001em">diet.</tspan></text><image class="img1" x="90" y="200" href="images/india.svg" width="180"></image><text class="lb1" x="140" y="80">INDIA</text></svg></svg><svg width="350" height="350" id="vg3" x="686.8916320800781" y="228.2187557220459"><svg id="Layer_1" data-name="Layer 1" xmlns="http://www.w3.org/2000/svg" viewBox="0 0 573 479"><defs><style>
      @import url('https://fonts.googleapis.com/css2?family=Kiwi+Maru:wght@500&amp;display=swap');@import url('https://fonts.googleapis.com/css2?family=Balsamiq+Sans:ital@1&amp;family=Kiwi+Maru:wght@500&amp;display=swap');
    .lb1{font-family:Kiwi Maru, serif; font-size: 50px;}.lb1{fill:#2c7bb6;}.txt1{font-family: Balsamiq Sans, cursive; font-size: 24px;}.color-1{fill:#a1d1dd;}.color-2{fill:#e6e6e6;}.color-13{fill:#abdda4;}</style></defs><path class="color-13" d="M571.83,256H387.42C340.22,256,293,269.84,257,297.51s-54,63.93-54,100.19V539.4H387.42c47.19,0,94.39-13.84,130.4-41.5s54-63.94,54-100.2Z" transform="translate(-203 -117)"></path><path class="color-2" d="M493.52,548.84l43.4,33.35C548,590.72,563.37,596,580.32,596s32.29-5.28,43.4-13.81l43.4-33.35-43.4-33.35c-11.11-8.53-26.45-13.81-43.4-13.81S548,507,536.92,515.49Z" transform="translate(-203 -117)"></path><rect class="text-wrap" height="150" width="120" x="250px" y="50px" style="fill:none"></rect><text id="wrap" class="txt1" x="430" y="50" dy="1"><tspan x="430" y="50" dy="1em">Russia is</tspan><tspan x="430" y="50" dy="2.1em">60%</tspan><tspan x="430" y="50" dy="3.2em">forest.</tspan><tspan x="430" y="50" dy="4.300000000000001em">What’s</tspan><tspan x="430" y="50" dy="5.4em">more</tspan><tspan x="430" y="50" dy="6.5em">interesting,</tspan><tspan x="430" y="50" dy="7.6000000000000005em">half of</tspan><tspan x="430" y="50" dy="8.700000000000001em">that</tspan><tspan x="430" y="50" dy="9.8em">forest is</tspan><tspan x="430" y="50" dy="10.9em">totally</tspan><tspan x="430" y="50" dy="12em">uninhabited</tspan><tspan x="430" y="50" dy="13.100000000000001em">by</tspan><tspan x="430" y="50" dy="14.200000000000001em">humans.</tspan></text><image class="img1" x="90" y="200" href="images/russia.svg" width="180"></image><text class="lb1" x="140" y="80">RUSSIA</text></svg></svg><svg width="350" height="350" id="vg4" x="904.4916534423828" y="381.81875228881836"><svg id="Layer_1" data-name="Layer 1" xmlns="http://www.w3.org/2000/svg" viewBox="0 0 573 479"><defs><style>
      @import url('https://fonts.googleapis.com/css2?family=Kiwi+Maru:wght@500&amp;display=swap');@import url('https://fonts.googleapis.com/css2?family=Balsamiq+Sans:ital@1&amp;family=Kiwi+Maru:wght@500&amp;display=swap');
    .lb1{font-family:Kiwi Maru, serif; font-size: 50px;}.lb1{fill:#2c7bb6;}.txt1{font-family: Balsamiq Sans, cursive; font-size: 24px;}.color-1{fill:#a1d1dd;}.color-2{fill:#e6e6e6;}.color-14{fill:#2b83ba;}</style></defs><path class="color-14" d="M571.83,256H387.42C340.22,256,293,269.84,257,297.51s-54,63.93-54,100.19V539.4H387.42c47.19,0,94.39-13.84,130.4-41.5s54-63.94,54-100.2Z" transform="translate(-203 -117)"></path><path class="color-2" d="M493.52,548.84l43.4,33.35C548,590.72,563.37,596,580.32,596s32.29-5.28,43.4-13.81l43.4-33.35-43.4-33.35c-11.11-8.53-26.45-13.81-43.4-13.81S548,507,536.92,515.49Z" transform="translate(-203 -117)"></path><rect class="text-wrap" height="150" width="120" x="250px" y="50px" style="fill:none"></rect><text id="wrap" class="txt1" x="430" y="50" dy="1"><tspan x="430" y="50" dy="1em">Brazil has</tspan><tspan x="430" y="50" dy="2.1em">won more</tspan><tspan x="430" y="50" dy="3.2em">football</tspan><tspan x="430" y="50" dy="4.300000000000001em">world cups</tspan><tspan x="430" y="50" dy="5.4em">than any</tspan><tspan x="430" y="50" dy="6.5em">other</tspan><tspan x="430" y="50" dy="7.6000000000000005em">country,</tspan><tspan x="430" y="50" dy="8.700000000000001em">with Pele</tspan><tspan x="430" y="50" dy="9.8em">being the</tspan><tspan x="430" y="50" dy="10.9em">top</tspan><tspan x="430" y="50" dy="12em">scorer.</tspan></text><image class="img1" x="90" y="200" href="images/brazil.svg" width="180"></image><text class="lb1" x="140" y="80">BRAZIL</text></svg></svg><g><image href="connections/glasses.svg" width="100" x="255.62500953674316" y="430.4187536239624" transform="rotate(143.67587015238706,305.62500953674316,480.4187536239624)"></image></g><g><image href="connections/glasses.svg" width="100" x="475.8916664123535" y="433.2187509536743" transform="rotate(216.3424489750298,525.8916664123535,483.2187509536743)"></image></g><g><image href="connections/glasses.svg" width="100" x="699.8916435241699" y="434.41874980926514" transform="rotate(144.05788732915727,749.8916435241699,484.41874980926514)"></image></g><g><image href="connections/glasses.svg" width="100" x="920.6916427612305" y="430.01875400543213" transform="rotate(215.21758971478295,970.6916427612305,480.01875400543213)"></image></g><g><image href="connections/glasses.svg" width="100" x="588.4249973297119" y="508.41875076293945" transform="rotate(359.79215668105724,638.4249973297119,558.4187507629395)"></image></g></svg>