<svg id="svg" height="960" width="1280" xmlns="http://www.w3.org/2000/svg"><image x="0" y="0" height="960" width="1280" preserveAspectRatio="none" href="images/background3.jpg"></image><svg width="350" height="350" id="vg0" x="891.6666666666667" y="113.51842420609233"><svg id="Layer_1" data-name="Layer 1" xmlns="http://www.w3.org/2000/svg" viewBox="0 0 573 479"><defs><style>
      @import url('https://fonts.googleapis.com/css2?family=Kiwi+Maru:wght@500&amp;display=swap');@import url('https://fonts.googleapis.com/css2?family=Balsamiq+Sans:ital@1&amp;family=Kiwi+Maru:wght@500&amp;display=swap');
    .lb1{font-family:Kiwi Maru, serif; font-size: 50px;}.lb1{fill:#2c7bb6;}.txt1{font-family: Balsamiq Sans, cursive; font-size: 24px;}.color-1{fill:#a1d1dd;}.color-2{fill:#e6e6e6;}.color-10{fill:#d7191c;}</style></defs><path class="color-10" d="M571.83,256H387.42C340.22,256,293,269.84,257,297.51s-54,63.93-54,100.19V539.4H387.42c47.19,0,94.39-13.84,130.4-41.5s54-63.94,54-100.2Z" transform="translate(-203 -117)"></path><path class="color-2" d="M493.52,548.84l43.4,33.35C548,590.72,563.37,596,580.32,596s32.29-5.28,43.4-13.81l43.4-33.35-43.4-33.35c-11.11-8.53-26.45-13.81-43.4-13.81S548,507,536.92,515.49Z" transform="translate(-203 -117)"></path><rect class="text-wrap" height="150" width="120" x="250px" y="50px" style="fill:none"></rect><text id="wrap" class="txt1" x="430" y="50" dy="1"><tspan x="430" y="50" dy="1em">The</tspan><tspan x="430" y="50" dy="2.1em">United</tspan><tspan x="430" y="50" dy="3.2em">States</tspan><tspan x="430" y="50" dy="4.300000000000001em">has</tspan><tspan x="430" y="50" dy="5.4em">maintained</tspan><tspan x="430" y="50" dy="6.5em">its</tspan><tspan x="430" y="50" dy="7.6000000000000005em">position of</tspan><tspan x="430" y="50" dy="8.700000000000001em">being the</tspan><tspan x="430" y="50" dy="9.8em">world’s</tspan><tspan x="430" y="50" dy="10.9em">largest</tspan><tspan x="430" y="50" dy="12em">economy</tspan><tspan x="430" y="50" dy="13.100000000000001em">since</tspan><tspan x="430" y="50" dy="14.200000000000001em">1871.</tspan></text><image class="img1" x="90" y="200" href="images/usa.svg" width="180"></image><text class="lb1" x="140" y="80">USA</text></svg></svg><svg width="350" height="350" id="vg1" x="612.2" y="618.425666566754"><svg id="Layer_1" data-name="Layer 1" xmlns="http://www.w3.org/2000/svg" viewBox="0 0 573 479"><defs><style>
      @import url('https://fonts.googleapis.com/css2?family=Kiwi+Maru:wght@500&amp;display=swap');@import url('https://fonts.googleapis.com/css2?family=Balsamiq+Sans:ital@1&amp;family=Kiwi+Maru:wght@500&amp;display=swap');
    .lb1{font-family:Kiwi Maru, serif; font-size: 50px;}.lb1{fill:#2c7bb6;}.txt1{font-family: Balsamiq Sans, cursive; font-size: 24px;}.color-1{fill:#a1d1dd;}.color-2{fill:#e6e6e6;}.color-11{fill:#fdae61;}</style></defs><path class="color-11" d="M571.83,256H387.42C340.22,256,293,269.84,257,297.51s-54,63.93-54,100.19V539.4H387.42c47.19,0,94.39-13.84,130.4-41.5s54-63.94,54-100.2Z" transform="translate(-203 -117)"></path><path class="color-2" d="M493.52,548.84l43.4,33.35C548,590.72,563.37,596,580.32,596s32.29-5.28,43.4-13.81l43.4-33.35-43.4-33.35c-11.11-8.53-26.45-13.81-43.4-13.81S548,507,536.92,515.49Z" transform="translate(-203 -117)"></path><rect class="text-wrap" height="150" width="120" x="250px" y="50px" style="fill:none"></rect><text id="wrap" class="txt1" x="430" y="50" dy="1"><tspan x="430" y="50" dy="1em">In China,</tspan><tspan x="430" y="50" dy="2.1em">the</tspan><tspan x="430" y="50" dy="3.2em">dragons</tspan><tspan x="430" y="50" dy="4.300000000000001em">are</tspan><tspan x="430" y="50" dy="5.4em">associated</tspan><tspan x="430" y="50" dy="6.5em">with</tspan><tspan x="430" y="50" dy="7.6000000000000005em">wealth,</tspan><tspan x="430" y="50" dy="8.700000000000001em">power, and</tspan><tspan x="430" y="50" dy="9.8em">leadership</tspan></text><image class="img1" x="90" y="200" href="images/china.svg" width="180"></image><text class="lb1" x="140" y="80">CHINA</text></svg></svg><svg width="350" height="350" id="vg2" x="324.20000000000005" y="115.52202437419021"><svg id="Layer_1" data-name="Layer 1" xmlns="http://www.w3.org/2000/svg" viewBox="0 0 573 479"><defs><style>
      @import url('https://fonts.googleapis.com/css2?family=Kiwi+Maru:wght@500&amp;display=swap');@import url('https://fonts.googleapis.com/css2?family=Balsamiq+Sans:ital@1&amp;family=Kiwi+Maru:wght@500&amp;display=swap');
    .lb1{font-family:Kiwi Maru, serif; font-size: 50px;}.lb1{fill:#2c7bb6;}.txt1{font-family: Balsamiq Sans, cursive; font-size: 24px;}.color-1{fill:#a1d1dd;}.color-2{fill:#e6e6e6;}.color-12{fill:#abdda4;}</style></defs><path class="color-12" d="M571.83,256H387.42C340.22,256,293,269.84,257,297.51s-54,63.93-54,100.19V539.4H387.42c47.19,0,94.39-13.84,130.4-41.5s54-63.94,54-100.2Z" transform="translate(-203 -117)"></path><path class="color-2" d="M493.52,548.84l43.4,33.35C548,590.72,563.37,596,580.32,596s32.29-5.28,43.4-13.81l43.4-33.35-43.4-33.35c-11.11-8.53-26.45-13.81-43.4-13.81S548,507,536.92,515.49Z" transform="translate(-203 -117)"></path><rect class="text-wrap" height="150" width="120" x="250px" y="50px" style="fill:none"></rect><text id="wrap" class="txt1" x="430" y="50" dy="1"><tspan x="430" y="50" dy="1em">It’s</tspan><tspan x="430" y="50" dy="2.1em">estimated</tspan><tspan x="430" y="50" dy="3.2em">that</tspan><tspan x="430" y="50" dy="4.300000000000001em">between</tspan><tspan x="430" y="50" dy="5.4em">15% and</tspan><tspan x="430" y="50" dy="6.5em">30% of</tspan><tspan x="430" y="50" dy="7.6000000000000005em">India’s</tspan><tspan x="430" y="50" dy="8.700000000000001em">population</tspan><tspan x="430" y="50" dy="9.8em">follow a</tspan><tspan x="430" y="50" dy="10.9em">strict</tspan><tspan x="430" y="50" dy="12em">vegetarian</tspan><tspan x="430" y="50" dy="13.100000000000001em">diet.</tspan></text><image class="img1" x="90" y="200" href="images/india.svg" width="180"></image><text class="lb1" x="140" y="80">INDIA</text></svg></svg><svg width="350" height="350" id="vg3" x="40.46666666666667" y="616.4220663986562"><svg id="Layer_1" data-name="Layer 1" xmlns="http://www.w3.org/2000/svg" viewBox="0 0 573 479"><defs><style>
      @import url('https://fonts.googleapis.com/css2?family=Kiwi+Maru:wght@500&amp;display=swap');@import url('https://fonts.googleapis.com/css2?family=Balsamiq+Sans:ital@1&amp;family=Kiwi+Maru:wght@500&amp;display=swap');
    .lb1{font-family:Kiwi Maru, serif; font-size: 50px;}.lb1{fill:#2c7bb6;}.txt1{font-family: Balsamiq Sans, cursive; font-size: 24px;}.color-1{fill:#a1d1dd;}.color-2{fill:#e6e6e6;}.color-13{fill:#2b83ba;}</style></defs><path class="color-13" d="M571.83,256H387.42C340.22,256,293,269.84,257,297.51s-54,63.93-54,100.19V539.4H387.42c47.19,0,94.39-13.84,130.4-41.5s54-63.94,54-100.2Z" transform="translate(-203 -117)"></path><path class="color-2" d="M493.52,548.84l43.4,33.35C548,590.72,563.37,596,580.32,596s32.29-5.28,43.4-13.81l43.4-33.35-43.4-33.35c-11.11-8.53-26.45-13.81-43.4-13.81S548,507,536.92,515.49Z" transform="translate(-203 -117)"></path><rect class="text-wrap" height="150" width="120" x="250px" y="50px" style="fill:none"></rect><text id="wrap" class="txt1" x="430" y="50" dy="1"><tspan x="430" y="50" dy="1em">Russia is</tspan><tspan x="430" y="50" dy="2.1em">60%</tspan><tspan x="430" y="50" dy="3.2em">forest.</tspan><tspan x="430" y="50" dy="4.300000000000001em">What’s</tspan><tspan x="430" y="50" dy="5.4em">more</tspan><tspan x="430" y="50" dy="6.5em">interesting,</tspan><tspan x="430" y="50" dy="7.6000000000000005em">half of</tspan><tspan x="430" y="50" dy="8.700000000000001em">that</tspan><tspan x="430" y="50" dy="9.8em">forest is</tspan><tspan x="430" y="50" dy="10.9em">totally</tspan><tspan x="430" y="50" dy="12em">uninhabited</tspan><tspan x="430" y="50" dy="13.100000000000001em">by</tspan><tspan x="430" y="50" dy="14.200000000000001em">humans.</tspan></text><image class="img1" x="90" y="200" href="images/russia.svg" width="180"></image><text class="lb1" x="140" y="80">RUSSIA</text></svg></svg><g><image href="connections/glasses.svg" width="100" x="876.9333333333334" y="490.97204538642313" transform="rotate(298.96457208251,926.9333333333334,540.9720453864231)"></image></g><g><image href="connections/glasses.svg" width="100" x="593.2" y="491.97384547047204" transform="rotate(60.201341065503655,643.2,541.973845470472)"></image></g><g><image href="connections/glasses.svg" width="100" x="307.33333333333337" y="490.97204538642313" transform="rotate(299.52925517917095,357.33333333333337,540.9720453864231)"></image></g><g><image href="connections/glasses.svg" width="100" x="591.0666666666667" y="489.9702453023742" transform="rotate(149.42467357156104,641.0666666666667,539.9702453023742)"></image></g><image x="540" y="550" href="images/pivot.png"></image></svg>