<svg id="svg" height="960" width="1280" xmlns="http://www.w3.org/2000/svg"><image x="0" y="0" height="960" width="1280" preserveAspectRatio="none" href="images/background3.jpg"></image><svg width="350" height="350" id="vg0" x="946.0666666666666" y="317.79999999999995"><svg id="Layer_1" data-name="Layer 1" xmlns="http://www.w3.org/2000/svg" viewBox="0 0 336.11 28.81"><defs><style>@import url('https://fonts.googleapis.com/css2?family=Kiwi+Maru:wght@500&amp;display=swap');@import url('https://fonts.googleapis.com/css2?family=Balsamiq+Sans:ital@1&amp;family=Kiwi+Maru:wght@500&amp;display=swap');
    .lb1{font-family:Kiwi Maru, serif; font-size: 30px;}.lb1{fill:#2c7bb6;}.txt1{font-family: Balsamiq Sans, cursive; font-size: 22px;}.color-1{fill:#fc8751;}.lb1{fill:#5c6c76;}.color-10{fill:#d01c8b;}</style></defs><polygon class="color-10" points="283.88 24.71 33.69 24.71 38.69 13.21 33.69 1.71 283.88 1.71 288.88 13.21 283.88 24.71"></polygon><rect class="text-wrap" height="50px" width="243" x="43" y="01" style="fill:none"></rect><text id="wrap" dy="1" class="txt1" y="01" x="43" font-size="10"><tspan x="43" y="01" dy="1em">The United States has</tspan><tspan x="43" y="01" dy="2.1em">maintained its position</tspan><tspan x="43" y="01" dy="3.2em">of being the world’s</tspan><tspan x="43" y="01" dy="4.300000000000001em">largest economy since</tspan><tspan x="43" y="01" dy="5.4em">1871.</tspan></text><text class="lb1" transform="translate(0 23.8) rotate(270 50 23.8)">USA</text></svg>
</svg><svg width="350" height="350" id="vg1" x="433" y="-31"><svg id="Layer_1" data-name="Layer 1" xmlns="http://www.w3.org/2000/svg" viewBox="0 0 336.11 28.81"><defs><style>@import url('https://fonts.googleapis.com/css2?family=Kiwi+Maru:wght@500&amp;display=swap');@import url('https://fonts.googleapis.com/css2?family=Balsamiq+Sans:ital@1&amp;family=Kiwi+Maru:wght@500&amp;display=swap');
    .lb1{font-family:Kiwi Maru, serif; font-size: 30px;}.lb1{fill:#2c7bb6;}.txt1{font-family: Balsamiq Sans, cursive; font-size: 22px;}.color-1{fill:#fc8751;}.lb1{fill:#5c6c76;}.color-11{fill:#f1b6da;}</style></defs><polygon class="color-11" points="283.88 24.71 33.69 24.71 38.69 13.21 33.69 1.71 283.88 1.71 288.88 13.21 283.88 24.71"></polygon><rect class="text-wrap" height="50px" width="243" x="43" y="01" style="fill:none"></rect><text id="wrap" dy="1" class="txt1" y="01" x="43" font-size="10"><tspan x="43" y="01" dy="1em">In China, the dragons</tspan><tspan x="43" y="01" dy="2.1em">are associated with</tspan><tspan x="43" y="01" dy="3.2em">wealth, power, and</tspan><tspan x="43" y="01" dy="4.300000000000001em">leadership</tspan></text><text class="lb1" transform="translate(0 23.8) rotate(270 50 23.8)">CHINA</text></svg>
</svg><svg width="350" height="350" id="vg2" x="475.66666666666663" y="545"><svg id="Layer_1" data-name="Layer 1" xmlns="http://www.w3.org/2000/svg" viewBox="0 0 336.11 28.81"><defs><style>@import url('https://fonts.googleapis.com/css2?family=Kiwi+Maru:wght@500&amp;display=swap');@import url('https://fonts.googleapis.com/css2?family=Balsamiq+Sans:ital@1&amp;family=Kiwi+Maru:wght@500&amp;display=swap');
    .lb1{font-family:Kiwi Maru, serif; font-size: 30px;}.lb1{fill:#2c7bb6;}.txt1{font-family: Balsamiq Sans, cursive; font-size: 22px;}.color-1{fill:#fc8751;}.lb1{fill:#5c6c76;}.color-12{fill:#b8e186;}</style></defs><polygon class="color-12" points="283.88 24.71 33.69 24.71 38.69 13.21 33.69 1.71 283.88 1.71 288.88 13.21 283.88 24.71"></polygon><rect class="text-wrap" height="50px" width="243" x="43" y="01" style="fill:none"></rect><text id="wrap" dy="1" class="txt1" y="01" x="43" font-size="10"><tspan x="43" y="01" dy="1em">It’s estimated that</tspan><tspan x="43" y="01" dy="2.1em">between 15% and 30%</tspan><tspan x="43" y="01" dy="3.2em">of India’s population</tspan><tspan x="43" y="01" dy="4.300000000000001em">follow a strict vegetarian</tspan><tspan x="43" y="01" dy="5.4em">diet.</tspan></text><text class="lb1" transform="translate(0 23.8) rotate(270 50 23.8)">INDIA</text></svg>
</svg><svg width="350" height="350" id="vg3" x="-21.400000000000006" y="257"><svg id="Layer_1" data-name="Layer 1" xmlns="http://www.w3.org/2000/svg" viewBox="0 0 336.11 28.81"><defs><style>@import url('https://fonts.googleapis.com/css2?family=Kiwi+Maru:wght@500&amp;display=swap');@import url('https://fonts.googleapis.com/css2?family=Balsamiq+Sans:ital@1&amp;family=Kiwi+Maru:wght@500&amp;display=swap');
    .lb1{font-family:Kiwi Maru, serif; font-size: 30px;}.lb1{fill:#2c7bb6;}.txt1{font-family: Balsamiq Sans, cursive; font-size: 22px;}.color-1{fill:#fc8751;}.lb1{fill:#5c6c76;}.color-13{fill:#4dac26;}</style></defs><polygon class="color-13" points="283.88 24.71 33.69 24.71 38.69 13.21 33.69 1.71 283.88 1.71 288.88 13.21 283.88 24.71"></polygon><rect class="text-wrap" height="50px" width="243" x="43" y="01" style="fill:none"></rect><text id="wrap" dy="1" class="txt1" y="01" x="43" font-size="10"><tspan x="43" y="01" dy="1em">Russia is 60% forest.</tspan><tspan x="43" y="01" dy="2.1em">What’s more interesting,</tspan><tspan x="43" y="01" dy="3.2em">half of that forest is</tspan><tspan x="43" y="01" dy="4.300000000000001em">totally uninhabited by</tspan><tspan x="43" y="01" dy="5.4em">humans.</tspan></text><text class="lb1" transform="translate(0 23.8) rotate(270 50 23.8)">RUSSIA</text></svg>
</svg></svg>