<svg id="svg" height="960" width="1280" xmlns="http://www.w3.org/2000/svg"><image x="0" y="0" height="960" width="1280" preserveAspectRatio="none" href="images/background3.jpg"></image><svg width="350" height="350" id="vg0" x="213.26666666666665" y="-50.19999999999999"><svg id="Layer_1" data-name="Layer 1" xmlns="http://www.w3.org/2000/svg" viewBox="0 0 704 536"><defs><style>@import url('https://fonts.googleapis.com/css2?family=Kiwi+Maru:wght@500&amp;display=swap');@import url('https://fonts.googleapis.com/css2?family=Balsamiq+Sans:ital@1&amp;family=Kiwi+Maru:wght@500&amp;display=swap');
    .lb1{font-family:Kiwi Maru, serif; font-size: 50px;}.lb1{fill:#2c7bb6;}.txt1{font-family: Balsamiq Sans, cursive; font-size: 32px;}.color-1{fill:#00b9c4;}.color-10{fill:#d7191c;}</style></defs><rect class="text-wrap" x="230.94" y="6.42" width="438.11" height="102.7" style="fill:none"></rect><text font-size="15" x="250.94" y="0" dy="1" id="wrap" class="txt1"><tspan x="250.94" y="0" dy="1em">The United States has</tspan><tspan x="250.94" y="0" dy="2.1em">maintained its position of</tspan><tspan x="250.94" y="0" dy="3.2em">being the world’s largest</tspan><tspan x="250.94" y="0" dy="4.300000000000001em">economy since 1871.</tspan></text><path class="color-10" d="M680.73,392.15c0,65.86-63.44,119.23-141.75,119.23S397.24,458,397.24,392.15,460.68,273,539,273,680.73,326.31,680.73,392.15Z" transform="translate(-187 -105)"></path><path class="color-10" d="M734,641,891,509c-52.93-41.68-113.78-72.08-178.29-91.45C698.35,487.29,626,540.48,539,540.48S379.63,487.29,365.27,417.56C300.75,436.94,239.92,467.34,187,509L344,641C455,557.92,623,557.91,734,641Z" transform="translate(-187 -105)"></path><image class="img1" x="270" y="190" href="images/usa.svg" width="180"></image><text class="lb1" x="0" y="46" font-size="40">USA</text></svg></svg><svg width="350" height="350" id="vg1" x="895.9333333333334" y="85"><svg id="Layer_1" data-name="Layer 1" xmlns="http://www.w3.org/2000/svg" viewBox="0 0 704 536"><defs><style>@import url('https://fonts.googleapis.com/css2?family=Kiwi+Maru:wght@500&amp;display=swap');@import url('https://fonts.googleapis.com/css2?family=Balsamiq+Sans:ital@1&amp;family=Kiwi+Maru:wght@500&amp;display=swap');
    .lb1{font-family:Kiwi Maru, serif; font-size: 50px;}.lb1{fill:#2c7bb6;}.txt1{font-family: Balsamiq Sans, cursive; font-size: 32px;}.color-1{fill:#00b9c4;}.color-11{fill:#fdae61;}</style></defs><rect class="text-wrap" x="230.94" y="6.42" width="438.11" height="102.7" style="fill:none"></rect><text font-size="15" x="250.94" y="0" dy="1" id="wrap" class="txt1"><tspan x="250.94" y="0" dy="1em">In China, the dragons are</tspan><tspan x="250.94" y="0" dy="2.1em">associated with wealth, power,</tspan><tspan x="250.94" y="0" dy="3.2em">and leadership</tspan></text><path class="color-11" d="M680.73,392.15c0,65.86-63.44,119.23-141.75,119.23S397.24,458,397.24,392.15,460.68,273,539,273,680.73,326.31,680.73,392.15Z" transform="translate(-187 -105)"></path><path class="color-11" d="M734,641,891,509c-52.93-41.68-113.78-72.08-178.29-91.45C698.35,487.29,626,540.48,539,540.48S379.63,487.29,365.27,417.56C300.75,436.94,239.92,467.34,187,509L344,641C455,557.92,623,557.91,734,641Z" transform="translate(-187 -105)"></path><image class="img1" x="270" y="190" href="images/china.svg" width="180"></image><text class="lb1" x="0" y="46" font-size="40">CHINA</text></svg></svg><svg width="350" height="350" id="vg2" x="713.5333333333334" y="591.4"><svg id="Layer_1" data-name="Layer 1" xmlns="http://www.w3.org/2000/svg" viewBox="0 0 704 536"><defs><style>@import url('https://fonts.googleapis.com/css2?family=Kiwi+Maru:wght@500&amp;display=swap');@import url('https://fonts.googleapis.com/css2?family=Balsamiq+Sans:ital@1&amp;family=Kiwi+Maru:wght@500&amp;display=swap');
    .lb1{font-family:Kiwi Maru, serif; font-size: 50px;}.lb1{fill:#2c7bb6;}.txt1{font-family: Balsamiq Sans, cursive; font-size: 32px;}.color-1{fill:#00b9c4;}.color-12{fill:#abdda4;}</style></defs><rect class="text-wrap" x="230.94" y="6.42" width="438.11" height="102.7" style="fill:none"></rect><text font-size="15" x="250.94" y="0" dy="1" id="wrap" class="txt1"><tspan x="250.94" y="0" dy="1em">It’s estimated that between</tspan><tspan x="250.94" y="0" dy="2.1em">15% and 30% of India’s</tspan><tspan x="250.94" y="0" dy="3.2em">population follow a strict</tspan><tspan x="250.94" y="0" dy="4.300000000000001em">vegetarian diet.</tspan></text><path class="color-12" d="M680.73,392.15c0,65.86-63.44,119.23-141.75,119.23S397.24,458,397.24,392.15,460.68,273,539,273,680.73,326.31,680.73,392.15Z" transform="translate(-187 -105)"></path><path class="color-12" d="M734,641,891,509c-52.93-41.68-113.78-72.08-178.29-91.45C698.35,487.29,626,540.48,539,540.48S379.63,487.29,365.27,417.56C300.75,436.94,239.92,467.34,187,509L344,641C455,557.92,623,557.91,734,641Z" transform="translate(-187 -105)"></path><image class="img1" x="270" y="190" href="images/india.svg" width="180"></image><text class="lb1" x="0" y="46" font-size="40">INDIA</text></svg></svg><svg width="350" height="350" id="vg3" x="35.133333333333326" y="460.19999999999993"><svg id="Layer_1" data-name="Layer 1" xmlns="http://www.w3.org/2000/svg" viewBox="0 0 704 536"><defs><style>@import url('https://fonts.googleapis.com/css2?family=Kiwi+Maru:wght@500&amp;display=swap');@import url('https://fonts.googleapis.com/css2?family=Balsamiq+Sans:ital@1&amp;family=Kiwi+Maru:wght@500&amp;display=swap');
    .lb1{font-family:Kiwi Maru, serif; font-size: 50px;}.lb1{fill:#2c7bb6;}.txt1{font-family: Balsamiq Sans, cursive; font-size: 32px;}.color-1{fill:#00b9c4;}.color-13{fill:#2b83ba;}</style></defs><rect class="text-wrap" x="230.94" y="6.42" width="438.11" height="102.7" style="fill:none"></rect><text font-size="15" x="250.94" y="0" dy="1" id="wrap" class="txt1"><tspan x="250.94" y="0" dy="1em">Russia is 60% forest. What’s</tspan><tspan x="250.94" y="0" dy="2.1em">more interesting, half of that</tspan><tspan x="250.94" y="0" dy="3.2em">forest is totally uninhabited by</tspan><tspan x="250.94" y="0" dy="4.300000000000001em">humans.</tspan></text><path class="color-13" d="M680.73,392.15c0,65.86-63.44,119.23-141.75,119.23S397.24,458,397.24,392.15,460.68,273,539,273,680.73,326.31,680.73,392.15Z" transform="translate(-187 -105)"></path><path class="color-13" d="M734,641,891,509c-52.93-41.68-113.78-72.08-178.29-91.45C698.35,487.29,626,540.48,539,540.48S379.63,487.29,365.27,417.56C300.75,436.94,239.92,467.34,187,509L344,641C455,557.92,623,557.91,734,641Z" transform="translate(-187 -105)"></path><image class="img1" x="270" y="190" href="images/russia.svg" width="180"></image><text class="lb1" x="0" y="46" font-size="40">RUSSIA</text></svg></svg></svg>