<svg id="svg" height="960" width="1280" xmlns="http://www.w3.org/2000/svg"><image x="0" y="0" height="960" width="1280" preserveAspectRatio="none" href="images/background3.jpg"></image><svg width="350" height="350" id="vg0" x="213.26666666666665" y="-50.19999999999999"><svg id="Layer_1" data-name="Layer 1" xmlns="http://www.w3.org/2000/svg" viewBox="0 0 395 57"><defs><style>@import url('https://fonts.googleapis.com/css2?family=Kiwi+Maru:wght@500&amp;display=swap');@import url('https://fonts.googleapis.com/css2?family=Balsamiq+Sans:ital@1&amp;family=Kiwi+Maru:wght@500&amp;display=swap');
    .lb1{font-family:Kiwi Maru, serif; font-size: 30px;}.lb1{fill:#2c7bb6;}.txt1{font-family: Balsamiq Sans, cursive; font-size: 25px;}.color-1{fill:#59bdc9;}.color-10{fill:#7b3294;}</style></defs><polygon class="color-10" points="278 57 0 57 0 0 278 0 285 28.5 278 57"></polygon><rect class="text-wrap" height="100px" width="230" x="25" y="12" style="fill:none"></rect><text id="wrap" class="txt1" y="25" x="25" font-size="12" dy="1"><tspan x="25" y="25" dy="1em">The United States</tspan><tspan x="25" y="25" dy="2.1em">has maintained its</tspan><tspan x="25" y="25" dy="3.2em">position of being the</tspan><tspan x="25" y="25" dy="4.300000000000001em">world’s largest</tspan><tspan x="25" y="25" dy="5.4em">economy since 1871.</tspan></text><polygon class="color-10" points="395 57 343 57 336 28.5 343 0 395 0 395 57"></polygon><text class="lb1" transform="translate(290 23.8) rotate(270 50 23.8)">USA</text><image class="img1" x="340" y="5" href="images/usa.svg" width="50"></image></svg></svg><svg width="350" height="350" id="vg1" x="895.9333333333334" y="85"><svg id="Layer_1" data-name="Layer 1" xmlns="http://www.w3.org/2000/svg" viewBox="0 0 395 57"><defs><style>@import url('https://fonts.googleapis.com/css2?family=Kiwi+Maru:wght@500&amp;display=swap');@import url('https://fonts.googleapis.com/css2?family=Balsamiq+Sans:ital@1&amp;family=Kiwi+Maru:wght@500&amp;display=swap');
    .lb1{font-family:Kiwi Maru, serif; font-size: 30px;}.lb1{fill:#2c7bb6;}.txt1{font-family: Balsamiq Sans, cursive; font-size: 25px;}.color-1{fill:#59bdc9;}.color-11{fill:#c2a5cf;}</style></defs><polygon class="color-11" points="278 57 0 57 0 0 278 0 285 28.5 278 57"></polygon><rect class="text-wrap" height="100px" width="230" x="25" y="12" style="fill:none"></rect><text id="wrap" class="txt1" y="25" x="25" font-size="12" dy="1"><tspan x="25" y="25" dy="1em">In China, the</tspan><tspan x="25" y="25" dy="2.1em">dragons are</tspan><tspan x="25" y="25" dy="3.2em">associated with</tspan><tspan x="25" y="25" dy="4.300000000000001em">wealth, power, and</tspan><tspan x="25" y="25" dy="5.4em">leadership</tspan></text><polygon class="color-11" points="395 57 343 57 336 28.5 343 0 395 0 395 57"></polygon><text class="lb1" transform="translate(290 23.8) rotate(270 50 23.8)">CHINA</text><image class="img1" x="340" y="5" href="images/china.svg" width="50"></image></svg></svg><svg width="350" height="350" id="vg2" x="713.5333333333334" y="591.4"><svg id="Layer_1" data-name="Layer 1" xmlns="http://www.w3.org/2000/svg" viewBox="0 0 395 57"><defs><style>@import url('https://fonts.googleapis.com/css2?family=Kiwi+Maru:wght@500&amp;display=swap');@import url('https://fonts.googleapis.com/css2?family=Balsamiq+Sans:ital@1&amp;family=Kiwi+Maru:wght@500&amp;display=swap');
    .lb1{font-family:Kiwi Maru, serif; font-size: 30px;}.lb1{fill:#2c7bb6;}.txt1{font-family: Balsamiq Sans, cursive; font-size: 25px;}.color-1{fill:#59bdc9;}.color-12{fill:#a6dba0;}</style></defs><polygon class="color-12" points="278 57 0 57 0 0 278 0 285 28.5 278 57"></polygon><rect class="text-wrap" height="100px" width="230" x="25" y="12" style="fill:none"></rect><text id="wrap" class="txt1" y="25" x="25" font-size="12" dy="1"><tspan x="25" y="25" dy="1em">It’s estimated that</tspan><tspan x="25" y="25" dy="2.1em">between 15% and</tspan><tspan x="25" y="25" dy="3.2em">30% of India’s</tspan><tspan x="25" y="25" dy="4.300000000000001em">population follow a</tspan><tspan x="25" y="25" dy="5.4em">strict vegetarian</tspan><tspan x="25" y="25" dy="6.5em">diet.</tspan></text><polygon class="color-12" points="395 57 343 57 336 28.5 343 0 395 0 395 57"></polygon><text class="lb1" transform="translate(290 23.8) rotate(270 50 23.8)">INDIA</text><image class="img1" x="340" y="5" href="images/india.svg" width="50"></image></svg></svg><svg width="350" height="350" id="vg3" x="35.133333333333326" y="460.19999999999993"><svg id="Layer_1" data-name="Layer 1" xmlns="http://www.w3.org/2000/svg" viewBox="0 0 395 57"><defs><style>@import url('https://fonts.googleapis.com/css2?family=Kiwi+Maru:wght@500&amp;display=swap');@import url('https://fonts.googleapis.com/css2?family=Balsamiq+Sans:ital@1&amp;family=Kiwi+Maru:wght@500&amp;display=swap');
    .lb1{font-family:Kiwi Maru, serif; font-size: 30px;}.lb1{fill:#2c7bb6;}.txt1{font-family: Balsamiq Sans, cursive; font-size: 25px;}.color-1{fill:#59bdc9;}.color-13{fill:#008837;}</style></defs><polygon class="color-13" points="278 57 0 57 0 0 278 0 285 28.5 278 57"></polygon><rect class="text-wrap" height="100px" width="230" x="25" y="12" style="fill:none"></rect><text id="wrap" class="txt1" y="25" x="25" font-size="12" dy="1"><tspan x="25" y="25" dy="1em">Russia is 60%</tspan><tspan x="25" y="25" dy="2.1em">forest. What’s more</tspan><tspan x="25" y="25" dy="3.2em">interesting, half of</tspan><tspan x="25" y="25" dy="4.300000000000001em">that forest is totally</tspan><tspan x="25" y="25" dy="5.4em">uninhabited by</tspan><tspan x="25" y="25" dy="6.5em">humans.</tspan></text><polygon class="color-13" points="395 57 343 57 336 28.5 343 0 395 0 395 57"></polygon><text class="lb1" transform="translate(290 23.8) rotate(270 50 23.8)">RUSSIA</text><image class="img1" x="340" y="5" href="images/russia.svg" width="50"></image></svg></svg><g><image href="connections/minus-line.svg" width="100" x="679.6" y="142.4" transform="rotate(191.20229042077054,729.6,192.4)"></image></g><g><image href="connections/minus-line.svg" width="100" x="929.7333333333333" y="463.20000000000005" transform="rotate(289.8084913535139,979.7333333333333,513.2)"></image></g><g><image href="connections/minus-line.svg" width="100" x="499.33333333333337" y="650.8" transform="rotate(10.94565903836721,549.3333333333334,700.8)"></image></g><g><image href="connections/minus-line.svg" width="100" x="249.2" y="330" transform="rotate(109.23936088876795,299.2,380)"></image></g></svg>