<svg id="svg" height="960" width="1280" xmlns="http://www.w3.org/2000/svg"><image x="0" y="0" height="960" width="1280" preserveAspectRatio="none" href="images/background3.jpg"></image><svg width="350" height="350" id="vg0" x="891.6666666666667" y="113.51842420609233"><svg id="Layer_1" data-name="Layer 1" xmlns="http://www.w3.org/2000/svg" viewBox="0 0 167 632"><defs><style>@import url('https://fonts.googleapis.com/css2?family=Kiwi+Maru:wght@500&amp;display=swap');@import url('https://fonts.googleapis.com/css2?family=Balsamiq+Sans:ital@1&amp;family=Kiwi+Maru:wght@500&amp;display=swap');
    .lb1{font-family:Kiwi Maru, serif; font-size: 50px;}.lb1{fill:#2c7bb6;}.txt1{font-family: Balsamiq Sans, cursive; font-size: 32px;}.color-1{fill:#a1d13b;}.color2{fill:#fff;}.color-10{fill:#d01c8b;}</style></defs><polygon class="color-10" points="54.22 0 0 47.71 0 47.72 0 407.13 108.4 407.13 108.4 47.71 54.22 0"></polygon><polygon class="color2" points="54.22 78.43 19.27 47.71 54.22 16.95 89.16 47.71 54.22 78.43"></polygon><polygon class="color-10" points="167 469.25 6.89 469.25 0 407.13 108.4 407.13 167 469.25"></polygon><rect class="text-wrap" x="6.89" y="578.2" width="160.11" height="50.26" style="fill:none"></rect><text id="wrap" class="txt1" x="6.89" y="545.2" dy="1"><tspan x="6.89" y="545.2" dy="1em">The United</tspan><tspan x="6.89" y="545.2" dy="2.1em">States has</tspan><tspan x="6.89" y="545.2" dy="3.2em">maintained</tspan><tspan x="6.89" y="545.2" dy="4.300000000000001em">its position</tspan><tspan x="6.89" y="545.2" dy="5.4em">of being</tspan><tspan x="6.89" y="545.2" dy="6.5em">the world’s</tspan><tspan x="6.89" y="545.2" dy="7.6000000000000005em">largest</tspan><tspan x="6.89" y="545.2" dy="8.700000000000001em">economy</tspan><tspan x="6.89" y="545.2" dy="9.8em">since 1871.</tspan></text><image preserveAspectRatio="none" class="img1" x="20" y="480" href="images/usa.svg" width="100" height="60"></image><text class="lb1" x="3" y="400" font-size="20">USA</text></svg>
</svg><svg width="350" height="350" id="vg1" x="612.2" y="618.425666566754"><svg id="Layer_1" data-name="Layer 1" xmlns="http://www.w3.org/2000/svg" viewBox="0 0 167 632"><defs><style>@import url('https://fonts.googleapis.com/css2?family=Kiwi+Maru:wght@500&amp;display=swap');@import url('https://fonts.googleapis.com/css2?family=Balsamiq+Sans:ital@1&amp;family=Kiwi+Maru:wght@500&amp;display=swap');
    .lb1{font-family:Kiwi Maru, serif; font-size: 50px;}.lb1{fill:#2c7bb6;}.txt1{font-family: Balsamiq Sans, cursive; font-size: 32px;}.color-1{fill:#a1d13b;}.color2{fill:#fff;}.color-11{fill:#f1b6da;}</style></defs><polygon class="color-11" points="54.22 0 0 47.71 0 47.72 0 407.13 108.4 407.13 108.4 47.71 54.22 0"></polygon><polygon class="color2" points="54.22 78.43 19.27 47.71 54.22 16.95 89.16 47.71 54.22 78.43"></polygon><polygon class="color-11" points="167 469.25 6.89 469.25 0 407.13 108.4 407.13 167 469.25"></polygon><rect class="text-wrap" x="6.89" y="578.2" width="160.11" height="50.26" style="fill:none"></rect><text id="wrap" class="txt1" x="6.89" y="545.2" dy="1"><tspan x="6.89" y="545.2" dy="1em">In China,</tspan><tspan x="6.89" y="545.2" dy="2.1em">the</tspan><tspan x="6.89" y="545.2" dy="3.2em">dragons</tspan><tspan x="6.89" y="545.2" dy="4.300000000000001em">are</tspan><tspan x="6.89" y="545.2" dy="5.4em">associated</tspan><tspan x="6.89" y="545.2" dy="6.5em">with</tspan><tspan x="6.89" y="545.2" dy="7.6000000000000005em">wealth,</tspan><tspan x="6.89" y="545.2" dy="8.700000000000001em">power, and</tspan><tspan x="6.89" y="545.2" dy="9.8em">leadership</tspan></text><image preserveAspectRatio="none" class="img1" x="20" y="480" href="images/china.svg" width="100" height="60"></image><text class="lb1" x="3" y="400" font-size="20">CHINA</text></svg>
</svg><svg width="350" height="350" id="vg2" x="324.20000000000005" y="115.52202437419021"><svg id="Layer_1" data-name="Layer 1" xmlns="http://www.w3.org/2000/svg" viewBox="0 0 167 632"><defs><style>@import url('https://fonts.googleapis.com/css2?family=Kiwi+Maru:wght@500&amp;display=swap');@import url('https://fonts.googleapis.com/css2?family=Balsamiq+Sans:ital@1&amp;family=Kiwi+Maru:wght@500&amp;display=swap');
    .lb1{font-family:Kiwi Maru, serif; font-size: 50px;}.lb1{fill:#2c7bb6;}.txt1{font-family: Balsamiq Sans, cursive; font-size: 32px;}.color-1{fill:#a1d13b;}.color2{fill:#fff;}.color-12{fill:#b8e186;}</style></defs><polygon class="color-12" points="54.22 0 0 47.71 0 47.72 0 407.13 108.4 407.13 108.4 47.71 54.22 0"></polygon><polygon class="color2" points="54.22 78.43 19.27 47.71 54.22 16.95 89.16 47.71 54.22 78.43"></polygon><polygon class="color-12" points="167 469.25 6.89 469.25 0 407.13 108.4 407.13 167 469.25"></polygon><rect class="text-wrap" x="6.89" y="578.2" width="160.11" height="50.26" style="fill:none"></rect><text id="wrap" class="txt1" x="6.89" y="545.2" dy="1"><tspan x="6.89" y="545.2" dy="1em">It’s</tspan><tspan x="6.89" y="545.2" dy="2.1em">estimated</tspan><tspan x="6.89" y="545.2" dy="3.2em">that</tspan><tspan x="6.89" y="545.2" dy="4.300000000000001em">between</tspan><tspan x="6.89" y="545.2" dy="5.4em">15% and</tspan><tspan x="6.89" y="545.2" dy="6.5em">30% of</tspan><tspan x="6.89" y="545.2" dy="7.6000000000000005em">India’s</tspan><tspan x="6.89" y="545.2" dy="8.700000000000001em">population</tspan><tspan x="6.89" y="545.2" dy="9.8em">follow a</tspan><tspan x="6.89" y="545.2" dy="10.9em">strict</tspan><tspan x="6.89" y="545.2" dy="12em">vegetarian</tspan><tspan x="6.89" y="545.2" dy="13.100000000000001em">diet.</tspan></text><image preserveAspectRatio="none" class="img1" x="20" y="480" href="images/india.svg" width="100" height="60"></image><text class="lb1" x="3" y="400" font-size="20">INDIA</text></svg>
</svg><svg width="350" height="350" id="vg3" x="40.46666666666667" y="616.4220663986562"><svg id="Layer_1" data-name="Layer 1" xmlns="http://www.w3.org/2000/svg" viewBox="0 0 167 632"><defs><style>@import url('https://fonts.googleapis.com/css2?family=Kiwi+Maru:wght@500&amp;display=swap');@import url('https://fonts.googleapis.com/css2?family=Balsamiq+Sans:ital@1&amp;family=Kiwi+Maru:wght@500&amp;display=swap');
    .lb1{font-family:Kiwi Maru, serif; font-size: 50px;}.lb1{fill:#2c7bb6;}.txt1{font-family: Balsamiq Sans, cursive; font-size: 32px;}.color-1{fill:#a1d13b;}.color2{fill:#fff;}.color-13{fill:#4dac26;}</style></defs><polygon class="color-13" points="54.22 0 0 47.71 0 47.72 0 407.13 108.4 407.13 108.4 47.71 54.22 0"></polygon><polygon class="color2" points="54.22 78.43 19.27 47.71 54.22 16.95 89.16 47.71 54.22 78.43"></polygon><polygon class="color-13" points="167 469.25 6.89 469.25 0 407.13 108.4 407.13 167 469.25"></polygon><rect class="text-wrap" x="6.89" y="578.2" width="160.11" height="50.26" style="fill:none"></rect><text id="wrap" class="txt1" x="6.89" y="545.2" dy="1"><tspan x="6.89" y="545.2" dy="1em">Russia is</tspan><tspan x="6.89" y="545.2" dy="2.1em">60%</tspan><tspan x="6.89" y="545.2" dy="3.2em">forest.</tspan><tspan x="6.89" y="545.2" dy="4.300000000000001em">What’s</tspan><tspan x="6.89" y="545.2" dy="5.4em">more</tspan><tspan x="6.89" y="545.2" dy="6.5em">interesting,</tspan><tspan x="6.89" y="545.2" dy="7.6000000000000005em">half of that</tspan><tspan x="6.89" y="545.2" dy="8.700000000000001em">forest is</tspan><tspan x="6.89" y="545.2" dy="9.8em">totally</tspan><tspan x="6.89" y="545.2" dy="10.9em">uninhabited</tspan><tspan x="6.89" y="545.2" dy="12em">by</tspan><tspan x="6.89" y="545.2" dy="13.100000000000001em">humans.</tspan></text><image preserveAspectRatio="none" class="img1" x="20" y="480" href="images/russia.svg" width="100" height="60"></image><text class="lb1" x="3" y="400" font-size="20">RUSSIA</text></svg>
</svg><g><image href="connections/arrow3.svg" width="100" x="732.9333333333334" y="239.5202242901413" transform="rotate(359.7977020269708,782.9333333333334,289.5202242901413)"></image></g><g><image href="connections/arrow3.svg" width="100" x="451.33333333333337" y="742.4238664827051" transform="rotate(0.2007882990700125,501.33333333333337,792.4238664827051)"></image></g></svg>