<svg id="svg" height="960" width="1280" xmlns="http://www.w3.org/2000/svg"><image x="0" y="0" height="960" width="1280" preserveAspectRatio="none" href="images/background3.jpg"></image><svg width="350" height="350" id="vg0" x="213.26666666666665" y="-50.19999999999999"><svg id="Layer_1" data-name="Layer 1" xmlns="http://www.w3.org/2000/svg" viewBox="0 0 791 575"><defs><style>@import url('https://fonts.googleapis.com/css2?family=Kiwi+Maru:wght@500&amp;display=swap');@import url('https://fonts.googleapis.com/css2?family=Balsamiq+Sans:ital@1&amp;family=Kiwi+Maru:wght@500&amp;display=swap');
    .lb1{font-family:Kiwi Maru, serif; font-size: 50px;}.lb1{fill:#2c7bb6;}.txt1{font-family: Balsamiq Sans, cursive; font-size: 32px;}.color-1{fill:#b2b2b2;}.color-1{fill:#a1d13b;}.color-10{fill:#7b3294;}</style></defs><text class="lb1" x="560" y="350" font-size="40">USA</text><rect class="text-wrap" x="558.35" y="480.78" width="230" height="80.31" style="fill:none"></rect><text id="wrap" class="txt1" x="558.35" y="400" dy="1"><tspan x="558.35" y="400" dy="1em">The United</tspan><tspan x="558.35" y="400" dy="2.1em">States has</tspan><tspan x="558.35" y="400" dy="3.2em">maintained its</tspan><tspan x="558.35" y="400" dy="4.300000000000001em">position of</tspan><tspan x="558.35" y="400" dy="5.4em">being the</tspan><tspan x="558.35" y="400" dy="6.5em">world’s largest</tspan><tspan x="558.35" y="400" dy="7.6000000000000005em">economy since</tspan><tspan x="558.35" y="400" dy="8.700000000000001em">1871.</tspan></text><polygon class="color-10" points="279.18 467.83 0 233.91 279.17 0 558.35 233.92 279.18 467.83"></polygon><polygon class="color-10" points="488.54 487.33 395.5 409.36 302.45 487.33 395.5 565.29 488.54 487.33"></polygon><image class="img1" x="190" y="170" href="images/usa.svg" width="180"></image></svg></svg><svg width="350" height="350" id="vg1" x="895.9333333333334" y="85"><svg id="Layer_1" data-name="Layer 1" xmlns="http://www.w3.org/2000/svg" viewBox="0 0 791 575"><defs><style>@import url('https://fonts.googleapis.com/css2?family=Kiwi+Maru:wght@500&amp;display=swap');@import url('https://fonts.googleapis.com/css2?family=Balsamiq+Sans:ital@1&amp;family=Kiwi+Maru:wght@500&amp;display=swap');
    .lb1{font-family:Kiwi Maru, serif; font-size: 50px;}.lb1{fill:#2c7bb6;}.txt1{font-family: Balsamiq Sans, cursive; font-size: 32px;}.color-1{fill:#b2b2b2;}.color-1{fill:#a1d13b;}.color-11{fill:#c2a5cf;}</style></defs><text class="lb1" x="560" y="350" font-size="40">CHINA</text><rect class="text-wrap" x="558.35" y="480.78" width="230" height="80.31" style="fill:none"></rect><text id="wrap" class="txt1" x="558.35" y="400" dy="1"><tspan x="558.35" y="400" dy="1em">In China, the</tspan><tspan x="558.35" y="400" dy="2.1em">dragons are</tspan><tspan x="558.35" y="400" dy="3.2em">associated with</tspan><tspan x="558.35" y="400" dy="4.300000000000001em">wealth, power,</tspan><tspan x="558.35" y="400" dy="5.4em">and leadership</tspan></text><polygon class="color-11" points="279.18 467.83 0 233.91 279.17 0 558.35 233.92 279.18 467.83"></polygon><polygon class="color-11" points="488.54 487.33 395.5 409.36 302.45 487.33 395.5 565.29 488.54 487.33"></polygon><image class="img1" x="190" y="170" href="images/china.svg" width="180"></image></svg></svg><svg width="350" height="350" id="vg2" x="713.5333333333334" y="591.4"><svg id="Layer_1" data-name="Layer 1" xmlns="http://www.w3.org/2000/svg" viewBox="0 0 791 575"><defs><style>@import url('https://fonts.googleapis.com/css2?family=Kiwi+Maru:wght@500&amp;display=swap');@import url('https://fonts.googleapis.com/css2?family=Balsamiq+Sans:ital@1&amp;family=Kiwi+Maru:wght@500&amp;display=swap');
    .lb1{font-family:Kiwi Maru, serif; font-size: 50px;}.lb1{fill:#2c7bb6;}.txt1{font-family: Balsamiq Sans, cursive; font-size: 32px;}.color-1{fill:#b2b2b2;}.color-1{fill:#a1d13b;}.color-12{fill:#a6dba0;}</style></defs><text class="lb1" x="560" y="350" font-size="40">INDIA</text><rect class="text-wrap" x="558.35" y="480.78" width="230" height="80.31" style="fill:none"></rect><text id="wrap" class="txt1" x="558.35" y="400" dy="1"><tspan x="558.35" y="400" dy="1em">It’s estimated</tspan><tspan x="558.35" y="400" dy="2.1em">that between</tspan><tspan x="558.35" y="400" dy="3.2em">15% and 30%</tspan><tspan x="558.35" y="400" dy="4.300000000000001em">of India’s</tspan><tspan x="558.35" y="400" dy="5.4em">population</tspan><tspan x="558.35" y="400" dy="6.5em">follow a strict</tspan><tspan x="558.35" y="400" dy="7.6000000000000005em">vegetarian diet.</tspan></text><polygon class="color-12" points="279.18 467.83 0 233.91 279.17 0 558.35 233.92 279.18 467.83"></polygon><polygon class="color-12" points="488.54 487.33 395.5 409.36 302.45 487.33 395.5 565.29 488.54 487.33"></polygon><image class="img1" x="190" y="170" href="images/india.svg" width="180"></image></svg></svg><svg width="350" height="350" id="vg3" x="35.133333333333326" y="460.19999999999993"><svg id="Layer_1" data-name="Layer 1" xmlns="http://www.w3.org/2000/svg" viewBox="0 0 791 575"><defs><style>@import url('https://fonts.googleapis.com/css2?family=Kiwi+Maru:wght@500&amp;display=swap');@import url('https://fonts.googleapis.com/css2?family=Balsamiq+Sans:ital@1&amp;family=Kiwi+Maru:wght@500&amp;display=swap');
    .lb1{font-family:Kiwi Maru, serif; font-size: 50px;}.lb1{fill:#2c7bb6;}.txt1{font-family: Balsamiq Sans, cursive; font-size: 32px;}.color-1{fill:#b2b2b2;}.color-1{fill:#a1d13b;}.color-13{fill:#008837;}</style></defs><text class="lb1" x="560" y="350" font-size="40">RUSSIA</text><rect class="text-wrap" x="558.35" y="480.78" width="230" height="80.31" style="fill:none"></rect><text id="wrap" class="txt1" x="558.35" y="400" dy="1"><tspan x="558.35" y="400" dy="1em">Russia is 60%</tspan><tspan x="558.35" y="400" dy="2.1em">forest. What’s</tspan><tspan x="558.35" y="400" dy="3.2em">more</tspan><tspan x="558.35" y="400" dy="4.300000000000001em">interesting, half</tspan><tspan x="558.35" y="400" dy="5.4em">of that forest is</tspan><tspan x="558.35" y="400" dy="6.5em">totally</tspan><tspan x="558.35" y="400" dy="7.6000000000000005em">uninhabited by</tspan><tspan x="558.35" y="400" dy="8.700000000000001em">humans.</tspan></text><polygon class="color-13" points="279.18 467.83 0 233.91 279.17 0 558.35 233.92 279.18 467.83"></polygon><polygon class="color-13" points="488.54 487.33 395.5 409.36 302.45 487.33 395.5 565.29 488.54 487.33"></polygon><image class="img1" x="190" y="170" href="images/russia.svg" width="180"></image></svg></svg><g><image href="connections/three-dots.svg" width="100" x="588.4000000000001" y="395.6" transform="rotate(232.05583847360106,638.4000000000001,445.6)"></image></g><g><image href="connections/three-dots.svg" width="100" x="590.5333333333333" y="397.59999999999997" transform="rotate(336.44888368837064,640.5333333333333,447.59999999999997)"></image></g></svg>