<svg id="svg" height="960" width="1280" xmlns="http://www.w3.org/2000/svg"><image x="0" y="0" height="960" width="1280" preserveAspectRatio="none" href="images/background3.jpg"></image><svg width="350" height="350" id="vg0" x="946.0666666666666" y="317.79999999999995"><svg id="Layer_1" data-name="Layer 1" xmlns="http://www.w3.org/2000/svg" viewBox="0 0 816 628"><defs><style>@import url('https://fonts.googleapis.com/css2?family=Kiwi+Maru:wght@500&amp;display=swap');@import url('https://fonts.googleapis.com/css2?family=Balsamiq+Sans:ital@1&amp;family=Kiwi+Maru:wght@500&amp;display=swap');
    .lb1{font-family:Kiwi Maru, serif; font-size: 50px;}.lb1{fill:#2c7bb6;}.txt1{font-family: Balsamiq Sans, cursive; font-size: 32px;}.color-1{fill:#f34;}.color-10{fill:#d7191c;}</style></defs><rect class="text-wrap" height="100px" width="400" x="210px" y="520px" style="fill:none"></rect><text id="wrap" x="210" y="520" dy="1" class="txt1"><tspan x="210" y="520" dy="1em">The United States has</tspan><tspan x="210" y="520" dy="2.1em">maintained its position of</tspan><tspan x="210" y="520" dy="3.2em">being the world’s largest</tspan><tspan x="210" y="520" dy="4.300000000000001em">economy since 1871.</tspan></text><path class="color-10" d="M564,65H335c-58.64,0-117.26,18.37-161.94,55.21S106,205.25,106,253.5V441.93H335c58.63,0,117.06-18.38,161.93-55.21C541.56,350,564,301.69,564,253.5Z" transform="translate(-106 -65)"></path><image class="img1" x="100" y="70" href="images/usa.svg" width="270"></image><text class="lb1" x="220" y="480" font-size="60">USA</text></svg></svg><svg width="350" height="350" id="vg1" x="433" y="-31"><svg id="Layer_1" data-name="Layer 1" xmlns="http://www.w3.org/2000/svg" viewBox="0 0 816 628"><defs><style>@import url('https://fonts.googleapis.com/css2?family=Kiwi+Maru:wght@500&amp;display=swap');@import url('https://fonts.googleapis.com/css2?family=Balsamiq+Sans:ital@1&amp;family=Kiwi+Maru:wght@500&amp;display=swap');
    .lb1{font-family:Kiwi Maru, serif; font-size: 50px;}.lb1{fill:#2c7bb6;}.txt1{font-family: Balsamiq Sans, cursive; font-size: 32px;}.color-1{fill:#f34;}.color-11{fill:#fdae61;}</style></defs><rect class="text-wrap" height="100px" width="400" x="210px" y="520px" style="fill:none"></rect><text id="wrap" x="210" y="520" dy="1" class="txt1"><tspan x="210" y="520" dy="1em">In China, the dragons are</tspan><tspan x="210" y="520" dy="2.1em">associated with wealth,</tspan><tspan x="210" y="520" dy="3.2em">power, and leadership</tspan></text><path class="color-11" d="M564,65H335c-58.64,0-117.26,18.37-161.94,55.21S106,205.25,106,253.5V441.93H335c58.63,0,117.06-18.38,161.93-55.21C541.56,350,564,301.69,564,253.5Z" transform="translate(-106 -65)"></path><image class="img1" x="100" y="70" href="images/china.svg" width="270"></image><text class="lb1" x="220" y="480" font-size="60">CHINA</text></svg></svg><svg width="350" height="350" id="vg2" x="475.66666666666663" y="545"><svg id="Layer_1" data-name="Layer 1" xmlns="http://www.w3.org/2000/svg" viewBox="0 0 816 628"><defs><style>@import url('https://fonts.googleapis.com/css2?family=Kiwi+Maru:wght@500&amp;display=swap');@import url('https://fonts.googleapis.com/css2?family=Balsamiq+Sans:ital@1&amp;family=Kiwi+Maru:wght@500&amp;display=swap');
    .lb1{font-family:Kiwi Maru, serif; font-size: 50px;}.lb1{fill:#2c7bb6;}.txt1{font-family: Balsamiq Sans, cursive; font-size: 32px;}.color-1{fill:#f34;}.color-12{fill:#abdda4;}</style></defs><rect class="text-wrap" height="100px" width="400" x="210px" y="520px" style="fill:none"></rect><text id="wrap" x="210" y="520" dy="1" class="txt1"><tspan x="210" y="520" dy="1em">It’s estimated that between</tspan><tspan x="210" y="520" dy="2.1em">15% and 30% of India’s</tspan><tspan x="210" y="520" dy="3.2em">population follow a strict</tspan><tspan x="210" y="520" dy="4.300000000000001em">vegetarian diet.</tspan></text><path class="color-12" d="M564,65H335c-58.64,0-117.26,18.37-161.94,55.21S106,205.25,106,253.5V441.93H335c58.63,0,117.06-18.38,161.93-55.21C541.56,350,564,301.69,564,253.5Z" transform="translate(-106 -65)"></path><image class="img1" x="100" y="70" href="images/india.svg" width="270"></image><text class="lb1" x="220" y="480" font-size="60">INDIA</text></svg></svg><svg width="350" height="350" id="vg3" x="-21.400000000000006" y="257"><svg id="Layer_1" data-name="Layer 1" xmlns="http://www.w3.org/2000/svg" viewBox="0 0 816 628"><defs><style>@import url('https://fonts.googleapis.com/css2?family=Kiwi+Maru:wght@500&amp;display=swap');@import url('https://fonts.googleapis.com/css2?family=Balsamiq+Sans:ital@1&amp;family=Kiwi+Maru:wght@500&amp;display=swap');
    .lb1{font-family:Kiwi Maru, serif; font-size: 50px;}.lb1{fill:#2c7bb6;}.txt1{font-family: Balsamiq Sans, cursive; font-size: 32px;}.color-1{fill:#f34;}.color-13{fill:#2b83ba;}</style></defs><rect class="text-wrap" height="100px" width="400" x="210px" y="520px" style="fill:none"></rect><text id="wrap" x="210" y="520" dy="1" class="txt1"><tspan x="210" y="520" dy="1em">Russia is 60% forest.</tspan><tspan x="210" y="520" dy="2.1em">What’s more interesting,</tspan><tspan x="210" y="520" dy="3.2em">half of that forest is totally</tspan><tspan x="210" y="520" dy="4.300000000000001em">uninhabited by humans.</tspan></text><path class="color-13" d="M564,65H335c-58.64,0-117.26,18.37-161.94,55.21S106,205.25,106,253.5V441.93H335c58.63,0,117.06-18.38,161.93-55.21C541.56,350,564,301.69,564,253.5Z" transform="translate(-106 -65)"></path><image class="img1" x="100" y="70" href="images/russia.svg" width="270"></image><text class="lb1" x="220" y="480" font-size="60">RUSSIA</text></svg></svg><g><image href="connections/striped-arrow.svg" width="100" x="814.5333333333333" y="268.4" transform="rotate(34.20918532405864,864.5333333333333,318.4)"></image></g><g><image href="connections/striped-arrow.svg" width="100" x="579.3333333333333" y="382" transform="rotate(265.76360520094113,629.3333333333333,432)"></image></g><g><image href="connections/striped-arrow.svg" width="100" x="352.1333333333333" y="526" transform="rotate(30.087965696465773,402.1333333333333,576)"></image></g><g><image href="connections/striped-arrow.svg" width="100" x="587.3333333333333" y="412.4" transform="rotate(183.59599796799054,637.3333333333333,462.4)"></image></g></svg>