<svg id="svg" height="960" width="1280" xmlns="http://www.w3.org/2000/svg"><image x="0" y="0" height="960" width="1280" preserveAspectRatio="none" href="images/background3.jpg"></image><svg width="350" height="350" id="vg0" x="213.26666666666665" y="-50.19999999999999"><svg id="Layer_1" data-name="Layer 1" xmlns="http://www.w3.org/2000/svg" viewBox="0 0 666 605"><defs><style>@import url('https://fonts.googleapis.com/css2?family=Kiwi+Maru:wght@500&amp;display=swap');@import url('https://fonts.googleapis.com/css2?family=Balsamiq+Sans:ital@1&amp;family=Kiwi+Maru:wght@500&amp;display=swap');
    .lb1{font-family:Kiwi Maru, serif; font-size: 40px;}.lb1{fill:#2c7bb6;}.txt1{font-family: Balsamiq Sans, cursive; font-size: 32px;}.color-1{fill:#a1d13b;}.lb1{fill:#fff;}.cls-3{fill:#b2b2b2;}.cls-4{fill:#23282b;}.color-10{fill:#d7191c;}</style></defs><path class="color-10" d="M448.49,685H628.9c7-111.65,103.55-201.06,224.1-207.58v-167C632.84,317.15,455.77,481.13,448.49,685Z" transform="translate(-187 -80)"></path><text class="lb1" x="345" y="440" font-size="30">USA</text><rect class="text-wrap" height="150" width="350" x="1" y="182" style="fill:none"></rect><text id="wrap" class="txt1" y="182" x="1" dy="1" font-size="12"><tspan x="1" y="182" dy="1em">The United States has</tspan><tspan x="1" y="182" dy="2.1em">maintained its position</tspan><tspan x="1" y="182" dy="3.2em">of being the world’s</tspan><tspan x="1" y="182" dy="4.300000000000001em">largest economy since</tspan><tspan x="1" y="182" dy="5.4em">1871.</tspan></text><polygon class="cls-4" points="227.7 0 96.55 93.77 96.55 126.27 118.42 106.01 154.51 126.27 227.7 0"></polygon><polygon class="cls-4" points="84.06 86.73 227.7 0 45.04 64.84 84.06 86.73"></polygon><image class="img1" x="50" y="360" href="images/usa.svg" width="180"></image></svg>
</svg><svg width="350" height="350" id="vg1" x="895.9333333333334" y="85"><svg id="Layer_1" data-name="Layer 1" xmlns="http://www.w3.org/2000/svg" viewBox="0 0 666 605"><defs><style>@import url('https://fonts.googleapis.com/css2?family=Kiwi+Maru:wght@500&amp;display=swap');@import url('https://fonts.googleapis.com/css2?family=Balsamiq+Sans:ital@1&amp;family=Kiwi+Maru:wght@500&amp;display=swap');
    .lb1{font-family:Kiwi Maru, serif; font-size: 40px;}.lb1{fill:#2c7bb6;}.txt1{font-family: Balsamiq Sans, cursive; font-size: 32px;}.color-1{fill:#a1d13b;}.lb1{fill:#fff;}.cls-3{fill:#b2b2b2;}.cls-4{fill:#23282b;}.color-11{fill:#fdae61;}</style></defs><path class="color-11" d="M448.49,685H628.9c7-111.65,103.55-201.06,224.1-207.58v-167C632.84,317.15,455.77,481.13,448.49,685Z" transform="translate(-187 -80)"></path><text class="lb1" x="345" y="440" font-size="30">CHINA</text><rect class="text-wrap" height="150" width="350" x="1" y="182" style="fill:none"></rect><text id="wrap" class="txt1" y="182" x="1" dy="1" font-size="12"><tspan x="1" y="182" dy="1em">In China, the dragons</tspan><tspan x="1" y="182" dy="2.1em">are associated with</tspan><tspan x="1" y="182" dy="3.2em">wealth, power, and</tspan><tspan x="1" y="182" dy="4.300000000000001em">leadership</tspan></text><polygon class="cls-4" points="227.7 0 96.55 93.77 96.55 126.27 118.42 106.01 154.51 126.27 227.7 0"></polygon><polygon class="cls-4" points="84.06 86.73 227.7 0 45.04 64.84 84.06 86.73"></polygon><image class="img1" x="50" y="360" href="images/china.svg" width="180"></image></svg>
</svg><svg width="350" height="350" id="vg2" x="713.5333333333334" y="591.4"><svg id="Layer_1" data-name="Layer 1" xmlns="http://www.w3.org/2000/svg" viewBox="0 0 666 605"><defs><style>@import url('https://fonts.googleapis.com/css2?family=Kiwi+Maru:wght@500&amp;display=swap');@import url('https://fonts.googleapis.com/css2?family=Balsamiq+Sans:ital@1&amp;family=Kiwi+Maru:wght@500&amp;display=swap');
    .lb1{font-family:Kiwi Maru, serif; font-size: 40px;}.lb1{fill:#2c7bb6;}.txt1{font-family: Balsamiq Sans, cursive; font-size: 32px;}.color-1{fill:#a1d13b;}.lb1{fill:#fff;}.cls-3{fill:#b2b2b2;}.cls-4{fill:#23282b;}.color-12{fill:#abdda4;}</style></defs><path class="color-12" d="M448.49,685H628.9c7-111.65,103.55-201.06,224.1-207.58v-167C632.84,317.15,455.77,481.13,448.49,685Z" transform="translate(-187 -80)"></path><text class="lb1" x="345" y="440" font-size="30">INDIA</text><rect class="text-wrap" height="150" width="350" x="1" y="182" style="fill:none"></rect><text id="wrap" class="txt1" y="182" x="1" dy="1" font-size="12"><tspan x="1" y="182" dy="1em">It’s estimated that</tspan><tspan x="1" y="182" dy="2.1em">between 15% and 30%</tspan><tspan x="1" y="182" dy="3.2em">of India’s population</tspan><tspan x="1" y="182" dy="4.300000000000001em">follow a strict vegetarian</tspan><tspan x="1" y="182" dy="5.4em">diet.</tspan></text><polygon class="cls-4" points="227.7 0 96.55 93.77 96.55 126.27 118.42 106.01 154.51 126.27 227.7 0"></polygon><polygon class="cls-4" points="84.06 86.73 227.7 0 45.04 64.84 84.06 86.73"></polygon><image class="img1" x="50" y="360" href="images/india.svg" width="180"></image></svg>
</svg><svg width="350" height="350" id="vg3" x="35.133333333333326" y="460.19999999999993"><svg id="Layer_1" data-name="Layer 1" xmlns="http://www.w3.org/2000/svg" viewBox="0 0 666 605"><defs><style>@import url('https://fonts.googleapis.com/css2?family=Kiwi+Maru:wght@500&amp;display=swap');@import url('https://fonts.googleapis.com/css2?family=Balsamiq+Sans:ital@1&amp;family=Kiwi+Maru:wght@500&amp;display=swap');
    .lb1{font-family:Kiwi Maru, serif; font-size: 40px;}.lb1{fill:#2c7bb6;}.txt1{font-family: Balsamiq Sans, cursive; font-size: 32px;}.color-1{fill:#a1d13b;}.lb1{fill:#fff;}.cls-3{fill:#b2b2b2;}.cls-4{fill:#23282b;}.color-13{fill:#2b83ba;}</style></defs><path class="color-13" d="M448.49,685H628.9c7-111.65,103.55-201.06,224.1-207.58v-167C632.84,317.15,455.77,481.13,448.49,685Z" transform="translate(-187 -80)"></path><text class="lb1" x="345" y="440" font-size="30">RUSSIA</text><rect class="text-wrap" height="150" width="350" x="1" y="182" style="fill:none"></rect><text id="wrap" class="txt1" y="182" x="1" dy="1" font-size="12"><tspan x="1" y="182" dy="1em">Russia is 60% forest.</tspan><tspan x="1" y="182" dy="2.1em">What’s more interesting,</tspan><tspan x="1" y="182" dy="3.2em">half of that forest is</tspan><tspan x="1" y="182" dy="4.300000000000001em">totally uninhabited by</tspan><tspan x="1" y="182" dy="5.4em">humans.</tspan></text><polygon class="cls-4" points="227.7 0 96.55 93.77 96.55 126.27 118.42 106.01 154.51 126.27 227.7 0"></polygon><polygon class="cls-4" points="84.06 86.73 227.7 0 45.04 64.84 84.06 86.73"></polygon><image class="img1" x="50" y="360" href="images/russia.svg" width="180"></image></svg>
</svg><g><image href="connections/striped-arrow.svg" width="100" x="588.4000000000001" y="395.6" transform="rotate(232.05583847360106,638.4000000000001,445.6)"></image></g><g><image href="connections/striped-arrow.svg" width="100" x="590.5333333333333" y="397.59999999999997" transform="rotate(336.44888368837064,640.5333333333333,447.59999999999997)"></image></g></svg>