<svg id="svg" height="960" width="1280" xmlns="http://www.w3.org/2000/svg"><image x="0" y="0" height="960" width="1280" preserveAspectRatio="none" href="images/background3.jpg"></image><svg width="350" height="350" id="vg0" x="946.0666666666666" y="317.79999999999995"><svg id="Layer_1" data-name="Layer 1" xmlns="http://www.w3.org/2000/svg" viewBox="0 0 163.5 262.52"><defs><style>@import url('https://fonts.googleapis.com/css2?family=Kiwi+Maru:wght@500&amp;display=swap');@import url('https://fonts.googleapis.com/css2?family=Balsamiq+Sans:ital@1&amp;family=Kiwi+Maru:wght@500&amp;display=swap');
    .lb1{font-family:Kiwi Maru, serif; font-size: 30px;}.lb1{fill:#2c7bb6;}.txt1{font-family: Balsamiq Sans, cursive; font-size: 12px;}.color-1{fill:#b71044;}.color-10{fill:#d7191c;}</style></defs><path class="color-10" d="M542.2,298.81a30,30,0,1,0-30,30A30,30,0,0,0,542.2,298.81Z" transform="translate(-430.45 -252.74)"></path><image class="img1" x="67" y="30" href="images/usa.svg" width="30"></image><rect class="text-wrap" height="150px" width="130" x="23" y="100" style="fill:none"></rect><text id="wrap" dy="1" class="txt1" y="100" x="26" font-size="12"><tspan x="26" y="100" dy="1em">The United States has</tspan><tspan x="26" y="100" dy="2.1em">maintained its position</tspan><tspan x="26" y="100" dy="3.2em">of being the world’s</tspan><tspan x="26" y="100" dy="4.300000000000001em">largest economy since</tspan><tspan x="26" y="100" dy="5.4em">1871.</tspan></text><text class="lb1" transform="translate(29 230.8)" font-size="35">USA</text></svg></svg><svg width="350" height="350" id="vg1" x="433" y="-31"><svg id="Layer_1" data-name="Layer 1" xmlns="http://www.w3.org/2000/svg" viewBox="0 0 163.5 262.52"><defs><style>@import url('https://fonts.googleapis.com/css2?family=Kiwi+Maru:wght@500&amp;display=swap');@import url('https://fonts.googleapis.com/css2?family=Balsamiq+Sans:ital@1&amp;family=Kiwi+Maru:wght@500&amp;display=swap');
    .lb1{font-family:Kiwi Maru, serif; font-size: 30px;}.lb1{fill:#2c7bb6;}.txt1{font-family: Balsamiq Sans, cursive; font-size: 12px;}.color-1{fill:#b71044;}.color-11{fill:#fdae61;}</style></defs><path class="color-11" d="M542.2,298.81a30,30,0,1,0-30,30A30,30,0,0,0,542.2,298.81Z" transform="translate(-430.45 -252.74)"></path><image class="img1" x="67" y="30" href="images/china.svg" width="30"></image><rect class="text-wrap" height="150px" width="130" x="23" y="100" style="fill:none"></rect><text id="wrap" dy="1" class="txt1" y="100" x="26" font-size="12"><tspan x="26" y="100" dy="1em">In China, the dragons</tspan><tspan x="26" y="100" dy="2.1em">are associated with</tspan><tspan x="26" y="100" dy="3.2em">wealth, power, and</tspan><tspan x="26" y="100" dy="4.300000000000001em">leadership</tspan></text><text class="lb1" transform="translate(29 230.8)" font-size="35">CHINA</text></svg></svg><svg width="350" height="350" id="vg2" x="475.66666666666663" y="545"><svg id="Layer_1" data-name="Layer 1" xmlns="http://www.w3.org/2000/svg" viewBox="0 0 163.5 262.52"><defs><style>@import url('https://fonts.googleapis.com/css2?family=Kiwi+Maru:wght@500&amp;display=swap');@import url('https://fonts.googleapis.com/css2?family=Balsamiq+Sans:ital@1&amp;family=Kiwi+Maru:wght@500&amp;display=swap');
    .lb1{font-family:Kiwi Maru, serif; font-size: 30px;}.lb1{fill:#2c7bb6;}.txt1{font-family: Balsamiq Sans, cursive; font-size: 12px;}.color-1{fill:#b71044;}.color-12{fill:#abdda4;}</style></defs><path class="color-12" d="M542.2,298.81a30,30,0,1,0-30,30A30,30,0,0,0,542.2,298.81Z" transform="translate(-430.45 -252.74)"></path><image class="img1" x="67" y="30" href="images/india.svg" width="30"></image><rect class="text-wrap" height="150px" width="130" x="23" y="100" style="fill:none"></rect><text id="wrap" dy="1" class="txt1" y="100" x="26" font-size="12"><tspan x="26" y="100" dy="1em">It’s estimated that</tspan><tspan x="26" y="100" dy="2.1em">between 15% and 30%</tspan><tspan x="26" y="100" dy="3.2em">of India’s population</tspan><tspan x="26" y="100" dy="4.300000000000001em">follow a strict</tspan><tspan x="26" y="100" dy="5.4em">vegetarian diet.</tspan></text><text class="lb1" transform="translate(29 230.8)" font-size="35">INDIA</text></svg></svg><svg width="350" height="350" id="vg3" x="-21.400000000000006" y="257"><svg id="Layer_1" data-name="Layer 1" xmlns="http://www.w3.org/2000/svg" viewBox="0 0 163.5 262.52"><defs><style>@import url('https://fonts.googleapis.com/css2?family=Kiwi+Maru:wght@500&amp;display=swap');@import url('https://fonts.googleapis.com/css2?family=Balsamiq+Sans:ital@1&amp;family=Kiwi+Maru:wght@500&amp;display=swap');
    .lb1{font-family:Kiwi Maru, serif; font-size: 30px;}.lb1{fill:#2c7bb6;}.txt1{font-family: Balsamiq Sans, cursive; font-size: 12px;}.color-1{fill:#b71044;}.color-13{fill:#2b83ba;}</style></defs><path class="color-13" d="M542.2,298.81a30,30,0,1,0-30,30A30,30,0,0,0,542.2,298.81Z" transform="translate(-430.45 -252.74)"></path><image class="img1" x="67" y="30" href="images/russia.svg" width="30"></image><rect class="text-wrap" height="150px" width="130" x="23" y="100" style="fill:none"></rect><text id="wrap" dy="1" class="txt1" y="100" x="26" font-size="12"><tspan x="26" y="100" dy="1em">Russia is 60% forest.</tspan><tspan x="26" y="100" dy="2.1em">What’s more interesting,</tspan><tspan x="26" y="100" dy="3.2em">half of that forest is</tspan><tspan x="26" y="100" dy="4.300000000000001em">totally uninhabited by</tspan><tspan x="26" y="100" dy="5.4em">humans.</tspan></text><text class="lb1" transform="translate(29 230.8)" font-size="35">RUSSIA</text></svg></svg><g><image href="connections/arrow3.svg" width="100" x="814.5333333333333" y="268.4" transform="rotate(34.20918532405864,864.5333333333333,318.4)"></image></g><g><image href="connections/arrow3.svg" width="100" x="579.3333333333333" y="382" transform="rotate(265.76360520094113,629.3333333333333,432)"></image></g><g><image href="connections/arrow3.svg" width="100" x="352.1333333333333" y="526" transform="rotate(30.087965696465773,402.1333333333333,576)"></image></g><g><image href="connections/arrow3.svg" width="100" x="587.3333333333333" y="412.4" transform="rotate(183.59599796799054,637.3333333333333,462.4)"></image></g></svg>