<svg id="svg" height="960" width="1280" xmlns="http://www.w3.org/2000/svg"><image x="0" y="0" height="960" width="1280" preserveAspectRatio="none" href="images/background3.jpg"></image><svg width="350" height="350" id="vg0" x="426.5999999999999" y="-24.599999999999994"><svg id="Layer_1" data-name="Layer 1" xmlns="http://www.w3.org/2000/svg" viewBox="0 0 395 57"><defs><style>@import url('https://fonts.googleapis.com/css2?family=Kiwi+Maru:wght@500&amp;display=swap');@import url('https://fonts.googleapis.com/css2?family=Balsamiq+Sans:ital@1&amp;family=Kiwi+Maru:wght@500&amp;display=swap');
    .lb1{font-family:Kiwi Maru, serif; font-size: 30px;}.lb1{fill:#2c7bb6;}.txt1{font-family: Balsamiq Sans, cursive; font-size: 25px;}.color-1{fill:#59bdc9;}.color-10{fill:#d01c8b;}</style></defs><polygon class="color-10" points="278 57 0 57 0 0 278 0 285 28.5 278 57"></polygon><rect class="text-wrap" height="100px" width="230" x="25" y="12" style="fill:none"></rect><text id="wrap" class="txt1" y="25" x="25" font-size="12" dy="1"><tspan x="25" y="25" dy="1em">The United States</tspan><tspan x="25" y="25" dy="2.1em">has maintained its</tspan><tspan x="25" y="25" dy="3.2em">position of being the</tspan><tspan x="25" y="25" dy="4.300000000000001em">world’s largest</tspan><tspan x="25" y="25" dy="5.4em">economy since 1871.</tspan></text><polygon class="color-10" points="395 57 343 57 336 28.5 343 0 395 0 395 57"></polygon><text class="lb1" transform="translate(290 23.8) rotate(270 50 23.8)">USA</text><image class="img1" x="340" y="5" href="images/usa.svg" width="50"></image></svg></svg><svg width="350" height="350" id="vg1" x="844.7333333333333" y="191.39999999999998"><svg id="Layer_1" data-name="Layer 1" xmlns="http://www.w3.org/2000/svg" viewBox="0 0 395 57"><defs><style>@import url('https://fonts.googleapis.com/css2?family=Kiwi+Maru:wght@500&amp;display=swap');@import url('https://fonts.googleapis.com/css2?family=Balsamiq+Sans:ital@1&amp;family=Kiwi+Maru:wght@500&amp;display=swap');
    .lb1{font-family:Kiwi Maru, serif; font-size: 30px;}.lb1{fill:#2c7bb6;}.txt1{font-family: Balsamiq Sans, cursive; font-size: 25px;}.color-1{fill:#59bdc9;}.color-11{fill:#f1b6da;}</style></defs><polygon class="color-11" points="278 57 0 57 0 0 278 0 285 28.5 278 57"></polygon><rect class="text-wrap" height="100px" width="230" x="25" y="12" style="fill:none"></rect><text id="wrap" class="txt1" y="25" x="25" font-size="12" dy="1"><tspan x="25" y="25" dy="1em">In China, the</tspan><tspan x="25" y="25" dy="2.1em">dragons are</tspan><tspan x="25" y="25" dy="3.2em">associated with</tspan><tspan x="25" y="25" dy="4.300000000000001em">wealth, power, and</tspan><tspan x="25" y="25" dy="5.4em">leadership</tspan></text><polygon class="color-11" points="395 57 343 57 336 28.5 343 0 395 0 395 57"></polygon><text class="lb1" transform="translate(290 23.8) rotate(270 50 23.8)">CHINA</text><image class="img1" x="340" y="5" href="images/china.svg" width="50"></image></svg></svg><svg width="350" height="350" id="vg2" x="101.26666666666665" y="381"><svg id="Layer_1" data-name="Layer 1" xmlns="http://www.w3.org/2000/svg" viewBox="0 0 395 57"><defs><style>@import url('https://fonts.googleapis.com/css2?family=Kiwi+Maru:wght@500&amp;display=swap');@import url('https://fonts.googleapis.com/css2?family=Balsamiq+Sans:ital@1&amp;family=Kiwi+Maru:wght@500&amp;display=swap');
    .lb1{font-family:Kiwi Maru, serif; font-size: 30px;}.lb1{fill:#2c7bb6;}.txt1{font-family: Balsamiq Sans, cursive; font-size: 25px;}.color-1{fill:#59bdc9;}.color-12{fill:#f7f7f7;}</style></defs><polygon class="color-12" points="278 57 0 57 0 0 278 0 285 28.5 278 57"></polygon><rect class="text-wrap" height="100px" width="230" x="25" y="12" style="fill:none"></rect><text id="wrap" class="txt1" y="25" x="25" font-size="12" dy="1"><tspan x="25" y="25" dy="1em">It’s estimated that</tspan><tspan x="25" y="25" dy="2.1em">between 15% and</tspan><tspan x="25" y="25" dy="3.2em">30% of India’s</tspan><tspan x="25" y="25" dy="4.300000000000001em">population follow a</tspan><tspan x="25" y="25" dy="5.4em">strict vegetarian</tspan><tspan x="25" y="25" dy="6.5em">diet.</tspan></text><polygon class="color-12" points="395 57 343 57 336 28.5 343 0 395 0 395 57"></polygon><text class="lb1" transform="translate(290 23.8) rotate(270 50 23.8)">INDIA</text><image class="img1" x="340" y="5" href="images/india.svg" width="50"></image></svg></svg><svg width="350" height="350" id="vg3" x="845.8" y="546.6"><svg id="Layer_1" data-name="Layer 1" xmlns="http://www.w3.org/2000/svg" viewBox="0 0 395 57"><defs><style>@import url('https://fonts.googleapis.com/css2?family=Kiwi+Maru:wght@500&amp;display=swap');@import url('https://fonts.googleapis.com/css2?family=Balsamiq+Sans:ital@1&amp;family=Kiwi+Maru:wght@500&amp;display=swap');
    .lb1{font-family:Kiwi Maru, serif; font-size: 30px;}.lb1{fill:#2c7bb6;}.txt1{font-family: Balsamiq Sans, cursive; font-size: 25px;}.color-1{fill:#59bdc9;}.color-13{fill:#b8e186;}</style></defs><polygon class="color-13" points="278 57 0 57 0 0 278 0 285 28.5 278 57"></polygon><rect class="text-wrap" height="100px" width="230" x="25" y="12" style="fill:none"></rect><text id="wrap" class="txt1" y="25" x="25" font-size="12" dy="1"><tspan x="25" y="25" dy="1em">Russia is 60%</tspan><tspan x="25" y="25" dy="2.1em">forest. What’s more</tspan><tspan x="25" y="25" dy="3.2em">interesting, half of</tspan><tspan x="25" y="25" dy="4.300000000000001em">that forest is totally</tspan><tspan x="25" y="25" dy="5.4em">uninhabited by</tspan><tspan x="25" y="25" dy="6.5em">humans.</tspan></text><polygon class="color-13" points="395 57 343 57 336 28.5 343 0 395 0 395 57"></polygon><text class="lb1" transform="translate(290 23.8) rotate(270 50 23.8)">RUSSIA</text><image class="img1" x="340" y="5" href="images/russia.svg" width="50"></image></svg></svg><svg width="350" height="350" id="vg4" x="92.73333333333335" y="654.6"><svg id="Layer_1" data-name="Layer 1" xmlns="http://www.w3.org/2000/svg" viewBox="0 0 395 57"><defs><style>@import url('https://fonts.googleapis.com/css2?family=Kiwi+Maru:wght@500&amp;display=swap');@import url('https://fonts.googleapis.com/css2?family=Balsamiq+Sans:ital@1&amp;family=Kiwi+Maru:wght@500&amp;display=swap');
    .lb1{font-family:Kiwi Maru, serif; font-size: 30px;}.lb1{fill:#2c7bb6;}.txt1{font-family: Balsamiq Sans, cursive; font-size: 25px;}.color-1{fill:#59bdc9;}.color-14{fill:#4dac26;}</style></defs><polygon class="color-14" points="278 57 0 57 0 0 278 0 285 28.5 278 57"></polygon><rect class="text-wrap" height="100px" width="230" x="25" y="12" style="fill:none"></rect><text id="wrap" class="txt1" y="25" x="25" font-size="12" dy="1"><tspan x="25" y="25" dy="1em">Brazil has won more</tspan><tspan x="25" y="25" dy="2.1em">football world cups</tspan><tspan x="25" y="25" dy="3.2em">than any other</tspan><tspan x="25" y="25" dy="4.300000000000001em">country, with Pele</tspan><tspan x="25" y="25" dy="5.4em">being the top</tspan><tspan x="25" y="25" dy="6.5em">scorer.</tspan></text><polygon class="color-14" points="395 57 343 57 336 28.5 343 0 395 0 395 57"></polygon><text class="lb1" transform="translate(290 23.8) rotate(270 50 23.8)">BRAZIL</text><image class="img1" x="340" y="5" href="images/brazil.svg" width="50"></image></svg></svg><g><image href="connections/minus-line.svg" width="100" x="760.6666666666666" y="208.39999999999998" transform="rotate(207.32004562439866,810.6666666666666,258.4)"></image></g><g><image href="connections/minus-line.svg" width="100" x="598" y="411.2" transform="rotate(345.693290391959,648,461.2)"></image></g><g><image href="connections/minus-line.svg" width="100" x="598.5333333333333" y="588.8" transform="rotate(192.5396715276624,648.5333333333333,638.8)"></image></g><g><image href="connections/minus-line.svg" width="100" x="594.2666666666667" y="725.6" transform="rotate(351.8386552172425,644.2666666666667,775.6)"></image></g><g><image href="connections/minus-line.svg" width="100" x="384.66666666666663" y="440" transform="rotate(116.17682539478429,434.66666666666663,490)"></image></g><image x="540" y="550" href="images/pivot.png"></image></svg>