<svg id="svg" height="960" width="1280" xmlns="http://www.w3.org/2000/svg"><image x="0" y="0" height="960" width="1280" preserveAspectRatio="none" href="images/background3.jpg"></image><svg width="350" height="350" id="vg0" x="466.0916666666667" y="369.01874999999995"><svg id="Layer_1" data-name="Layer 1" xmlns="http://www.w3.org/2000/svg" viewBox="0 0 518 604"><defs><style>@import url('https://fonts.googleapis.com/css2?family=Kiwi+Maru:wght@500&amp;display=swap');@import url('https://fonts.googleapis.com/css2?family=Balsamiq+Sans:ital@1&amp;family=Kiwi+Maru:wght@500&amp;display=swap');
    .lb1{font-family:Kiwi Maru, serif; font-size: 50px;}.lb1{fill:#2c7bb6;}.txt1{font-family: Balsamiq Sans, cursive; font-size: 22px;}.color-1{fill:#59bdc9;}.color-10{fill:#7b3294;}</style></defs><path class="color-10" d="M701.75,101H415.48c-14.56,0-26.36,10.86-26.36,24.26V258.31c0,13.4,11.8,24.26,26.36,24.26h26.45v58c0,5.74,7.45,8.71,12,4.78l72.72-62.77H701.75c14.56,0,26.37-10.86,26.37-24.26v-133C728.12,111.86,716.31,101,701.75,101Z" transform="translate(-301 -101)"></path><path class="color-10" d="M330.8,329.35c0,16.17,14.24,29.27,31.83,29.27s31.83-13.1,31.83-29.27S380.2,300,362.63,300s-31.83,13.12-31.83,29.31Zm0,0" transform="translate(-301 -101)"></path><path class="color-10" d="M383.79,365.77a13.18,13.18,0,0,0-1.63-.74,38.13,38.13,0,0,0-11.6-4.69l-7.94,7.34-7.68-7.43h-.08a38.57,38.57,0,0,0-11.64,4.67,13,13,0,0,0-1.88.84c-19.34,10.91-32.24,20.05-39,54.45h51.75l.82-4.22,7.66-47.23h.17L370.37,416l.92,4.22h51.54c-6.8-34.41-19.69-43.54-39-54.45Zm0,0" transform="translate(-301 -101)"></path><rect class="text-wrap" height="150" width="300" x="100" y="20" style="fill:none"></rect><text id="wrap" class="txt1" fill="whitesmoke" y="30" x="100" dy="1" font-size="22"><tspan x="100" y="30" dy="1em">The United States has</tspan><tspan x="100" y="30" dy="2.1em">maintained its position of</tspan><tspan x="100" y="30" dy="3.2em">being the world’s largest</tspan><tspan x="100" y="30" dy="4.300000000000001em">economy since 1871.</tspan></text><text class="lb1" font-size="80" x="200" y="550">USA</text><image class="img1" x="0" y="450" href="images/usa.svg" width="180"></image></svg></svg><svg width="350" height="350" id="vg1" x="783.9583333333333" y="123.41874999999999"><svg id="Layer_1" data-name="Layer 1" xmlns="http://www.w3.org/2000/svg" viewBox="0 0 518 604"><defs><style>@import url('https://fonts.googleapis.com/css2?family=Kiwi+Maru:wght@500&amp;display=swap');@import url('https://fonts.googleapis.com/css2?family=Balsamiq+Sans:ital@1&amp;family=Kiwi+Maru:wght@500&amp;display=swap');
    .lb1{font-family:Kiwi Maru, serif; font-size: 50px;}.lb1{fill:#2c7bb6;}.txt1{font-family: Balsamiq Sans, cursive; font-size: 22px;}.color-1{fill:#59bdc9;}.color-11{fill:#c2a5cf;}</style></defs><path class="color-11" d="M701.75,101H415.48c-14.56,0-26.36,10.86-26.36,24.26V258.31c0,13.4,11.8,24.26,26.36,24.26h26.45v58c0,5.74,7.45,8.71,12,4.78l72.72-62.77H701.75c14.56,0,26.37-10.86,26.37-24.26v-133C728.12,111.86,716.31,101,701.75,101Z" transform="translate(-301 -101)"></path><path class="color-11" d="M330.8,329.35c0,16.17,14.24,29.27,31.83,29.27s31.83-13.1,31.83-29.27S380.2,300,362.63,300s-31.83,13.12-31.83,29.31Zm0,0" transform="translate(-301 -101)"></path><path class="color-11" d="M383.79,365.77a13.18,13.18,0,0,0-1.63-.74,38.13,38.13,0,0,0-11.6-4.69l-7.94,7.34-7.68-7.43h-.08a38.57,38.57,0,0,0-11.64,4.67,13,13,0,0,0-1.88.84c-19.34,10.91-32.24,20.05-39,54.45h51.75l.82-4.22,7.66-47.23h.17L370.37,416l.92,4.22h51.54c-6.8-34.41-19.69-43.54-39-54.45Zm0,0" transform="translate(-301 -101)"></path><rect class="text-wrap" height="150" width="300" x="100" y="20" style="fill:none"></rect><text id="wrap" class="txt1" fill="whitesmoke" y="30" x="100" dy="1" font-size="22"><tspan x="100" y="30" dy="1em">In China, the dragons are</tspan><tspan x="100" y="30" dy="2.1em">associated with wealth, power,</tspan><tspan x="100" y="30" dy="3.2em">and leadership</tspan></text><text class="lb1" font-size="80" x="200" y="550">CHINA</text><image class="img1" x="0" y="450" href="images/china.svg" width="180"></image></svg></svg><svg width="350" height="350" id="vg2" x="133.29166666666663" y="109.81875000000002"><svg id="Layer_1" data-name="Layer 1" xmlns="http://www.w3.org/2000/svg" viewBox="0 0 518 604"><defs><style>@import url('https://fonts.googleapis.com/css2?family=Kiwi+Maru:wght@500&amp;display=swap');@import url('https://fonts.googleapis.com/css2?family=Balsamiq+Sans:ital@1&amp;family=Kiwi+Maru:wght@500&amp;display=swap');
    .lb1{font-family:Kiwi Maru, serif; font-size: 50px;}.lb1{fill:#2c7bb6;}.txt1{font-family: Balsamiq Sans, cursive; font-size: 22px;}.color-1{fill:#59bdc9;}.color-12{fill:#f7f7f7;}</style></defs><path class="color-12" d="M701.75,101H415.48c-14.56,0-26.36,10.86-26.36,24.26V258.31c0,13.4,11.8,24.26,26.36,24.26h26.45v58c0,5.74,7.45,8.71,12,4.78l72.72-62.77H701.75c14.56,0,26.37-10.86,26.37-24.26v-133C728.12,111.86,716.31,101,701.75,101Z" transform="translate(-301 -101)"></path><path class="color-12" d="M330.8,329.35c0,16.17,14.24,29.27,31.83,29.27s31.83-13.1,31.83-29.27S380.2,300,362.63,300s-31.83,13.12-31.83,29.31Zm0,0" transform="translate(-301 -101)"></path><path class="color-12" d="M383.79,365.77a13.18,13.18,0,0,0-1.63-.74,38.13,38.13,0,0,0-11.6-4.69l-7.94,7.34-7.68-7.43h-.08a38.57,38.57,0,0,0-11.64,4.67,13,13,0,0,0-1.88.84c-19.34,10.91-32.24,20.05-39,54.45h51.75l.82-4.22,7.66-47.23h.17L370.37,416l.92,4.22h51.54c-6.8-34.41-19.69-43.54-39-54.45Zm0,0" transform="translate(-301 -101)"></path><rect class="text-wrap" height="150" width="300" x="100" y="20" style="fill:none"></rect><text id="wrap" class="txt1" fill="whitesmoke" y="30" x="100" dy="1" font-size="22"><tspan x="100" y="30" dy="1em">It’s estimated that between</tspan><tspan x="100" y="30" dy="2.1em">15% and 30% of India’s</tspan><tspan x="100" y="30" dy="3.2em">population follow a strict</tspan><tspan x="100" y="30" dy="4.300000000000001em">vegetarian diet.</tspan></text><text class="lb1" font-size="80" x="200" y="550">INDIA</text><image class="img1" x="0" y="450" href="images/india.svg" width="180"></image></svg></svg><svg width="350" height="350" id="vg3" x="145.02499999999998" y="599.4187499999999"><svg id="Layer_1" data-name="Layer 1" xmlns="http://www.w3.org/2000/svg" viewBox="0 0 518 604"><defs><style>@import url('https://fonts.googleapis.com/css2?family=Kiwi+Maru:wght@500&amp;display=swap');@import url('https://fonts.googleapis.com/css2?family=Balsamiq+Sans:ital@1&amp;family=Kiwi+Maru:wght@500&amp;display=swap');
    .lb1{font-family:Kiwi Maru, serif; font-size: 50px;}.lb1{fill:#2c7bb6;}.txt1{font-family: Balsamiq Sans, cursive; font-size: 22px;}.color-1{fill:#59bdc9;}.color-13{fill:#a6dba0;}</style></defs><path class="color-13" d="M701.75,101H415.48c-14.56,0-26.36,10.86-26.36,24.26V258.31c0,13.4,11.8,24.26,26.36,24.26h26.45v58c0,5.74,7.45,8.71,12,4.78l72.72-62.77H701.75c14.56,0,26.37-10.86,26.37-24.26v-133C728.12,111.86,716.31,101,701.75,101Z" transform="translate(-301 -101)"></path><path class="color-13" d="M330.8,329.35c0,16.17,14.24,29.27,31.83,29.27s31.83-13.1,31.83-29.27S380.2,300,362.63,300s-31.83,13.12-31.83,29.31Zm0,0" transform="translate(-301 -101)"></path><path class="color-13" d="M383.79,365.77a13.18,13.18,0,0,0-1.63-.74,38.13,38.13,0,0,0-11.6-4.69l-7.94,7.34-7.68-7.43h-.08a38.57,38.57,0,0,0-11.64,4.67,13,13,0,0,0-1.88.84c-19.34,10.91-32.24,20.05-39,54.45h51.75l.82-4.22,7.66-47.23h.17L370.37,416l.92,4.22h51.54c-6.8-34.41-19.69-43.54-39-54.45Zm0,0" transform="translate(-301 -101)"></path><rect class="text-wrap" height="150" width="300" x="100" y="20" style="fill:none"></rect><text id="wrap" class="txt1" fill="whitesmoke" y="30" x="100" dy="1" font-size="22"><tspan x="100" y="30" dy="1em">Russia is 60% forest. What’s</tspan><tspan x="100" y="30" dy="2.1em">more interesting, half of that</tspan><tspan x="100" y="30" dy="3.2em">forest is totally uninhabited by</tspan><tspan x="100" y="30" dy="4.300000000000001em">humans.</tspan></text><text class="lb1" font-size="80" x="200" y="550">RUSSIA</text><image class="img1" x="0" y="450" href="images/russia.svg" width="180"></image></svg></svg><svg width="350" height="350" id="vg4" x="788.225" y="593.0187500000001"><svg id="Layer_1" data-name="Layer 1" xmlns="http://www.w3.org/2000/svg" viewBox="0 0 518 604"><defs><style>@import url('https://fonts.googleapis.com/css2?family=Kiwi+Maru:wght@500&amp;display=swap');@import url('https://fonts.googleapis.com/css2?family=Balsamiq+Sans:ital@1&amp;family=Kiwi+Maru:wght@500&amp;display=swap');
    .lb1{font-family:Kiwi Maru, serif; font-size: 50px;}.lb1{fill:#2c7bb6;}.txt1{font-family: Balsamiq Sans, cursive; font-size: 22px;}.color-1{fill:#59bdc9;}.color-14{fill:#008837;}</style></defs><path class="color-14" d="M701.75,101H415.48c-14.56,0-26.36,10.86-26.36,24.26V258.31c0,13.4,11.8,24.26,26.36,24.26h26.45v58c0,5.74,7.45,8.71,12,4.78l72.72-62.77H701.75c14.56,0,26.37-10.86,26.37-24.26v-133C728.12,111.86,716.31,101,701.75,101Z" transform="translate(-301 -101)"></path><path class="color-14" d="M330.8,329.35c0,16.17,14.24,29.27,31.83,29.27s31.83-13.1,31.83-29.27S380.2,300,362.63,300s-31.83,13.12-31.83,29.31Zm0,0" transform="translate(-301 -101)"></path><path class="color-14" d="M383.79,365.77a13.18,13.18,0,0,0-1.63-.74,38.13,38.13,0,0,0-11.6-4.69l-7.94,7.34-7.68-7.43h-.08a38.57,38.57,0,0,0-11.64,4.67,13,13,0,0,0-1.88.84c-19.34,10.91-32.24,20.05-39,54.45h51.75l.82-4.22,7.66-47.23h.17L370.37,416l.92,4.22h51.54c-6.8-34.41-19.69-43.54-39-54.45Zm0,0" transform="translate(-301 -101)"></path><rect class="text-wrap" height="150" width="300" x="100" y="20" style="fill:none"></rect><text id="wrap" class="txt1" fill="whitesmoke" y="30" x="100" dy="1" font-size="22"><tspan x="100" y="30" dy="1em">Brazil has won more football</tspan><tspan x="100" y="30" dy="2.1em">world cups than any other</tspan><tspan x="100" y="30" dy="3.2em">country, with Pele being the</tspan><tspan x="100" y="30" dy="4.300000000000001em">top scorer.</tspan></text><text class="lb1" font-size="80" x="200" y="550">BRAZIL</text><image class="img1" x="0" y="450" href="images/brazil.svg" width="180"></image></svg></svg><g><image href="connections/arrow3.svg" width="100" x="424.69166666666666" y="364.41875" transform="rotate(37.91310458992632,474.69166666666666,414.41875)"></image></g><g><image href="connections/arrow3.svg" width="100" x="589.4916666666666" y="486.41874999999993" transform="rotate(323.31419686868355,639.4916666666666,536.4187499999999)"></image></g><g><image href="connections/arrow3.svg" width="100" x="585.7583333333333" y="476.41875000000005" transform="rotate(216.4193503440598,635.7583333333333,526.41875)"></image></g><image x="540" y="550" href="images/pivot.png"></image></svg>