<svg id="svg" height="960" width="1280" xmlns="http://www.w3.org/2000/svg"><image x="0" y="0" height="960" width="1280" preserveAspectRatio="none" href="images/background3.jpg"></image><svg width="350" height="350" id="vg0" x="126.86666666666667" y="27.400000000000006"><svg id="Layer_1" data-name="Layer 1" xmlns="http://www.w3.org/2000/svg" viewBox="0 0 167.5 178.46"><defs><style>@import url('https://fonts.googleapis.com/css2?family=Kiwi+Maru:wght@500&amp;display=swap');@import url('https://fonts.googleapis.com/css2?family=Balsamiq+Sans:ital@1&amp;family=Kiwi+Maru:wght@500&amp;display=swap');
    .lb1{font-family:Kiwi Maru, serif; font-size: 10px;}.lb1{fill:#2c7bb6;}.txt1{font-family: Balsamiq Sans, cursive; font-size: 6px;}.color-1,.lb1{fill:#59bdc9;}.color2{fill:#fffbf5;}.color3,.color4{fill:#5c6c76;}.color4{font-size:13px;font-family:FiraSans-SemiBold, Fira Sans;font-weight:600;}.color-10{fill:#d01c8b;}</style></defs><image class="img1" x="90" y="45" href="images/usa.svg" width="50"></image><path class="color-10" d="M467.74,294.27a30.82,30.82,0,0,1,30.83,30.83c0,26.66-30.83,52.29-30.83,52.29s-30.82-27-30.82-52.3a30.82,30.82,0,0,1,30.82-30.82Zm0,55.17a24.69,24.69,0,1,0-24.68-24.69,24.7,24.7,0,0,0,24.68,24.69Z" transform="translate(-422.85 -294.27)"></path><path class="color2" d="M467.74,390.65a5.82,5.82,0,1,1,5.83-5.82A5.83,5.83,0,0,1,467.74,390.65Z" transform="translate(-422.85 -294.27)"></path><path class="color3" d="M467.74,381a3.82,3.82,0,1,1-3.82,3.82,3.83,3.83,0,0,1,3.82-3.82m0-4a7.82,7.82,0,1,0,7.83,7.82,7.82,7.82,0,0,0-7.83-7.82Z" transform="translate(-422.85 -294.27)"></path><text class="lb1" transform="translate(25.81 30.56)">USA</text><rect class="text-wrap" height="350px" width="70" x="85" y="13" style="fill:none"></rect><text id="wrap" class="txt1" y="113" x="20" dy="1" font-size="6"><tspan x="20" y="113" dy="1em">The United States has</tspan><tspan x="20" y="113" dy="2.1em">maintained its position of</tspan><tspan x="20" y="113" dy="3.2em">being the world’s largest</tspan><tspan x="20" y="113" dy="4.300000000000001em">economy since 1871.</tspan></text></svg></svg><svg width="350" height="350" id="vg1" x="806.3333333333334" y="170.59999999999997"><svg id="Layer_1" data-name="Layer 1" xmlns="http://www.w3.org/2000/svg" viewBox="0 0 167.5 178.46"><defs><style>@import url('https://fonts.googleapis.com/css2?family=Kiwi+Maru:wght@500&amp;display=swap');@import url('https://fonts.googleapis.com/css2?family=Balsamiq+Sans:ital@1&amp;family=Kiwi+Maru:wght@500&amp;display=swap');
    .lb1{font-family:Kiwi Maru, serif; font-size: 10px;}.lb1{fill:#2c7bb6;}.txt1{font-family: Balsamiq Sans, cursive; font-size: 6px;}.color-1,.lb1{fill:#59bdc9;}.color2{fill:#fffbf5;}.color3,.color4{fill:#5c6c76;}.color4{font-size:13px;font-family:FiraSans-SemiBold, Fira Sans;font-weight:600;}.color-11{fill:#f1b6da;}</style></defs><image class="img1" x="90" y="45" href="images/china.svg" width="50"></image><path class="color-11" d="M467.74,294.27a30.82,30.82,0,0,1,30.83,30.83c0,26.66-30.83,52.29-30.83,52.29s-30.82-27-30.82-52.3a30.82,30.82,0,0,1,30.82-30.82Zm0,55.17a24.69,24.69,0,1,0-24.68-24.69,24.7,24.7,0,0,0,24.68,24.69Z" transform="translate(-422.85 -294.27)"></path><path class="color2" d="M467.74,390.65a5.82,5.82,0,1,1,5.83-5.82A5.83,5.83,0,0,1,467.74,390.65Z" transform="translate(-422.85 -294.27)"></path><path class="color3" d="M467.74,381a3.82,3.82,0,1,1-3.82,3.82,3.83,3.83,0,0,1,3.82-3.82m0-4a7.82,7.82,0,1,0,7.83,7.82,7.82,7.82,0,0,0-7.83-7.82Z" transform="translate(-422.85 -294.27)"></path><text class="lb1" transform="translate(25.81 30.56)">CHINA</text><rect class="text-wrap" height="350px" width="70" x="85" y="13" style="fill:none"></rect><text id="wrap" class="txt1" y="113" x="20" dy="1" font-size="6"><tspan x="20" y="113" dy="1em">In China, the dragons are</tspan><tspan x="20" y="113" dy="2.1em">associated with wealth,</tspan><tspan x="20" y="113" dy="3.2em">power, and leadership</tspan></text></svg></svg><svg width="350" height="350" id="vg2" x="136.4666666666667" y="313.8"><svg id="Layer_1" data-name="Layer 1" xmlns="http://www.w3.org/2000/svg" viewBox="0 0 167.5 178.46"><defs><style>@import url('https://fonts.googleapis.com/css2?family=Kiwi+Maru:wght@500&amp;display=swap');@import url('https://fonts.googleapis.com/css2?family=Balsamiq+Sans:ital@1&amp;family=Kiwi+Maru:wght@500&amp;display=swap');
    .lb1{font-family:Kiwi Maru, serif; font-size: 10px;}.lb1{fill:#2c7bb6;}.txt1{font-family: Balsamiq Sans, cursive; font-size: 6px;}.color-1,.lb1{fill:#59bdc9;}.color2{fill:#fffbf5;}.color3,.color4{fill:#5c6c76;}.color4{font-size:13px;font-family:FiraSans-SemiBold, Fira Sans;font-weight:600;}.color-12{fill:#f7f7f7;}</style></defs><image class="img1" x="90" y="45" href="images/india.svg" width="50"></image><path class="color-12" d="M467.74,294.27a30.82,30.82,0,0,1,30.83,30.83c0,26.66-30.83,52.29-30.83,52.29s-30.82-27-30.82-52.3a30.82,30.82,0,0,1,30.82-30.82Zm0,55.17a24.69,24.69,0,1,0-24.68-24.69,24.7,24.7,0,0,0,24.68,24.69Z" transform="translate(-422.85 -294.27)"></path><path class="color2" d="M467.74,390.65a5.82,5.82,0,1,1,5.83-5.82A5.83,5.83,0,0,1,467.74,390.65Z" transform="translate(-422.85 -294.27)"></path><path class="color3" d="M467.74,381a3.82,3.82,0,1,1-3.82,3.82,3.83,3.83,0,0,1,3.82-3.82m0-4a7.82,7.82,0,1,0,7.83,7.82,7.82,7.82,0,0,0-7.83-7.82Z" transform="translate(-422.85 -294.27)"></path><text class="lb1" transform="translate(25.81 30.56)">INDIA</text><rect class="text-wrap" height="350px" width="70" x="85" y="13" style="fill:none"></rect><text id="wrap" class="txt1" y="113" x="20" dy="1" font-size="6"><tspan x="20" y="113" dy="1em">It’s estimated that</tspan><tspan x="20" y="113" dy="2.1em">between 15% and 30% of</tspan><tspan x="20" y="113" dy="3.2em">India’s population follow a</tspan><tspan x="20" y="113" dy="4.300000000000001em">strict vegetarian diet.</tspan></text></svg></svg><svg width="350" height="350" id="vg3" x="803.1333333333333" y="465"><svg id="Layer_1" data-name="Layer 1" xmlns="http://www.w3.org/2000/svg" viewBox="0 0 167.5 178.46"><defs><style>@import url('https://fonts.googleapis.com/css2?family=Kiwi+Maru:wght@500&amp;display=swap');@import url('https://fonts.googleapis.com/css2?family=Balsamiq+Sans:ital@1&amp;family=Kiwi+Maru:wght@500&amp;display=swap');
    .lb1{font-family:Kiwi Maru, serif; font-size: 10px;}.lb1{fill:#2c7bb6;}.txt1{font-family: Balsamiq Sans, cursive; font-size: 6px;}.color-1,.lb1{fill:#59bdc9;}.color2{fill:#fffbf5;}.color3,.color4{fill:#5c6c76;}.color4{font-size:13px;font-family:FiraSans-SemiBold, Fira Sans;font-weight:600;}.color-13{fill:#b8e186;}</style></defs><image class="img1" x="90" y="45" href="images/russia.svg" width="50"></image><path class="color-13" d="M467.74,294.27a30.82,30.82,0,0,1,30.83,30.83c0,26.66-30.83,52.29-30.83,52.29s-30.82-27-30.82-52.3a30.82,30.82,0,0,1,30.82-30.82Zm0,55.17a24.69,24.69,0,1,0-24.68-24.69,24.7,24.7,0,0,0,24.68,24.69Z" transform="translate(-422.85 -294.27)"></path><path class="color2" d="M467.74,390.65a5.82,5.82,0,1,1,5.83-5.82A5.83,5.83,0,0,1,467.74,390.65Z" transform="translate(-422.85 -294.27)"></path><path class="color3" d="M467.74,381a3.82,3.82,0,1,1-3.82,3.82,3.83,3.83,0,0,1,3.82-3.82m0-4a7.82,7.82,0,1,0,7.83,7.82,7.82,7.82,0,0,0-7.83-7.82Z" transform="translate(-422.85 -294.27)"></path><text class="lb1" transform="translate(25.81 30.56)">RUSSIA</text><rect class="text-wrap" height="350px" width="70" x="85" y="13" style="fill:none"></rect><text id="wrap" class="txt1" y="113" x="20" dy="1" font-size="6"><tspan x="20" y="113" dy="1em">Russia is 60% forest.</tspan><tspan x="20" y="113" dy="2.1em">What’s more interesting,</tspan><tspan x="20" y="113" dy="3.2em">half of that forest is totally</tspan><tspan x="20" y="113" dy="4.300000000000001em">uninhabited by humans.</tspan></text></svg></svg><svg width="350" height="350" id="vg4" x="131.13333333333333" y="611.4000000000001"><svg id="Layer_1" data-name="Layer 1" xmlns="http://www.w3.org/2000/svg" viewBox="0 0 167.5 178.46"><defs><style>@import url('https://fonts.googleapis.com/css2?family=Kiwi+Maru:wght@500&amp;display=swap');@import url('https://fonts.googleapis.com/css2?family=Balsamiq+Sans:ital@1&amp;family=Kiwi+Maru:wght@500&amp;display=swap');
    .lb1{font-family:Kiwi Maru, serif; font-size: 10px;}.lb1{fill:#2c7bb6;}.txt1{font-family: Balsamiq Sans, cursive; font-size: 6px;}.color-1,.lb1{fill:#59bdc9;}.color2{fill:#fffbf5;}.color3,.color4{fill:#5c6c76;}.color4{font-size:13px;font-family:FiraSans-SemiBold, Fira Sans;font-weight:600;}.color-14{fill:#4dac26;}</style></defs><image class="img1" x="90" y="45" href="images/brazil.svg" width="50"></image><path class="color-14" d="M467.74,294.27a30.82,30.82,0,0,1,30.83,30.83c0,26.66-30.83,52.29-30.83,52.29s-30.82-27-30.82-52.3a30.82,30.82,0,0,1,30.82-30.82Zm0,55.17a24.69,24.69,0,1,0-24.68-24.69,24.7,24.7,0,0,0,24.68,24.69Z" transform="translate(-422.85 -294.27)"></path><path class="color2" d="M467.74,390.65a5.82,5.82,0,1,1,5.83-5.82A5.83,5.83,0,0,1,467.74,390.65Z" transform="translate(-422.85 -294.27)"></path><path class="color3" d="M467.74,381a3.82,3.82,0,1,1-3.82,3.82,3.83,3.83,0,0,1,3.82-3.82m0-4a7.82,7.82,0,1,0,7.83,7.82,7.82,7.82,0,0,0-7.83-7.82Z" transform="translate(-422.85 -294.27)"></path><text class="lb1" transform="translate(25.81 30.56)">BRAZIL</text><rect class="text-wrap" height="350px" width="70" x="85" y="13" style="fill:none"></rect><text id="wrap" class="txt1" y="113" x="20" dy="1" font-size="6"><tspan x="20" y="113" dy="1em">Brazil has won more</tspan><tspan x="20" y="113" dy="2.1em">football world cups than</tspan><tspan x="20" y="113" dy="3.2em">any other country, with</tspan><tspan x="20" y="113" dy="4.300000000000001em">Pele being the top scorer.</tspan></text></svg></svg><g><image href="connections/minus-line.svg" width="100" x="591.6" y="224" transform="rotate(191.90112349779054,641.6,274)"></image></g><g><image href="connections/minus-line.svg" width="100" x="596.4000000000001" y="367.2" transform="rotate(347.9332840320146,646.4000000000001,417.2)"></image></g><g><image href="connections/minus-line.svg" width="100" x="594.8" y="514.4" transform="rotate(192.77850847616278,644.8,564.4)"></image></g><g><image href="connections/minus-line.svg" width="100" x="592.1333333333333" y="663.2" transform="rotate(347.7097426061024,642.1333333333333,713.2)"></image></g><g><image href="connections/minus-line.svg" width="100" x="254" y="444.40000000000003" transform="rotate(89.58140814519952,304,494.40000000000003)"></image></g><image x="540" y="550" href="images/pivot.png"></image></svg>