<svg id="svg" height="960" width="1280" xmlns="http://www.w3.org/2000/svg"><image x="0" y="0" height="960" width="1280" preserveAspectRatio="none" href="images/background3.jpg"></image><svg width="350" height="350" id="vg0" x="126.86666666666667" y="27.400000000000006"><svg id="Layer_1" data-name="Layer 1" xmlns="http://www.w3.org/2000/svg" viewBox="0 0 385 561"><defs><style>@import url('https://fonts.googleapis.com/css2?family=Kiwi+Maru:wght@500&amp;display=swap');@import url('https://fonts.googleapis.com/css2?family=Balsamiq+Sans:ital@1&amp;family=Kiwi+Maru:wght@500&amp;display=swap');
    .lb1{font-family:Kiwi Maru, serif; font-size: 40px;}.lb1{fill:#2c7bb6;}.txt1{font-family: Balsamiq Sans, cursive; font-size: 22px;}.color-1{fill:#f75c2a;}.color-10{fill:#7b3294;}</style></defs><path class="color-10" d="M322.39,466.77c37.55,40.32,86.78,60.51,136.06,60.51,106.22,0,192.4-92.55,192.39-206.61,0-52.92-18.79-105.79-56.33-146.1S507.68,114,458.44,114H266V320.66C266,373.54,284.75,426.36,322.39,466.77ZM458.45,189.48c67.45,0,122.11,58.74,122.1,131.18S525.9,451.79,458.45,451.79,336.29,393.1,336.29,320.67,391,189.49,458.45,189.48Z" transform="translate(-266 -114)"></path><rect class="text-wrap" x="119.9" y="467.14" width="265.1" height="90.57" style="fill:none"></rect><text id="wrap" x="119.9" y="430" dy="1" class="txt1"><tspan x="119.9" y="430" dy="1em">The United States has</tspan><tspan x="119.9" y="430" dy="2.1em">maintained its position of</tspan><tspan x="119.9" y="430" dy="3.2em">being the world’s largest</tspan><tspan x="119.9" y="430" dy="4.300000000000001em">economy since 1871.</tspan></text><text class="lb1" x="120" y="230" font-size="30">USA</text><image class="img1" x="3" y="430" href="images/usa.svg" width="100"></image></svg></svg><svg width="350" height="350" id="vg1" x="806.3333333333334" y="170.59999999999997"><svg id="Layer_1" data-name="Layer 1" xmlns="http://www.w3.org/2000/svg" viewBox="0 0 385 561"><defs><style>@import url('https://fonts.googleapis.com/css2?family=Kiwi+Maru:wght@500&amp;display=swap');@import url('https://fonts.googleapis.com/css2?family=Balsamiq+Sans:ital@1&amp;family=Kiwi+Maru:wght@500&amp;display=swap');
    .lb1{font-family:Kiwi Maru, serif; font-size: 40px;}.lb1{fill:#2c7bb6;}.txt1{font-family: Balsamiq Sans, cursive; font-size: 22px;}.color-1{fill:#f75c2a;}.color-11{fill:#c2a5cf;}</style></defs><path class="color-11" d="M322.39,466.77c37.55,40.32,86.78,60.51,136.06,60.51,106.22,0,192.4-92.55,192.39-206.61,0-52.92-18.79-105.79-56.33-146.1S507.68,114,458.44,114H266V320.66C266,373.54,284.75,426.36,322.39,466.77ZM458.45,189.48c67.45,0,122.11,58.74,122.1,131.18S525.9,451.79,458.45,451.79,336.29,393.1,336.29,320.67,391,189.49,458.45,189.48Z" transform="translate(-266 -114)"></path><rect class="text-wrap" x="119.9" y="467.14" width="265.1" height="90.57" style="fill:none"></rect><text id="wrap" x="119.9" y="430" dy="1" class="txt1"><tspan x="119.9" y="430" dy="1em">In China, the dragons are</tspan><tspan x="119.9" y="430" dy="2.1em">associated with wealth,</tspan><tspan x="119.9" y="430" dy="3.2em">power, and leadership</tspan></text><text class="lb1" x="120" y="230" font-size="30">CHINA</text><image class="img1" x="3" y="430" href="images/china.svg" width="100"></image></svg></svg><svg width="350" height="350" id="vg2" x="136.4666666666667" y="313.8"><svg id="Layer_1" data-name="Layer 1" xmlns="http://www.w3.org/2000/svg" viewBox="0 0 385 561"><defs><style>@import url('https://fonts.googleapis.com/css2?family=Kiwi+Maru:wght@500&amp;display=swap');@import url('https://fonts.googleapis.com/css2?family=Balsamiq+Sans:ital@1&amp;family=Kiwi+Maru:wght@500&amp;display=swap');
    .lb1{font-family:Kiwi Maru, serif; font-size: 40px;}.lb1{fill:#2c7bb6;}.txt1{font-family: Balsamiq Sans, cursive; font-size: 22px;}.color-1{fill:#f75c2a;}.color-12{fill:#f7f7f7;}</style></defs><path class="color-12" d="M322.39,466.77c37.55,40.32,86.78,60.51,136.06,60.51,106.22,0,192.4-92.55,192.39-206.61,0-52.92-18.79-105.79-56.33-146.1S507.68,114,458.44,114H266V320.66C266,373.54,284.75,426.36,322.39,466.77ZM458.45,189.48c67.45,0,122.11,58.74,122.1,131.18S525.9,451.79,458.45,451.79,336.29,393.1,336.29,320.67,391,189.49,458.45,189.48Z" transform="translate(-266 -114)"></path><rect class="text-wrap" x="119.9" y="467.14" width="265.1" height="90.57" style="fill:none"></rect><text id="wrap" x="119.9" y="430" dy="1" class="txt1"><tspan x="119.9" y="430" dy="1em">It’s estimated that</tspan><tspan x="119.9" y="430" dy="2.1em">between 15% and 30% of</tspan><tspan x="119.9" y="430" dy="3.2em">India’s population follow a</tspan><tspan x="119.9" y="430" dy="4.300000000000001em">strict vegetarian diet.</tspan></text><text class="lb1" x="120" y="230" font-size="30">INDIA</text><image class="img1" x="3" y="430" href="images/india.svg" width="100"></image></svg></svg><svg width="350" height="350" id="vg3" x="803.1333333333333" y="465"><svg id="Layer_1" data-name="Layer 1" xmlns="http://www.w3.org/2000/svg" viewBox="0 0 385 561"><defs><style>@import url('https://fonts.googleapis.com/css2?family=Kiwi+Maru:wght@500&amp;display=swap');@import url('https://fonts.googleapis.com/css2?family=Balsamiq+Sans:ital@1&amp;family=Kiwi+Maru:wght@500&amp;display=swap');
    .lb1{font-family:Kiwi Maru, serif; font-size: 40px;}.lb1{fill:#2c7bb6;}.txt1{font-family: Balsamiq Sans, cursive; font-size: 22px;}.color-1{fill:#f75c2a;}.color-13{fill:#a6dba0;}</style></defs><path class="color-13" d="M322.39,466.77c37.55,40.32,86.78,60.51,136.06,60.51,106.22,0,192.4-92.55,192.39-206.61,0-52.92-18.79-105.79-56.33-146.1S507.68,114,458.44,114H266V320.66C266,373.54,284.75,426.36,322.39,466.77ZM458.45,189.48c67.45,0,122.11,58.74,122.1,131.18S525.9,451.79,458.45,451.79,336.29,393.1,336.29,320.67,391,189.49,458.45,189.48Z" transform="translate(-266 -114)"></path><rect class="text-wrap" x="119.9" y="467.14" width="265.1" height="90.57" style="fill:none"></rect><text id="wrap" x="119.9" y="430" dy="1" class="txt1"><tspan x="119.9" y="430" dy="1em">Russia is 60% forest.</tspan><tspan x="119.9" y="430" dy="2.1em">What’s more interesting,</tspan><tspan x="119.9" y="430" dy="3.2em">half of that forest is totally</tspan><tspan x="119.9" y="430" dy="4.300000000000001em">uninhabited by humans.</tspan></text><text class="lb1" x="120" y="230" font-size="30">RUSSIA</text><image class="img1" x="3" y="430" href="images/russia.svg" width="100"></image></svg></svg><svg width="350" height="350" id="vg4" x="131.13333333333333" y="611.4000000000001"><svg id="Layer_1" data-name="Layer 1" xmlns="http://www.w3.org/2000/svg" viewBox="0 0 385 561"><defs><style>@import url('https://fonts.googleapis.com/css2?family=Kiwi+Maru:wght@500&amp;display=swap');@import url('https://fonts.googleapis.com/css2?family=Balsamiq+Sans:ital@1&amp;family=Kiwi+Maru:wght@500&amp;display=swap');
    .lb1{font-family:Kiwi Maru, serif; font-size: 40px;}.lb1{fill:#2c7bb6;}.txt1{font-family: Balsamiq Sans, cursive; font-size: 22px;}.color-1{fill:#f75c2a;}.color-14{fill:#008837;}</style></defs><path class="color-14" d="M322.39,466.77c37.55,40.32,86.78,60.51,136.06,60.51,106.22,0,192.4-92.55,192.39-206.61,0-52.92-18.79-105.79-56.33-146.1S507.68,114,458.44,114H266V320.66C266,373.54,284.75,426.36,322.39,466.77ZM458.45,189.48c67.45,0,122.11,58.74,122.1,131.18S525.9,451.79,458.45,451.79,336.29,393.1,336.29,320.67,391,189.49,458.45,189.48Z" transform="translate(-266 -114)"></path><rect class="text-wrap" x="119.9" y="467.14" width="265.1" height="90.57" style="fill:none"></rect><text id="wrap" x="119.9" y="430" dy="1" class="txt1"><tspan x="119.9" y="430" dy="1em">Brazil has won more</tspan><tspan x="119.9" y="430" dy="2.1em">football world cups than</tspan><tspan x="119.9" y="430" dy="3.2em">any other country, with</tspan><tspan x="119.9" y="430" dy="4.300000000000001em">Pele being the top scorer.</tspan></text><text class="lb1" x="120" y="230" font-size="30">BRAZIL</text><image class="img1" x="3" y="430" href="images/brazil.svg" width="100"></image></svg></svg><g><image href="connections/striped-arrow.svg" width="100" x="591.6" y="224" transform="rotate(191.90112349779054,641.6,274)"></image></g><g><image href="connections/striped-arrow.svg" width="100" x="596.4000000000001" y="367.2" transform="rotate(347.9332840320146,646.4000000000001,417.2)"></image></g><g><image href="connections/striped-arrow.svg" width="100" x="594.8" y="514.4" transform="rotate(192.77850847616278,644.8,564.4)"></image></g><g><image href="connections/striped-arrow.svg" width="100" x="592.1333333333333" y="663.2" transform="rotate(347.7097426061024,642.1333333333333,713.2)"></image></g><g><image href="connections/striped-arrow.svg" width="100" x="254" y="444.40000000000003" transform="rotate(89.58140814519952,304,494.40000000000003)"></image></g><image x="540" y="550" href="images/pivot.png"></image></svg>