<svg id="svg" height="960" width="1280" xmlns="http://www.w3.org/2000/svg"><image x="0" y="0" height="960" width="1280" preserveAspectRatio="none" href="images/background3.jpg"></image><svg width="350" height="350" id="vg0" x="426.5999999999999" y="-24.599999999999994"><svg id="Layer_1" data-name="Layer 1" xmlns="http://www.w3.org/2000/svg" viewBox="0 0 630 574"><defs><style>@import url('https://fonts.googleapis.com/css2?family=Kiwi+Maru:wght@500&amp;display=swap');@import url('https://fonts.googleapis.com/css2?family=Balsamiq+Sans:ital@1&amp;family=Kiwi+Maru:wght@500&amp;display=swap');
    .lb1{font-family:Kiwi Maru, serif; font-size: 40px;}.lb1{fill:aliceblue;}.txt1{font-family: Balsamiq Sans, cursive; font-size: 32px;}.color-1{fill:#a1d13b;}.color-10{fill:#d01c8b;}</style></defs><path class="color-10" d="M435.58,651h169.2C611.36,523.85,701.91,422,815,414.61V224.33C608.49,232,442.42,418.82,435.58,651Z" transform="translate(-185 -77)"></path><rect class="text-wrap" y="6" width="208.44" height="142.41" style="fill:none"></rect><text id="wrap" y="55" x="5" dy="1" class="txt1"><tspan x="5" y="55" dy="1em">The United</tspan><tspan x="5" y="55" dy="2.1em">States has</tspan><tspan x="5" y="55" dy="3.2em">maintained its</tspan><tspan x="5" y="55" dy="4.300000000000001em">position of</tspan><tspan x="5" y="55" dy="5.4em">being the</tspan><tspan x="5" y="55" dy="6.5em">world’s largest</tspan><tspan x="5" y="55" dy="7.6000000000000005em">economy</tspan><tspan x="5" y="55" dy="8.700000000000001em">since 1871.</tspan></text><image class="img1" x="220" y="4" href="images/usa.svg" width="250"></image><text class="lb1" x="310" y="400" font-size="30">USA</text></svg>
</svg><svg width="350" height="350" id="vg1" x="844.7333333333333" y="191.39999999999998"><svg id="Layer_1" data-name="Layer 1" xmlns="http://www.w3.org/2000/svg" viewBox="0 0 630 574"><defs><style>@import url('https://fonts.googleapis.com/css2?family=Kiwi+Maru:wght@500&amp;display=swap');@import url('https://fonts.googleapis.com/css2?family=Balsamiq+Sans:ital@1&amp;family=Kiwi+Maru:wght@500&amp;display=swap');
    .lb1{font-family:Kiwi Maru, serif; font-size: 40px;}.lb1{fill:aliceblue;}.txt1{font-family: Balsamiq Sans, cursive; font-size: 32px;}.color-1{fill:#a1d13b;}.color-11{fill:#f1b6da;}</style></defs><path class="color-11" d="M435.58,651h169.2C611.36,523.85,701.91,422,815,414.61V224.33C608.49,232,442.42,418.82,435.58,651Z" transform="translate(-185 -77)"></path><rect class="text-wrap" y="6" width="208.44" height="142.41" style="fill:none"></rect><text id="wrap" y="55" x="5" dy="1" class="txt1"><tspan x="5" y="55" dy="1em">In China, the</tspan><tspan x="5" y="55" dy="2.1em">dragons are</tspan><tspan x="5" y="55" dy="3.2em">associated</tspan><tspan x="5" y="55" dy="4.300000000000001em">with wealth,</tspan><tspan x="5" y="55" dy="5.4em">power, and</tspan><tspan x="5" y="55" dy="6.5em">leadership</tspan></text><image class="img1" x="220" y="4" href="images/china.svg" width="250"></image><text class="lb1" x="310" y="400" font-size="30">CHINA</text></svg>
</svg><svg width="350" height="350" id="vg2" x="101.26666666666665" y="381"><svg id="Layer_1" data-name="Layer 1" xmlns="http://www.w3.org/2000/svg" viewBox="0 0 630 574"><defs><style>@import url('https://fonts.googleapis.com/css2?family=Kiwi+Maru:wght@500&amp;display=swap');@import url('https://fonts.googleapis.com/css2?family=Balsamiq+Sans:ital@1&amp;family=Kiwi+Maru:wght@500&amp;display=swap');
    .lb1{font-family:Kiwi Maru, serif; font-size: 40px;}.lb1{fill:aliceblue;}.txt1{font-family: Balsamiq Sans, cursive; font-size: 32px;}.color-1{fill:#a1d13b;}.color-12{fill:#f7f7f7;}</style></defs><path class="color-12" d="M435.58,651h169.2C611.36,523.85,701.91,422,815,414.61V224.33C608.49,232,442.42,418.82,435.58,651Z" transform="translate(-185 -77)"></path><rect class="text-wrap" y="6" width="208.44" height="142.41" style="fill:none"></rect><text id="wrap" y="55" x="5" dy="1" class="txt1"><tspan x="5" y="55" dy="1em">It’s estimated</tspan><tspan x="5" y="55" dy="2.1em">that between</tspan><tspan x="5" y="55" dy="3.2em">15% and 30%</tspan><tspan x="5" y="55" dy="4.300000000000001em">of India’s</tspan><tspan x="5" y="55" dy="5.4em">population</tspan><tspan x="5" y="55" dy="6.5em">follow a strict</tspan><tspan x="5" y="55" dy="7.6000000000000005em">vegetarian</tspan><tspan x="5" y="55" dy="8.700000000000001em">diet.</tspan></text><image class="img1" x="220" y="4" href="images/india.svg" width="250"></image><text class="lb1" x="310" y="400" font-size="30">INDIA</text></svg>
</svg><svg width="350" height="350" id="vg3" x="845.8" y="546.6"><svg id="Layer_1" data-name="Layer 1" xmlns="http://www.w3.org/2000/svg" viewBox="0 0 630 574"><defs><style>@import url('https://fonts.googleapis.com/css2?family=Kiwi+Maru:wght@500&amp;display=swap');@import url('https://fonts.googleapis.com/css2?family=Balsamiq+Sans:ital@1&amp;family=Kiwi+Maru:wght@500&amp;display=swap');
    .lb1{font-family:Kiwi Maru, serif; font-size: 40px;}.lb1{fill:aliceblue;}.txt1{font-family: Balsamiq Sans, cursive; font-size: 32px;}.color-1{fill:#a1d13b;}.color-13{fill:#b8e186;}</style></defs><path class="color-13" d="M435.58,651h169.2C611.36,523.85,701.91,422,815,414.61V224.33C608.49,232,442.42,418.82,435.58,651Z" transform="translate(-185 -77)"></path><rect class="text-wrap" y="6" width="208.44" height="142.41" style="fill:none"></rect><text id="wrap" y="55" x="5" dy="1" class="txt1"><tspan x="5" y="55" dy="1em">Russia is 60%</tspan><tspan x="5" y="55" dy="2.1em">forest. What’s</tspan><tspan x="5" y="55" dy="3.2em">more</tspan><tspan x="5" y="55" dy="4.300000000000001em">interesting,</tspan><tspan x="5" y="55" dy="5.4em">half of that</tspan><tspan x="5" y="55" dy="6.5em">forest is totally</tspan><tspan x="5" y="55" dy="7.6000000000000005em">uninhabited by</tspan><tspan x="5" y="55" dy="8.700000000000001em">humans.</tspan></text><image class="img1" x="220" y="4" href="images/russia.svg" width="250"></image><text class="lb1" x="310" y="400" font-size="30">RUSSIA</text></svg>
</svg><svg width="350" height="350" id="vg4" x="92.73333333333335" y="654.6"><svg id="Layer_1" data-name="Layer 1" xmlns="http://www.w3.org/2000/svg" viewBox="0 0 630 574"><defs><style>@import url('https://fonts.googleapis.com/css2?family=Kiwi+Maru:wght@500&amp;display=swap');@import url('https://fonts.googleapis.com/css2?family=Balsamiq+Sans:ital@1&amp;family=Kiwi+Maru:wght@500&amp;display=swap');
    .lb1{font-family:Kiwi Maru, serif; font-size: 40px;}.lb1{fill:aliceblue;}.txt1{font-family: Balsamiq Sans, cursive; font-size: 32px;}.color-1{fill:#a1d13b;}.color-14{fill:#4dac26;}</style></defs><path class="color-14" d="M435.58,651h169.2C611.36,523.85,701.91,422,815,414.61V224.33C608.49,232,442.42,418.82,435.58,651Z" transform="translate(-185 -77)"></path><rect class="text-wrap" y="6" width="208.44" height="142.41" style="fill:none"></rect><text id="wrap" y="55" x="5" dy="1" class="txt1"><tspan x="5" y="55" dy="1em">Brazil has won</tspan><tspan x="5" y="55" dy="2.1em">more football</tspan><tspan x="5" y="55" dy="3.2em">world cups</tspan><tspan x="5" y="55" dy="4.300000000000001em">than any other</tspan><tspan x="5" y="55" dy="5.4em">country, with</tspan><tspan x="5" y="55" dy="6.5em">Pele being the</tspan><tspan x="5" y="55" dy="7.6000000000000005em">top scorer.</tspan></text><image class="img1" x="220" y="4" href="images/brazil.svg" width="250"></image><text class="lb1" x="310" y="400" font-size="30">BRAZIL</text></svg>
</svg><g><image href="connections/three-dots.svg" width="100" x="388.9333333333333" y="303.2" transform="rotate(308.7332349237215,438.9333333333333,353.2)"></image></g><g><image href="connections/three-dots.svg" width="100" x="970.2666666666667" y="494" transform="rotate(269.82794111927217,1020.2666666666667,544)"></image></g><g><image href="connections/three-dots.svg" width="100" x="222" y="642.8" transform="rotate(271.7864237667513,272,692.8)"></image></g><image x="540" y="550" href="images/pivot.png"></image></svg>