<svg id="svg" height="960" width="1280" xmlns="http://www.w3.org/2000/svg"><image x="0" y="0" height="960" width="1280" preserveAspectRatio="none" href="images/background3.jpg"></image><svg width="350" height="350" id="vg0" x="126.86666666666667" y="27.400000000000006"><svg id="Layer_1" data-name="Layer 1" xmlns="http://www.w3.org/2000/svg" viewBox="0 0 518 604"><defs><style>@import url('https://fonts.googleapis.com/css2?family=Kiwi+Maru:wght@500&amp;display=swap');@import url('https://fonts.googleapis.com/css2?family=Balsamiq+Sans:ital@1&amp;family=Kiwi+Maru:wght@500&amp;display=swap');
    .lb1{font-family:Kiwi Maru, serif; font-size: 50px;}.lb1{fill:#2c7bb6;}.txt1{font-family: Balsamiq Sans, cursive; font-size: 25px;}.color-1{fill:#59bdc9;}.cls-2,.cls-7{font-size:27.77px;font-family:FiraSans-Regular, Fira Sans;}.cls-2{fill:#fff;}.cls-3{letter-spacing:-0.02em;}.cls-4{letter-spacing:0em;}.cls-5{letter-spacing:-0.03em;}.cls-6{letter-spacing:0em;}.cls-7{fill:#5c6c76;}.cls-8{letter-spacing:-0.02em;}.cls-9{letter-spacing:-0.01em;}.color-10{letter-spacing:0em;}.color-11{letter-spacing:-0.01em;}.color-10{fill:#d01c8b;}</style></defs><rect class="color-10" y="472.16" width="28.72" height="117.03"></rect><path class="color-10" d="M451.52,261.83l-37.66,57.22,16.27-2.19c1-.09,109.28-14.79,183.54-33.88C711.09,257.81,767,216.1,767,168.46,767,103.66,679,51,570.67,51S374.43,103.66,374.43,168.46c0,36.69,28.63,71.19,77.09,93.37Z" transform="translate(-249 -51)"></path><path class="color-10" d="M283.48,315.52C283.48,334,300.72,349,322,349s38.51-15,38.51-33.5S343.28,282,322,282s-38.53,15-38.53,33.54Zm0,0" transform="translate(-249 -51)"></path><path class="color-10" d="M347.61,357.2a14.82,14.82,0,0,0-2-.85,48.09,48.09,0,0,0-14-5.37l-9.61,8.4-9.3-8.5h-.09a48.9,48.9,0,0,0-14.09,5.34,17.2,17.2,0,0,0-2.27,1c-23.41,12.49-39,22.94-47.24,62.32h62.63l1-4.84,9.27-54.05h.2l9.28,54.05,1.1,4.84h62.38c-8.22-39.39-23.83-49.83-47.25-62.32Zm0,0" transform="translate(-249 -51)"></path><rect class="text-wrap" height="150" width="300" x="100" y="20" style="fill:none"></rect><text id="wrap" class="txt1" fill="whitesmoke" y="70" x="180" dy="1" font-size="22"><tspan x="180" y="70" dy="1em">The United States has</tspan><tspan x="180" y="70" dy="2.1em">maintained its position of</tspan><tspan x="180" y="70" dy="3.2em">being the world’s largest</tspan><tspan x="180" y="70" dy="4.300000000000001em">economy since 1871.</tspan></text><text class="lb1" font-size="80" x="200" y="550">USA</text><image class="img1" x="50" y="470" href="images/usa.svg" width="120"></image></svg></svg><svg width="350" height="350" id="vg1" x="806.3333333333334" y="170.59999999999997"><svg id="Layer_1" data-name="Layer 1" xmlns="http://www.w3.org/2000/svg" viewBox="0 0 518 604"><defs><style>@import url('https://fonts.googleapis.com/css2?family=Kiwi+Maru:wght@500&amp;display=swap');@import url('https://fonts.googleapis.com/css2?family=Balsamiq+Sans:ital@1&amp;family=Kiwi+Maru:wght@500&amp;display=swap');
    .lb1{font-family:Kiwi Maru, serif; font-size: 50px;}.lb1{fill:#2c7bb6;}.txt1{font-family: Balsamiq Sans, cursive; font-size: 25px;}.color-1{fill:#59bdc9;}.cls-2,.cls-7{font-size:27.77px;font-family:FiraSans-Regular, Fira Sans;}.cls-2{fill:#fff;}.cls-3{letter-spacing:-0.02em;}.cls-4{letter-spacing:0em;}.cls-5{letter-spacing:-0.03em;}.cls-6{letter-spacing:0em;}.cls-7{fill:#5c6c76;}.cls-8{letter-spacing:-0.02em;}.cls-9{letter-spacing:-0.01em;}.color-10{letter-spacing:0em;}.color-11{letter-spacing:-0.01em;}.color-11{fill:#f1b6da;}</style></defs><rect class="color-11" y="472.16" width="28.72" height="117.03"></rect><path class="color-11" d="M451.52,261.83l-37.66,57.22,16.27-2.19c1-.09,109.28-14.79,183.54-33.88C711.09,257.81,767,216.1,767,168.46,767,103.66,679,51,570.67,51S374.43,103.66,374.43,168.46c0,36.69,28.63,71.19,77.09,93.37Z" transform="translate(-249 -51)"></path><path class="color-11" d="M283.48,315.52C283.48,334,300.72,349,322,349s38.51-15,38.51-33.5S343.28,282,322,282s-38.53,15-38.53,33.54Zm0,0" transform="translate(-249 -51)"></path><path class="color-11" d="M347.61,357.2a14.82,14.82,0,0,0-2-.85,48.09,48.09,0,0,0-14-5.37l-9.61,8.4-9.3-8.5h-.09a48.9,48.9,0,0,0-14.09,5.34,17.2,17.2,0,0,0-2.27,1c-23.41,12.49-39,22.94-47.24,62.32h62.63l1-4.84,9.27-54.05h.2l9.28,54.05,1.1,4.84h62.38c-8.22-39.39-23.83-49.83-47.25-62.32Zm0,0" transform="translate(-249 -51)"></path><rect class="text-wrap" height="150" width="300" x="100" y="20" style="fill:none"></rect><text id="wrap" class="txt1" fill="whitesmoke" y="70" x="180" dy="1" font-size="22"><tspan x="180" y="70" dy="1em">In China, the dragons are</tspan><tspan x="180" y="70" dy="2.1em">associated with wealth,</tspan><tspan x="180" y="70" dy="3.2em">power, and leadership</tspan></text><text class="lb1" font-size="80" x="200" y="550">CHINA</text><image class="img1" x="50" y="470" href="images/china.svg" width="120"></image></svg></svg><svg width="350" height="350" id="vg2" x="136.4666666666667" y="313.8"><svg id="Layer_1" data-name="Layer 1" xmlns="http://www.w3.org/2000/svg" viewBox="0 0 518 604"><defs><style>@import url('https://fonts.googleapis.com/css2?family=Kiwi+Maru:wght@500&amp;display=swap');@import url('https://fonts.googleapis.com/css2?family=Balsamiq+Sans:ital@1&amp;family=Kiwi+Maru:wght@500&amp;display=swap');
    .lb1{font-family:Kiwi Maru, serif; font-size: 50px;}.lb1{fill:#2c7bb6;}.txt1{font-family: Balsamiq Sans, cursive; font-size: 25px;}.color-1{fill:#59bdc9;}.cls-2,.cls-7{font-size:27.77px;font-family:FiraSans-Regular, Fira Sans;}.cls-2{fill:#fff;}.cls-3{letter-spacing:-0.02em;}.cls-4{letter-spacing:0em;}.cls-5{letter-spacing:-0.03em;}.cls-6{letter-spacing:0em;}.cls-7{fill:#5c6c76;}.cls-8{letter-spacing:-0.02em;}.cls-9{letter-spacing:-0.01em;}.color-10{letter-spacing:0em;}.color-11{letter-spacing:-0.01em;}.color-12{fill:#f7f7f7;}</style></defs><rect class="color-12" y="472.16" width="28.72" height="117.03"></rect><path class="color-12" d="M451.52,261.83l-37.66,57.22,16.27-2.19c1-.09,109.28-14.79,183.54-33.88C711.09,257.81,767,216.1,767,168.46,767,103.66,679,51,570.67,51S374.43,103.66,374.43,168.46c0,36.69,28.63,71.19,77.09,93.37Z" transform="translate(-249 -51)"></path><path class="color-12" d="M283.48,315.52C283.48,334,300.72,349,322,349s38.51-15,38.51-33.5S343.28,282,322,282s-38.53,15-38.53,33.54Zm0,0" transform="translate(-249 -51)"></path><path class="color-12" d="M347.61,357.2a14.82,14.82,0,0,0-2-.85,48.09,48.09,0,0,0-14-5.37l-9.61,8.4-9.3-8.5h-.09a48.9,48.9,0,0,0-14.09,5.34,17.2,17.2,0,0,0-2.27,1c-23.41,12.49-39,22.94-47.24,62.32h62.63l1-4.84,9.27-54.05h.2l9.28,54.05,1.1,4.84h62.38c-8.22-39.39-23.83-49.83-47.25-62.32Zm0,0" transform="translate(-249 -51)"></path><rect class="text-wrap" height="150" width="300" x="100" y="20" style="fill:none"></rect><text id="wrap" class="txt1" fill="whitesmoke" y="70" x="180" dy="1" font-size="22"><tspan x="180" y="70" dy="1em">It’s estimated that</tspan><tspan x="180" y="70" dy="2.1em">between 15% and 30% of</tspan><tspan x="180" y="70" dy="3.2em">India’s population follow a</tspan><tspan x="180" y="70" dy="4.300000000000001em">strict vegetarian diet.</tspan></text><text class="lb1" font-size="80" x="200" y="550">INDIA</text><image class="img1" x="50" y="470" href="images/india.svg" width="120"></image></svg></svg><svg width="350" height="350" id="vg3" x="803.1333333333333" y="465"><svg id="Layer_1" data-name="Layer 1" xmlns="http://www.w3.org/2000/svg" viewBox="0 0 518 604"><defs><style>@import url('https://fonts.googleapis.com/css2?family=Kiwi+Maru:wght@500&amp;display=swap');@import url('https://fonts.googleapis.com/css2?family=Balsamiq+Sans:ital@1&amp;family=Kiwi+Maru:wght@500&amp;display=swap');
    .lb1{font-family:Kiwi Maru, serif; font-size: 50px;}.lb1{fill:#2c7bb6;}.txt1{font-family: Balsamiq Sans, cursive; font-size: 25px;}.color-1{fill:#59bdc9;}.cls-2,.cls-7{font-size:27.77px;font-family:FiraSans-Regular, Fira Sans;}.cls-2{fill:#fff;}.cls-3{letter-spacing:-0.02em;}.cls-4{letter-spacing:0em;}.cls-5{letter-spacing:-0.03em;}.cls-6{letter-spacing:0em;}.cls-7{fill:#5c6c76;}.cls-8{letter-spacing:-0.02em;}.cls-9{letter-spacing:-0.01em;}.color-10{letter-spacing:0em;}.color-11{letter-spacing:-0.01em;}.color-13{fill:#b8e186;}</style></defs><rect class="color-13" y="472.16" width="28.72" height="117.03"></rect><path class="color-13" d="M451.52,261.83l-37.66,57.22,16.27-2.19c1-.09,109.28-14.79,183.54-33.88C711.09,257.81,767,216.1,767,168.46,767,103.66,679,51,570.67,51S374.43,103.66,374.43,168.46c0,36.69,28.63,71.19,77.09,93.37Z" transform="translate(-249 -51)"></path><path class="color-13" d="M283.48,315.52C283.48,334,300.72,349,322,349s38.51-15,38.51-33.5S343.28,282,322,282s-38.53,15-38.53,33.54Zm0,0" transform="translate(-249 -51)"></path><path class="color-13" d="M347.61,357.2a14.82,14.82,0,0,0-2-.85,48.09,48.09,0,0,0-14-5.37l-9.61,8.4-9.3-8.5h-.09a48.9,48.9,0,0,0-14.09,5.34,17.2,17.2,0,0,0-2.27,1c-23.41,12.49-39,22.94-47.24,62.32h62.63l1-4.84,9.27-54.05h.2l9.28,54.05,1.1,4.84h62.38c-8.22-39.39-23.83-49.83-47.25-62.32Zm0,0" transform="translate(-249 -51)"></path><rect class="text-wrap" height="150" width="300" x="100" y="20" style="fill:none"></rect><text id="wrap" class="txt1" fill="whitesmoke" y="70" x="180" dy="1" font-size="22"><tspan x="180" y="70" dy="1em">Russia is 60% forest.</tspan><tspan x="180" y="70" dy="2.1em">What’s more interesting,</tspan><tspan x="180" y="70" dy="3.2em">half of that forest is totally</tspan><tspan x="180" y="70" dy="4.300000000000001em">uninhabited by humans.</tspan></text><text class="lb1" font-size="80" x="200" y="550">RUSSIA</text><image class="img1" x="50" y="470" href="images/russia.svg" width="120"></image></svg></svg><svg width="350" height="350" id="vg4" x="131.13333333333333" y="611.4000000000001"><svg id="Layer_1" data-name="Layer 1" xmlns="http://www.w3.org/2000/svg" viewBox="0 0 518 604"><defs><style>@import url('https://fonts.googleapis.com/css2?family=Kiwi+Maru:wght@500&amp;display=swap');@import url('https://fonts.googleapis.com/css2?family=Balsamiq+Sans:ital@1&amp;family=Kiwi+Maru:wght@500&amp;display=swap');
    .lb1{font-family:Kiwi Maru, serif; font-size: 50px;}.lb1{fill:#2c7bb6;}.txt1{font-family: Balsamiq Sans, cursive; font-size: 25px;}.color-1{fill:#59bdc9;}.cls-2,.cls-7{font-size:27.77px;font-family:FiraSans-Regular, Fira Sans;}.cls-2{fill:#fff;}.cls-3{letter-spacing:-0.02em;}.cls-4{letter-spacing:0em;}.cls-5{letter-spacing:-0.03em;}.cls-6{letter-spacing:0em;}.cls-7{fill:#5c6c76;}.cls-8{letter-spacing:-0.02em;}.cls-9{letter-spacing:-0.01em;}.color-10{letter-spacing:0em;}.color-11{letter-spacing:-0.01em;}.color-14{fill:#4dac26;}</style></defs><rect class="color-14" y="472.16" width="28.72" height="117.03"></rect><path class="color-14" d="M451.52,261.83l-37.66,57.22,16.27-2.19c1-.09,109.28-14.79,183.54-33.88C711.09,257.81,767,216.1,767,168.46,767,103.66,679,51,570.67,51S374.43,103.66,374.43,168.46c0,36.69,28.63,71.19,77.09,93.37Z" transform="translate(-249 -51)"></path><path class="color-14" d="M283.48,315.52C283.48,334,300.72,349,322,349s38.51-15,38.51-33.5S343.28,282,322,282s-38.53,15-38.53,33.54Zm0,0" transform="translate(-249 -51)"></path><path class="color-14" d="M347.61,357.2a14.82,14.82,0,0,0-2-.85,48.09,48.09,0,0,0-14-5.37l-9.61,8.4-9.3-8.5h-.09a48.9,48.9,0,0,0-14.09,5.34,17.2,17.2,0,0,0-2.27,1c-23.41,12.49-39,22.94-47.24,62.32h62.63l1-4.84,9.27-54.05h.2l9.28,54.05,1.1,4.84h62.38c-8.22-39.39-23.83-49.83-47.25-62.32Zm0,0" transform="translate(-249 -51)"></path><rect class="text-wrap" height="150" width="300" x="100" y="20" style="fill:none"></rect><text id="wrap" class="txt1" fill="whitesmoke" y="70" x="180" dy="1" font-size="22"><tspan x="180" y="70" dy="1em">Brazil has won more</tspan><tspan x="180" y="70" dy="2.1em">football world cups than</tspan><tspan x="180" y="70" dy="3.2em">any other country, with</tspan><tspan x="180" y="70" dy="4.300000000000001em">Pele being the top scorer.</tspan></text><text class="lb1" font-size="80" x="200" y="550">BRAZIL</text><image class="img1" x="50" y="470" href="images/brazil.svg" width="120"></image></svg></svg><g><image href="connections/arrow3.svg" width="100" x="591.6" y="224" transform="rotate(191.90112349779054,641.6,274)"></image></g><g><image href="connections/arrow3.svg" width="100" x="596.4000000000001" y="367.2" transform="rotate(347.9332840320146,646.4000000000001,417.2)"></image></g><g><image href="connections/arrow3.svg" width="100" x="594.8" y="514.4" transform="rotate(192.77850847616278,644.8,564.4)"></image></g><g><image href="connections/arrow3.svg" width="100" x="592.1333333333333" y="663.2" transform="rotate(347.7097426061024,642.1333333333333,713.2)"></image></g><g><image href="connections/arrow3.svg" width="100" x="254" y="444.40000000000003" transform="rotate(89.58140814519952,304,494.40000000000003)"></image></g><image x="540" y="550" href="images/pivot.png"></image></svg>