<svg id="svg" height="960" width="1280" xmlns="http://www.w3.org/2000/svg"><image x="0" y="0" height="960" width="1280" preserveAspectRatio="none" href="images/background3.jpg"></image><svg width="350" height="350" id="vg0" x="466.0916666666667" y="369.01874999999995"><svg id="Layer_1" data-name="Layer 1" xmlns="http://www.w3.org/2000/svg" viewBox="0 0 385 561"><defs><style>@import url('https://fonts.googleapis.com/css2?family=Kiwi+Maru:wght@500&amp;display=swap');@import url('https://fonts.googleapis.com/css2?family=Balsamiq+Sans:ital@1&amp;family=Kiwi+Maru:wght@500&amp;display=swap');
    .lb1{font-family:Kiwi Maru, serif; font-size: 40px;}.lb1{fill:#2c7bb6;}.txt1{font-family: Balsamiq Sans, cursive; font-size: 22px;}.color-1{fill:#f75c2a;}.color-10{fill:#d7191c;}</style></defs><path class="color-10" d="M322.39,466.77c37.55,40.32,86.78,60.51,136.06,60.51,106.22,0,192.4-92.55,192.39-206.61,0-52.92-18.79-105.79-56.33-146.1S507.68,114,458.44,114H266V320.66C266,373.54,284.75,426.36,322.39,466.77ZM458.45,189.48c67.45,0,122.11,58.74,122.1,131.18S525.9,451.79,458.45,451.79,336.29,393.1,336.29,320.67,391,189.49,458.45,189.48Z" transform="translate(-266 -114)"></path><rect class="text-wrap" x="119.9" y="467.14" width="265.1" height="90.57" style="fill:none"></rect><text id="wrap" x="119.9" y="430" dy="1" class="txt1"><tspan x="119.9" y="430" dy="1em">The United States has</tspan><tspan x="119.9" y="430" dy="2.1em">maintained its position of</tspan><tspan x="119.9" y="430" dy="3.2em">being the world’s largest</tspan><tspan x="119.9" y="430" dy="4.300000000000001em">economy since 1871.</tspan></text><text class="lb1" x="120" y="230" font-size="30">USA</text><image class="img1" x="3" y="430" href="images/usa.svg" width="100"></image></svg></svg><svg width="350" height="350" id="vg1" x="783.9583333333333" y="123.41874999999999"><svg id="Layer_1" data-name="Layer 1" xmlns="http://www.w3.org/2000/svg" viewBox="0 0 385 561"><defs><style>@import url('https://fonts.googleapis.com/css2?family=Kiwi+Maru:wght@500&amp;display=swap');@import url('https://fonts.googleapis.com/css2?family=Balsamiq+Sans:ital@1&amp;family=Kiwi+Maru:wght@500&amp;display=swap');
    .lb1{font-family:Kiwi Maru, serif; font-size: 40px;}.lb1{fill:#2c7bb6;}.txt1{font-family: Balsamiq Sans, cursive; font-size: 22px;}.color-1{fill:#f75c2a;}.color-11{fill:#fdae61;}</style></defs><path class="color-11" d="M322.39,466.77c37.55,40.32,86.78,60.51,136.06,60.51,106.22,0,192.4-92.55,192.39-206.61,0-52.92-18.79-105.79-56.33-146.1S507.68,114,458.44,114H266V320.66C266,373.54,284.75,426.36,322.39,466.77ZM458.45,189.48c67.45,0,122.11,58.74,122.1,131.18S525.9,451.79,458.45,451.79,336.29,393.1,336.29,320.67,391,189.49,458.45,189.48Z" transform="translate(-266 -114)"></path><rect class="text-wrap" x="119.9" y="467.14" width="265.1" height="90.57" style="fill:none"></rect><text id="wrap" x="119.9" y="430" dy="1" class="txt1"><tspan x="119.9" y="430" dy="1em">In China, the dragons are</tspan><tspan x="119.9" y="430" dy="2.1em">associated with wealth,</tspan><tspan x="119.9" y="430" dy="3.2em">power, and leadership</tspan></text><text class="lb1" x="120" y="230" font-size="30">CHINA</text><image class="img1" x="3" y="430" href="images/china.svg" width="100"></image></svg></svg><svg width="350" height="350" id="vg2" x="133.29166666666663" y="109.81875000000002"><svg id="Layer_1" data-name="Layer 1" xmlns="http://www.w3.org/2000/svg" viewBox="0 0 385 561"><defs><style>@import url('https://fonts.googleapis.com/css2?family=Kiwi+Maru:wght@500&amp;display=swap');@import url('https://fonts.googleapis.com/css2?family=Balsamiq+Sans:ital@1&amp;family=Kiwi+Maru:wght@500&amp;display=swap');
    .lb1{font-family:Kiwi Maru, serif; font-size: 40px;}.lb1{fill:#2c7bb6;}.txt1{font-family: Balsamiq Sans, cursive; font-size: 22px;}.color-1{fill:#f75c2a;}.color-12{fill:#ffffbf;}</style></defs><path class="color-12" d="M322.39,466.77c37.55,40.32,86.78,60.51,136.06,60.51,106.22,0,192.4-92.55,192.39-206.61,0-52.92-18.79-105.79-56.33-146.1S507.68,114,458.44,114H266V320.66C266,373.54,284.75,426.36,322.39,466.77ZM458.45,189.48c67.45,0,122.11,58.74,122.1,131.18S525.9,451.79,458.45,451.79,336.29,393.1,336.29,320.67,391,189.49,458.45,189.48Z" transform="translate(-266 -114)"></path><rect class="text-wrap" x="119.9" y="467.14" width="265.1" height="90.57" style="fill:none"></rect><text id="wrap" x="119.9" y="430" dy="1" class="txt1"><tspan x="119.9" y="430" dy="1em">It’s estimated that</tspan><tspan x="119.9" y="430" dy="2.1em">between 15% and 30% of</tspan><tspan x="119.9" y="430" dy="3.2em">India’s population follow a</tspan><tspan x="119.9" y="430" dy="4.300000000000001em">strict vegetarian diet.</tspan></text><text class="lb1" x="120" y="230" font-size="30">INDIA</text><image class="img1" x="3" y="430" href="images/india.svg" width="100"></image></svg></svg><svg width="350" height="350" id="vg3" x="145.02499999999998" y="599.4187499999999"><svg id="Layer_1" data-name="Layer 1" xmlns="http://www.w3.org/2000/svg" viewBox="0 0 385 561"><defs><style>@import url('https://fonts.googleapis.com/css2?family=Kiwi+Maru:wght@500&amp;display=swap');@import url('https://fonts.googleapis.com/css2?family=Balsamiq+Sans:ital@1&amp;family=Kiwi+Maru:wght@500&amp;display=swap');
    .lb1{font-family:Kiwi Maru, serif; font-size: 40px;}.lb1{fill:#2c7bb6;}.txt1{font-family: Balsamiq Sans, cursive; font-size: 22px;}.color-1{fill:#f75c2a;}.color-13{fill:#abdda4;}</style></defs><path class="color-13" d="M322.39,466.77c37.55,40.32,86.78,60.51,136.06,60.51,106.22,0,192.4-92.55,192.39-206.61,0-52.92-18.79-105.79-56.33-146.1S507.68,114,458.44,114H266V320.66C266,373.54,284.75,426.36,322.39,466.77ZM458.45,189.48c67.45,0,122.11,58.74,122.1,131.18S525.9,451.79,458.45,451.79,336.29,393.1,336.29,320.67,391,189.49,458.45,189.48Z" transform="translate(-266 -114)"></path><rect class="text-wrap" x="119.9" y="467.14" width="265.1" height="90.57" style="fill:none"></rect><text id="wrap" x="119.9" y="430" dy="1" class="txt1"><tspan x="119.9" y="430" dy="1em">Russia is 60% forest.</tspan><tspan x="119.9" y="430" dy="2.1em">What’s more interesting,</tspan><tspan x="119.9" y="430" dy="3.2em">half of that forest is totally</tspan><tspan x="119.9" y="430" dy="4.300000000000001em">uninhabited by humans.</tspan></text><text class="lb1" x="120" y="230" font-size="30">RUSSIA</text><image class="img1" x="3" y="430" href="images/russia.svg" width="100"></image></svg></svg><svg width="350" height="350" id="vg4" x="788.225" y="593.0187500000001"><svg id="Layer_1" data-name="Layer 1" xmlns="http://www.w3.org/2000/svg" viewBox="0 0 385 561"><defs><style>@import url('https://fonts.googleapis.com/css2?family=Kiwi+Maru:wght@500&amp;display=swap');@import url('https://fonts.googleapis.com/css2?family=Balsamiq+Sans:ital@1&amp;family=Kiwi+Maru:wght@500&amp;display=swap');
    .lb1{font-family:Kiwi Maru, serif; font-size: 40px;}.lb1{fill:#2c7bb6;}.txt1{font-family: Balsamiq Sans, cursive; font-size: 22px;}.color-1{fill:#f75c2a;}.color-14{fill:#2b83ba;}</style></defs><path class="color-14" d="M322.39,466.77c37.55,40.32,86.78,60.51,136.06,60.51,106.22,0,192.4-92.55,192.39-206.61,0-52.92-18.79-105.79-56.33-146.1S507.68,114,458.44,114H266V320.66C266,373.54,284.75,426.36,322.39,466.77ZM458.45,189.48c67.45,0,122.11,58.74,122.1,131.18S525.9,451.79,458.45,451.79,336.29,393.1,336.29,320.67,391,189.49,458.45,189.48Z" transform="translate(-266 -114)"></path><rect class="text-wrap" x="119.9" y="467.14" width="265.1" height="90.57" style="fill:none"></rect><text id="wrap" x="119.9" y="430" dy="1" class="txt1"><tspan x="119.9" y="430" dy="1em">Brazil has won more</tspan><tspan x="119.9" y="430" dy="2.1em">football world cups than</tspan><tspan x="119.9" y="430" dy="3.2em">any other country, with</tspan><tspan x="119.9" y="430" dy="4.300000000000001em">Pele being the top scorer.</tspan></text><text class="lb1" x="120" y="230" font-size="30">BRAZIL</text><image class="img1" x="3" y="430" href="images/brazil.svg" width="100"></image></svg></svg><g><image href="connections/striped-arrow.svg" width="100" x="424.69166666666666" y="364.41875" transform="rotate(37.91310458992632,474.69166666666666,414.41875)"></image></g><g><image href="connections/striped-arrow.svg" width="100" x="589.4916666666666" y="486.41874999999993" transform="rotate(323.31419686868355,639.4916666666666,536.4187499999999)"></image></g><g><image href="connections/striped-arrow.svg" width="100" x="585.7583333333333" y="476.41875000000005" transform="rotate(216.4193503440598,635.7583333333333,526.41875)"></image></g><image x="540" y="550" href="images/pivot.png"></image></svg>