<svg id="svg" height="960" width="1280" xmlns="http://www.w3.org/2000/svg"><image x="0" y="0" height="960" width="1280" preserveAspectRatio="none" href="images/background3.jpg"></image><svg width="350" height="350" id="vg0" x="126.86666666666667" y="27.400000000000006"><svg id="Layer_1" data-name="Layer 1" xmlns="http://www.w3.org/2000/svg" viewBox="0 0 839 612"><defs><style>@import url('https://fonts.googleapis.com/css2?family=Kiwi+Maru:wght@500&amp;display=swap');@import url('https://fonts.googleapis.com/css2?family=Balsamiq+Sans:ital@1&amp;family=Kiwi+Maru:wght@500&amp;display=swap');
    .lb1{font-family:Kiwi Maru, serif; font-size: 50px;}.lb1{fill:#2c7bb6;}.txt1{font-family: Balsamiq Sans, cursive; font-size: 35px;}.color-1{fill:#f75c2a;}.color-2{fill:#23282b;}.color-10{fill:#7b3294;}</style></defs><path class="color-10" d="M510.51,603.6c94.2,0,179.52,31.53,241.21,82.4L930,539C822.65,450.44,674.41,395.72,510.51,395.72S198.34,450.44,91,539L269.31,686C331,635.13,416.29,603.6,510.51,603.6Z" transform="translate(-91 -74)"></path><polygon class="color-10" points="497.36 256.05 341.66 256.05 315.68 329.41 523.31 329.41 497.36 256.05"></polygon><polygon class="color-10" points="150.5 298.26 15.65 362.49 37.67 436.75 217.46 351.13 150.5 298.26"></polygon><polygon class="color-10" points="823.43 362.49 688.55 298.26 621.58 351.13 801.39 436.74 823.43 362.49"></polygon><rect class="text-wrap" height="100px" width="400" x="250px" y="40px" style="fill:none"></rect><text id="wrap" class="txt1" font-size="30" x="330" y="40" dy="1"><tspan x="330" y="40" dy="1em">The United States has</tspan><tspan x="330" y="40" dy="2.1em">maintained its position of</tspan><tspan x="330" y="40" dy="3.2em">being the world’s largest</tspan><tspan x="330" y="40" dy="4.300000000000001em">economy since 1871.</tspan></text> <image class="img1" x="20" y="30" href="images/usa.svg" width="250"></image></svg></svg><svg width="350" height="350" id="vg1" x="806.3333333333334" y="170.59999999999997"><svg id="Layer_1" data-name="Layer 1" xmlns="http://www.w3.org/2000/svg" viewBox="0 0 839 612"><defs><style>@import url('https://fonts.googleapis.com/css2?family=Kiwi+Maru:wght@500&amp;display=swap');@import url('https://fonts.googleapis.com/css2?family=Balsamiq+Sans:ital@1&amp;family=Kiwi+Maru:wght@500&amp;display=swap');
    .lb1{font-family:Kiwi Maru, serif; font-size: 50px;}.lb1{fill:#2c7bb6;}.txt1{font-family: Balsamiq Sans, cursive; font-size: 35px;}.color-1{fill:#f75c2a;}.color-2{fill:#23282b;}.color-11{fill:#c2a5cf;}</style></defs><path class="color-11" d="M510.51,603.6c94.2,0,179.52,31.53,241.21,82.4L930,539C822.65,450.44,674.41,395.72,510.51,395.72S198.34,450.44,91,539L269.31,686C331,635.13,416.29,603.6,510.51,603.6Z" transform="translate(-91 -74)"></path><polygon class="color-11" points="497.36 256.05 341.66 256.05 315.68 329.41 523.31 329.41 497.36 256.05"></polygon><polygon class="color-11" points="150.5 298.26 15.65 362.49 37.67 436.75 217.46 351.13 150.5 298.26"></polygon><polygon class="color-11" points="823.43 362.49 688.55 298.26 621.58 351.13 801.39 436.74 823.43 362.49"></polygon><rect class="text-wrap" height="100px" width="400" x="250px" y="40px" style="fill:none"></rect><text id="wrap" class="txt1" font-size="30" x="330" y="40" dy="1"><tspan x="330" y="40" dy="1em">In China, the dragons are</tspan><tspan x="330" y="40" dy="2.1em">associated with wealth,</tspan><tspan x="330" y="40" dy="3.2em">power, and leadership</tspan></text> <image class="img1" x="20" y="30" href="images/china.svg" width="250"></image></svg></svg><svg width="350" height="350" id="vg2" x="136.4666666666667" y="313.8"><svg id="Layer_1" data-name="Layer 1" xmlns="http://www.w3.org/2000/svg" viewBox="0 0 839 612"><defs><style>@import url('https://fonts.googleapis.com/css2?family=Kiwi+Maru:wght@500&amp;display=swap');@import url('https://fonts.googleapis.com/css2?family=Balsamiq+Sans:ital@1&amp;family=Kiwi+Maru:wght@500&amp;display=swap');
    .lb1{font-family:Kiwi Maru, serif; font-size: 50px;}.lb1{fill:#2c7bb6;}.txt1{font-family: Balsamiq Sans, cursive; font-size: 35px;}.color-1{fill:#f75c2a;}.color-2{fill:#23282b;}.color-12{fill:#f7f7f7;}</style></defs><path class="color-12" d="M510.51,603.6c94.2,0,179.52,31.53,241.21,82.4L930,539C822.65,450.44,674.41,395.72,510.51,395.72S198.34,450.44,91,539L269.31,686C331,635.13,416.29,603.6,510.51,603.6Z" transform="translate(-91 -74)"></path><polygon class="color-12" points="497.36 256.05 341.66 256.05 315.68 329.41 523.31 329.41 497.36 256.05"></polygon><polygon class="color-12" points="150.5 298.26 15.65 362.49 37.67 436.75 217.46 351.13 150.5 298.26"></polygon><polygon class="color-12" points="823.43 362.49 688.55 298.26 621.58 351.13 801.39 436.74 823.43 362.49"></polygon><rect class="text-wrap" height="100px" width="400" x="250px" y="40px" style="fill:none"></rect><text id="wrap" class="txt1" font-size="30" x="330" y="40" dy="1"><tspan x="330" y="40" dy="1em">It’s estimated that</tspan><tspan x="330" y="40" dy="2.1em">between 15% and 30%</tspan><tspan x="330" y="40" dy="3.2em">of India’s population</tspan><tspan x="330" y="40" dy="4.300000000000001em">follow a strict vegetarian</tspan><tspan x="330" y="40" dy="5.4em">diet.</tspan></text> <image class="img1" x="20" y="30" href="images/india.svg" width="250"></image></svg></svg><svg width="350" height="350" id="vg3" x="803.1333333333333" y="465"><svg id="Layer_1" data-name="Layer 1" xmlns="http://www.w3.org/2000/svg" viewBox="0 0 839 612"><defs><style>@import url('https://fonts.googleapis.com/css2?family=Kiwi+Maru:wght@500&amp;display=swap');@import url('https://fonts.googleapis.com/css2?family=Balsamiq+Sans:ital@1&amp;family=Kiwi+Maru:wght@500&amp;display=swap');
    .lb1{font-family:Kiwi Maru, serif; font-size: 50px;}.lb1{fill:#2c7bb6;}.txt1{font-family: Balsamiq Sans, cursive; font-size: 35px;}.color-1{fill:#f75c2a;}.color-2{fill:#23282b;}.color-13{fill:#a6dba0;}</style></defs><path class="color-13" d="M510.51,603.6c94.2,0,179.52,31.53,241.21,82.4L930,539C822.65,450.44,674.41,395.72,510.51,395.72S198.34,450.44,91,539L269.31,686C331,635.13,416.29,603.6,510.51,603.6Z" transform="translate(-91 -74)"></path><polygon class="color-13" points="497.36 256.05 341.66 256.05 315.68 329.41 523.31 329.41 497.36 256.05"></polygon><polygon class="color-13" points="150.5 298.26 15.65 362.49 37.67 436.75 217.46 351.13 150.5 298.26"></polygon><polygon class="color-13" points="823.43 362.49 688.55 298.26 621.58 351.13 801.39 436.74 823.43 362.49"></polygon><rect class="text-wrap" height="100px" width="400" x="250px" y="40px" style="fill:none"></rect><text id="wrap" class="txt1" font-size="30" x="330" y="40" dy="1"><tspan x="330" y="40" dy="1em">Russia is 60% forest.</tspan><tspan x="330" y="40" dy="2.1em">What’s more interesting,</tspan><tspan x="330" y="40" dy="3.2em">half of that forest is</tspan><tspan x="330" y="40" dy="4.300000000000001em">totally uninhabited by</tspan><tspan x="330" y="40" dy="5.4em">humans.</tspan></text> <image class="img1" x="20" y="30" href="images/russia.svg" width="250"></image></svg></svg><svg width="350" height="350" id="vg4" x="131.13333333333333" y="611.4000000000001"><svg id="Layer_1" data-name="Layer 1" xmlns="http://www.w3.org/2000/svg" viewBox="0 0 839 612"><defs><style>@import url('https://fonts.googleapis.com/css2?family=Kiwi+Maru:wght@500&amp;display=swap');@import url('https://fonts.googleapis.com/css2?family=Balsamiq+Sans:ital@1&amp;family=Kiwi+Maru:wght@500&amp;display=swap');
    .lb1{font-family:Kiwi Maru, serif; font-size: 50px;}.lb1{fill:#2c7bb6;}.txt1{font-family: Balsamiq Sans, cursive; font-size: 35px;}.color-1{fill:#f75c2a;}.color-2{fill:#23282b;}.color-14{fill:#008837;}</style></defs><path class="color-14" d="M510.51,603.6c94.2,0,179.52,31.53,241.21,82.4L930,539C822.65,450.44,674.41,395.72,510.51,395.72S198.34,450.44,91,539L269.31,686C331,635.13,416.29,603.6,510.51,603.6Z" transform="translate(-91 -74)"></path><polygon class="color-14" points="497.36 256.05 341.66 256.05 315.68 329.41 523.31 329.41 497.36 256.05"></polygon><polygon class="color-14" points="150.5 298.26 15.65 362.49 37.67 436.75 217.46 351.13 150.5 298.26"></polygon><polygon class="color-14" points="823.43 362.49 688.55 298.26 621.58 351.13 801.39 436.74 823.43 362.49"></polygon><rect class="text-wrap" height="100px" width="400" x="250px" y="40px" style="fill:none"></rect><text id="wrap" class="txt1" font-size="30" x="330" y="40" dy="1"><tspan x="330" y="40" dy="1em">Brazil has won more</tspan><tspan x="330" y="40" dy="2.1em">football world cups than</tspan><tspan x="330" y="40" dy="3.2em">any other country, with</tspan><tspan x="330" y="40" dy="4.300000000000001em">Pele being the top</tspan><tspan x="330" y="40" dy="5.4em">scorer.</tspan></text> <image class="img1" x="20" y="30" href="images/brazil.svg" width="250"></image></svg></svg><g><image href="connections/three-dots.svg" width="100" x="591.6" y="224" transform="rotate(191.90112349779054,641.6,274)"></image></g><g><image href="connections/three-dots.svg" width="100" x="596.4000000000001" y="367.2" transform="rotate(347.9332840320146,646.4000000000001,417.2)"></image></g><g><image href="connections/three-dots.svg" width="100" x="594.8" y="514.4" transform="rotate(192.77850847616278,644.8,564.4)"></image></g><g><image href="connections/three-dots.svg" width="100" x="592.1333333333333" y="663.2" transform="rotate(347.7097426061024,642.1333333333333,713.2)"></image></g><g><image href="connections/three-dots.svg" width="100" x="254" y="444.40000000000003" transform="rotate(89.58140814519952,304,494.40000000000003)"></image></g><image x="540" y="550" href="images/pivot.png"></image></svg>