<svg id="svg" height="960" width="1280" xmlns="http://www.w3.org/2000/svg"><image x="0" y="0" height="960" width="1280" preserveAspectRatio="none" href="images/background3.jpg"></image><svg width="350" height="350" id="vg0" x="837.2666931152344" y="80.45736312866211"><svg id="Layer_1" data-name="Layer 1" xmlns="http://www.w3.org/2000/svg" viewBox="0 0 336.11 28.81"><defs><style>@import url('https://fonts.googleapis.com/css2?family=Kiwi+Maru:wght@500&amp;display=swap');@import url('https://fonts.googleapis.com/css2?family=Balsamiq+Sans:ital@1&amp;family=Kiwi+Maru:wght@500&amp;display=swap');
    .lb1{font-family:Kiwi Maru, serif; font-size: 30px;}.lb1{fill:#2c7bb6;}.txt1{font-family: Balsamiq Sans, cursive; font-size: 22px;}.color-1{fill:#fc8751;}.lb1{fill:#5c6c76;}.color-10{fill:#7b3294;}</style></defs><polygon class="color-10" points="283.88 24.71 33.69 24.71 38.69 13.21 33.69 1.71 283.88 1.71 288.88 13.21 283.88 24.71"></polygon><rect class="text-wrap" height="50px" width="243" x="43" y="01" style="fill:none"></rect><text id="wrap" dy="1" class="txt1" y="01" x="43" font-size="10"><tspan x="43" y="01" dy="1em">The United States has</tspan><tspan x="43" y="01" dy="2.1em">maintained its position</tspan><tspan x="43" y="01" dy="3.2em">of being the world’s</tspan><tspan x="43" y="01" dy="4.300000000000001em">largest economy since</tspan><tspan x="43" y="01" dy="5.4em">1871.</tspan></text><text class="lb1" transform="translate(0 23.8) rotate(270 50 23.8)">USA</text></svg>
</svg><svg width="350" height="350" id="vg1" x="739.13330078125" y="590.3702735900879"><svg id="Layer_1" data-name="Layer 1" xmlns="http://www.w3.org/2000/svg" viewBox="0 0 336.11 28.81"><defs><style>@import url('https://fonts.googleapis.com/css2?family=Kiwi+Maru:wght@500&amp;display=swap');@import url('https://fonts.googleapis.com/css2?family=Balsamiq+Sans:ital@1&amp;family=Kiwi+Maru:wght@500&amp;display=swap');
    .lb1{font-family:Kiwi Maru, serif; font-size: 30px;}.lb1{fill:#2c7bb6;}.txt1{font-family: Balsamiq Sans, cursive; font-size: 22px;}.color-1{fill:#fc8751;}.lb1{fill:#5c6c76;}.color-11{fill:#c2a5cf;}</style></defs><polygon class="color-11" points="283.88 24.71 33.69 24.71 38.69 13.21 33.69 1.71 283.88 1.71 288.88 13.21 283.88 24.71"></polygon><rect class="text-wrap" height="50px" width="243" x="43" y="01" style="fill:none"></rect><text id="wrap" dy="1" class="txt1" y="01" x="43" font-size="10"><tspan x="43" y="01" dy="1em">In China, the dragons</tspan><tspan x="43" y="01" dy="2.1em">are associated with</tspan><tspan x="43" y="01" dy="3.2em">wealth, power, and</tspan><tspan x="43" y="01" dy="4.300000000000001em">leadership</tspan></text><text class="lb1" transform="translate(0 23.8) rotate(270 50 23.8)">CHINA</text></svg>
</svg><svg width="350" height="350" id="vg2" x="477.79998779296875" y="690.5496215820312"><svg id="Layer_1" data-name="Layer 1" xmlns="http://www.w3.org/2000/svg" viewBox="0 0 336.11 28.81"><defs><style>@import url('https://fonts.googleapis.com/css2?family=Kiwi+Maru:wght@500&amp;display=swap');@import url('https://fonts.googleapis.com/css2?family=Balsamiq+Sans:ital@1&amp;family=Kiwi+Maru:wght@500&amp;display=swap');
    .lb1{font-family:Kiwi Maru, serif; font-size: 30px;}.lb1{fill:#2c7bb6;}.txt1{font-family: Balsamiq Sans, cursive; font-size: 22px;}.color-1{fill:#fc8751;}.lb1{fill:#5c6c76;}.color-12{fill:#f7f7f7;}</style></defs><polygon class="color-12" points="283.88 24.71 33.69 24.71 38.69 13.21 33.69 1.71 283.88 1.71 288.88 13.21 283.88 24.71"></polygon><rect class="text-wrap" height="50px" width="243" x="43" y="01" style="fill:none"></rect><text id="wrap" dy="1" class="txt1" y="01" x="43" font-size="10"><tspan x="43" y="01" dy="1em">It’s estimated that</tspan><tspan x="43" y="01" dy="2.1em">between 15% and 30%</tspan><tspan x="43" y="01" dy="3.2em">of India’s population</tspan><tspan x="43" y="01" dy="4.300000000000001em">follow a strict vegetarian</tspan><tspan x="43" y="01" dy="5.4em">diet.</tspan></text><text class="lb1" transform="translate(0 23.8) rotate(270 50 23.8)">INDIA</text></svg>
</svg><svg width="350" height="350" id="vg3" x="219.6666717529297" y="588.36669921875"><svg id="Layer_1" data-name="Layer 1" xmlns="http://www.w3.org/2000/svg" viewBox="0 0 336.11 28.81"><defs><style>@import url('https://fonts.googleapis.com/css2?family=Kiwi+Maru:wght@500&amp;display=swap');@import url('https://fonts.googleapis.com/css2?family=Balsamiq+Sans:ital@1&amp;family=Kiwi+Maru:wght@500&amp;display=swap');
    .lb1{font-family:Kiwi Maru, serif; font-size: 30px;}.lb1{fill:#2c7bb6;}.txt1{font-family: Balsamiq Sans, cursive; font-size: 22px;}.color-1{fill:#fc8751;}.lb1{fill:#5c6c76;}.color-13{fill:#a6dba0;}</style></defs><polygon class="color-13" points="283.88 24.71 33.69 24.71 38.69 13.21 33.69 1.71 283.88 1.71 288.88 13.21 283.88 24.71"></polygon><rect class="text-wrap" height="50px" width="243" x="43" y="01" style="fill:none"></rect><text id="wrap" dy="1" class="txt1" y="01" x="43" font-size="10"><tspan x="43" y="01" dy="1em">Russia is 60% forest.</tspan><tspan x="43" y="01" dy="2.1em">What’s more interesting,</tspan><tspan x="43" y="01" dy="3.2em">half of that forest is</tspan><tspan x="43" y="01" dy="4.300000000000001em">totally uninhabited by</tspan><tspan x="43" y="01" dy="5.4em">humans.</tspan></text><text class="lb1" transform="translate(0 23.8) rotate(270 50 23.8)">RUSSIA</text></svg>
</svg><svg width="350" height="350" id="vg4" x="117.26667404174805" y="83.46275329589844"><svg id="Layer_1" data-name="Layer 1" xmlns="http://www.w3.org/2000/svg" viewBox="0 0 336.11 28.81"><defs><style>@import url('https://fonts.googleapis.com/css2?family=Kiwi+Maru:wght@500&amp;display=swap');@import url('https://fonts.googleapis.com/css2?family=Balsamiq+Sans:ital@1&amp;family=Kiwi+Maru:wght@500&amp;display=swap');
    .lb1{font-family:Kiwi Maru, serif; font-size: 30px;}.lb1{fill:#2c7bb6;}.txt1{font-family: Balsamiq Sans, cursive; font-size: 22px;}.color-1{fill:#fc8751;}.lb1{fill:#5c6c76;}.color-14{fill:#008837;}</style></defs><polygon class="color-14" points="283.88 24.71 33.69 24.71 38.69 13.21 33.69 1.71 283.88 1.71 288.88 13.21 283.88 24.71"></polygon><rect class="text-wrap" height="50px" width="243" x="43" y="01" style="fill:none"></rect><text id="wrap" dy="1" class="txt1" y="01" x="43" font-size="10"><tspan x="43" y="01" dy="1em">Brazil has won more</tspan><tspan x="43" y="01" dy="2.1em">football world cups than</tspan><tspan x="43" y="01" dy="3.2em">any other country, with</tspan><tspan x="43" y="01" dy="4.300000000000001em">Pele being the top</tspan><tspan x="43" y="01" dy="5.4em">scorer.</tspan></text><text class="lb1" transform="translate(0 23.8) rotate(270 50 23.8)">BRAZIL</text></svg>
</svg><g><image href="connections/arrow3.svg" width="100" x="782.5333404541016" y="510.5034923553467" transform="rotate(300.50661620252407,832.5333404541016,560.5034923553467)"></image></g><g><image href="connections/arrow3.svg" width="100" x="604.3999862670898" y="714.368486404419" transform="rotate(0.22098779740440477,654.3999862670898,764.368486404419)"></image></g><g><image href="connections/arrow3.svg" width="100" x="422.5333309173584" y="512.0061874389648" transform="rotate(59.29501045312308,472.5333309173584,562.0061874389648)"></image></g><image x="740" y="60" href="images/pivot.png" transform="scale(0.75)"></image></svg>