<svg id="svg" height="960" width="1280" xmlns="http://www.w3.org/2000/svg"><image x="0" y="0" height="960" width="1280" preserveAspectRatio="none" href="images/background3.jpg"></image><svg width="350" height="350" id="vg0" x="22.358341217041016" y="385.01874923706055"><svg id="Layer_1" data-name="Layer 1" xmlns="http://www.w3.org/2000/svg" viewBox="0 0 648 374"><defs><style>@import url('https://fonts.googleapis.com/css2?family=Kiwi+Maru:wght@500&amp;display=swap');@import url('https://fonts.googleapis.com/css2?family=Balsamiq+Sans:ital@1&amp;family=Kiwi+Maru:wght@500&amp;display=swap');
    .lb1{font-family:Kiwi Maru, serif; font-size: 50px;}.lb1{fill:#2c7bb6;}.txt1{font-family: Balsamiq Sans, cursive; font-size: 32px;}.color-1,.lb1{fill:#59bdc9;}.color2,.color3{fill:none;stroke-miterlimit:10;}.color2{stroke:#fff;stroke-width:1.2px;}.lb1{font-size:45px;font-family:BebasNeueBold, Bebas Neue;}.color3{stroke:#59bdc9;stroke-width:2px;}.color-10{fill:#7b3294;}</style></defs><path class="color-10" d="M395.57,337.51c0-41.09-40-74.39-89.28-74.39S217,296.42,217,337.51s40,74.39,89.29,74.39S395.57,378.59,395.57,337.51Z" transform="translate(-217 -205)"></path><image class="img1" x="43" y="90" href="images/usa.svg" width="100"></image><text class="lb1" transform="translate(244.46 101.61) scale(1.2 1)">USA</text><ellipse class="color-10" cx="604.82" cy="132.51" rx="43.18" ry="35.97"></ellipse><path class="color3" d="M437.53,337.51h295c0-41.08,40-74.39,89.29-74.39V214.77" transform="translate(-217 -205)"></path><path class="color-10" d="M449.11,337.51c0,5.33-5.18,9.64-11.58,9.64S426,342.84,426,337.51s5.18-9.64,11.57-9.64S449.11,332.18,449.11,337.51Z" transform="translate(-217 -205)"></path><path class="color-10" d="M833.4,214.64c0,5.33-5.19,9.65-11.58,9.65s-11.57-4.32-11.57-9.65,5.18-9.64,11.57-9.64S833.4,209.32,833.4,214.64Z" transform="translate(-217 -205)"></path><line class="color3" x1="604.82" y1="206.21" x2="604.82" y2="345.21"></line><ellipse class="color-10" cx="604.82" cy="345.21" rx="11.57" ry="9.64"></ellipse><ellipse class="color-10" cx="604.82" cy="206.21" rx="11.57" ry="9.64"></ellipse><rect class="text-wrap" height="300" width="239" x="247" y="150" style="fill:none"></rect><text id="wrap" class="txt1" y="181.8" x="254.46" font-size="12" dy="1"><tspan x="254.46" y="181.8" dy="1em">The United</tspan><tspan x="254.46" y="181.8" dy="2.1em">States has</tspan><tspan x="254.46" y="181.8" dy="3.2em">maintained its</tspan><tspan x="254.46" y="181.8" dy="4.300000000000001em">position of</tspan><tspan x="254.46" y="181.8" dy="5.4em">being the</tspan><tspan x="254.46" y="181.8" dy="6.5em">world’s largest</tspan><tspan x="254.46" y="181.8" dy="7.6000000000000005em">economy since</tspan><tspan x="254.46" y="181.8" dy="8.700000000000001em">1871.</tspan></text></svg></svg><svg width="350" height="350" id="vg1" x="238.8916778564453" y="225.81875801086426"><svg id="Layer_1" data-name="Layer 1" xmlns="http://www.w3.org/2000/svg" viewBox="0 0 648 374"><defs><style>@import url('https://fonts.googleapis.com/css2?family=Kiwi+Maru:wght@500&amp;display=swap');@import url('https://fonts.googleapis.com/css2?family=Balsamiq+Sans:ital@1&amp;family=Kiwi+Maru:wght@500&amp;display=swap');
    .lb1{font-family:Kiwi Maru, serif; font-size: 50px;}.lb1{fill:#2c7bb6;}.txt1{font-family: Balsamiq Sans, cursive; font-size: 32px;}.color-1,.lb1{fill:#59bdc9;}.color2,.color3{fill:none;stroke-miterlimit:10;}.color2{stroke:#fff;stroke-width:1.2px;}.lb1{font-size:45px;font-family:BebasNeueBold, Bebas Neue;}.color3{stroke:#59bdc9;stroke-width:2px;}.color-11{fill:#c2a5cf;}</style></defs><path class="color-11" d="M395.57,337.51c0-41.09-40-74.39-89.28-74.39S217,296.42,217,337.51s40,74.39,89.29,74.39S395.57,378.59,395.57,337.51Z" transform="translate(-217 -205)"></path><image class="img1" x="43" y="90" href="images/china.svg" width="100"></image><text class="lb1" transform="translate(244.46 101.61) scale(1.2 1)">CHINA</text><ellipse class="color-11" cx="604.82" cy="132.51" rx="43.18" ry="35.97"></ellipse><path class="color3" d="M437.53,337.51h295c0-41.08,40-74.39,89.29-74.39V214.77" transform="translate(-217 -205)"></path><path class="color-11" d="M449.11,337.51c0,5.33-5.18,9.64-11.58,9.64S426,342.84,426,337.51s5.18-9.64,11.57-9.64S449.11,332.18,449.11,337.51Z" transform="translate(-217 -205)"></path><path class="color-11" d="M833.4,214.64c0,5.33-5.19,9.65-11.58,9.65s-11.57-4.32-11.57-9.65,5.18-9.64,11.57-9.64S833.4,209.32,833.4,214.64Z" transform="translate(-217 -205)"></path><line class="color3" x1="604.82" y1="206.21" x2="604.82" y2="345.21"></line><ellipse class="color-11" cx="604.82" cy="345.21" rx="11.57" ry="9.64"></ellipse><ellipse class="color-11" cx="604.82" cy="206.21" rx="11.57" ry="9.64"></ellipse><rect class="text-wrap" height="300" width="239" x="247" y="150" style="fill:none"></rect><text id="wrap" class="txt1" y="181.8" x="254.46" font-size="12" dy="1"><tspan x="254.46" y="181.8" dy="1em">In China, the</tspan><tspan x="254.46" y="181.8" dy="2.1em">dragons are</tspan><tspan x="254.46" y="181.8" dy="3.2em">associated with</tspan><tspan x="254.46" y="181.8" dy="4.300000000000001em">wealth, power,</tspan><tspan x="254.46" y="181.8" dy="5.4em">and leadership</tspan></text></svg></svg><svg width="350" height="350" id="vg2" x="462.8916549682617" y="390.6187438964844"><svg id="Layer_1" data-name="Layer 1" xmlns="http://www.w3.org/2000/svg" viewBox="0 0 648 374"><defs><style>@import url('https://fonts.googleapis.com/css2?family=Kiwi+Maru:wght@500&amp;display=swap');@import url('https://fonts.googleapis.com/css2?family=Balsamiq+Sans:ital@1&amp;family=Kiwi+Maru:wght@500&amp;display=swap');
    .lb1{font-family:Kiwi Maru, serif; font-size: 50px;}.lb1{fill:#2c7bb6;}.txt1{font-family: Balsamiq Sans, cursive; font-size: 32px;}.color-1,.lb1{fill:#59bdc9;}.color2,.color3{fill:none;stroke-miterlimit:10;}.color2{stroke:#fff;stroke-width:1.2px;}.lb1{font-size:45px;font-family:BebasNeueBold, Bebas Neue;}.color3{stroke:#59bdc9;stroke-width:2px;}.color-12{fill:#f7f7f7;}</style></defs><path class="color-12" d="M395.57,337.51c0-41.09-40-74.39-89.28-74.39S217,296.42,217,337.51s40,74.39,89.29,74.39S395.57,378.59,395.57,337.51Z" transform="translate(-217 -205)"></path><image class="img1" x="43" y="90" href="images/india.svg" width="100"></image><text class="lb1" transform="translate(244.46 101.61) scale(1.2 1)">INDIA</text><ellipse class="color-12" cx="604.82" cy="132.51" rx="43.18" ry="35.97"></ellipse><path class="color3" d="M437.53,337.51h295c0-41.08,40-74.39,89.29-74.39V214.77" transform="translate(-217 -205)"></path><path class="color-12" d="M449.11,337.51c0,5.33-5.18,9.64-11.58,9.64S426,342.84,426,337.51s5.18-9.64,11.57-9.64S449.11,332.18,449.11,337.51Z" transform="translate(-217 -205)"></path><path class="color-12" d="M833.4,214.64c0,5.33-5.19,9.65-11.58,9.65s-11.57-4.32-11.57-9.65,5.18-9.64,11.57-9.64S833.4,209.32,833.4,214.64Z" transform="translate(-217 -205)"></path><line class="color3" x1="604.82" y1="206.21" x2="604.82" y2="345.21"></line><ellipse class="color-12" cx="604.82" cy="345.21" rx="11.57" ry="9.64"></ellipse><ellipse class="color-12" cx="604.82" cy="206.21" rx="11.57" ry="9.64"></ellipse><rect class="text-wrap" height="300" width="239" x="247" y="150" style="fill:none"></rect><text id="wrap" class="txt1" y="181.8" x="254.46" font-size="12" dy="1"><tspan x="254.46" y="181.8" dy="1em">It’s estimated</tspan><tspan x="254.46" y="181.8" dy="2.1em">that between</tspan><tspan x="254.46" y="181.8" dy="3.2em">15% and 30% of</tspan><tspan x="254.46" y="181.8" dy="4.300000000000001em">India’s</tspan><tspan x="254.46" y="181.8" dy="5.4em">population</tspan><tspan x="254.46" y="181.8" dy="6.5em">follow a strict</tspan><tspan x="254.46" y="181.8" dy="7.6000000000000005em">vegetarian diet.</tspan></text></svg></svg><svg width="350" height="350" id="vg3" x="686.8916320800781" y="228.2187557220459"><svg id="Layer_1" data-name="Layer 1" xmlns="http://www.w3.org/2000/svg" viewBox="0 0 648 374"><defs><style>@import url('https://fonts.googleapis.com/css2?family=Kiwi+Maru:wght@500&amp;display=swap');@import url('https://fonts.googleapis.com/css2?family=Balsamiq+Sans:ital@1&amp;family=Kiwi+Maru:wght@500&amp;display=swap');
    .lb1{font-family:Kiwi Maru, serif; font-size: 50px;}.lb1{fill:#2c7bb6;}.txt1{font-family: Balsamiq Sans, cursive; font-size: 32px;}.color-1,.lb1{fill:#59bdc9;}.color2,.color3{fill:none;stroke-miterlimit:10;}.color2{stroke:#fff;stroke-width:1.2px;}.lb1{font-size:45px;font-family:BebasNeueBold, Bebas Neue;}.color3{stroke:#59bdc9;stroke-width:2px;}.color-13{fill:#a6dba0;}</style></defs><path class="color-13" d="M395.57,337.51c0-41.09-40-74.39-89.28-74.39S217,296.42,217,337.51s40,74.39,89.29,74.39S395.57,378.59,395.57,337.51Z" transform="translate(-217 -205)"></path><image class="img1" x="43" y="90" href="images/russia.svg" width="100"></image><text class="lb1" transform="translate(244.46 101.61) scale(1.2 1)">RUSSIA</text><ellipse class="color-13" cx="604.82" cy="132.51" rx="43.18" ry="35.97"></ellipse><path class="color3" d="M437.53,337.51h295c0-41.08,40-74.39,89.29-74.39V214.77" transform="translate(-217 -205)"></path><path class="color-13" d="M449.11,337.51c0,5.33-5.18,9.64-11.58,9.64S426,342.84,426,337.51s5.18-9.64,11.57-9.64S449.11,332.18,449.11,337.51Z" transform="translate(-217 -205)"></path><path class="color-13" d="M833.4,214.64c0,5.33-5.19,9.65-11.58,9.65s-11.57-4.32-11.57-9.65,5.18-9.64,11.57-9.64S833.4,209.32,833.4,214.64Z" transform="translate(-217 -205)"></path><line class="color3" x1="604.82" y1="206.21" x2="604.82" y2="345.21"></line><ellipse class="color-13" cx="604.82" cy="345.21" rx="11.57" ry="9.64"></ellipse><ellipse class="color-13" cx="604.82" cy="206.21" rx="11.57" ry="9.64"></ellipse><rect class="text-wrap" height="300" width="239" x="247" y="150" style="fill:none"></rect><text id="wrap" class="txt1" y="181.8" x="254.46" font-size="12" dy="1"><tspan x="254.46" y="181.8" dy="1em">Russia is 60%</tspan><tspan x="254.46" y="181.8" dy="2.1em">forest. What’s</tspan><tspan x="254.46" y="181.8" dy="3.2em">more</tspan><tspan x="254.46" y="181.8" dy="4.300000000000001em">interesting, half</tspan><tspan x="254.46" y="181.8" dy="5.4em">of that forest is</tspan><tspan x="254.46" y="181.8" dy="6.5em">totally</tspan><tspan x="254.46" y="181.8" dy="7.6000000000000005em">uninhabited by</tspan><tspan x="254.46" y="181.8" dy="8.700000000000001em">humans.</tspan></text></svg></svg><svg width="350" height="350" id="vg4" x="904.4916534423828" y="381.81875228881836"><svg id="Layer_1" data-name="Layer 1" xmlns="http://www.w3.org/2000/svg" viewBox="0 0 648 374"><defs><style>@import url('https://fonts.googleapis.com/css2?family=Kiwi+Maru:wght@500&amp;display=swap');@import url('https://fonts.googleapis.com/css2?family=Balsamiq+Sans:ital@1&amp;family=Kiwi+Maru:wght@500&amp;display=swap');
    .lb1{font-family:Kiwi Maru, serif; font-size: 50px;}.lb1{fill:#2c7bb6;}.txt1{font-family: Balsamiq Sans, cursive; font-size: 32px;}.color-1,.lb1{fill:#59bdc9;}.color2,.color3{fill:none;stroke-miterlimit:10;}.color2{stroke:#fff;stroke-width:1.2px;}.lb1{font-size:45px;font-family:BebasNeueBold, Bebas Neue;}.color3{stroke:#59bdc9;stroke-width:2px;}.color-14{fill:#008837;}</style></defs><path class="color-14" d="M395.57,337.51c0-41.09-40-74.39-89.28-74.39S217,296.42,217,337.51s40,74.39,89.29,74.39S395.57,378.59,395.57,337.51Z" transform="translate(-217 -205)"></path><image class="img1" x="43" y="90" href="images/brazil.svg" width="100"></image><text class="lb1" transform="translate(244.46 101.61) scale(1.2 1)">BRAZIL</text><ellipse class="color-14" cx="604.82" cy="132.51" rx="43.18" ry="35.97"></ellipse><path class="color3" d="M437.53,337.51h295c0-41.08,40-74.39,89.29-74.39V214.77" transform="translate(-217 -205)"></path><path class="color-14" d="M449.11,337.51c0,5.33-5.18,9.64-11.58,9.64S426,342.84,426,337.51s5.18-9.64,11.57-9.64S449.11,332.18,449.11,337.51Z" transform="translate(-217 -205)"></path><path class="color-14" d="M833.4,214.64c0,5.33-5.19,9.65-11.58,9.65s-11.57-4.32-11.57-9.65,5.18-9.64,11.57-9.64S833.4,209.32,833.4,214.64Z" transform="translate(-217 -205)"></path><line class="color3" x1="604.82" y1="206.21" x2="604.82" y2="345.21"></line><ellipse class="color-14" cx="604.82" cy="345.21" rx="11.57" ry="9.64"></ellipse><ellipse class="color-14" cx="604.82" cy="206.21" rx="11.57" ry="9.64"></ellipse><rect class="text-wrap" height="300" width="239" x="247" y="150" style="fill:none"></rect><text id="wrap" class="txt1" y="181.8" x="254.46" font-size="12" dy="1"><tspan x="254.46" y="181.8" dy="1em">Brazil has won</tspan><tspan x="254.46" y="181.8" dy="2.1em">more football</tspan><tspan x="254.46" y="181.8" dy="3.2em">world cups than</tspan><tspan x="254.46" y="181.8" dy="4.300000000000001em">any other</tspan><tspan x="254.46" y="181.8" dy="5.4em">country, with</tspan><tspan x="254.46" y="181.8" dy="6.5em">Pele being the</tspan><tspan x="254.46" y="181.8" dy="7.6000000000000005em">top scorer.</tspan></text></svg></svg><g><image href="connections/striped-arrow.svg" width="100" x="367.62499809265137" y="512.8187465667725" transform="rotate(180.7282962909631,417.62499809265137,562.8187465667725)"></image></g><g><image href="connections/striped-arrow.svg" width="100" x="587.8916549682617" y="352.0187568664551" transform="rotate(180.3069384783574,637.8916549682617,402.0187568664551)"></image></g><g><image href="connections/striped-arrow.svg" width="100" x="808.6916542053223" y="511.21874809265137" transform="rotate(178.8583884603224,858.6916542053223,561.2187480926514)"></image></g><image x="740" y="60" href="images/pivot.png" transform="scale(0.75)"></image></svg>