<svg id="svg" height="960" width="1280" xmlns="http://www.w3.org/2000/svg"><image x="0" y="0" height="960" width="1280" preserveAspectRatio="none" href="images/background3.jpg"></image><svg width="350" height="350" id="vg0" x="837.2666931152344" y="80.45736312866211"><svg id="Layer_1" data-name="Layer 1" xmlns="http://www.w3.org/2000/svg" viewBox="0 0 643 468"><defs><style>@import url('https://fonts.googleapis.com/css2?family=Kiwi+Maru:wght@500&amp;display=swap');@import url('https://fonts.googleapis.com/css2?family=Balsamiq+Sans:ital@1&amp;family=Kiwi+Maru:wght@500&amp;display=swap');
    .lb1{font-family:Kiwi Maru, serif; font-size: 35px;}.lb1{fill:#2c7bb6;}.txt1{font-family: Balsamiq Sans, cursive; font-size: 32px;}.color1{fill:#23282b;}.color2{fill:#fff;}.lb1{fill:#fff;}.color-1{fill:#00b9c4;}.color-10{fill:#d7191c;}</style></defs><rect class="text-wrap" height="300" width="270" x="320" y="300" style="fill:none"></rect><text id="wrap" class="txt1" y="300" x="320" dy="1" font-size="12"><tspan x="320" y="300" dy="1em">The United</tspan><tspan x="320" y="300" dy="2.1em">States has</tspan><tspan x="320" y="300" dy="3.2em">maintained its</tspan><tspan x="320" y="300" dy="4.300000000000001em">position of being</tspan><tspan x="320" y="300" dy="5.4em">the world’s</tspan><tspan x="320" y="300" dy="6.5em">largest economy</tspan><tspan x="320" y="300" dy="7.6000000000000005em">since 1871.</tspan></text><path class="color-10" d="M316.84,468.63l-1.93-14.45c4.79-.62,9.59-1.45,14.28-2.48l3.21,14.23C327.29,467,322.06,468,316.84,468.63Zm30.82-6.73L343.2,448c4.59-1.42,9.17-3.06,13.63-4.89l5.67,13.46C357.65,458.55,352.66,460.34,347.66,461.9ZM376.82,450,370,437.06c4.27-2.2,8.49-4.62,12.55-7.17l8,12.27C386.07,445,381.47,447.58,376.82,450Zm26.6-16.76-9-11.54c3.84-2.91,7.58-6,11.11-9.21l10,10.74C411.66,426.68,407.59,430.05,403.42,433.21Zm23.24-21-10.91-9.85c3.25-3.48,6.39-7.17,9.33-10.94l11.74,8.87C433.62,404.38,430.2,408.4,426.66,412.19Zm19.24-24.67-12.49-7.82c2.6-4,5-8.19,7.26-12.38l13.12,6.74C451.38,378.61,448.72,383.14,445.9,387.52Zm14.58-27.58-13.68-5.57c1.85-4.38,3.51-8.9,5-13.43l14.12,4.38C464.31,350.25,462.49,355.17,460.48,359.94ZM470,330.28l-14.46-3.14c1-4.62,1.88-9.35,2.49-14.07l14.69,1.87C472,320.09,471.07,325.25,470,330.28ZM474,299.45l-14.79-.62c.1-2.33.15-4.68.15-7s-.05-4.85-.16-7.26L474,283.9q.18,3.93.18,7.91C474.18,294.37,474.13,296.92,474,299.45ZM458,270.3c-.63-4.71-1.47-9.45-2.51-14.07l14.45-3.16c1.14,5,2.06,10.2,2.74,15.33Zm-6.27-27.87c-1.45-4.5-3.12-9-5-13.42l13.66-5.59c2,4.8,3.84,9.72,5.42,14.62Zm-11.13-26.35c-2.23-4.18-4.68-8.34-7.28-12.35l12.47-7.86c2.84,4.37,5.5,8.89,7.93,13.46ZM424.92,192c-2.93-3.75-6.07-7.42-9.35-10.93l10.9-9.86c3.57,3.82,7,7.82,10.19,11.91ZM405.3,171c-3.56-3.2-7.3-6.29-11.12-9.18l9-11.57c4.17,3.15,8.24,6.51,12.12,10Zm-23-17.38c-4-2.54-8.28-4.94-12.56-7.13l6.82-12.94c4.68,2.39,9.28,5,13.7,7.78Zm-25.72-13.18c-4.47-1.81-9.06-3.45-13.63-4.87l4.43-13.9c5,1.53,10,3.32,14.86,5.3Zm-27.65-8.54c-4.68-1-9.49-1.83-14.29-2.45L316.51,115c5.23.67,10.47,1.56,15.57,2.66Z" transform="translate(-195 -115)"></path><path class="color-10" d="M390.39,291.83C390.39,345,346.63,388,292.7,388S195,345,195,291.83s43.77-96.21,97.7-96.21S390.39,238.7,390.39,291.83Z" transform="translate(-195 -115)"></path><text class="lb1" x="20" y="190" font-size="30">USA</text><image class="img1" x="380" y="130" href="images/usa.svg" width="160"></image></svg></svg><svg width="350" height="350" id="vg1" x="739.13330078125" y="590.3702735900879"><svg id="Layer_1" data-name="Layer 1" xmlns="http://www.w3.org/2000/svg" viewBox="0 0 643 468"><defs><style>@import url('https://fonts.googleapis.com/css2?family=Kiwi+Maru:wght@500&amp;display=swap');@import url('https://fonts.googleapis.com/css2?family=Balsamiq+Sans:ital@1&amp;family=Kiwi+Maru:wght@500&amp;display=swap');
    .lb1{font-family:Kiwi Maru, serif; font-size: 35px;}.lb1{fill:#2c7bb6;}.txt1{font-family: Balsamiq Sans, cursive; font-size: 32px;}.color1{fill:#23282b;}.color2{fill:#fff;}.lb1{fill:#fff;}.color-1{fill:#00b9c4;}.color-11{fill:#fdae61;}</style></defs><rect class="text-wrap" height="300" width="270" x="320" y="300" style="fill:none"></rect><text id="wrap" class="txt1" y="300" x="320" dy="1" font-size="12"><tspan x="320" y="300" dy="1em">In China, the</tspan><tspan x="320" y="300" dy="2.1em">dragons are</tspan><tspan x="320" y="300" dy="3.2em">associated with</tspan><tspan x="320" y="300" dy="4.300000000000001em">wealth, power,</tspan><tspan x="320" y="300" dy="5.4em">and leadership</tspan></text><path class="color-11" d="M316.84,468.63l-1.93-14.45c4.79-.62,9.59-1.45,14.28-2.48l3.21,14.23C327.29,467,322.06,468,316.84,468.63Zm30.82-6.73L343.2,448c4.59-1.42,9.17-3.06,13.63-4.89l5.67,13.46C357.65,458.55,352.66,460.34,347.66,461.9ZM376.82,450,370,437.06c4.27-2.2,8.49-4.62,12.55-7.17l8,12.27C386.07,445,381.47,447.58,376.82,450Zm26.6-16.76-9-11.54c3.84-2.91,7.58-6,11.11-9.21l10,10.74C411.66,426.68,407.59,430.05,403.42,433.21Zm23.24-21-10.91-9.85c3.25-3.48,6.39-7.17,9.33-10.94l11.74,8.87C433.62,404.38,430.2,408.4,426.66,412.19Zm19.24-24.67-12.49-7.82c2.6-4,5-8.19,7.26-12.38l13.12,6.74C451.38,378.61,448.72,383.14,445.9,387.52Zm14.58-27.58-13.68-5.57c1.85-4.38,3.51-8.9,5-13.43l14.12,4.38C464.31,350.25,462.49,355.17,460.48,359.94ZM470,330.28l-14.46-3.14c1-4.62,1.88-9.35,2.49-14.07l14.69,1.87C472,320.09,471.07,325.25,470,330.28ZM474,299.45l-14.79-.62c.1-2.33.15-4.68.15-7s-.05-4.85-.16-7.26L474,283.9q.18,3.93.18,7.91C474.18,294.37,474.13,296.92,474,299.45ZM458,270.3c-.63-4.71-1.47-9.45-2.51-14.07l14.45-3.16c1.14,5,2.06,10.2,2.74,15.33Zm-6.27-27.87c-1.45-4.5-3.12-9-5-13.42l13.66-5.59c2,4.8,3.84,9.72,5.42,14.62Zm-11.13-26.35c-2.23-4.18-4.68-8.34-7.28-12.35l12.47-7.86c2.84,4.37,5.5,8.89,7.93,13.46ZM424.92,192c-2.93-3.75-6.07-7.42-9.35-10.93l10.9-9.86c3.57,3.82,7,7.82,10.19,11.91ZM405.3,171c-3.56-3.2-7.3-6.29-11.12-9.18l9-11.57c4.17,3.15,8.24,6.51,12.12,10Zm-23-17.38c-4-2.54-8.28-4.94-12.56-7.13l6.82-12.94c4.68,2.39,9.28,5,13.7,7.78Zm-25.72-13.18c-4.47-1.81-9.06-3.45-13.63-4.87l4.43-13.9c5,1.53,10,3.32,14.86,5.3Zm-27.65-8.54c-4.68-1-9.49-1.83-14.29-2.45L316.51,115c5.23.67,10.47,1.56,15.57,2.66Z" transform="translate(-195 -115)"></path><path class="color-11" d="M390.39,291.83C390.39,345,346.63,388,292.7,388S195,345,195,291.83s43.77-96.21,97.7-96.21S390.39,238.7,390.39,291.83Z" transform="translate(-195 -115)"></path><text class="lb1" x="20" y="190" font-size="30">CHINA</text><image class="img1" x="380" y="130" href="images/china.svg" width="160"></image></svg></svg><svg width="350" height="350" id="vg2" x="477.79998779296875" y="690.5496215820312"><svg id="Layer_1" data-name="Layer 1" xmlns="http://www.w3.org/2000/svg" viewBox="0 0 643 468"><defs><style>@import url('https://fonts.googleapis.com/css2?family=Kiwi+Maru:wght@500&amp;display=swap');@import url('https://fonts.googleapis.com/css2?family=Balsamiq+Sans:ital@1&amp;family=Kiwi+Maru:wght@500&amp;display=swap');
    .lb1{font-family:Kiwi Maru, serif; font-size: 35px;}.lb1{fill:#2c7bb6;}.txt1{font-family: Balsamiq Sans, cursive; font-size: 32px;}.color1{fill:#23282b;}.color2{fill:#fff;}.lb1{fill:#fff;}.color-1{fill:#00b9c4;}.color-12{fill:#ffffbf;}</style></defs><rect class="text-wrap" height="300" width="270" x="320" y="300" style="fill:none"></rect><text id="wrap" class="txt1" y="300" x="320" dy="1" font-size="12"><tspan x="320" y="300" dy="1em">It’s estimated</tspan><tspan x="320" y="300" dy="2.1em">that between 15%</tspan><tspan x="320" y="300" dy="3.2em">and 30% of</tspan><tspan x="320" y="300" dy="4.300000000000001em">India’s population</tspan><tspan x="320" y="300" dy="5.4em">follow a strict</tspan><tspan x="320" y="300" dy="6.5em">vegetarian diet.</tspan></text><path class="color-12" d="M316.84,468.63l-1.93-14.45c4.79-.62,9.59-1.45,14.28-2.48l3.21,14.23C327.29,467,322.06,468,316.84,468.63Zm30.82-6.73L343.2,448c4.59-1.42,9.17-3.06,13.63-4.89l5.67,13.46C357.65,458.55,352.66,460.34,347.66,461.9ZM376.82,450,370,437.06c4.27-2.2,8.49-4.62,12.55-7.17l8,12.27C386.07,445,381.47,447.58,376.82,450Zm26.6-16.76-9-11.54c3.84-2.91,7.58-6,11.11-9.21l10,10.74C411.66,426.68,407.59,430.05,403.42,433.21Zm23.24-21-10.91-9.85c3.25-3.48,6.39-7.17,9.33-10.94l11.74,8.87C433.62,404.38,430.2,408.4,426.66,412.19Zm19.24-24.67-12.49-7.82c2.6-4,5-8.19,7.26-12.38l13.12,6.74C451.38,378.61,448.72,383.14,445.9,387.52Zm14.58-27.58-13.68-5.57c1.85-4.38,3.51-8.9,5-13.43l14.12,4.38C464.31,350.25,462.49,355.17,460.48,359.94ZM470,330.28l-14.46-3.14c1-4.62,1.88-9.35,2.49-14.07l14.69,1.87C472,320.09,471.07,325.25,470,330.28ZM474,299.45l-14.79-.62c.1-2.33.15-4.68.15-7s-.05-4.85-.16-7.26L474,283.9q.18,3.93.18,7.91C474.18,294.37,474.13,296.92,474,299.45ZM458,270.3c-.63-4.71-1.47-9.45-2.51-14.07l14.45-3.16c1.14,5,2.06,10.2,2.74,15.33Zm-6.27-27.87c-1.45-4.5-3.12-9-5-13.42l13.66-5.59c2,4.8,3.84,9.72,5.42,14.62Zm-11.13-26.35c-2.23-4.18-4.68-8.34-7.28-12.35l12.47-7.86c2.84,4.37,5.5,8.89,7.93,13.46ZM424.92,192c-2.93-3.75-6.07-7.42-9.35-10.93l10.9-9.86c3.57,3.82,7,7.82,10.19,11.91ZM405.3,171c-3.56-3.2-7.3-6.29-11.12-9.18l9-11.57c4.17,3.15,8.24,6.51,12.12,10Zm-23-17.38c-4-2.54-8.28-4.94-12.56-7.13l6.82-12.94c4.68,2.39,9.28,5,13.7,7.78Zm-25.72-13.18c-4.47-1.81-9.06-3.45-13.63-4.87l4.43-13.9c5,1.53,10,3.32,14.86,5.3Zm-27.65-8.54c-4.68-1-9.49-1.83-14.29-2.45L316.51,115c5.23.67,10.47,1.56,15.57,2.66Z" transform="translate(-195 -115)"></path><path class="color-12" d="M390.39,291.83C390.39,345,346.63,388,292.7,388S195,345,195,291.83s43.77-96.21,97.7-96.21S390.39,238.7,390.39,291.83Z" transform="translate(-195 -115)"></path><text class="lb1" x="20" y="190" font-size="30">INDIA</text><image class="img1" x="380" y="130" href="images/india.svg" width="160"></image></svg></svg><svg width="350" height="350" id="vg3" x="219.6666717529297" y="588.36669921875"><svg id="Layer_1" data-name="Layer 1" xmlns="http://www.w3.org/2000/svg" viewBox="0 0 643 468"><defs><style>@import url('https://fonts.googleapis.com/css2?family=Kiwi+Maru:wght@500&amp;display=swap');@import url('https://fonts.googleapis.com/css2?family=Balsamiq+Sans:ital@1&amp;family=Kiwi+Maru:wght@500&amp;display=swap');
    .lb1{font-family:Kiwi Maru, serif; font-size: 35px;}.lb1{fill:#2c7bb6;}.txt1{font-family: Balsamiq Sans, cursive; font-size: 32px;}.color1{fill:#23282b;}.color2{fill:#fff;}.lb1{fill:#fff;}.color-1{fill:#00b9c4;}.color-13{fill:#abdda4;}</style></defs><rect class="text-wrap" height="300" width="270" x="320" y="300" style="fill:none"></rect><text id="wrap" class="txt1" y="300" x="320" dy="1" font-size="12"><tspan x="320" y="300" dy="1em">Russia is 60%</tspan><tspan x="320" y="300" dy="2.1em">forest. What’s</tspan><tspan x="320" y="300" dy="3.2em">more interesting,</tspan><tspan x="320" y="300" dy="4.300000000000001em">half of that</tspan><tspan x="320" y="300" dy="5.4em">forest is totally</tspan><tspan x="320" y="300" dy="6.5em">uninhabited by</tspan><tspan x="320" y="300" dy="7.6000000000000005em">humans.</tspan></text><path class="color-13" d="M316.84,468.63l-1.93-14.45c4.79-.62,9.59-1.45,14.28-2.48l3.21,14.23C327.29,467,322.06,468,316.84,468.63Zm30.82-6.73L343.2,448c4.59-1.42,9.17-3.06,13.63-4.89l5.67,13.46C357.65,458.55,352.66,460.34,347.66,461.9ZM376.82,450,370,437.06c4.27-2.2,8.49-4.62,12.55-7.17l8,12.27C386.07,445,381.47,447.58,376.82,450Zm26.6-16.76-9-11.54c3.84-2.91,7.58-6,11.11-9.21l10,10.74C411.66,426.68,407.59,430.05,403.42,433.21Zm23.24-21-10.91-9.85c3.25-3.48,6.39-7.17,9.33-10.94l11.74,8.87C433.62,404.38,430.2,408.4,426.66,412.19Zm19.24-24.67-12.49-7.82c2.6-4,5-8.19,7.26-12.38l13.12,6.74C451.38,378.61,448.72,383.14,445.9,387.52Zm14.58-27.58-13.68-5.57c1.85-4.38,3.51-8.9,5-13.43l14.12,4.38C464.31,350.25,462.49,355.17,460.48,359.94ZM470,330.28l-14.46-3.14c1-4.62,1.88-9.35,2.49-14.07l14.69,1.87C472,320.09,471.07,325.25,470,330.28ZM474,299.45l-14.79-.62c.1-2.33.15-4.68.15-7s-.05-4.85-.16-7.26L474,283.9q.18,3.93.18,7.91C474.18,294.37,474.13,296.92,474,299.45ZM458,270.3c-.63-4.71-1.47-9.45-2.51-14.07l14.45-3.16c1.14,5,2.06,10.2,2.74,15.33Zm-6.27-27.87c-1.45-4.5-3.12-9-5-13.42l13.66-5.59c2,4.8,3.84,9.72,5.42,14.62Zm-11.13-26.35c-2.23-4.18-4.68-8.34-7.28-12.35l12.47-7.86c2.84,4.37,5.5,8.89,7.93,13.46ZM424.92,192c-2.93-3.75-6.07-7.42-9.35-10.93l10.9-9.86c3.57,3.82,7,7.82,10.19,11.91ZM405.3,171c-3.56-3.2-7.3-6.29-11.12-9.18l9-11.57c4.17,3.15,8.24,6.51,12.12,10Zm-23-17.38c-4-2.54-8.28-4.94-12.56-7.13l6.82-12.94c4.68,2.39,9.28,5,13.7,7.78Zm-25.72-13.18c-4.47-1.81-9.06-3.45-13.63-4.87l4.43-13.9c5,1.53,10,3.32,14.86,5.3Zm-27.65-8.54c-4.68-1-9.49-1.83-14.29-2.45L316.51,115c5.23.67,10.47,1.56,15.57,2.66Z" transform="translate(-195 -115)"></path><path class="color-13" d="M390.39,291.83C390.39,345,346.63,388,292.7,388S195,345,195,291.83s43.77-96.21,97.7-96.21S390.39,238.7,390.39,291.83Z" transform="translate(-195 -115)"></path><text class="lb1" x="20" y="190" font-size="30">RUSSIA</text><image class="img1" x="380" y="130" href="images/russia.svg" width="160"></image></svg></svg><svg width="350" height="350" id="vg4" x="117.26667404174805" y="83.46275329589844"><svg id="Layer_1" data-name="Layer 1" xmlns="http://www.w3.org/2000/svg" viewBox="0 0 643 468"><defs><style>@import url('https://fonts.googleapis.com/css2?family=Kiwi+Maru:wght@500&amp;display=swap');@import url('https://fonts.googleapis.com/css2?family=Balsamiq+Sans:ital@1&amp;family=Kiwi+Maru:wght@500&amp;display=swap');
    .lb1{font-family:Kiwi Maru, serif; font-size: 35px;}.lb1{fill:#2c7bb6;}.txt1{font-family: Balsamiq Sans, cursive; font-size: 32px;}.color1{fill:#23282b;}.color2{fill:#fff;}.lb1{fill:#fff;}.color-1{fill:#00b9c4;}.color-14{fill:#2b83ba;}</style></defs><rect class="text-wrap" height="300" width="270" x="320" y="300" style="fill:none"></rect><text id="wrap" class="txt1" y="300" x="320" dy="1" font-size="12"><tspan x="320" y="300" dy="1em">Brazil has won</tspan><tspan x="320" y="300" dy="2.1em">more football</tspan><tspan x="320" y="300" dy="3.2em">world cups than</tspan><tspan x="320" y="300" dy="4.300000000000001em">any other</tspan><tspan x="320" y="300" dy="5.4em">country, with Pele</tspan><tspan x="320" y="300" dy="6.5em">being the top</tspan><tspan x="320" y="300" dy="7.6000000000000005em">scorer.</tspan></text><path class="color-14" d="M316.84,468.63l-1.93-14.45c4.79-.62,9.59-1.45,14.28-2.48l3.21,14.23C327.29,467,322.06,468,316.84,468.63Zm30.82-6.73L343.2,448c4.59-1.42,9.17-3.06,13.63-4.89l5.67,13.46C357.65,458.55,352.66,460.34,347.66,461.9ZM376.82,450,370,437.06c4.27-2.2,8.49-4.62,12.55-7.17l8,12.27C386.07,445,381.47,447.58,376.82,450Zm26.6-16.76-9-11.54c3.84-2.91,7.58-6,11.11-9.21l10,10.74C411.66,426.68,407.59,430.05,403.42,433.21Zm23.24-21-10.91-9.85c3.25-3.48,6.39-7.17,9.33-10.94l11.74,8.87C433.62,404.38,430.2,408.4,426.66,412.19Zm19.24-24.67-12.49-7.82c2.6-4,5-8.19,7.26-12.38l13.12,6.74C451.38,378.61,448.72,383.14,445.9,387.52Zm14.58-27.58-13.68-5.57c1.85-4.38,3.51-8.9,5-13.43l14.12,4.38C464.31,350.25,462.49,355.17,460.48,359.94ZM470,330.28l-14.46-3.14c1-4.62,1.88-9.35,2.49-14.07l14.69,1.87C472,320.09,471.07,325.25,470,330.28ZM474,299.45l-14.79-.62c.1-2.33.15-4.68.15-7s-.05-4.85-.16-7.26L474,283.9q.18,3.93.18,7.91C474.18,294.37,474.13,296.92,474,299.45ZM458,270.3c-.63-4.71-1.47-9.45-2.51-14.07l14.45-3.16c1.14,5,2.06,10.2,2.74,15.33Zm-6.27-27.87c-1.45-4.5-3.12-9-5-13.42l13.66-5.59c2,4.8,3.84,9.72,5.42,14.62Zm-11.13-26.35c-2.23-4.18-4.68-8.34-7.28-12.35l12.47-7.86c2.84,4.37,5.5,8.89,7.93,13.46ZM424.92,192c-2.93-3.75-6.07-7.42-9.35-10.93l10.9-9.86c3.57,3.82,7,7.82,10.19,11.91ZM405.3,171c-3.56-3.2-7.3-6.29-11.12-9.18l9-11.57c4.17,3.15,8.24,6.51,12.12,10Zm-23-17.38c-4-2.54-8.28-4.94-12.56-7.13l6.82-12.94c4.68,2.39,9.28,5,13.7,7.78Zm-25.72-13.18c-4.47-1.81-9.06-3.45-13.63-4.87l4.43-13.9c5,1.53,10,3.32,14.86,5.3Zm-27.65-8.54c-4.68-1-9.49-1.83-14.29-2.45L316.51,115c5.23.67,10.47,1.56,15.57,2.66Z" transform="translate(-195 -115)"></path><path class="color-14" d="M390.39,291.83C390.39,345,346.63,388,292.7,388S195,345,195,291.83s43.77-96.21,97.7-96.21S390.39,238.7,390.39,291.83Z" transform="translate(-195 -115)"></path><text class="lb1" x="20" y="190" font-size="30">BRAZIL</text><image class="img1" x="380" y="130" href="images/brazil.svg" width="160"></image></svg></svg><g><image href="connections/arrow3.svg" width="100" x="782.5333404541016" y="510.5034923553467" transform="rotate(300.50661620252407,832.5333404541016,560.5034923553467)"></image></g><g><image href="connections/arrow3.svg" width="100" x="604.3999862670898" y="714.368486404419" transform="rotate(0.22098779740440477,654.3999862670898,764.368486404419)"></image></g><g><image href="connections/arrow3.svg" width="100" x="422.5333309173584" y="512.0061874389648" transform="rotate(59.29501045312308,472.5333309173584,562.0061874389648)"></image></g><image x="740" y="60" href="images/pivot.png" transform="scale(0.75)"></image></svg>