<svg id="svg" height="960" width="1280" xmlns="http://www.w3.org/2000/svg"><image x="0" y="0" height="960" width="1280" preserveAspectRatio="none" href="images/background3.jpg"></image><svg width="350" height="350" id="vg0" x="-3.2666587829589844" y="516.0617828369141"><svg id="Layer_1" data-name="Layer 1" xmlns="http://www.w3.org/2000/svg" viewBox="0 0 729 286"><defs><style>@import url('https://fonts.googleapis.com/css2?family=Kiwi+Maru:wght@500&amp;display=swap');@import url('https://fonts.googleapis.com/css2?family=Balsamiq+Sans:ital@1&amp;family=Kiwi+Maru:wght@500&amp;display=swap');
    .lb1{font-family:Kiwi Maru, serif; font-size: 50px;}.lb1{fill:#2c7bb6;}.txt1{font-family: Balsamiq Sans, cursive; font-size: 26px;fill: aliceblue;}.color2{fill:#fffbf5;}.color-10{fill:#7b3294;}</style></defs><polygon class="color-10" points="729 142.99 636.71 11.09 636.4 44.68 237.55 44.68 237.55 241.32 636.4 241.32 636.71 274.91 729 142.99"></polygon><rect class="text-wrap" height="150" width="300" x="310" y="80" style="fill:none"></rect><text id="wrap" class="txt1" y="80" x="330" dy="1" font-size="22"><tspan x="330" y="80" dy="1em">The United States has</tspan><tspan x="330" y="80" dy="2.1em">maintained its position of</tspan><tspan x="330" y="80" dy="3.2em">being the world’s largest</tspan><tspan x="330" y="80" dy="4.300000000000001em">economy since 1871.</tspan></text><ellipse class="color2" cx="156.22" cy="143" rx="134.96" ry="123.54"></ellipse><path class="color-10" d="M312.22,292.93c62.69,0,113.69,46.68,113.69,104.07s-51,104.07-113.69,104.07S198.53,454.39,198.53,397s51-104.07,113.69-104.07m0-38.93C225.94,254,156,318,156,397s69.94,143,156.22,143,156.22-64,156.22-143S398.49,254,312.22,254Z" transform="translate(-156 -254)"></path><text class="lb1" transform="translate(60.91 158.23)">USA</text></svg></svg><svg width="350" height="350" id="vg1" x="227.13333129882812" y="519.1331481933594"><svg id="Layer_1" data-name="Layer 1" xmlns="http://www.w3.org/2000/svg" viewBox="0 0 729 286"><defs><style>@import url('https://fonts.googleapis.com/css2?family=Kiwi+Maru:wght@500&amp;display=swap');@import url('https://fonts.googleapis.com/css2?family=Balsamiq+Sans:ital@1&amp;family=Kiwi+Maru:wght@500&amp;display=swap');
    .lb1{font-family:Kiwi Maru, serif; font-size: 50px;}.lb1{fill:#2c7bb6;}.txt1{font-family: Balsamiq Sans, cursive; font-size: 26px;fill: aliceblue;}.color2{fill:#fffbf5;}.color-11{fill:#c2a5cf;}</style></defs><polygon class="color-11" points="729 142.99 636.71 11.09 636.4 44.68 237.55 44.68 237.55 241.32 636.4 241.32 636.71 274.91 729 142.99"></polygon><rect class="text-wrap" height="150" width="300" x="310" y="80" style="fill:none"></rect><text id="wrap" class="txt1" y="80" x="330" dy="1" font-size="22"><tspan x="330" y="80" dy="1em">In China, the dragons are</tspan><tspan x="330" y="80" dy="2.1em">associated with wealth,</tspan><tspan x="330" y="80" dy="3.2em">power, and leadership</tspan></text><ellipse class="color2" cx="156.22" cy="143" rx="134.96" ry="123.54"></ellipse><path class="color-11" d="M312.22,292.93c62.69,0,113.69,46.68,113.69,104.07s-51,104.07-113.69,104.07S198.53,454.39,198.53,397s51-104.07,113.69-104.07m0-38.93C225.94,254,156,318,156,397s69.94,143,156.22,143,156.22-64,156.22-143S398.49,254,312.22,254Z" transform="translate(-156 -254)"></path><text class="lb1" transform="translate(60.91 158.23)">CHINA</text></svg></svg><svg width="350" height="350" id="vg2" x="457.53334045410156" y="519.1331481933594"><svg id="Layer_1" data-name="Layer 1" xmlns="http://www.w3.org/2000/svg" viewBox="0 0 729 286"><defs><style>@import url('https://fonts.googleapis.com/css2?family=Kiwi+Maru:wght@500&amp;display=swap');@import url('https://fonts.googleapis.com/css2?family=Balsamiq+Sans:ital@1&amp;family=Kiwi+Maru:wght@500&amp;display=swap');
    .lb1{font-family:Kiwi Maru, serif; font-size: 50px;}.lb1{fill:#2c7bb6;}.txt1{font-family: Balsamiq Sans, cursive; font-size: 26px;fill: aliceblue;}.color2{fill:#fffbf5;}.color-12{fill:#f7f7f7;}</style></defs><polygon class="color-12" points="729 142.99 636.71 11.09 636.4 44.68 237.55 44.68 237.55 241.32 636.4 241.32 636.71 274.91 729 142.99"></polygon><rect class="text-wrap" height="150" width="300" x="310" y="80" style="fill:none"></rect><text id="wrap" class="txt1" y="80" x="330" dy="1" font-size="22"><tspan x="330" y="80" dy="1em">It’s estimated that</tspan><tspan x="330" y="80" dy="2.1em">between 15% and 30% of</tspan><tspan x="330" y="80" dy="3.2em">India’s population follow</tspan><tspan x="330" y="80" dy="4.300000000000001em">a strict vegetarian diet.</tspan></text><ellipse class="color2" cx="156.22" cy="143" rx="134.96" ry="123.54"></ellipse><path class="color-12" d="M312.22,292.93c62.69,0,113.69,46.68,113.69,104.07s-51,104.07-113.69,104.07S198.53,454.39,198.53,397s51-104.07,113.69-104.07m0-38.93C225.94,254,156,318,156,397s69.94,143,156.22,143,156.22-64,156.22-143S398.49,254,312.22,254Z" transform="translate(-156 -254)"></path><text class="lb1" transform="translate(60.91 158.23)">INDIA</text></svg></svg><svg width="350" height="350" id="vg3" x="698.6000061035156" y="518.1093597412109"><svg id="Layer_1" data-name="Layer 1" xmlns="http://www.w3.org/2000/svg" viewBox="0 0 729 286"><defs><style>@import url('https://fonts.googleapis.com/css2?family=Kiwi+Maru:wght@500&amp;display=swap');@import url('https://fonts.googleapis.com/css2?family=Balsamiq+Sans:ital@1&amp;family=Kiwi+Maru:wght@500&amp;display=swap');
    .lb1{font-family:Kiwi Maru, serif; font-size: 50px;}.lb1{fill:#2c7bb6;}.txt1{font-family: Balsamiq Sans, cursive; font-size: 26px;fill: aliceblue;}.color2{fill:#fffbf5;}.color-13{fill:#a6dba0;}</style></defs><polygon class="color-13" points="729 142.99 636.71 11.09 636.4 44.68 237.55 44.68 237.55 241.32 636.4 241.32 636.71 274.91 729 142.99"></polygon><rect class="text-wrap" height="150" width="300" x="310" y="80" style="fill:none"></rect><text id="wrap" class="txt1" y="80" x="330" dy="1" font-size="22"><tspan x="330" y="80" dy="1em">Russia is 60% forest.</tspan><tspan x="330" y="80" dy="2.1em">What’s more interesting,</tspan><tspan x="330" y="80" dy="3.2em">half of that forest is</tspan><tspan x="330" y="80" dy="4.300000000000001em">totally uninhabited by</tspan><tspan x="330" y="80" dy="5.4em">humans.</tspan></text><ellipse class="color2" cx="156.22" cy="143" rx="134.96" ry="123.54"></ellipse><path class="color-13" d="M312.22,292.93c62.69,0,113.69,46.68,113.69,104.07s-51,104.07-113.69,104.07S198.53,454.39,198.53,397s51-104.07,113.69-104.07m0-38.93C225.94,254,156,318,156,397s69.94,143,156.22,143,156.22-64,156.22-143S398.49,254,312.22,254Z" transform="translate(-156 -254)"></path><text class="lb1" transform="translate(60.91 158.23)">RUSSIA</text></svg></svg><svg width="350" height="350" id="vg4" x="937.5333404541016" y="517.0855712890625"><svg id="Layer_1" data-name="Layer 1" xmlns="http://www.w3.org/2000/svg" viewBox="0 0 729 286"><defs><style>@import url('https://fonts.googleapis.com/css2?family=Kiwi+Maru:wght@500&amp;display=swap');@import url('https://fonts.googleapis.com/css2?family=Balsamiq+Sans:ital@1&amp;family=Kiwi+Maru:wght@500&amp;display=swap');
    .lb1{font-family:Kiwi Maru, serif; font-size: 50px;}.lb1{fill:#2c7bb6;}.txt1{font-family: Balsamiq Sans, cursive; font-size: 26px;fill: aliceblue;}.color2{fill:#fffbf5;}.color-14{fill:#008837;}</style></defs><polygon class="color-14" points="729 142.99 636.71 11.09 636.4 44.68 237.55 44.68 237.55 241.32 636.4 241.32 636.71 274.91 729 142.99"></polygon><rect class="text-wrap" height="150" width="300" x="310" y="80" style="fill:none"></rect><text id="wrap" class="txt1" y="80" x="330" dy="1" font-size="22"><tspan x="330" y="80" dy="1em">Brazil has won more</tspan><tspan x="330" y="80" dy="2.1em">football world cups than</tspan><tspan x="330" y="80" dy="3.2em">any other country, with</tspan><tspan x="330" y="80" dy="4.300000000000001em">Pele being the top scorer.</tspan></text><ellipse class="color2" cx="156.22" cy="143" rx="134.96" ry="123.54"></ellipse><path class="color-14" d="M312.22,292.93c62.69,0,113.69,46.68,113.69,104.07s-51,104.07-113.69,104.07S198.53,454.39,198.53,397s51-104.07,113.69-104.07m0-38.93C225.94,254,156,318,156,397s69.94,143,156.22,143,156.22-64,156.22-143S398.49,254,312.22,254Z" transform="translate(-156 -254)"></path><text class="lb1" transform="translate(60.91 158.23)">BRAZIL</text></svg></svg><g><image href="connections/minus-line.svg" width="100" x="352.1333408355713" y="642.5974655151367" transform="rotate(180.38188729741537,402.1333408355713,692.5974655151367)"></image></g><g><image href="connections/minus-line.svg" width="100" x="587.8666687011719" y="643.6212539672852" transform="rotate(179.87558258439563,637.8666687011719,693.6212539672852)"></image></g><g><image href="connections/minus-line.svg" width="100" x="822.5333404541016" y="643.1093597412109" transform="rotate(179.75558999323647,872.5333404541016,693.1093597412109)"></image></g><image x="740" y="60" href="images/pivot.png" transform="scale(0.75)"></image></svg>