<svg id="svg" height="960" width="1280" xmlns="http://www.w3.org/2000/svg"><image x="0" y="0" height="960" width="1280" preserveAspectRatio="none" href="images/background3.jpg"></image><svg width="350" height="350" id="vg0" x="22.358341217041016" y="385.01874923706055"><svg id="Layer_1" data-name="Layer 1" xmlns="http://www.w3.org/2000/svg" viewBox="0 0 395 57"><defs><style>@import url('https://fonts.googleapis.com/css2?family=Kiwi+Maru:wght@500&amp;display=swap');@import url('https://fonts.googleapis.com/css2?family=Balsamiq+Sans:ital@1&amp;family=Kiwi+Maru:wght@500&amp;display=swap');
    .lb1{font-family:Kiwi Maru, serif; font-size: 30px;}.lb1{fill:#2c7bb6;}.txt1{font-family: Balsamiq Sans, cursive; font-size: 25px;}.color-1{fill:#59bdc9;}.color-10{fill:#d7191c;}</style></defs><polygon class="color-10" points="278 57 0 57 0 0 278 0 285 28.5 278 57"></polygon><rect class="text-wrap" height="100px" width="230" x="25" y="12" style="fill:none"></rect><text id="wrap" class="txt1" y="25" x="25" font-size="12" dy="1"><tspan x="25" y="25" dy="1em">The United States</tspan><tspan x="25" y="25" dy="2.1em">has maintained its</tspan><tspan x="25" y="25" dy="3.2em">position of being the</tspan><tspan x="25" y="25" dy="4.300000000000001em">world’s largest</tspan><tspan x="25" y="25" dy="5.4em">economy since 1871.</tspan></text><polygon class="color-10" points="395 57 343 57 336 28.5 343 0 395 0 395 57"></polygon><text class="lb1" transform="translate(290 23.8) rotate(270 50 23.8)">USA</text><image class="img1" x="340" y="5" href="images/usa.svg" width="50"></image></svg></svg><svg width="350" height="350" id="vg1" x="238.8916778564453" y="225.81875801086426"><svg id="Layer_1" data-name="Layer 1" xmlns="http://www.w3.org/2000/svg" viewBox="0 0 395 57"><defs><style>@import url('https://fonts.googleapis.com/css2?family=Kiwi+Maru:wght@500&amp;display=swap');@import url('https://fonts.googleapis.com/css2?family=Balsamiq+Sans:ital@1&amp;family=Kiwi+Maru:wght@500&amp;display=swap');
    .lb1{font-family:Kiwi Maru, serif; font-size: 30px;}.lb1{fill:#2c7bb6;}.txt1{font-family: Balsamiq Sans, cursive; font-size: 25px;}.color-1{fill:#59bdc9;}.color-11{fill:#fdae61;}</style></defs><polygon class="color-11" points="278 57 0 57 0 0 278 0 285 28.5 278 57"></polygon><rect class="text-wrap" height="100px" width="230" x="25" y="12" style="fill:none"></rect><text id="wrap" class="txt1" y="25" x="25" font-size="12" dy="1"><tspan x="25" y="25" dy="1em">In China, the</tspan><tspan x="25" y="25" dy="2.1em">dragons are</tspan><tspan x="25" y="25" dy="3.2em">associated with</tspan><tspan x="25" y="25" dy="4.300000000000001em">wealth, power, and</tspan><tspan x="25" y="25" dy="5.4em">leadership</tspan></text><polygon class="color-11" points="395 57 343 57 336 28.5 343 0 395 0 395 57"></polygon><text class="lb1" transform="translate(290 23.8) rotate(270 50 23.8)">CHINA</text><image class="img1" x="340" y="5" href="images/china.svg" width="50"></image></svg></svg><svg width="350" height="350" id="vg2" x="462.8916549682617" y="390.6187438964844"><svg id="Layer_1" data-name="Layer 1" xmlns="http://www.w3.org/2000/svg" viewBox="0 0 395 57"><defs><style>@import url('https://fonts.googleapis.com/css2?family=Kiwi+Maru:wght@500&amp;display=swap');@import url('https://fonts.googleapis.com/css2?family=Balsamiq+Sans:ital@1&amp;family=Kiwi+Maru:wght@500&amp;display=swap');
    .lb1{font-family:Kiwi Maru, serif; font-size: 30px;}.lb1{fill:#2c7bb6;}.txt1{font-family: Balsamiq Sans, cursive; font-size: 25px;}.color-1{fill:#59bdc9;}.color-12{fill:#ffffbf;}</style></defs><polygon class="color-12" points="278 57 0 57 0 0 278 0 285 28.5 278 57"></polygon><rect class="text-wrap" height="100px" width="230" x="25" y="12" style="fill:none"></rect><text id="wrap" class="txt1" y="25" x="25" font-size="12" dy="1"><tspan x="25" y="25" dy="1em">It’s estimated that</tspan><tspan x="25" y="25" dy="2.1em">between 15% and</tspan><tspan x="25" y="25" dy="3.2em">30% of India’s</tspan><tspan x="25" y="25" dy="4.300000000000001em">population follow a</tspan><tspan x="25" y="25" dy="5.4em">strict vegetarian</tspan><tspan x="25" y="25" dy="6.5em">diet.</tspan></text><polygon class="color-12" points="395 57 343 57 336 28.5 343 0 395 0 395 57"></polygon><text class="lb1" transform="translate(290 23.8) rotate(270 50 23.8)">INDIA</text><image class="img1" x="340" y="5" href="images/india.svg" width="50"></image></svg></svg><svg width="350" height="350" id="vg3" x="686.8916320800781" y="228.2187557220459"><svg id="Layer_1" data-name="Layer 1" xmlns="http://www.w3.org/2000/svg" viewBox="0 0 395 57"><defs><style>@import url('https://fonts.googleapis.com/css2?family=Kiwi+Maru:wght@500&amp;display=swap');@import url('https://fonts.googleapis.com/css2?family=Balsamiq+Sans:ital@1&amp;family=Kiwi+Maru:wght@500&amp;display=swap');
    .lb1{font-family:Kiwi Maru, serif; font-size: 30px;}.lb1{fill:#2c7bb6;}.txt1{font-family: Balsamiq Sans, cursive; font-size: 25px;}.color-1{fill:#59bdc9;}.color-13{fill:#abdda4;}</style></defs><polygon class="color-13" points="278 57 0 57 0 0 278 0 285 28.5 278 57"></polygon><rect class="text-wrap" height="100px" width="230" x="25" y="12" style="fill:none"></rect><text id="wrap" class="txt1" y="25" x="25" font-size="12" dy="1"><tspan x="25" y="25" dy="1em">Russia is 60%</tspan><tspan x="25" y="25" dy="2.1em">forest. What’s more</tspan><tspan x="25" y="25" dy="3.2em">interesting, half of</tspan><tspan x="25" y="25" dy="4.300000000000001em">that forest is totally</tspan><tspan x="25" y="25" dy="5.4em">uninhabited by</tspan><tspan x="25" y="25" dy="6.5em">humans.</tspan></text><polygon class="color-13" points="395 57 343 57 336 28.5 343 0 395 0 395 57"></polygon><text class="lb1" transform="translate(290 23.8) rotate(270 50 23.8)">RUSSIA</text><image class="img1" x="340" y="5" href="images/russia.svg" width="50"></image></svg></svg><svg width="350" height="350" id="vg4" x="904.4916534423828" y="381.81875228881836"><svg id="Layer_1" data-name="Layer 1" xmlns="http://www.w3.org/2000/svg" viewBox="0 0 395 57"><defs><style>@import url('https://fonts.googleapis.com/css2?family=Kiwi+Maru:wght@500&amp;display=swap');@import url('https://fonts.googleapis.com/css2?family=Balsamiq+Sans:ital@1&amp;family=Kiwi+Maru:wght@500&amp;display=swap');
    .lb1{font-family:Kiwi Maru, serif; font-size: 30px;}.lb1{fill:#2c7bb6;}.txt1{font-family: Balsamiq Sans, cursive; font-size: 25px;}.color-1{fill:#59bdc9;}.color-14{fill:#2b83ba;}</style></defs><polygon class="color-14" points="278 57 0 57 0 0 278 0 285 28.5 278 57"></polygon><rect class="text-wrap" height="100px" width="230" x="25" y="12" style="fill:none"></rect><text id="wrap" class="txt1" y="25" x="25" font-size="12" dy="1"><tspan x="25" y="25" dy="1em">Brazil has won more</tspan><tspan x="25" y="25" dy="2.1em">football world cups</tspan><tspan x="25" y="25" dy="3.2em">than any other</tspan><tspan x="25" y="25" dy="4.300000000000001em">country, with Pele</tspan><tspan x="25" y="25" dy="5.4em">being the top</tspan><tspan x="25" y="25" dy="6.5em">scorer.</tspan></text><polygon class="color-14" points="395 57 343 57 336 28.5 343 0 395 0 395 57"></polygon><text class="lb1" transform="translate(290 23.8) rotate(270 50 23.8)">BRAZIL</text><image class="img1" x="340" y="5" href="images/brazil.svg" width="50"></image></svg></svg><g><image href="connections/arrow3.svg" width="100" x="255.62500953674316" y="430.4187536239624" transform="rotate(143.67587015238706,305.62500953674316,480.4187536239624)"></image></g><g><image href="connections/arrow3.svg" width="100" x="475.8916664123535" y="433.2187509536743" transform="rotate(216.3424489750298,525.8916664123535,483.2187509536743)"></image></g><g><image href="connections/arrow3.svg" width="100" x="699.8916435241699" y="434.41874980926514" transform="rotate(144.05788732915727,749.8916435241699,484.41874980926514)"></image></g><g><image href="connections/arrow3.svg" width="100" x="920.6916427612305" y="430.01875400543213" transform="rotate(215.21758971478295,970.6916427612305,480.01875400543213)"></image></g><g><image href="connections/arrow3.svg" width="100" x="588.4249973297119" y="508.41875076293945" transform="rotate(359.79215668105724,638.4249973297119,558.4187507629395)"></image></g><image x="740" y="60" href="images/pivot.png" transform="scale(0.75)"></image></svg>