<svg id="svg" height="960" width="1280" xmlns="http://www.w3.org/2000/svg"><image x="0" y="0" height="960" width="1280" preserveAspectRatio="none" href="images/background3.jpg"></image><svg width="350" height="350" id="vg0" x="758.3333587646484" y="14.600005149841309"><svg id="Layer_1" data-name="Layer 1" xmlns="http://www.w3.org/2000/svg" viewBox="0 0 163.5 262.52"><defs><style>@import url('https://fonts.googleapis.com/css2?family=Kiwi+Maru:wght@500&amp;display=swap');@import url('https://fonts.googleapis.com/css2?family=Balsamiq+Sans:ital@1&amp;family=Kiwi+Maru:wght@500&amp;display=swap');
    .lb1{font-family:Kiwi Maru, serif; font-size: 30px;}.lb1{fill:#2c7bb6;}.txt1{font-family: Balsamiq Sans, cursive; font-size: 12px;}.color-1{fill:#b71044;}.color-10{fill:#d7191c;}</style></defs><path class="color-10" d="M542.2,298.81a30,30,0,1,0-30,30A30,30,0,0,0,542.2,298.81Z" transform="translate(-430.45 -252.74)"></path><image class="img1" x="67" y="30" href="images/usa.svg" width="30"></image><rect class="text-wrap" height="150px" width="130" x="23" y="100" style="fill:none"></rect><text id="wrap" dy="1" class="txt1" y="100" x="26" font-size="12"><tspan x="26" y="100" dy="1em">The United States has</tspan><tspan x="26" y="100" dy="2.1em">maintained its position</tspan><tspan x="26" y="100" dy="3.2em">of being the world’s</tspan><tspan x="26" y="100" dy="4.300000000000001em">largest economy since</tspan><tspan x="26" y="100" dy="5.4em">1871.</tspan></text><text class="lb1" transform="translate(29 230.8)" font-size="35">USA</text></svg></svg><svg width="350" height="350" id="vg1" x="168.46668243408203" y="143.40001106262207"><svg id="Layer_1" data-name="Layer 1" xmlns="http://www.w3.org/2000/svg" viewBox="0 0 163.5 262.52"><defs><style>@import url('https://fonts.googleapis.com/css2?family=Kiwi+Maru:wght@500&amp;display=swap');@import url('https://fonts.googleapis.com/css2?family=Balsamiq+Sans:ital@1&amp;family=Kiwi+Maru:wght@500&amp;display=swap');
    .lb1{font-family:Kiwi Maru, serif; font-size: 30px;}.lb1{fill:#2c7bb6;}.txt1{font-family: Balsamiq Sans, cursive; font-size: 12px;}.color-1{fill:#b71044;}.color-11{fill:#fdae61;}</style></defs><path class="color-11" d="M542.2,298.81a30,30,0,1,0-30,30A30,30,0,0,0,542.2,298.81Z" transform="translate(-430.45 -252.74)"></path><image class="img1" x="67" y="30" href="images/china.svg" width="30"></image><rect class="text-wrap" height="150px" width="130" x="23" y="100" style="fill:none"></rect><text id="wrap" dy="1" class="txt1" y="100" x="26" font-size="12"><tspan x="26" y="100" dy="1em">In China, the dragons</tspan><tspan x="26" y="100" dy="2.1em">are associated with</tspan><tspan x="26" y="100" dy="3.2em">wealth, power, and</tspan><tspan x="26" y="100" dy="4.300000000000001em">leadership</tspan></text><text class="lb1" transform="translate(29 230.8)" font-size="35">CHINA</text></svg></svg><svg width="350" height="350" id="vg2" x="757.2666931152344" y="267.4000072479248"><svg id="Layer_1" data-name="Layer 1" xmlns="http://www.w3.org/2000/svg" viewBox="0 0 163.5 262.52"><defs><style>@import url('https://fonts.googleapis.com/css2?family=Kiwi+Maru:wght@500&amp;display=swap');@import url('https://fonts.googleapis.com/css2?family=Balsamiq+Sans:ital@1&amp;family=Kiwi+Maru:wght@500&amp;display=swap');
    .lb1{font-family:Kiwi Maru, serif; font-size: 30px;}.lb1{fill:#2c7bb6;}.txt1{font-family: Balsamiq Sans, cursive; font-size: 12px;}.color-1{fill:#b71044;}.color-12{fill:#ffffbf;}</style></defs><path class="color-12" d="M542.2,298.81a30,30,0,1,0-30,30A30,30,0,0,0,542.2,298.81Z" transform="translate(-430.45 -252.74)"></path><image class="img1" x="67" y="30" href="images/india.svg" width="30"></image><rect class="text-wrap" height="150px" width="130" x="23" y="100" style="fill:none"></rect><text id="wrap" dy="1" class="txt1" y="100" x="26" font-size="12"><tspan x="26" y="100" dy="1em">It’s estimated that</tspan><tspan x="26" y="100" dy="2.1em">between 15% and 30%</tspan><tspan x="26" y="100" dy="3.2em">of India’s population</tspan><tspan x="26" y="100" dy="4.300000000000001em">follow a strict</tspan><tspan x="26" y="100" dy="5.4em">vegetarian diet.</tspan></text><text class="lb1" transform="translate(29 230.8)" font-size="35">INDIA</text></svg></svg><svg width="350" height="350" id="vg3" x="173.80001068115234" y="389.79997634887695"><svg id="Layer_1" data-name="Layer 1" xmlns="http://www.w3.org/2000/svg" viewBox="0 0 163.5 262.52"><defs><style>@import url('https://fonts.googleapis.com/css2?family=Kiwi+Maru:wght@500&amp;display=swap');@import url('https://fonts.googleapis.com/css2?family=Balsamiq+Sans:ital@1&amp;family=Kiwi+Maru:wght@500&amp;display=swap');
    .lb1{font-family:Kiwi Maru, serif; font-size: 30px;}.lb1{fill:#2c7bb6;}.txt1{font-family: Balsamiq Sans, cursive; font-size: 12px;}.color-1{fill:#b71044;}.color-13{fill:#abdda4;}</style></defs><path class="color-13" d="M542.2,298.81a30,30,0,1,0-30,30A30,30,0,0,0,542.2,298.81Z" transform="translate(-430.45 -252.74)"></path><image class="img1" x="67" y="30" href="images/russia.svg" width="30"></image><rect class="text-wrap" height="150px" width="130" x="23" y="100" style="fill:none"></rect><text id="wrap" dy="1" class="txt1" y="100" x="26" font-size="12"><tspan x="26" y="100" dy="1em">Russia is 60% forest.</tspan><tspan x="26" y="100" dy="2.1em">What’s more interesting,</tspan><tspan x="26" y="100" dy="3.2em">half of that forest is</tspan><tspan x="26" y="100" dy="4.300000000000001em">totally uninhabited by</tspan><tspan x="26" y="100" dy="5.4em">humans.</tspan></text><text class="lb1" transform="translate(29 230.8)" font-size="35">RUSSIA</text></svg></svg><svg width="350" height="350" id="vg4" x="771.1333465576172" y="517.0000267028809"><svg id="Layer_1" data-name="Layer 1" xmlns="http://www.w3.org/2000/svg" viewBox="0 0 163.5 262.52"><defs><style>@import url('https://fonts.googleapis.com/css2?family=Kiwi+Maru:wght@500&amp;display=swap');@import url('https://fonts.googleapis.com/css2?family=Balsamiq+Sans:ital@1&amp;family=Kiwi+Maru:wght@500&amp;display=swap');
    .lb1{font-family:Kiwi Maru, serif; font-size: 30px;}.lb1{fill:#2c7bb6;}.txt1{font-family: Balsamiq Sans, cursive; font-size: 12px;}.color-1{fill:#b71044;}.color-14{fill:#2b83ba;}</style></defs><path class="color-14" d="M542.2,298.81a30,30,0,1,0-30,30A30,30,0,0,0,542.2,298.81Z" transform="translate(-430.45 -252.74)"></path><image class="img1" x="67" y="30" href="images/brazil.svg" width="30"></image><rect class="text-wrap" height="150px" width="130" x="23" y="100" style="fill:none"></rect><text id="wrap" dy="1" class="txt1" y="100" x="26" font-size="12"><tspan x="26" y="100" dy="1em">Brazil has won more</tspan><tspan x="26" y="100" dy="2.1em">football world cups than</tspan><tspan x="26" y="100" dy="3.2em">any other country, with</tspan><tspan x="26" y="100" dy="4.300000000000001em">Pele being the top</tspan><tspan x="26" y="100" dy="5.4em">scorer.</tspan></text><text class="lb1" transform="translate(29 230.8)" font-size="35">BRAZIL</text></svg></svg><g><image href="connections/striped-arrow.svg" width="100" x="882.8000259399414" y="266.00000619888306" transform="rotate(270.2417526767109,932.8000259399414,316.00000619888306)"></image></g><g><image href="connections/striped-arrow.svg" width="100" x="296.1333465576172" y="391.5999937057495" transform="rotate(268.76002624121264,346.1333465576172,441.5999937057495)"></image></g><g><image href="connections/striped-arrow.svg" width="100" x="889.2000198364258" y="517.2000169754028" transform="rotate(266.8201731537765,939.2000198364258,567.2000169754028)"></image></g><image x="740" y="60" href="images/pivot.png" transform="scale(0.75)"></image></svg>