<svg id="svg" height="960" width="1280" xmlns="http://www.w3.org/2000/svg"><image x="0" y="0" height="960" width="1280" preserveAspectRatio="none" href="images/background3.jpg"></image><svg width="350" height="350" id="vg0" x="758.3333587646484" y="14.600005149841309"><svg id="Layer_1" data-name="Layer 1" xmlns="http://www.w3.org/2000/svg" viewBox="0 0 336.11 28.81"><defs><style>@import url('https://fonts.googleapis.com/css2?family=Kiwi+Maru:wght@500&amp;display=swap');@import url('https://fonts.googleapis.com/css2?family=Balsamiq+Sans:ital@1&amp;family=Kiwi+Maru:wght@500&amp;display=swap');
    .lb1{font-family:Kiwi Maru, serif; font-size: 30px;}.lb1{fill:#2c7bb6;}.txt1{font-family: Balsamiq Sans, cursive; font-size: 22px;}.color-1{fill:#fc8751;}.lb1{fill:#5c6c76;}.color-10{fill:#d7191c;}</style></defs><polygon class="color-10" points="283.88 24.71 33.69 24.71 38.69 13.21 33.69 1.71 283.88 1.71 288.88 13.21 283.88 24.71"></polygon><rect class="text-wrap" height="50px" width="243" x="43" y="01" style="fill:none"></rect><text id="wrap" dy="1" class="txt1" y="01" x="43" font-size="10"><tspan x="43" y="01" dy="1em">The United States has</tspan><tspan x="43" y="01" dy="2.1em">maintained its position</tspan><tspan x="43" y="01" dy="3.2em">of being the world’s</tspan><tspan x="43" y="01" dy="4.300000000000001em">largest economy since</tspan><tspan x="43" y="01" dy="5.4em">1871.</tspan></text><text class="lb1" transform="translate(0 23.8) rotate(270 50 23.8)">USA</text></svg>
</svg><svg width="350" height="350" id="vg1" x="168.46668243408203" y="143.40001106262207"><svg id="Layer_1" data-name="Layer 1" xmlns="http://www.w3.org/2000/svg" viewBox="0 0 336.11 28.81"><defs><style>@import url('https://fonts.googleapis.com/css2?family=Kiwi+Maru:wght@500&amp;display=swap');@import url('https://fonts.googleapis.com/css2?family=Balsamiq+Sans:ital@1&amp;family=Kiwi+Maru:wght@500&amp;display=swap');
    .lb1{font-family:Kiwi Maru, serif; font-size: 30px;}.lb1{fill:#2c7bb6;}.txt1{font-family: Balsamiq Sans, cursive; font-size: 22px;}.color-1{fill:#fc8751;}.lb1{fill:#5c6c76;}.color-11{fill:#fdae61;}</style></defs><polygon class="color-11" points="283.88 24.71 33.69 24.71 38.69 13.21 33.69 1.71 283.88 1.71 288.88 13.21 283.88 24.71"></polygon><rect class="text-wrap" height="50px" width="243" x="43" y="01" style="fill:none"></rect><text id="wrap" dy="1" class="txt1" y="01" x="43" font-size="10"><tspan x="43" y="01" dy="1em">In China, the dragons</tspan><tspan x="43" y="01" dy="2.1em">are associated with</tspan><tspan x="43" y="01" dy="3.2em">wealth, power, and</tspan><tspan x="43" y="01" dy="4.300000000000001em">leadership</tspan></text><text class="lb1" transform="translate(0 23.8) rotate(270 50 23.8)">CHINA</text></svg>
</svg><svg width="350" height="350" id="vg2" x="757.2666931152344" y="267.4000072479248"><svg id="Layer_1" data-name="Layer 1" xmlns="http://www.w3.org/2000/svg" viewBox="0 0 336.11 28.81"><defs><style>@import url('https://fonts.googleapis.com/css2?family=Kiwi+Maru:wght@500&amp;display=swap');@import url('https://fonts.googleapis.com/css2?family=Balsamiq+Sans:ital@1&amp;family=Kiwi+Maru:wght@500&amp;display=swap');
    .lb1{font-family:Kiwi Maru, serif; font-size: 30px;}.lb1{fill:#2c7bb6;}.txt1{font-family: Balsamiq Sans, cursive; font-size: 22px;}.color-1{fill:#fc8751;}.lb1{fill:#5c6c76;}.color-12{fill:#ffffbf;}</style></defs><polygon class="color-12" points="283.88 24.71 33.69 24.71 38.69 13.21 33.69 1.71 283.88 1.71 288.88 13.21 283.88 24.71"></polygon><rect class="text-wrap" height="50px" width="243" x="43" y="01" style="fill:none"></rect><text id="wrap" dy="1" class="txt1" y="01" x="43" font-size="10"><tspan x="43" y="01" dy="1em">It’s estimated that</tspan><tspan x="43" y="01" dy="2.1em">between 15% and 30%</tspan><tspan x="43" y="01" dy="3.2em">of India’s population</tspan><tspan x="43" y="01" dy="4.300000000000001em">follow a strict vegetarian</tspan><tspan x="43" y="01" dy="5.4em">diet.</tspan></text><text class="lb1" transform="translate(0 23.8) rotate(270 50 23.8)">INDIA</text></svg>
</svg><svg width="350" height="350" id="vg3" x="173.80001068115234" y="389.79997634887695"><svg id="Layer_1" data-name="Layer 1" xmlns="http://www.w3.org/2000/svg" viewBox="0 0 336.11 28.81"><defs><style>@import url('https://fonts.googleapis.com/css2?family=Kiwi+Maru:wght@500&amp;display=swap');@import url('https://fonts.googleapis.com/css2?family=Balsamiq+Sans:ital@1&amp;family=Kiwi+Maru:wght@500&amp;display=swap');
    .lb1{font-family:Kiwi Maru, serif; font-size: 30px;}.lb1{fill:#2c7bb6;}.txt1{font-family: Balsamiq Sans, cursive; font-size: 22px;}.color-1{fill:#fc8751;}.lb1{fill:#5c6c76;}.color-13{fill:#abdda4;}</style></defs><polygon class="color-13" points="283.88 24.71 33.69 24.71 38.69 13.21 33.69 1.71 283.88 1.71 288.88 13.21 283.88 24.71"></polygon><rect class="text-wrap" height="50px" width="243" x="43" y="01" style="fill:none"></rect><text id="wrap" dy="1" class="txt1" y="01" x="43" font-size="10"><tspan x="43" y="01" dy="1em">Russia is 60% forest.</tspan><tspan x="43" y="01" dy="2.1em">What’s more interesting,</tspan><tspan x="43" y="01" dy="3.2em">half of that forest is</tspan><tspan x="43" y="01" dy="4.300000000000001em">totally uninhabited by</tspan><tspan x="43" y="01" dy="5.4em">humans.</tspan></text><text class="lb1" transform="translate(0 23.8) rotate(270 50 23.8)">RUSSIA</text></svg>
</svg><svg width="350" height="350" id="vg4" x="771.1333465576172" y="517.0000267028809"><svg id="Layer_1" data-name="Layer 1" xmlns="http://www.w3.org/2000/svg" viewBox="0 0 336.11 28.81"><defs><style>@import url('https://fonts.googleapis.com/css2?family=Kiwi+Maru:wght@500&amp;display=swap');@import url('https://fonts.googleapis.com/css2?family=Balsamiq+Sans:ital@1&amp;family=Kiwi+Maru:wght@500&amp;display=swap');
    .lb1{font-family:Kiwi Maru, serif; font-size: 30px;}.lb1{fill:#2c7bb6;}.txt1{font-family: Balsamiq Sans, cursive; font-size: 22px;}.color-1{fill:#fc8751;}.lb1{fill:#5c6c76;}.color-14{fill:#2b83ba;}</style></defs><polygon class="color-14" points="283.88 24.71 33.69 24.71 38.69 13.21 33.69 1.71 283.88 1.71 288.88 13.21 283.88 24.71"></polygon><rect class="text-wrap" height="50px" width="243" x="43" y="01" style="fill:none"></rect><text id="wrap" dy="1" class="txt1" y="01" x="43" font-size="10"><tspan x="43" y="01" dy="1em">Brazil has won more</tspan><tspan x="43" y="01" dy="2.1em">football world cups than</tspan><tspan x="43" y="01" dy="3.2em">any other country, with</tspan><tspan x="43" y="01" dy="4.300000000000001em">Pele being the top</tspan><tspan x="43" y="01" dy="5.4em">scorer.</tspan></text><text class="lb1" transform="translate(0 23.8) rotate(270 50 23.8)">BRAZIL</text></svg>
</svg><image x="740" y="60" href="images/pivot.png" transform="scale(0.75)"></image></svg>