<svg id="svg" height="960" width="1280" xmlns="http://www.w3.org/2000/svg"><image x="0" y="0" height="960" width="1280" preserveAspectRatio="none" href="images/background3.jpg"></image><svg width="350" height="350" id="vg0" x="837.2666931152344" y="80.45736312866211"><svg id="Layer_1" data-name="Layer 1" xmlns="http://www.w3.org/2000/svg" viewBox="0 0 395 57"><defs><style>@import url('https://fonts.googleapis.com/css2?family=Kiwi+Maru:wght@500&amp;display=swap');@import url('https://fonts.googleapis.com/css2?family=Balsamiq+Sans:ital@1&amp;family=Kiwi+Maru:wght@500&amp;display=swap');
    .lb1{font-family:Kiwi Maru, serif; font-size: 30px;}.lb1{fill:#2c7bb6;}.txt1{font-family: Balsamiq Sans, cursive; font-size: 25px;}.color-1{fill:#59bdc9;}.color-10{fill:#d01c8b;}</style></defs><polygon class="color-10" points="278 57 0 57 0 0 278 0 285 28.5 278 57"></polygon><rect class="text-wrap" height="100px" width="230" x="25" y="12" style="fill:none"></rect><text id="wrap" class="txt1" y="25" x="25" font-size="12" dy="1"><tspan x="25" y="25" dy="1em">The United States</tspan><tspan x="25" y="25" dy="2.1em">has maintained its</tspan><tspan x="25" y="25" dy="3.2em">position of being the</tspan><tspan x="25" y="25" dy="4.300000000000001em">world’s largest</tspan><tspan x="25" y="25" dy="5.4em">economy since 1871.</tspan></text><polygon class="color-10" points="395 57 343 57 336 28.5 343 0 395 0 395 57"></polygon><text class="lb1" transform="translate(290 23.8) rotate(270 50 23.8)">USA</text><image class="img1" x="340" y="5" href="images/usa.svg" width="50"></image></svg></svg><svg width="350" height="350" id="vg1" x="739.13330078125" y="590.3702735900879"><svg id="Layer_1" data-name="Layer 1" xmlns="http://www.w3.org/2000/svg" viewBox="0 0 395 57"><defs><style>@import url('https://fonts.googleapis.com/css2?family=Kiwi+Maru:wght@500&amp;display=swap');@import url('https://fonts.googleapis.com/css2?family=Balsamiq+Sans:ital@1&amp;family=Kiwi+Maru:wght@500&amp;display=swap');
    .lb1{font-family:Kiwi Maru, serif; font-size: 30px;}.lb1{fill:#2c7bb6;}.txt1{font-family: Balsamiq Sans, cursive; font-size: 25px;}.color-1{fill:#59bdc9;}.color-11{fill:#f1b6da;}</style></defs><polygon class="color-11" points="278 57 0 57 0 0 278 0 285 28.5 278 57"></polygon><rect class="text-wrap" height="100px" width="230" x="25" y="12" style="fill:none"></rect><text id="wrap" class="txt1" y="25" x="25" font-size="12" dy="1"><tspan x="25" y="25" dy="1em">In China, the</tspan><tspan x="25" y="25" dy="2.1em">dragons are</tspan><tspan x="25" y="25" dy="3.2em">associated with</tspan><tspan x="25" y="25" dy="4.300000000000001em">wealth, power, and</tspan><tspan x="25" y="25" dy="5.4em">leadership</tspan></text><polygon class="color-11" points="395 57 343 57 336 28.5 343 0 395 0 395 57"></polygon><text class="lb1" transform="translate(290 23.8) rotate(270 50 23.8)">CHINA</text><image class="img1" x="340" y="5" href="images/china.svg" width="50"></image></svg></svg><svg width="350" height="350" id="vg2" x="477.79998779296875" y="690.5496215820312"><svg id="Layer_1" data-name="Layer 1" xmlns="http://www.w3.org/2000/svg" viewBox="0 0 395 57"><defs><style>@import url('https://fonts.googleapis.com/css2?family=Kiwi+Maru:wght@500&amp;display=swap');@import url('https://fonts.googleapis.com/css2?family=Balsamiq+Sans:ital@1&amp;family=Kiwi+Maru:wght@500&amp;display=swap');
    .lb1{font-family:Kiwi Maru, serif; font-size: 30px;}.lb1{fill:#2c7bb6;}.txt1{font-family: Balsamiq Sans, cursive; font-size: 25px;}.color-1{fill:#59bdc9;}.color-12{fill:#f7f7f7;}</style></defs><polygon class="color-12" points="278 57 0 57 0 0 278 0 285 28.5 278 57"></polygon><rect class="text-wrap" height="100px" width="230" x="25" y="12" style="fill:none"></rect><text id="wrap" class="txt1" y="25" x="25" font-size="12" dy="1"><tspan x="25" y="25" dy="1em">It’s estimated that</tspan><tspan x="25" y="25" dy="2.1em">between 15% and</tspan><tspan x="25" y="25" dy="3.2em">30% of India’s</tspan><tspan x="25" y="25" dy="4.300000000000001em">population follow a</tspan><tspan x="25" y="25" dy="5.4em">strict vegetarian</tspan><tspan x="25" y="25" dy="6.5em">diet.</tspan></text><polygon class="color-12" points="395 57 343 57 336 28.5 343 0 395 0 395 57"></polygon><text class="lb1" transform="translate(290 23.8) rotate(270 50 23.8)">INDIA</text><image class="img1" x="340" y="5" href="images/india.svg" width="50"></image></svg></svg><svg width="350" height="350" id="vg3" x="219.6666717529297" y="588.36669921875"><svg id="Layer_1" data-name="Layer 1" xmlns="http://www.w3.org/2000/svg" viewBox="0 0 395 57"><defs><style>@import url('https://fonts.googleapis.com/css2?family=Kiwi+Maru:wght@500&amp;display=swap');@import url('https://fonts.googleapis.com/css2?family=Balsamiq+Sans:ital@1&amp;family=Kiwi+Maru:wght@500&amp;display=swap');
    .lb1{font-family:Kiwi Maru, serif; font-size: 30px;}.lb1{fill:#2c7bb6;}.txt1{font-family: Balsamiq Sans, cursive; font-size: 25px;}.color-1{fill:#59bdc9;}.color-13{fill:#b8e186;}</style></defs><polygon class="color-13" points="278 57 0 57 0 0 278 0 285 28.5 278 57"></polygon><rect class="text-wrap" height="100px" width="230" x="25" y="12" style="fill:none"></rect><text id="wrap" class="txt1" y="25" x="25" font-size="12" dy="1"><tspan x="25" y="25" dy="1em">Russia is 60%</tspan><tspan x="25" y="25" dy="2.1em">forest. What’s more</tspan><tspan x="25" y="25" dy="3.2em">interesting, half of</tspan><tspan x="25" y="25" dy="4.300000000000001em">that forest is totally</tspan><tspan x="25" y="25" dy="5.4em">uninhabited by</tspan><tspan x="25" y="25" dy="6.5em">humans.</tspan></text><polygon class="color-13" points="395 57 343 57 336 28.5 343 0 395 0 395 57"></polygon><text class="lb1" transform="translate(290 23.8) rotate(270 50 23.8)">RUSSIA</text><image class="img1" x="340" y="5" href="images/russia.svg" width="50"></image></svg></svg><svg width="350" height="350" id="vg4" x="117.26667404174805" y="83.46275329589844"><svg id="Layer_1" data-name="Layer 1" xmlns="http://www.w3.org/2000/svg" viewBox="0 0 395 57"><defs><style>@import url('https://fonts.googleapis.com/css2?family=Kiwi+Maru:wght@500&amp;display=swap');@import url('https://fonts.googleapis.com/css2?family=Balsamiq+Sans:ital@1&amp;family=Kiwi+Maru:wght@500&amp;display=swap');
    .lb1{font-family:Kiwi Maru, serif; font-size: 30px;}.lb1{fill:#2c7bb6;}.txt1{font-family: Balsamiq Sans, cursive; font-size: 25px;}.color-1{fill:#59bdc9;}.color-14{fill:#4dac26;}</style></defs><polygon class="color-14" points="278 57 0 57 0 0 278 0 285 28.5 278 57"></polygon><rect class="text-wrap" height="100px" width="230" x="25" y="12" style="fill:none"></rect><text id="wrap" class="txt1" y="25" x="25" font-size="12" dy="1"><tspan x="25" y="25" dy="1em">Brazil has won more</tspan><tspan x="25" y="25" dy="2.1em">football world cups</tspan><tspan x="25" y="25" dy="3.2em">than any other</tspan><tspan x="25" y="25" dy="4.300000000000001em">country, with Pele</tspan><tspan x="25" y="25" dy="5.4em">being the top</tspan><tspan x="25" y="25" dy="6.5em">scorer.</tspan></text><polygon class="color-14" points="395 57 343 57 336 28.5 343 0 395 0 395 57"></polygon><text class="lb1" transform="translate(290 23.8) rotate(270 50 23.8)">BRAZIL</text><image class="img1" x="340" y="5" href="images/brazil.svg" width="50"></image></svg></svg><g><image href="connections/striped-arrow.svg" width="100" x="913.1999969482422" y="460.413818359375" transform="rotate(280.8934604138902,963.1999969482422,510.413818359375)"></image></g><g><image href="connections/striped-arrow.svg" width="100" x="733.4666442871094" y="765.4599475860596" transform="rotate(339.02620493432266,783.4666442871094,815.4599475860596)"></image></g><g><image href="connections/striped-arrow.svg" width="100" x="473.7333297729492" y="764.4581604003906" transform="rotate(21.596298976420258,523.7333297729492,814.4581604003906)"></image></g><g><image href="connections/striped-arrow.svg" width="100" x="293.46667289733887" y="460.9147262573242" transform="rotate(78.53529602649886,343.46667289733887,510.9147262573242)"></image></g><g><image href="connections/striped-arrow.svg" width="100" x="602.2666835784912" y="206.96005821228027" transform="rotate(179.76084004481677,652.2666835784912,256.9600582122803)"></image></g><image x="740" y="60" href="images/pivot.png" transform="scale(0.75)"></image></svg>