<svg id="svg" height="960" width="1280" xmlns="http://www.w3.org/2000/svg"><image x="0" y="0" height="960" width="1280" preserveAspectRatio="none" href="images/background3.jpg"></image><svg width="350" height="350" id="vg0" x="-3.2666587829589844" y="516.0617828369141"><svg id="Layer_1" data-name="Layer 1" xmlns="http://www.w3.org/2000/svg" viewBox="0 0 518 604"><defs><style>@import url('https://fonts.googleapis.com/css2?family=Kiwi+Maru:wght@500&amp;display=swap');@import url('https://fonts.googleapis.com/css2?family=Balsamiq+Sans:ital@1&amp;family=Kiwi+Maru:wght@500&amp;display=swap');
    .lb1{font-family:Kiwi Maru, serif; font-size: 50px;}.lb1{fill:#2c7bb6;}.txt1{font-family: Balsamiq Sans, cursive; font-size: 22px;}.color-1{fill:#59bdc9;}.color-10{fill:#d7191c;}</style></defs><path class="color-10" d="M701.75,101H415.48c-14.56,0-26.36,10.86-26.36,24.26V258.31c0,13.4,11.8,24.26,26.36,24.26h26.45v58c0,5.74,7.45,8.71,12,4.78l72.72-62.77H701.75c14.56,0,26.37-10.86,26.37-24.26v-133C728.12,111.86,716.31,101,701.75,101Z" transform="translate(-301 -101)"></path><path class="color-10" d="M330.8,329.35c0,16.17,14.24,29.27,31.83,29.27s31.83-13.1,31.83-29.27S380.2,300,362.63,300s-31.83,13.12-31.83,29.31Zm0,0" transform="translate(-301 -101)"></path><path class="color-10" d="M383.79,365.77a13.18,13.18,0,0,0-1.63-.74,38.13,38.13,0,0,0-11.6-4.69l-7.94,7.34-7.68-7.43h-.08a38.57,38.57,0,0,0-11.64,4.67,13,13,0,0,0-1.88.84c-19.34,10.91-32.24,20.05-39,54.45h51.75l.82-4.22,7.66-47.23h.17L370.37,416l.92,4.22h51.54c-6.8-34.41-19.69-43.54-39-54.45Zm0,0" transform="translate(-301 -101)"></path><rect class="text-wrap" height="150" width="300" x="100" y="20" style="fill:none"></rect><text id="wrap" class="txt1" fill="whitesmoke" y="30" x="100" dy="1" font-size="22"><tspan x="100" y="30" dy="1em">The United States has</tspan><tspan x="100" y="30" dy="2.1em">maintained its position of</tspan><tspan x="100" y="30" dy="3.2em">being the world’s largest</tspan><tspan x="100" y="30" dy="4.300000000000001em">economy since 1871.</tspan></text><text class="lb1" font-size="80" x="200" y="550">USA</text><image class="img1" x="0" y="450" href="images/usa.svg" width="180"></image></svg></svg><svg width="350" height="350" id="vg1" x="227.13333129882812" y="519.1331481933594"><svg id="Layer_1" data-name="Layer 1" xmlns="http://www.w3.org/2000/svg" viewBox="0 0 518 604"><defs><style>@import url('https://fonts.googleapis.com/css2?family=Kiwi+Maru:wght@500&amp;display=swap');@import url('https://fonts.googleapis.com/css2?family=Balsamiq+Sans:ital@1&amp;family=Kiwi+Maru:wght@500&amp;display=swap');
    .lb1{font-family:Kiwi Maru, serif; font-size: 50px;}.lb1{fill:#2c7bb6;}.txt1{font-family: Balsamiq Sans, cursive; font-size: 22px;}.color-1{fill:#59bdc9;}.color-11{fill:#fdae61;}</style></defs><path class="color-11" d="M701.75,101H415.48c-14.56,0-26.36,10.86-26.36,24.26V258.31c0,13.4,11.8,24.26,26.36,24.26h26.45v58c0,5.74,7.45,8.71,12,4.78l72.72-62.77H701.75c14.56,0,26.37-10.86,26.37-24.26v-133C728.12,111.86,716.31,101,701.75,101Z" transform="translate(-301 -101)"></path><path class="color-11" d="M330.8,329.35c0,16.17,14.24,29.27,31.83,29.27s31.83-13.1,31.83-29.27S380.2,300,362.63,300s-31.83,13.12-31.83,29.31Zm0,0" transform="translate(-301 -101)"></path><path class="color-11" d="M383.79,365.77a13.18,13.18,0,0,0-1.63-.74,38.13,38.13,0,0,0-11.6-4.69l-7.94,7.34-7.68-7.43h-.08a38.57,38.57,0,0,0-11.64,4.67,13,13,0,0,0-1.88.84c-19.34,10.91-32.24,20.05-39,54.45h51.75l.82-4.22,7.66-47.23h.17L370.37,416l.92,4.22h51.54c-6.8-34.41-19.69-43.54-39-54.45Zm0,0" transform="translate(-301 -101)"></path><rect class="text-wrap" height="150" width="300" x="100" y="20" style="fill:none"></rect><text id="wrap" class="txt1" fill="whitesmoke" y="30" x="100" dy="1" font-size="22"><tspan x="100" y="30" dy="1em">In China, the dragons are</tspan><tspan x="100" y="30" dy="2.1em">associated with wealth, power,</tspan><tspan x="100" y="30" dy="3.2em">and leadership</tspan></text><text class="lb1" font-size="80" x="200" y="550">CHINA</text><image class="img1" x="0" y="450" href="images/china.svg" width="180"></image></svg></svg><svg width="350" height="350" id="vg2" x="457.53334045410156" y="519.1331481933594"><svg id="Layer_1" data-name="Layer 1" xmlns="http://www.w3.org/2000/svg" viewBox="0 0 518 604"><defs><style>@import url('https://fonts.googleapis.com/css2?family=Kiwi+Maru:wght@500&amp;display=swap');@import url('https://fonts.googleapis.com/css2?family=Balsamiq+Sans:ital@1&amp;family=Kiwi+Maru:wght@500&amp;display=swap');
    .lb1{font-family:Kiwi Maru, serif; font-size: 50px;}.lb1{fill:#2c7bb6;}.txt1{font-family: Balsamiq Sans, cursive; font-size: 22px;}.color-1{fill:#59bdc9;}.color-12{fill:#ffffbf;}</style></defs><path class="color-12" d="M701.75,101H415.48c-14.56,0-26.36,10.86-26.36,24.26V258.31c0,13.4,11.8,24.26,26.36,24.26h26.45v58c0,5.74,7.45,8.71,12,4.78l72.72-62.77H701.75c14.56,0,26.37-10.86,26.37-24.26v-133C728.12,111.86,716.31,101,701.75,101Z" transform="translate(-301 -101)"></path><path class="color-12" d="M330.8,329.35c0,16.17,14.24,29.27,31.83,29.27s31.83-13.1,31.83-29.27S380.2,300,362.63,300s-31.83,13.12-31.83,29.31Zm0,0" transform="translate(-301 -101)"></path><path class="color-12" d="M383.79,365.77a13.18,13.18,0,0,0-1.63-.74,38.13,38.13,0,0,0-11.6-4.69l-7.94,7.34-7.68-7.43h-.08a38.57,38.57,0,0,0-11.64,4.67,13,13,0,0,0-1.88.84c-19.34,10.91-32.24,20.05-39,54.45h51.75l.82-4.22,7.66-47.23h.17L370.37,416l.92,4.22h51.54c-6.8-34.41-19.69-43.54-39-54.45Zm0,0" transform="translate(-301 -101)"></path><rect class="text-wrap" height="150" width="300" x="100" y="20" style="fill:none"></rect><text id="wrap" class="txt1" fill="whitesmoke" y="30" x="100" dy="1" font-size="22"><tspan x="100" y="30" dy="1em">It’s estimated that between</tspan><tspan x="100" y="30" dy="2.1em">15% and 30% of India’s</tspan><tspan x="100" y="30" dy="3.2em">population follow a strict</tspan><tspan x="100" y="30" dy="4.300000000000001em">vegetarian diet.</tspan></text><text class="lb1" font-size="80" x="200" y="550">INDIA</text><image class="img1" x="0" y="450" href="images/india.svg" width="180"></image></svg></svg><svg width="350" height="350" id="vg3" x="698.6000061035156" y="518.1093597412109"><svg id="Layer_1" data-name="Layer 1" xmlns="http://www.w3.org/2000/svg" viewBox="0 0 518 604"><defs><style>@import url('https://fonts.googleapis.com/css2?family=Kiwi+Maru:wght@500&amp;display=swap');@import url('https://fonts.googleapis.com/css2?family=Balsamiq+Sans:ital@1&amp;family=Kiwi+Maru:wght@500&amp;display=swap');
    .lb1{font-family:Kiwi Maru, serif; font-size: 50px;}.lb1{fill:#2c7bb6;}.txt1{font-family: Balsamiq Sans, cursive; font-size: 22px;}.color-1{fill:#59bdc9;}.color-13{fill:#abdda4;}</style></defs><path class="color-13" d="M701.75,101H415.48c-14.56,0-26.36,10.86-26.36,24.26V258.31c0,13.4,11.8,24.26,26.36,24.26h26.45v58c0,5.74,7.45,8.71,12,4.78l72.72-62.77H701.75c14.56,0,26.37-10.86,26.37-24.26v-133C728.12,111.86,716.31,101,701.75,101Z" transform="translate(-301 -101)"></path><path class="color-13" d="M330.8,329.35c0,16.17,14.24,29.27,31.83,29.27s31.83-13.1,31.83-29.27S380.2,300,362.63,300s-31.83,13.12-31.83,29.31Zm0,0" transform="translate(-301 -101)"></path><path class="color-13" d="M383.79,365.77a13.18,13.18,0,0,0-1.63-.74,38.13,38.13,0,0,0-11.6-4.69l-7.94,7.34-7.68-7.43h-.08a38.57,38.57,0,0,0-11.64,4.67,13,13,0,0,0-1.88.84c-19.34,10.91-32.24,20.05-39,54.45h51.75l.82-4.22,7.66-47.23h.17L370.37,416l.92,4.22h51.54c-6.8-34.41-19.69-43.54-39-54.45Zm0,0" transform="translate(-301 -101)"></path><rect class="text-wrap" height="150" width="300" x="100" y="20" style="fill:none"></rect><text id="wrap" class="txt1" fill="whitesmoke" y="30" x="100" dy="1" font-size="22"><tspan x="100" y="30" dy="1em">Russia is 60% forest. What’s</tspan><tspan x="100" y="30" dy="2.1em">more interesting, half of that</tspan><tspan x="100" y="30" dy="3.2em">forest is totally uninhabited by</tspan><tspan x="100" y="30" dy="4.300000000000001em">humans.</tspan></text><text class="lb1" font-size="80" x="200" y="550">RUSSIA</text><image class="img1" x="0" y="450" href="images/russia.svg" width="180"></image></svg></svg><svg width="350" height="350" id="vg4" x="937.5333404541016" y="517.0855712890625"><svg id="Layer_1" data-name="Layer 1" xmlns="http://www.w3.org/2000/svg" viewBox="0 0 518 604"><defs><style>@import url('https://fonts.googleapis.com/css2?family=Kiwi+Maru:wght@500&amp;display=swap');@import url('https://fonts.googleapis.com/css2?family=Balsamiq+Sans:ital@1&amp;family=Kiwi+Maru:wght@500&amp;display=swap');
    .lb1{font-family:Kiwi Maru, serif; font-size: 50px;}.lb1{fill:#2c7bb6;}.txt1{font-family: Balsamiq Sans, cursive; font-size: 22px;}.color-1{fill:#59bdc9;}.color-14{fill:#2b83ba;}</style></defs><path class="color-14" d="M701.75,101H415.48c-14.56,0-26.36,10.86-26.36,24.26V258.31c0,13.4,11.8,24.26,26.36,24.26h26.45v58c0,5.74,7.45,8.71,12,4.78l72.72-62.77H701.75c14.56,0,26.37-10.86,26.37-24.26v-133C728.12,111.86,716.31,101,701.75,101Z" transform="translate(-301 -101)"></path><path class="color-14" d="M330.8,329.35c0,16.17,14.24,29.27,31.83,29.27s31.83-13.1,31.83-29.27S380.2,300,362.63,300s-31.83,13.12-31.83,29.31Zm0,0" transform="translate(-301 -101)"></path><path class="color-14" d="M383.79,365.77a13.18,13.18,0,0,0-1.63-.74,38.13,38.13,0,0,0-11.6-4.69l-7.94,7.34-7.68-7.43h-.08a38.57,38.57,0,0,0-11.64,4.67,13,13,0,0,0-1.88.84c-19.34,10.91-32.24,20.05-39,54.45h51.75l.82-4.22,7.66-47.23h.17L370.37,416l.92,4.22h51.54c-6.8-34.41-19.69-43.54-39-54.45Zm0,0" transform="translate(-301 -101)"></path><rect class="text-wrap" height="150" width="300" x="100" y="20" style="fill:none"></rect><text id="wrap" class="txt1" fill="whitesmoke" y="30" x="100" dy="1" font-size="22"><tspan x="100" y="30" dy="1em">Brazil has won more football</tspan><tspan x="100" y="30" dy="2.1em">world cups than any other</tspan><tspan x="100" y="30" dy="3.2em">country, with Pele being the</tspan><tspan x="100" y="30" dy="4.300000000000001em">top scorer.</tspan></text><text class="lb1" font-size="80" x="200" y="550">BRAZIL</text><image class="img1" x="0" y="450" href="images/brazil.svg" width="180"></image></svg></svg><g><image href="connections/three-dots.svg" width="100" x="236.93333625793457" y="642.5974655151367" transform="rotate(180.76374069894567,286.93333625793457,692.5974655151367)"></image></g><g><image href="connections/three-dots.svg" width="100" x="467.33333587646484" y="644.1331481933594" transform="rotate(180,517.3333358764648,694.1331481933594)"></image></g><g><image href="connections/three-dots.svg" width="100" x="703.0666732788086" y="643.6212539672852" transform="rotate(179.75667143938426,753.0666732788086,693.6212539672852)"></image></g><g><image href="connections/three-dots.svg" width="100" x="943.0666732788086" y="642.5974655151367" transform="rotate(179.75449889150525,993.0666732788086,692.5974655151367)"></image></g><g><image href="connections/three-dots.svg" width="100" x="592.1333408355713" y="641.5736770629883" transform="rotate(0.062349845148077065,642.1333408355713,691.5736770629883)"></image></g><image x="740" y="60" href="images/pivot.png" transform="scale(0.75)"></image></svg>