<svg id="svg" height="960" width="1280" xmlns="http://www.w3.org/2000/svg"><image x="0" y="0" height="960" width="1280" preserveAspectRatio="none" href="images/background3.jpg"></image><svg width="350" height="350" id="vg0" x="-17.133331298828125" y="297.00000762939453"><svg id="Layer_1" data-name="Layer 1" xmlns="http://www.w3.org/2000/svg" viewBox="0 0 800 535"><defs><style>@import url('https://fonts.googleapis.com/css2?family=Kiwi+Maru:wght@500&amp;display=swap');@import url('https://fonts.googleapis.com/css2?family=Balsamiq+Sans:ital@1&amp;family=Kiwi+Maru:wght@500&amp;display=swap');
    .lb1{font-family:Kiwi Maru, serif; font-size: 50px;}.lb1{fill:aliceblue;}.txt1{font-family: Balsamiq Sans, cursive; font-size: 32px;}.color-1{fill:#00b9c4;}.color-10{fill:#d01c8b;}</style></defs><path class="color-10" d="M486.8,176.07a37.64,37.64,0,0,0-9.33,20.14,13.07,13.07,0,0,0-.25,1.71,8.57,8.57,0,0,1-2.1,4.07,7.82,7.82,0,0,1-11.8,0L364.84,94,290,176.07c26,28.49,26,74.86.05,103.36s-68.29,28.48-94.26,0l-74.81,82,98.47,108a9.85,9.85,0,0,1,0,13,8.19,8.19,0,0,1-3.73,2.33,5.25,5.25,0,0,0-1.56.22,32.27,32.27,0,0,0-18.37,10.25c-13,14.27-13,37.44,0,51.71s34.13,14.27,47.15,0a38.39,38.39,0,0,0,9.32-20.07.08.08,0,0,1,0-.12,7.22,7.22,0,0,0,.22-1.67l.05-.07a9,9,0,0,1,2.07-4.07,7.92,7.92,0,0,1,11.81,0l98.44,108,74.83-82c-26-28.5-26-74.88,0-103.44s68.25-28.42,94.22.06l74.85-82.1-98.53-108a9.77,9.77,0,0,1,0-12.85,7.73,7.73,0,0,1,3.68-2.29l.06,0a8.44,8.44,0,0,0,1.56-.25s0,0,.06,0A32.35,32.35,0,0,0,534,227.74c13-14.27,13-37.43,0-51.67S499.81,161.79,486.8,176.07Z" transform="translate(-121 -94)"></path><image class="img1" x="580" y="30" href="images/usa.svg" width="250"></image><rect class="text-wrap" x="553.15" y="266.17" width="246.85" height="150.34" style="fill:none"></rect><text id="wrap" x="553.15" y="266.17" dy="1" class="txt1"><tspan x="553.15" y="266.17" dy="1em">The United</tspan><tspan x="553.15" y="266.17" dy="2.1em">States has</tspan><tspan x="553.15" y="266.17" dy="3.2em">maintained its</tspan><tspan x="553.15" y="266.17" dy="4.300000000000001em">position of being</tspan><tspan x="553.15" y="266.17" dy="5.4em">the world’s</tspan><tspan x="553.15" y="266.17" dy="6.5em">largest economy</tspan><tspan x="553.15" y="266.17" dy="7.6000000000000005em">since 1871.</tspan></text><text class="lb1" x="100" y="290" font-size="60">USA</text></svg></svg><svg width="350" height="350" id="vg1" x="227.13333129882812" y="420.2000045776367"><svg id="Layer_1" data-name="Layer 1" xmlns="http://www.w3.org/2000/svg" viewBox="0 0 800 535"><defs><style>@import url('https://fonts.googleapis.com/css2?family=Kiwi+Maru:wght@500&amp;display=swap');@import url('https://fonts.googleapis.com/css2?family=Balsamiq+Sans:ital@1&amp;family=Kiwi+Maru:wght@500&amp;display=swap');
    .lb1{font-family:Kiwi Maru, serif; font-size: 50px;}.lb1{fill:aliceblue;}.txt1{font-family: Balsamiq Sans, cursive; font-size: 32px;}.color-1{fill:#00b9c4;}.color-11{fill:#f1b6da;}</style></defs><path class="color-11" d="M486.8,176.07a37.64,37.64,0,0,0-9.33,20.14,13.07,13.07,0,0,0-.25,1.71,8.57,8.57,0,0,1-2.1,4.07,7.82,7.82,0,0,1-11.8,0L364.84,94,290,176.07c26,28.49,26,74.86.05,103.36s-68.29,28.48-94.26,0l-74.81,82,98.47,108a9.85,9.85,0,0,1,0,13,8.19,8.19,0,0,1-3.73,2.33,5.25,5.25,0,0,0-1.56.22,32.27,32.27,0,0,0-18.37,10.25c-13,14.27-13,37.44,0,51.71s34.13,14.27,47.15,0a38.39,38.39,0,0,0,9.32-20.07.08.08,0,0,1,0-.12,7.22,7.22,0,0,0,.22-1.67l.05-.07a9,9,0,0,1,2.07-4.07,7.92,7.92,0,0,1,11.81,0l98.44,108,74.83-82c-26-28.5-26-74.88,0-103.44s68.25-28.42,94.22.06l74.85-82.1-98.53-108a9.77,9.77,0,0,1,0-12.85,7.73,7.73,0,0,1,3.68-2.29l.06,0a8.44,8.44,0,0,0,1.56-.25s0,0,.06,0A32.35,32.35,0,0,0,534,227.74c13-14.27,13-37.43,0-51.67S499.81,161.79,486.8,176.07Z" transform="translate(-121 -94)"></path><image class="img1" x="580" y="30" href="images/china.svg" width="250"></image><rect class="text-wrap" x="553.15" y="266.17" width="246.85" height="150.34" style="fill:none"></rect><text id="wrap" x="553.15" y="266.17" dy="1" class="txt1"><tspan x="553.15" y="266.17" dy="1em">In China, the</tspan><tspan x="553.15" y="266.17" dy="2.1em">dragons are</tspan><tspan x="553.15" y="266.17" dy="3.2em">associated with</tspan><tspan x="553.15" y="266.17" dy="4.300000000000001em">wealth, power,</tspan><tspan x="553.15" y="266.17" dy="5.4em">and leadership</tspan></text><text class="lb1" x="100" y="290" font-size="60">CHINA</text></svg></svg><svg width="350" height="350" id="vg2" x="463.93333435058594" y="485"><svg id="Layer_1" data-name="Layer 1" xmlns="http://www.w3.org/2000/svg" viewBox="0 0 800 535"><defs><style>@import url('https://fonts.googleapis.com/css2?family=Kiwi+Maru:wght@500&amp;display=swap');@import url('https://fonts.googleapis.com/css2?family=Balsamiq+Sans:ital@1&amp;family=Kiwi+Maru:wght@500&amp;display=swap');
    .lb1{font-family:Kiwi Maru, serif; font-size: 50px;}.lb1{fill:aliceblue;}.txt1{font-family: Balsamiq Sans, cursive; font-size: 32px;}.color-1{fill:#00b9c4;}.color-12{fill:#f7f7f7;}</style></defs><path class="color-12" d="M486.8,176.07a37.64,37.64,0,0,0-9.33,20.14,13.07,13.07,0,0,0-.25,1.71,8.57,8.57,0,0,1-2.1,4.07,7.82,7.82,0,0,1-11.8,0L364.84,94,290,176.07c26,28.49,26,74.86.05,103.36s-68.29,28.48-94.26,0l-74.81,82,98.47,108a9.85,9.85,0,0,1,0,13,8.19,8.19,0,0,1-3.73,2.33,5.25,5.25,0,0,0-1.56.22,32.27,32.27,0,0,0-18.37,10.25c-13,14.27-13,37.44,0,51.71s34.13,14.27,47.15,0a38.39,38.39,0,0,0,9.32-20.07.08.08,0,0,1,0-.12,7.22,7.22,0,0,0,.22-1.67l.05-.07a9,9,0,0,1,2.07-4.07,7.92,7.92,0,0,1,11.81,0l98.44,108,74.83-82c-26-28.5-26-74.88,0-103.44s68.25-28.42,94.22.06l74.85-82.1-98.53-108a9.77,9.77,0,0,1,0-12.85,7.73,7.73,0,0,1,3.68-2.29l.06,0a8.44,8.44,0,0,0,1.56-.25s0,0,.06,0A32.35,32.35,0,0,0,534,227.74c13-14.27,13-37.43,0-51.67S499.81,161.79,486.8,176.07Z" transform="translate(-121 -94)"></path><image class="img1" x="580" y="30" href="images/india.svg" width="250"></image><rect class="text-wrap" x="553.15" y="266.17" width="246.85" height="150.34" style="fill:none"></rect><text id="wrap" x="553.15" y="266.17" dy="1" class="txt1"><tspan x="553.15" y="266.17" dy="1em">It’s estimated</tspan><tspan x="553.15" y="266.17" dy="2.1em">that between</tspan><tspan x="553.15" y="266.17" dy="3.2em">15% and 30% of</tspan><tspan x="553.15" y="266.17" dy="4.300000000000001em">India’s</tspan><tspan x="553.15" y="266.17" dy="5.4em">population follow</tspan><tspan x="553.15" y="266.17" dy="6.5em">a strict</tspan><tspan x="553.15" y="266.17" dy="7.6000000000000005em">vegetarian diet.</tspan></text><text class="lb1" x="100" y="290" font-size="60">INDIA</text></svg></svg><svg width="350" height="350" id="vg3" x="709.2666625976562" y="418.6000061035156"><svg id="Layer_1" data-name="Layer 1" xmlns="http://www.w3.org/2000/svg" viewBox="0 0 800 535"><defs><style>@import url('https://fonts.googleapis.com/css2?family=Kiwi+Maru:wght@500&amp;display=swap');@import url('https://fonts.googleapis.com/css2?family=Balsamiq+Sans:ital@1&amp;family=Kiwi+Maru:wght@500&amp;display=swap');
    .lb1{font-family:Kiwi Maru, serif; font-size: 50px;}.lb1{fill:aliceblue;}.txt1{font-family: Balsamiq Sans, cursive; font-size: 32px;}.color-1{fill:#00b9c4;}.color-13{fill:#b8e186;}</style></defs><path class="color-13" d="M486.8,176.07a37.64,37.64,0,0,0-9.33,20.14,13.07,13.07,0,0,0-.25,1.71,8.57,8.57,0,0,1-2.1,4.07,7.82,7.82,0,0,1-11.8,0L364.84,94,290,176.07c26,28.49,26,74.86.05,103.36s-68.29,28.48-94.26,0l-74.81,82,98.47,108a9.85,9.85,0,0,1,0,13,8.19,8.19,0,0,1-3.73,2.33,5.25,5.25,0,0,0-1.56.22,32.27,32.27,0,0,0-18.37,10.25c-13,14.27-13,37.44,0,51.71s34.13,14.27,47.15,0a38.39,38.39,0,0,0,9.32-20.07.08.08,0,0,1,0-.12,7.22,7.22,0,0,0,.22-1.67l.05-.07a9,9,0,0,1,2.07-4.07,7.92,7.92,0,0,1,11.81,0l98.44,108,74.83-82c-26-28.5-26-74.88,0-103.44s68.25-28.42,94.22.06l74.85-82.1-98.53-108a9.77,9.77,0,0,1,0-12.85,7.73,7.73,0,0,1,3.68-2.29l.06,0a8.44,8.44,0,0,0,1.56-.25s0,0,.06,0A32.35,32.35,0,0,0,534,227.74c13-14.27,13-37.43,0-51.67S499.81,161.79,486.8,176.07Z" transform="translate(-121 -94)"></path><image class="img1" x="580" y="30" href="images/russia.svg" width="250"></image><rect class="text-wrap" x="553.15" y="266.17" width="246.85" height="150.34" style="fill:none"></rect><text id="wrap" x="553.15" y="266.17" dy="1" class="txt1"><tspan x="553.15" y="266.17" dy="1em">Russia is 60%</tspan><tspan x="553.15" y="266.17" dy="2.1em">forest. What’s</tspan><tspan x="553.15" y="266.17" dy="3.2em">more interesting,</tspan><tspan x="553.15" y="266.17" dy="4.300000000000001em">half of that forest</tspan><tspan x="553.15" y="266.17" dy="5.4em">is totally</tspan><tspan x="553.15" y="266.17" dy="6.5em">uninhabited by</tspan><tspan x="553.15" y="266.17" dy="7.6000000000000005em">humans.</tspan></text><text class="lb1" x="100" y="290" font-size="60">RUSSIA</text></svg></svg><svg width="350" height="350" id="vg4" x="946.0666656494141" y="293.0000114440918"><svg id="Layer_1" data-name="Layer 1" xmlns="http://www.w3.org/2000/svg" viewBox="0 0 800 535"><defs><style>@import url('https://fonts.googleapis.com/css2?family=Kiwi+Maru:wght@500&amp;display=swap');@import url('https://fonts.googleapis.com/css2?family=Balsamiq+Sans:ital@1&amp;family=Kiwi+Maru:wght@500&amp;display=swap');
    .lb1{font-family:Kiwi Maru, serif; font-size: 50px;}.lb1{fill:aliceblue;}.txt1{font-family: Balsamiq Sans, cursive; font-size: 32px;}.color-1{fill:#00b9c4;}.color-14{fill:#4dac26;}</style></defs><path class="color-14" d="M486.8,176.07a37.64,37.64,0,0,0-9.33,20.14,13.07,13.07,0,0,0-.25,1.71,8.57,8.57,0,0,1-2.1,4.07,7.82,7.82,0,0,1-11.8,0L364.84,94,290,176.07c26,28.49,26,74.86.05,103.36s-68.29,28.48-94.26,0l-74.81,82,98.47,108a9.85,9.85,0,0,1,0,13,8.19,8.19,0,0,1-3.73,2.33,5.25,5.25,0,0,0-1.56.22,32.27,32.27,0,0,0-18.37,10.25c-13,14.27-13,37.44,0,51.71s34.13,14.27,47.15,0a38.39,38.39,0,0,0,9.32-20.07.08.08,0,0,1,0-.12,7.22,7.22,0,0,0,.22-1.67l.05-.07a9,9,0,0,1,2.07-4.07,7.92,7.92,0,0,1,11.81,0l98.44,108,74.83-82c-26-28.5-26-74.88,0-103.44s68.25-28.42,94.22.06l74.85-82.1-98.53-108a9.77,9.77,0,0,1,0-12.85,7.73,7.73,0,0,1,3.68-2.29l.06,0a8.44,8.44,0,0,0,1.56-.25s0,0,.06,0A32.35,32.35,0,0,0,534,227.74c13-14.27,13-37.43,0-51.67S499.81,161.79,486.8,176.07Z" transform="translate(-121 -94)"></path><image class="img1" x="580" y="30" href="images/brazil.svg" width="250"></image><rect class="text-wrap" x="553.15" y="266.17" width="246.85" height="150.34" style="fill:none"></rect><text id="wrap" x="553.15" y="266.17" dy="1" class="txt1"><tspan x="553.15" y="266.17" dy="1em">Brazil has won</tspan><tspan x="553.15" y="266.17" dy="2.1em">more football</tspan><tspan x="553.15" y="266.17" dy="3.2em">world cups than</tspan><tspan x="553.15" y="266.17" dy="4.300000000000001em">any other</tspan><tspan x="553.15" y="266.17" dy="5.4em">country, with</tspan><tspan x="553.15" y="266.17" dy="6.5em">Pele being the</tspan><tspan x="553.15" y="266.17" dy="7.6000000000000005em">top scorer.</tspan></text><text class="lb1" x="100" y="290" font-size="60">BRAZIL</text></svg></svg><g><image href="connections/three-dots.svg" width="100" x="348.4000015258789" y="516.0000038146973" transform="rotate(201.345469207138,398.4000015258789,566.0000038146973)"></image></g><g><image href="connections/three-dots.svg" width="100" x="593.1999969482422" y="544.4000053405762" transform="rotate(179.80986001731463,643.1999969482422,594.4000053405762)"></image></g><g><image href="connections/three-dots.svg" width="100" x="830" y="514.0000057220459" transform="rotate(158.2860660089578,880,564.0000057220459)"></image></g><image x="740" y="60" href="images/pivot.png" transform="scale(0.75)"></image></svg>