<svg id="svg" height="960" width="1280" xmlns="http://www.w3.org/2000/svg"><image x="0" y="0" height="960" width="1280" preserveAspectRatio="none" href="images/background3.jpg"></image><svg width="350" height="350" id="vg0" x="-3.2666587829589844" y="516.0617828369141"><svg id="Layer_1" data-name="Layer 1" xmlns="http://www.w3.org/2000/svg" viewBox="0 0 839 612"><defs><style>@import url('https://fonts.googleapis.com/css2?family=Kiwi+Maru:wght@500&amp;display=swap');@import url('https://fonts.googleapis.com/css2?family=Balsamiq+Sans:ital@1&amp;family=Kiwi+Maru:wght@500&amp;display=swap');
    .lb1{font-family:Kiwi Maru, serif; font-size: 50px;}.lb1{fill:#2c7bb6;}.txt1{font-family: Balsamiq Sans, cursive; font-size: 35px;}.color-1{fill:#f75c2a;}.color-2{fill:#23282b;}.color-10{fill:#d7191c;}</style></defs><path class="color-10" d="M510.51,603.6c94.2,0,179.52,31.53,241.21,82.4L930,539C822.65,450.44,674.41,395.72,510.51,395.72S198.34,450.44,91,539L269.31,686C331,635.13,416.29,603.6,510.51,603.6Z" transform="translate(-91 -74)"></path><polygon class="color-10" points="497.36 256.05 341.66 256.05 315.68 329.41 523.31 329.41 497.36 256.05"></polygon><polygon class="color-10" points="150.5 298.26 15.65 362.49 37.67 436.75 217.46 351.13 150.5 298.26"></polygon><polygon class="color-10" points="823.43 362.49 688.55 298.26 621.58 351.13 801.39 436.74 823.43 362.49"></polygon><rect class="text-wrap" height="100px" width="400" x="250px" y="40px" style="fill:none"></rect><text id="wrap" class="txt1" font-size="30" x="330" y="40" dy="1"><tspan x="330" y="40" dy="1em">The United States has</tspan><tspan x="330" y="40" dy="2.1em">maintained its position of</tspan><tspan x="330" y="40" dy="3.2em">being the world’s largest</tspan><tspan x="330" y="40" dy="4.300000000000001em">economy since 1871.</tspan></text> <image class="img1" x="20" y="30" href="images/usa.svg" width="250"></image></svg></svg><svg width="350" height="350" id="vg1" x="227.13333129882812" y="519.1331481933594"><svg id="Layer_1" data-name="Layer 1" xmlns="http://www.w3.org/2000/svg" viewBox="0 0 839 612"><defs><style>@import url('https://fonts.googleapis.com/css2?family=Kiwi+Maru:wght@500&amp;display=swap');@import url('https://fonts.googleapis.com/css2?family=Balsamiq+Sans:ital@1&amp;family=Kiwi+Maru:wght@500&amp;display=swap');
    .lb1{font-family:Kiwi Maru, serif; font-size: 50px;}.lb1{fill:#2c7bb6;}.txt1{font-family: Balsamiq Sans, cursive; font-size: 35px;}.color-1{fill:#f75c2a;}.color-2{fill:#23282b;}.color-11{fill:#fdae61;}</style></defs><path class="color-11" d="M510.51,603.6c94.2,0,179.52,31.53,241.21,82.4L930,539C822.65,450.44,674.41,395.72,510.51,395.72S198.34,450.44,91,539L269.31,686C331,635.13,416.29,603.6,510.51,603.6Z" transform="translate(-91 -74)"></path><polygon class="color-11" points="497.36 256.05 341.66 256.05 315.68 329.41 523.31 329.41 497.36 256.05"></polygon><polygon class="color-11" points="150.5 298.26 15.65 362.49 37.67 436.75 217.46 351.13 150.5 298.26"></polygon><polygon class="color-11" points="823.43 362.49 688.55 298.26 621.58 351.13 801.39 436.74 823.43 362.49"></polygon><rect class="text-wrap" height="100px" width="400" x="250px" y="40px" style="fill:none"></rect><text id="wrap" class="txt1" font-size="30" x="330" y="40" dy="1"><tspan x="330" y="40" dy="1em">In China, the dragons are</tspan><tspan x="330" y="40" dy="2.1em">associated with wealth,</tspan><tspan x="330" y="40" dy="3.2em">power, and leadership</tspan></text> <image class="img1" x="20" y="30" href="images/china.svg" width="250"></image></svg></svg><svg width="350" height="350" id="vg2" x="457.53334045410156" y="519.1331481933594"><svg id="Layer_1" data-name="Layer 1" xmlns="http://www.w3.org/2000/svg" viewBox="0 0 839 612"><defs><style>@import url('https://fonts.googleapis.com/css2?family=Kiwi+Maru:wght@500&amp;display=swap');@import url('https://fonts.googleapis.com/css2?family=Balsamiq+Sans:ital@1&amp;family=Kiwi+Maru:wght@500&amp;display=swap');
    .lb1{font-family:Kiwi Maru, serif; font-size: 50px;}.lb1{fill:#2c7bb6;}.txt1{font-family: Balsamiq Sans, cursive; font-size: 35px;}.color-1{fill:#f75c2a;}.color-2{fill:#23282b;}.color-12{fill:#ffffbf;}</style></defs><path class="color-12" d="M510.51,603.6c94.2,0,179.52,31.53,241.21,82.4L930,539C822.65,450.44,674.41,395.72,510.51,395.72S198.34,450.44,91,539L269.31,686C331,635.13,416.29,603.6,510.51,603.6Z" transform="translate(-91 -74)"></path><polygon class="color-12" points="497.36 256.05 341.66 256.05 315.68 329.41 523.31 329.41 497.36 256.05"></polygon><polygon class="color-12" points="150.5 298.26 15.65 362.49 37.67 436.75 217.46 351.13 150.5 298.26"></polygon><polygon class="color-12" points="823.43 362.49 688.55 298.26 621.58 351.13 801.39 436.74 823.43 362.49"></polygon><rect class="text-wrap" height="100px" width="400" x="250px" y="40px" style="fill:none"></rect><text id="wrap" class="txt1" font-size="30" x="330" y="40" dy="1"><tspan x="330" y="40" dy="1em">It’s estimated that</tspan><tspan x="330" y="40" dy="2.1em">between 15% and 30%</tspan><tspan x="330" y="40" dy="3.2em">of India’s population</tspan><tspan x="330" y="40" dy="4.300000000000001em">follow a strict vegetarian</tspan><tspan x="330" y="40" dy="5.4em">diet.</tspan></text> <image class="img1" x="20" y="30" href="images/india.svg" width="250"></image></svg></svg><svg width="350" height="350" id="vg3" x="698.6000061035156" y="518.1093597412109"><svg id="Layer_1" data-name="Layer 1" xmlns="http://www.w3.org/2000/svg" viewBox="0 0 839 612"><defs><style>@import url('https://fonts.googleapis.com/css2?family=Kiwi+Maru:wght@500&amp;display=swap');@import url('https://fonts.googleapis.com/css2?family=Balsamiq+Sans:ital@1&amp;family=Kiwi+Maru:wght@500&amp;display=swap');
    .lb1{font-family:Kiwi Maru, serif; font-size: 50px;}.lb1{fill:#2c7bb6;}.txt1{font-family: Balsamiq Sans, cursive; font-size: 35px;}.color-1{fill:#f75c2a;}.color-2{fill:#23282b;}.color-13{fill:#abdda4;}</style></defs><path class="color-13" d="M510.51,603.6c94.2,0,179.52,31.53,241.21,82.4L930,539C822.65,450.44,674.41,395.72,510.51,395.72S198.34,450.44,91,539L269.31,686C331,635.13,416.29,603.6,510.51,603.6Z" transform="translate(-91 -74)"></path><polygon class="color-13" points="497.36 256.05 341.66 256.05 315.68 329.41 523.31 329.41 497.36 256.05"></polygon><polygon class="color-13" points="150.5 298.26 15.65 362.49 37.67 436.75 217.46 351.13 150.5 298.26"></polygon><polygon class="color-13" points="823.43 362.49 688.55 298.26 621.58 351.13 801.39 436.74 823.43 362.49"></polygon><rect class="text-wrap" height="100px" width="400" x="250px" y="40px" style="fill:none"></rect><text id="wrap" class="txt1" font-size="30" x="330" y="40" dy="1"><tspan x="330" y="40" dy="1em">Russia is 60% forest.</tspan><tspan x="330" y="40" dy="2.1em">What’s more interesting,</tspan><tspan x="330" y="40" dy="3.2em">half of that forest is</tspan><tspan x="330" y="40" dy="4.300000000000001em">totally uninhabited by</tspan><tspan x="330" y="40" dy="5.4em">humans.</tspan></text> <image class="img1" x="20" y="30" href="images/russia.svg" width="250"></image></svg></svg><svg width="350" height="350" id="vg4" x="937.5333404541016" y="517.0855712890625"><svg id="Layer_1" data-name="Layer 1" xmlns="http://www.w3.org/2000/svg" viewBox="0 0 839 612"><defs><style>@import url('https://fonts.googleapis.com/css2?family=Kiwi+Maru:wght@500&amp;display=swap');@import url('https://fonts.googleapis.com/css2?family=Balsamiq+Sans:ital@1&amp;family=Kiwi+Maru:wght@500&amp;display=swap');
    .lb1{font-family:Kiwi Maru, serif; font-size: 50px;}.lb1{fill:#2c7bb6;}.txt1{font-family: Balsamiq Sans, cursive; font-size: 35px;}.color-1{fill:#f75c2a;}.color-2{fill:#23282b;}.color-14{fill:#2b83ba;}</style></defs><path class="color-14" d="M510.51,603.6c94.2,0,179.52,31.53,241.21,82.4L930,539C822.65,450.44,674.41,395.72,510.51,395.72S198.34,450.44,91,539L269.31,686C331,635.13,416.29,603.6,510.51,603.6Z" transform="translate(-91 -74)"></path><polygon class="color-14" points="497.36 256.05 341.66 256.05 315.68 329.41 523.31 329.41 497.36 256.05"></polygon><polygon class="color-14" points="150.5 298.26 15.65 362.49 37.67 436.75 217.46 351.13 150.5 298.26"></polygon><polygon class="color-14" points="823.43 362.49 688.55 298.26 621.58 351.13 801.39 436.74 823.43 362.49"></polygon><rect class="text-wrap" height="100px" width="400" x="250px" y="40px" style="fill:none"></rect><text id="wrap" class="txt1" font-size="30" x="330" y="40" dy="1"><tspan x="330" y="40" dy="1em">Brazil has won more</tspan><tspan x="330" y="40" dy="2.1em">football world cups than</tspan><tspan x="330" y="40" dy="3.2em">any other country, with</tspan><tspan x="330" y="40" dy="4.300000000000001em">Pele being the top</tspan><tspan x="330" y="40" dy="5.4em">scorer.</tspan></text> <image class="img1" x="20" y="30" href="images/brazil.svg" width="250"></image></svg></svg><g><image href="connections/arrow3.svg" width="100" x="236.93333625793457" y="642.5974655151367" transform="rotate(180.76374069894567,286.93333625793457,692.5974655151367)"></image></g><g><image href="connections/arrow3.svg" width="100" x="467.33333587646484" y="644.1331481933594" transform="rotate(180,517.3333358764648,694.1331481933594)"></image></g><g><image href="connections/arrow3.svg" width="100" x="703.0666732788086" y="643.6212539672852" transform="rotate(179.75667143938426,753.0666732788086,693.6212539672852)"></image></g><g><image href="connections/arrow3.svg" width="100" x="943.0666732788086" y="642.5974655151367" transform="rotate(179.75449889150525,993.0666732788086,692.5974655151367)"></image></g><g><image href="connections/arrow3.svg" width="100" x="592.1333408355713" y="641.5736770629883" transform="rotate(0.062349845148077065,642.1333408355713,691.5736770629883)"></image></g><image x="740" y="60" href="images/pivot.png" transform="scale(0.75)"></image></svg>