<svg id="svg" height="960" width="1280" xmlns="http://www.w3.org/2000/svg"><image x="0" y="0" height="960" width="1280" preserveAspectRatio="none" href="images/background3.jpg"></image><svg width="350" height="350" id="vg0" x="758.3333587646484" y="14.600005149841309"><svg id="Layer_1" data-name="Layer 1" xmlns="http://www.w3.org/2000/svg" viewBox="0 0 755 563"><defs><style>@import url('https://fonts.googleapis.com/css2?family=Kiwi+Maru:wght@500&amp;display=swap');@import url('https://fonts.googleapis.com/css2?family=Balsamiq+Sans:ital@1&amp;family=Kiwi+Maru:wght@500&amp;display=swap');
    .lb1{font-family:Kiwi Maru, serif; font-size: 50px;}.lb1{fill:aliceblue;}.txt1{font-family: Balsamiq Sans, cursive; font-size: 32px;}.color-1{fill:#a1d13b;}.color-10{fill:#7b3294;}</style></defs><path class="color-10" d="M435.48,106,310.18,221.83c27.56,25.46,27.56,66.85.07,92.37s-72.44,25.45-99.89,0L131,387.49,235.44,484a7.88,7.88,0,0,1,0,11.62,9.27,9.27,0,0,1-4,2.06,6.15,6.15,0,0,0-1.64.21A36.65,36.65,0,0,0,210.36,507c-13.88,12.79-13.88,33.48,0,46.24s36.15,12.72,50,0a32.16,32.16,0,0,0,9.84-18v0a7.14,7.14,0,0,0,.27-1.53l.06-.06a7.52,7.52,0,0,1,2.21-3.59,9.32,9.32,0,0,1,12.5,0L435.51,669c73.92-74,119.24-172.83,119.24-281.49S509.42,180,435.48,106Z" transform="translate(-131 -106)"></path><text class="lb1" x="120" y="330" font-size="50">USA</text><image class="img1" x="580" y="90" href="images/usa.svg" width="200"></image><rect class="text-wrap" height="200" width="200" x="560" y="280" style="fill:none"></rect><text id="wrap" class="txt1" x="560" y="280" dy="1"><tspan x="560" y="280" dy="1em">The United</tspan><tspan x="560" y="280" dy="2.1em">States has</tspan><tspan x="560" y="280" dy="3.2em">maintained</tspan><tspan x="560" y="280" dy="4.300000000000001em">its position of</tspan><tspan x="560" y="280" dy="5.4em">being the</tspan><tspan x="560" y="280" dy="6.5em">world’s</tspan><tspan x="560" y="280" dy="7.6000000000000005em">largest</tspan><tspan x="560" y="280" dy="8.700000000000001em">economy</tspan><tspan x="560" y="280" dy="9.8em">since 1871.</tspan></text></svg></svg><svg width="350" height="350" id="vg1" x="168.46668243408203" y="143.40001106262207"><svg id="Layer_1" data-name="Layer 1" xmlns="http://www.w3.org/2000/svg" viewBox="0 0 755 563"><defs><style>@import url('https://fonts.googleapis.com/css2?family=Kiwi+Maru:wght@500&amp;display=swap');@import url('https://fonts.googleapis.com/css2?family=Balsamiq+Sans:ital@1&amp;family=Kiwi+Maru:wght@500&amp;display=swap');
    .lb1{font-family:Kiwi Maru, serif; font-size: 50px;}.lb1{fill:aliceblue;}.txt1{font-family: Balsamiq Sans, cursive; font-size: 32px;}.color-1{fill:#a1d13b;}.color-11{fill:#c2a5cf;}</style></defs><path class="color-11" d="M435.48,106,310.18,221.83c27.56,25.46,27.56,66.85.07,92.37s-72.44,25.45-99.89,0L131,387.49,235.44,484a7.88,7.88,0,0,1,0,11.62,9.27,9.27,0,0,1-4,2.06,6.15,6.15,0,0,0-1.64.21A36.65,36.65,0,0,0,210.36,507c-13.88,12.79-13.88,33.48,0,46.24s36.15,12.72,50,0a32.16,32.16,0,0,0,9.84-18v0a7.14,7.14,0,0,0,.27-1.53l.06-.06a7.52,7.52,0,0,1,2.21-3.59,9.32,9.32,0,0,1,12.5,0L435.51,669c73.92-74,119.24-172.83,119.24-281.49S509.42,180,435.48,106Z" transform="translate(-131 -106)"></path><text class="lb1" x="120" y="330" font-size="50">CHINA</text><image class="img1" x="580" y="90" href="images/china.svg" width="200"></image><rect class="text-wrap" height="200" width="200" x="560" y="280" style="fill:none"></rect><text id="wrap" class="txt1" x="560" y="280" dy="1"><tspan x="560" y="280" dy="1em">In China, the</tspan><tspan x="560" y="280" dy="2.1em">dragons are</tspan><tspan x="560" y="280" dy="3.2em">associated</tspan><tspan x="560" y="280" dy="4.300000000000001em">with wealth,</tspan><tspan x="560" y="280" dy="5.4em">power, and</tspan><tspan x="560" y="280" dy="6.5em">leadership</tspan></text></svg></svg><svg width="350" height="350" id="vg2" x="757.2666931152344" y="267.4000072479248"><svg id="Layer_1" data-name="Layer 1" xmlns="http://www.w3.org/2000/svg" viewBox="0 0 755 563"><defs><style>@import url('https://fonts.googleapis.com/css2?family=Kiwi+Maru:wght@500&amp;display=swap');@import url('https://fonts.googleapis.com/css2?family=Balsamiq+Sans:ital@1&amp;family=Kiwi+Maru:wght@500&amp;display=swap');
    .lb1{font-family:Kiwi Maru, serif; font-size: 50px;}.lb1{fill:aliceblue;}.txt1{font-family: Balsamiq Sans, cursive; font-size: 32px;}.color-1{fill:#a1d13b;}.color-12{fill:#f7f7f7;}</style></defs><path class="color-12" d="M435.48,106,310.18,221.83c27.56,25.46,27.56,66.85.07,92.37s-72.44,25.45-99.89,0L131,387.49,235.44,484a7.88,7.88,0,0,1,0,11.62,9.27,9.27,0,0,1-4,2.06,6.15,6.15,0,0,0-1.64.21A36.65,36.65,0,0,0,210.36,507c-13.88,12.79-13.88,33.48,0,46.24s36.15,12.72,50,0a32.16,32.16,0,0,0,9.84-18v0a7.14,7.14,0,0,0,.27-1.53l.06-.06a7.52,7.52,0,0,1,2.21-3.59,9.32,9.32,0,0,1,12.5,0L435.51,669c73.92-74,119.24-172.83,119.24-281.49S509.42,180,435.48,106Z" transform="translate(-131 -106)"></path><text class="lb1" x="120" y="330" font-size="50">INDIA</text><image class="img1" x="580" y="90" href="images/india.svg" width="200"></image><rect class="text-wrap" height="200" width="200" x="560" y="280" style="fill:none"></rect><text id="wrap" class="txt1" x="560" y="280" dy="1"><tspan x="560" y="280" dy="1em">It’s estimated</tspan><tspan x="560" y="280" dy="2.1em">that between</tspan><tspan x="560" y="280" dy="3.2em">15% and 30%</tspan><tspan x="560" y="280" dy="4.300000000000001em">of India’s</tspan><tspan x="560" y="280" dy="5.4em">population</tspan><tspan x="560" y="280" dy="6.5em">follow a strict</tspan><tspan x="560" y="280" dy="7.6000000000000005em">vegetarian</tspan><tspan x="560" y="280" dy="8.700000000000001em">diet.</tspan></text></svg></svg><svg width="350" height="350" id="vg3" x="173.80001068115234" y="389.79997634887695"><svg id="Layer_1" data-name="Layer 1" xmlns="http://www.w3.org/2000/svg" viewBox="0 0 755 563"><defs><style>@import url('https://fonts.googleapis.com/css2?family=Kiwi+Maru:wght@500&amp;display=swap');@import url('https://fonts.googleapis.com/css2?family=Balsamiq+Sans:ital@1&amp;family=Kiwi+Maru:wght@500&amp;display=swap');
    .lb1{font-family:Kiwi Maru, serif; font-size: 50px;}.lb1{fill:aliceblue;}.txt1{font-family: Balsamiq Sans, cursive; font-size: 32px;}.color-1{fill:#a1d13b;}.color-13{fill:#a6dba0;}</style></defs><path class="color-13" d="M435.48,106,310.18,221.83c27.56,25.46,27.56,66.85.07,92.37s-72.44,25.45-99.89,0L131,387.49,235.44,484a7.88,7.88,0,0,1,0,11.62,9.27,9.27,0,0,1-4,2.06,6.15,6.15,0,0,0-1.64.21A36.65,36.65,0,0,0,210.36,507c-13.88,12.79-13.88,33.48,0,46.24s36.15,12.72,50,0a32.16,32.16,0,0,0,9.84-18v0a7.14,7.14,0,0,0,.27-1.53l.06-.06a7.52,7.52,0,0,1,2.21-3.59,9.32,9.32,0,0,1,12.5,0L435.51,669c73.92-74,119.24-172.83,119.24-281.49S509.42,180,435.48,106Z" transform="translate(-131 -106)"></path><text class="lb1" x="120" y="330" font-size="50">RUSSIA</text><image class="img1" x="580" y="90" href="images/russia.svg" width="200"></image><rect class="text-wrap" height="200" width="200" x="560" y="280" style="fill:none"></rect><text id="wrap" class="txt1" x="560" y="280" dy="1"><tspan x="560" y="280" dy="1em">Russia is</tspan><tspan x="560" y="280" dy="2.1em">60% forest.</tspan><tspan x="560" y="280" dy="3.2em">What’s more</tspan><tspan x="560" y="280" dy="4.300000000000001em">interesting,</tspan><tspan x="560" y="280" dy="5.4em">half of that</tspan><tspan x="560" y="280" dy="6.5em">forest is</tspan><tspan x="560" y="280" dy="7.6000000000000005em">totally</tspan><tspan x="560" y="280" dy="8.700000000000001em">uninhabited</tspan><tspan x="560" y="280" dy="9.8em">by humans.</tspan></text></svg></svg><svg width="350" height="350" id="vg4" x="771.1333465576172" y="517.0000267028809"><svg id="Layer_1" data-name="Layer 1" xmlns="http://www.w3.org/2000/svg" viewBox="0 0 755 563"><defs><style>@import url('https://fonts.googleapis.com/css2?family=Kiwi+Maru:wght@500&amp;display=swap');@import url('https://fonts.googleapis.com/css2?family=Balsamiq+Sans:ital@1&amp;family=Kiwi+Maru:wght@500&amp;display=swap');
    .lb1{font-family:Kiwi Maru, serif; font-size: 50px;}.lb1{fill:aliceblue;}.txt1{font-family: Balsamiq Sans, cursive; font-size: 32px;}.color-1{fill:#a1d13b;}.color-14{fill:#008837;}</style></defs><path class="color-14" d="M435.48,106,310.18,221.83c27.56,25.46,27.56,66.85.07,92.37s-72.44,25.45-99.89,0L131,387.49,235.44,484a7.88,7.88,0,0,1,0,11.62,9.27,9.27,0,0,1-4,2.06,6.15,6.15,0,0,0-1.64.21A36.65,36.65,0,0,0,210.36,507c-13.88,12.79-13.88,33.48,0,46.24s36.15,12.72,50,0a32.16,32.16,0,0,0,9.84-18v0a7.14,7.14,0,0,0,.27-1.53l.06-.06a7.52,7.52,0,0,1,2.21-3.59,9.32,9.32,0,0,1,12.5,0L435.51,669c73.92-74,119.24-172.83,119.24-281.49S509.42,180,435.48,106Z" transform="translate(-131 -106)"></path><text class="lb1" x="120" y="330" font-size="50">BRAZIL</text><image class="img1" x="580" y="90" href="images/brazil.svg" width="200"></image><rect class="text-wrap" height="200" width="200" x="560" y="280" style="fill:none"></rect><text id="wrap" class="txt1" x="560" y="280" dy="1"><tspan x="560" y="280" dy="1em">Brazil has</tspan><tspan x="560" y="280" dy="2.1em">won more</tspan><tspan x="560" y="280" dy="3.2em">football world</tspan><tspan x="560" y="280" dy="4.300000000000001em">cups than any</tspan><tspan x="560" y="280" dy="5.4em">other country,</tspan><tspan x="560" y="280" dy="6.5em">with Pele</tspan><tspan x="560" y="280" dy="7.6000000000000005em">being the top</tspan><tspan x="560" y="280" dy="8.700000000000001em">scorer.</tspan></text></svg></svg><g><image href="connections/striped-arrow.svg" width="100" x="882.8000259399414" y="266.00000619888306" transform="rotate(270.2417526767109,932.8000259399414,316.00000619888306)"></image></g><g><image href="connections/striped-arrow.svg" width="100" x="296.1333465576172" y="391.5999937057495" transform="rotate(268.76002624121264,346.1333465576172,441.5999937057495)"></image></g><g><image href="connections/striped-arrow.svg" width="100" x="889.2000198364258" y="517.2000169754028" transform="rotate(266.8201731537765,939.2000198364258,567.2000169754028)"></image></g><image x="740" y="60" href="images/pivot.png" transform="scale(0.75)"></image></svg>