<svg id="svg" height="960" width="1280" xmlns="http://www.w3.org/2000/svg"><image x="0" y="0" height="960" width="1280" preserveAspectRatio="none" href="images/background3.jpg"></image><svg width="350" height="350" id="vg0" x="22.358341217041016" y="385.01874923706055"><svg id="Layer_1" data-name="Layer 1" xmlns="http://www.w3.org/2000/svg" viewBox="0 0 167 632"><defs><style>@import url('https://fonts.googleapis.com/css2?family=Kiwi+Maru:wght@500&amp;display=swap');@import url('https://fonts.googleapis.com/css2?family=Balsamiq+Sans:ital@1&amp;family=Kiwi+Maru:wght@500&amp;display=swap');
    .lb1{font-family:Kiwi Maru, serif; font-size: 50px;}.lb1{fill:#2c7bb6;}.txt1{font-family: Balsamiq Sans, cursive; font-size: 32px;}.color-1{fill:#a1d13b;}.color2{fill:#fff;}.color-10{fill:#d01c8b;}</style></defs><polygon class="color-10" points="54.22 0 0 47.71 0 47.72 0 407.13 108.4 407.13 108.4 47.71 54.22 0"></polygon><polygon class="color2" points="54.22 78.43 19.27 47.71 54.22 16.95 89.16 47.71 54.22 78.43"></polygon><polygon class="color-10" points="167 469.25 6.89 469.25 0 407.13 108.4 407.13 167 469.25"></polygon><rect class="text-wrap" x="6.89" y="578.2" width="160.11" height="50.26" style="fill:none"></rect><text id="wrap" class="txt1" x="6.89" y="545.2" dy="1"><tspan x="6.89" y="545.2" dy="1em">The United</tspan><tspan x="6.89" y="545.2" dy="2.1em">States has</tspan><tspan x="6.89" y="545.2" dy="3.2em">maintained</tspan><tspan x="6.89" y="545.2" dy="4.300000000000001em">its position</tspan><tspan x="6.89" y="545.2" dy="5.4em">of being</tspan><tspan x="6.89" y="545.2" dy="6.5em">the world’s</tspan><tspan x="6.89" y="545.2" dy="7.6000000000000005em">largest</tspan><tspan x="6.89" y="545.2" dy="8.700000000000001em">economy</tspan><tspan x="6.89" y="545.2" dy="9.8em">since 1871.</tspan></text><image preserveAspectRatio="none" class="img1" x="20" y="480" href="images/usa.svg" width="100" height="60"></image><text class="lb1" x="3" y="400" font-size="20">USA</text></svg>
</svg><svg width="350" height="350" id="vg1" x="238.8916778564453" y="225.81875801086426"><svg id="Layer_1" data-name="Layer 1" xmlns="http://www.w3.org/2000/svg" viewBox="0 0 167 632"><defs><style>@import url('https://fonts.googleapis.com/css2?family=Kiwi+Maru:wght@500&amp;display=swap');@import url('https://fonts.googleapis.com/css2?family=Balsamiq+Sans:ital@1&amp;family=Kiwi+Maru:wght@500&amp;display=swap');
    .lb1{font-family:Kiwi Maru, serif; font-size: 50px;}.lb1{fill:#2c7bb6;}.txt1{font-family: Balsamiq Sans, cursive; font-size: 32px;}.color-1{fill:#a1d13b;}.color2{fill:#fff;}.color-11{fill:#f1b6da;}</style></defs><polygon class="color-11" points="54.22 0 0 47.71 0 47.72 0 407.13 108.4 407.13 108.4 47.71 54.22 0"></polygon><polygon class="color2" points="54.22 78.43 19.27 47.71 54.22 16.95 89.16 47.71 54.22 78.43"></polygon><polygon class="color-11" points="167 469.25 6.89 469.25 0 407.13 108.4 407.13 167 469.25"></polygon><rect class="text-wrap" x="6.89" y="578.2" width="160.11" height="50.26" style="fill:none"></rect><text id="wrap" class="txt1" x="6.89" y="545.2" dy="1"><tspan x="6.89" y="545.2" dy="1em">In China,</tspan><tspan x="6.89" y="545.2" dy="2.1em">the</tspan><tspan x="6.89" y="545.2" dy="3.2em">dragons</tspan><tspan x="6.89" y="545.2" dy="4.300000000000001em">are</tspan><tspan x="6.89" y="545.2" dy="5.4em">associated</tspan><tspan x="6.89" y="545.2" dy="6.5em">with</tspan><tspan x="6.89" y="545.2" dy="7.6000000000000005em">wealth,</tspan><tspan x="6.89" y="545.2" dy="8.700000000000001em">power, and</tspan><tspan x="6.89" y="545.2" dy="9.8em">leadership</tspan></text><image preserveAspectRatio="none" class="img1" x="20" y="480" href="images/china.svg" width="100" height="60"></image><text class="lb1" x="3" y="400" font-size="20">CHINA</text></svg>
</svg><svg width="350" height="350" id="vg2" x="462.8916549682617" y="390.6187438964844"><svg id="Layer_1" data-name="Layer 1" xmlns="http://www.w3.org/2000/svg" viewBox="0 0 167 632"><defs><style>@import url('https://fonts.googleapis.com/css2?family=Kiwi+Maru:wght@500&amp;display=swap');@import url('https://fonts.googleapis.com/css2?family=Balsamiq+Sans:ital@1&amp;family=Kiwi+Maru:wght@500&amp;display=swap');
    .lb1{font-family:Kiwi Maru, serif; font-size: 50px;}.lb1{fill:#2c7bb6;}.txt1{font-family: Balsamiq Sans, cursive; font-size: 32px;}.color-1{fill:#a1d13b;}.color2{fill:#fff;}.color-12{fill:#f7f7f7;}</style></defs><polygon class="color-12" points="54.22 0 0 47.71 0 47.72 0 407.13 108.4 407.13 108.4 47.71 54.22 0"></polygon><polygon class="color2" points="54.22 78.43 19.27 47.71 54.22 16.95 89.16 47.71 54.22 78.43"></polygon><polygon class="color-12" points="167 469.25 6.89 469.25 0 407.13 108.4 407.13 167 469.25"></polygon><rect class="text-wrap" x="6.89" y="578.2" width="160.11" height="50.26" style="fill:none"></rect><text id="wrap" class="txt1" x="6.89" y="545.2" dy="1"><tspan x="6.89" y="545.2" dy="1em">It’s</tspan><tspan x="6.89" y="545.2" dy="2.1em">estimated</tspan><tspan x="6.89" y="545.2" dy="3.2em">that</tspan><tspan x="6.89" y="545.2" dy="4.300000000000001em">between</tspan><tspan x="6.89" y="545.2" dy="5.4em">15% and</tspan><tspan x="6.89" y="545.2" dy="6.5em">30% of</tspan><tspan x="6.89" y="545.2" dy="7.6000000000000005em">India’s</tspan><tspan x="6.89" y="545.2" dy="8.700000000000001em">population</tspan><tspan x="6.89" y="545.2" dy="9.8em">follow a</tspan><tspan x="6.89" y="545.2" dy="10.9em">strict</tspan><tspan x="6.89" y="545.2" dy="12em">vegetarian</tspan><tspan x="6.89" y="545.2" dy="13.100000000000001em">diet.</tspan></text><image preserveAspectRatio="none" class="img1" x="20" y="480" href="images/india.svg" width="100" height="60"></image><text class="lb1" x="3" y="400" font-size="20">INDIA</text></svg>
</svg><svg width="350" height="350" id="vg3" x="686.8916320800781" y="228.2187557220459"><svg id="Layer_1" data-name="Layer 1" xmlns="http://www.w3.org/2000/svg" viewBox="0 0 167 632"><defs><style>@import url('https://fonts.googleapis.com/css2?family=Kiwi+Maru:wght@500&amp;display=swap');@import url('https://fonts.googleapis.com/css2?family=Balsamiq+Sans:ital@1&amp;family=Kiwi+Maru:wght@500&amp;display=swap');
    .lb1{font-family:Kiwi Maru, serif; font-size: 50px;}.lb1{fill:#2c7bb6;}.txt1{font-family: Balsamiq Sans, cursive; font-size: 32px;}.color-1{fill:#a1d13b;}.color2{fill:#fff;}.color-13{fill:#b8e186;}</style></defs><polygon class="color-13" points="54.22 0 0 47.71 0 47.72 0 407.13 108.4 407.13 108.4 47.71 54.22 0"></polygon><polygon class="color2" points="54.22 78.43 19.27 47.71 54.22 16.95 89.16 47.71 54.22 78.43"></polygon><polygon class="color-13" points="167 469.25 6.89 469.25 0 407.13 108.4 407.13 167 469.25"></polygon><rect class="text-wrap" x="6.89" y="578.2" width="160.11" height="50.26" style="fill:none"></rect><text id="wrap" class="txt1" x="6.89" y="545.2" dy="1"><tspan x="6.89" y="545.2" dy="1em">Russia is</tspan><tspan x="6.89" y="545.2" dy="2.1em">60%</tspan><tspan x="6.89" y="545.2" dy="3.2em">forest.</tspan><tspan x="6.89" y="545.2" dy="4.300000000000001em">What’s</tspan><tspan x="6.89" y="545.2" dy="5.4em">more</tspan><tspan x="6.89" y="545.2" dy="6.5em">interesting,</tspan><tspan x="6.89" y="545.2" dy="7.6000000000000005em">half of that</tspan><tspan x="6.89" y="545.2" dy="8.700000000000001em">forest is</tspan><tspan x="6.89" y="545.2" dy="9.8em">totally</tspan><tspan x="6.89" y="545.2" dy="10.9em">uninhabited</tspan><tspan x="6.89" y="545.2" dy="12em">by</tspan><tspan x="6.89" y="545.2" dy="13.100000000000001em">humans.</tspan></text><image preserveAspectRatio="none" class="img1" x="20" y="480" href="images/russia.svg" width="100" height="60"></image><text class="lb1" x="3" y="400" font-size="20">RUSSIA</text></svg>
</svg><svg width="350" height="350" id="vg4" x="904.4916534423828" y="381.81875228881836"><svg id="Layer_1" data-name="Layer 1" xmlns="http://www.w3.org/2000/svg" viewBox="0 0 167 632"><defs><style>@import url('https://fonts.googleapis.com/css2?family=Kiwi+Maru:wght@500&amp;display=swap');@import url('https://fonts.googleapis.com/css2?family=Balsamiq+Sans:ital@1&amp;family=Kiwi+Maru:wght@500&amp;display=swap');
    .lb1{font-family:Kiwi Maru, serif; font-size: 50px;}.lb1{fill:#2c7bb6;}.txt1{font-family: Balsamiq Sans, cursive; font-size: 32px;}.color-1{fill:#a1d13b;}.color2{fill:#fff;}.color-14{fill:#4dac26;}</style></defs><polygon class="color-14" points="54.22 0 0 47.71 0 47.72 0 407.13 108.4 407.13 108.4 47.71 54.22 0"></polygon><polygon class="color2" points="54.22 78.43 19.27 47.71 54.22 16.95 89.16 47.71 54.22 78.43"></polygon><polygon class="color-14" points="167 469.25 6.89 469.25 0 407.13 108.4 407.13 167 469.25"></polygon><rect class="text-wrap" x="6.89" y="578.2" width="160.11" height="50.26" style="fill:none"></rect><text id="wrap" class="txt1" x="6.89" y="545.2" dy="1"><tspan x="6.89" y="545.2" dy="1em">Brazil has</tspan><tspan x="6.89" y="545.2" dy="2.1em">won more</tspan><tspan x="6.89" y="545.2" dy="3.2em">football</tspan><tspan x="6.89" y="545.2" dy="4.300000000000001em">world cups</tspan><tspan x="6.89" y="545.2" dy="5.4em">than any</tspan><tspan x="6.89" y="545.2" dy="6.5em">other</tspan><tspan x="6.89" y="545.2" dy="7.6000000000000005em">country,</tspan><tspan x="6.89" y="545.2" dy="8.700000000000001em">with Pele</tspan><tspan x="6.89" y="545.2" dy="9.8em">being the</tspan><tspan x="6.89" y="545.2" dy="10.9em">top scorer.</tspan></text><image preserveAspectRatio="none" class="img1" x="20" y="480" href="images/brazil.svg" width="100" height="60"></image><text class="lb1" x="3" y="400" font-size="20">BRAZIL</text></svg>
</svg><g><image href="connections/minus-line.svg" width="100" x="367.62499809265137" y="512.8187465667725" transform="rotate(180.7282962909631,417.62499809265137,562.8187465667725)"></image></g><g><image href="connections/minus-line.svg" width="100" x="587.8916549682617" y="352.0187568664551" transform="rotate(180.3069384783574,637.8916549682617,402.0187568664551)"></image></g><g><image href="connections/minus-line.svg" width="100" x="808.6916542053223" y="511.21874809265137" transform="rotate(178.8583884603224,858.6916542053223,561.2187480926514)"></image></g><image x="740" y="60" href="images/pivot.png" transform="scale(0.75)"></image></svg>