<svg id="Layer_1" data-name="Layer 1" xmlns="http://www.w3.org/2000/svg" viewBox="0 0 729 286"><defs><style>.cls-1,.cls-11{fill:#fc8751;}.cls-2{font-size:27.8px;fill:#fff;font-family:FiraSans-Regular, Fira Sans;}.cls-3{letter-spacing:-0.02em;}.cls-4{letter-spacing:0em;}.cls-5{letter-spacing:-0.02em;}.cls-6{letter-spacing:0em;}.cls-7{letter-spacing:0em;}.cls-8{letter-spacing:-0.01em;}.cls-9{letter-spacing:-0.02em;}.cls-10{fill:#fffbf5;}.cls-11{font-size:133.46px;font-family:BebasNeueBold, Bebas Neue;}</style></defs><polygon class="cls-1" points="729 142.99 636.71 11.09 636.4 44.68 237.55 44.68 237.55 241.32 636.4 241.32 636.71 274.91 729 142.99"/><text class="cls-2" transform="translate(338.32 109.45) scale(1.09 1)"><tspan class="cls-3">L</tspan><tspan class="cls-4" x="13.15" y="0">o</tspan><tspan class="cls-5" x="29.39" y="0">r</tspan><tspan x="39.48" y="0">em ipsum do</tspan><tspan class="cls-6" x="202.2" y="0">l</tspan><tspan x="210.23" y="0">or </tspan><tspan x="0" y="44.49">sit ame</tspan><tspan class="cls-7" x="91.81" y="44.49">t</tspan><tspan x="101.96" y="44.49">, </tspan><tspan class="cls-8" x="116" y="44.49">c</tspan><tspan x="128.87" y="44.49">onsec</tspan><tspan class="cls-9" x="202.61" y="44.49">t</tspan><tspan x="212.23" y="44.49">etur </tspan><tspan x="0" y="88.98">adipiscing eli</tspan><tspan class="cls-7" x="165.88" y="88.98">t</tspan><tspan x="176.03" y="88.98">.</tspan></text><ellipse class="cls-10" cx="156.22" cy="143" rx="134.96" ry="123.54"/><path class="cls-1" d="M312.22,292.93c62.69,0,113.69,46.68,113.69,104.07s-51,104.07-113.69,104.07S198.53,454.39,198.53,397s51-104.07,113.69-104.07m0-38.93C225.94,254,156,318,156,397s69.94,143,156.22,143,156.22-64,156.22-143S398.49,254,312.22,254Z" transform="translate(-156 -254)"/><text class="cls-11" transform="translate(96.91 188.23) scale(1.09 1)">04</text></svg>