<svg id="Layer_1" data-name="Layer 1" xmlns="http://www.w3.org/2000/svg" viewBox="0 0 385 561"><defs><style>.cls-1{fill:#23282b;}.cls-2{fill:#f75c2a;}.cls-3{fill:#fff;}.cls-4{fill:#b2b2b2;}</style></defs><path class="cls-1" d="M464.43,284.5c10.47,0,19.66,7.12,24,16l18.75-9.9c-7.23-13.89-20.31-26.9-42.73-26.9-30.89,0-54.73,22.92-54.73,56.93,0,33.83,23.84,56.95,54.71,56.95,22.43,0,35.52-13.37,42.75-27.1l-18.75-9.72c-4.34,8.92-13.53,16-24,16-18.77,0-32.29-15.36-32.28-36.12S445.66,284.5,464.43,284.5Z" transform="translate(-266 -114)"/><path class="cls-2" d="M322.39,466.77c37.55,40.32,86.78,60.51,136.06,60.51,106.22,0,192.4-92.55,192.39-206.61,0-52.92-18.79-105.79-56.33-146.1S507.68,114,458.44,114H266V320.66C266,373.54,284.75,426.36,322.39,466.77ZM458.45,189.48c67.45,0,122.11,58.74,122.1,131.18S525.9,451.79,458.45,451.79,336.29,393.1,336.29,320.67,391,189.49,458.45,189.48Z" transform="translate(-266 -114)"/><path class="cls-1" d="M316.15,580C288.46,580,266,599.27,266,623c0,10.08,4.14,19,10.89,26.66a18.28,18.28,0,0,1,4.05,12A19.61,19.61,0,0,1,275.79,675a25.81,25.81,0,0,0,18.27-13.55,57,57,0,0,0,22.09,4.38c27.66,0,50.11-19.2,50.11-42.87S343.81,580,316.15,580Z" transform="translate(-266 -114)"/><path class="cls-3" d="M304.74,623a5,5,0,1,1-5-5.38A5.2,5.2,0,0,1,304.74,623Z" transform="translate(-266 -114)"/><path class="cls-3" d="M321.1,623a5,5,0,1,1-5-5.38A5.19,5.19,0,0,1,321.1,623Z" transform="translate(-266 -114)"/><path class="cls-3" d="M337.52,623a5,5,0,1,1-5-5.38A5.2,5.2,0,0,1,337.52,623Z" transform="translate(-266 -114)"/><rect class="cls-4" x="186.19" y="466.04" width="132.53" height="10.57"/><rect class="cls-4" x="119.9" y="487.14" width="265.1" height="10.57"/><rect class="cls-4" x="119.9" y="508.24" width="265.1" height="10.57"/><rect class="cls-4" x="119.9" y="529.33" width="265.1" height="10.58"/><rect class="cls-4" x="119.9" y="550.43" width="132.57" height="10.57"/></svg>