<svg id="Layer_1" data-name="Layer 1" xmlns="http://www.w3.org/2000/svg" viewBox="0 0 704 536"><defs><style>.cls-1{fill:#23282b;}.cls-2{fill:#b2b2b2;}.cls-3{fill:#00b9c4;}.cls-4{fill:#fff;}</style></defs><path class="cls-1" d="M341.63,160.39c12.84-2.23,23.45-12,23.45-26.23,0-15.27-13.24-29.16-39.15-29.16H254.37V219.37h73.82c26.07,0,39.55-13.72,39.55-31C367.74,174.1,356.33,162.28,341.63,160.39Zm-58.3-33.95h36.29c9.77,0,15.89,5,15.89,12,0,7.37-6.12,12-15.89,12H283.33Zm37.52,71.5H283.33V171.87h37.52c11.21,0,17.31,5.83,17.31,13C338.16,193.14,331.65,197.94,320.85,197.94Z" transform="translate(-187 -105)"/><rect class="cls-2" x="320.46" width="219.06" height="12.72"/><rect class="cls-2" x="210.94" y="25.42" width="438.11" height="12.7"/><rect class="cls-2" x="210.94" y="50.84" width="438.11" height="12.7"/><rect class="cls-2" x="210.94" y="76.25" width="438.11" height="12.7"/><rect class="cls-2" x="210.94" y="101.66" width="219.05" height="12.71"/><path class="cls-3" d="M680.73,392.15c0,65.86-63.44,119.23-141.75,119.23S397.24,458,397.24,392.15,460.68,273,539,273,680.73,326.31,680.73,392.15Z" transform="translate(-187 -105)"/><polygon class="cls-1" points="416.61 300.59 411.38 300.59 411.38 285.41 361.93 285.41 361.93 281 416.61 281 416.61 300.59"/><polygon class="cls-1" points="292.58 300.59 287.36 300.59 287.36 281 342.04 281 342.04 285.41 292.58 285.41 292.58 300.59"/><path class="cls-1" d="M539,399.62l-13.62-11.41L539,376.75l13.63,11.46Zm-6.23-11.41,6.23,5.24,6.24-5.24L539,383Z" transform="translate(-187 -105)"/><rect class="cls-1" x="349.37" y="291.53" width="5.22" height="9.06"/><rect class="cls-1" x="349.37" y="265.81" width="5.22" height="9.03"/><rect class="cls-1" x="320.98" y="231.02" width="62.01" height="34.79"/><rect class="cls-4" x="331.32" y="300.59" width="41.33" height="34.76"/><rect class="cls-4" x="269.31" y="300.59" width="41.34" height="34.76"/><rect class="cls-4" x="393.33" y="300.59" width="41.33" height="34.76"/><rect class="cls-4" x="332.85" y="250.9" width="19.14" height="4.91"/><rect class="cls-4" x="332.85" y="241.04" width="38.27" height="4.92"/><rect class="cls-1" x="279.53" y="320.44" width="20.88" height="4.93"/><rect class="cls-1" x="279.53" y="310.59" width="20.88" height="4.93"/><rect class="cls-1" x="341.55" y="320.44" width="20.87" height="4.93"/><rect class="cls-1" x="341.55" y="310.59" width="20.87" height="4.93"/><rect class="cls-1" x="403.56" y="320.44" width="20.88" height="4.93"/><rect class="cls-1" x="403.56" y="310.59" width="20.88" height="4.93"/><path class="cls-3" d="M734,641,891,509c-52.93-41.68-113.78-72.08-178.29-91.45C698.35,487.29,626,540.48,539,540.48S379.63,487.29,365.27,417.56C300.75,436.94,239.92,467.34,187,509L344,641C455,557.92,623,557.91,734,641Z" transform="translate(-187 -105)"/></svg>