<svg id="Layer_1" data-name="Layer 1" xmlns="http://www.w3.org/2000/svg" viewBox="0 0 666 605"><defs><style>.cls-1{fill:#a1d13b;}.cls-2{fill:#fff;}.cls-3{fill:#b2b2b2;}.cls-4{fill:#23282b;}</style></defs><path class="cls-1" d="M448.49,685H628.9c7-111.65,103.55-201.06,224.1-207.58v-167C632.84,317.15,455.77,481.13,448.49,685Z" transform="translate(-187 -80)"/><path class="cls-2" d="M657.86,484.67A17.48,17.48,0,0,0,672.26,467c0-10.26-8.15-19.65-24-19.65H604.38v77.13h45.26c16,0,24.21-9.26,24.21-21A19,19,0,0,0,657.86,484.67Zm-35.72-22.85h22.19c6.08,0,9.81,3.33,9.81,8.13s-3.73,8-9.81,8H622.14Zm23,48.19h-23V492.45h23c6.86,0,10.57,3.9,10.57,8.79C655.7,506.76,651.76,510,645.13,510Z" transform="translate(-187 -80)"/><rect class="cls-3" x="70.96" y="154.38" width="130.85" height="14.04"/><rect class="cls-3" y="182.44" width="272.78" height="14.06"/><rect class="cls-3" y="210.53" width="272.78" height="14.04"/><rect class="cls-3" y="238.6" width="272.78" height="13.99"/><rect class="cls-3" y="266.64" width="136.39" height="14.01"/><polygon class="cls-4" points="227.7 0 96.55 93.77 96.55 126.27 118.42 106.01 154.51 126.27 227.7 0"/><polygon class="cls-4" points="84.06 86.73 227.7 0 45.04 64.84 84.06 86.73"/></svg>