<svg id="Layer_1" data-name="Layer 1" xmlns="http://www.w3.org/2000/svg" viewBox="0 0 518 604"><defs><style>.cls-1{fill:#59bdc9;}.cls-2,.cls-7{font-size:27.77px;font-family:FiraSans-Regular, Fira Sans;}.cls-2{fill:#fff;}.cls-3{letter-spacing:-0.02em;}.cls-4{letter-spacing:0em;}.cls-5{letter-spacing:-0.03em;}.cls-6{letter-spacing:0em;}.cls-7{fill:#5c6c76;}.cls-8{letter-spacing:-0.02em;}.cls-9{letter-spacing:-0.01em;}.cls-10{letter-spacing:0em;}.cls-11{letter-spacing:-0.01em;}</style></defs><rect class="cls-1" y="472.16" width="28.72" height="117.03"/><path class="cls-1" d="M451.52,261.83l-37.66,57.22,16.27-2.19c1-.09,109.28-14.79,183.54-33.88C711.09,257.81,767,216.1,767,168.46,767,103.66,679,51,570.67,51S374.43,103.66,374.43,168.46c0,36.69,28.63,71.19,77.09,93.37Z" transform="translate(-249 -51)"/><path class="cls-1" d="M283.48,315.52C283.48,334,300.72,349,322,349s38.51-15,38.51-33.5S343.28,282,322,282s-38.53,15-38.53,33.54Zm0,0" transform="translate(-249 -51)"/><path class="cls-1" d="M347.61,357.2a14.82,14.82,0,0,0-2-.85,48.09,48.09,0,0,0-14-5.37l-9.61,8.4-9.3-8.5h-.09a48.9,48.9,0,0,0-14.09,5.34,17.2,17.2,0,0,0-2.27,1c-23.41,12.49-39,22.94-47.24,62.32h62.63l1-4.84,9.27-54.05h.2l9.28,54.05,1.1,4.84h62.38c-8.22-39.39-23.83-49.83-47.25-62.32Zm0,0" transform="translate(-249 -51)"/><text class="cls-2" transform="translate(193.84 79.53) scale(1.15 1)">Donec sed orna<tspan class="cls-3" x="195.6" y="0">r</tspan><tspan x="205.68" y="0">e </tspan><tspan class="cls-4" x="0" y="44.42">l</tspan><tspan x="8.02" y="44.42">o</tspan><tspan class="cls-3" x="24.24" y="44.42">r</tspan><tspan x="34.32" y="44.42">em. </tspan><tspan class="cls-5" x="87.04" y="44.42">L</tspan><tspan x="100.18" y="44.42">o</tspan><tspan class="cls-3" x="116.39" y="44.42">r</tspan><tspan x="126.47" y="44.42">em ipsum </tspan><tspan x="0" y="88.85">do</tspan><tspan class="cls-4" x="32.6" y="88.85">l</tspan><tspan x="40.62" y="88.85">or sit ame</tspan><tspan class="cls-6" x="166.51" y="88.85">t</tspan><tspan x="176.64" y="88.85">.</tspan></text><text class="cls-7" transform="translate(76.58 492.98) scale(1.15 1)"><tspan class="cls-8">L</tspan><tspan x="13.13" y="0">o</tspan><tspan class="cls-3" x="29.35" y="0">r</tspan><tspan x="39.43" y="0">em ipsum do</tspan><tspan class="cls-4" x="201.91" y="0">l</tspan><tspan x="209.93" y="0">or sit ame</tspan><tspan class="cls-6" x="335.82" y="0">t</tspan><tspan x="345.95" y="0">, </tspan><tspan class="cls-9" x="0" y="44.42">c</tspan><tspan x="12.86" y="44.42">onsec</tspan><tspan class="cls-9" x="86.49" y="44.42">t</tspan><tspan x="96.1" y="44.42">etuer adipiscing eli</tspan><tspan class="cls-10" x="335.93" y="44.42">t</tspan><tspan x="346.06" y="44.42">, </tspan><tspan x="0" y="88.85">sed diam nonum</tspan><tspan class="cls-11" x="209.71" y="88.85">m</tspan><tspan x="233.12" y="88.85">y nibh.</tspan></text></svg>