<svg id="Layer_1" data-name="Layer 1" xmlns="http://www.w3.org/2000/svg" viewBox="0 0 648 374"><defs><style>.cls-1,.cls-3{fill:#59bdc9;}.cls-2,.cls-4{fill:none;stroke-miterlimit:10;}.cls-2{stroke:#fff;stroke-width:1.2px;}.cls-3{font-size:87.36px;font-family:BebasNeueBold, Bebas Neue;}.cls-4{stroke:#59bdc9;stroke-width:2px;}.cls-5{font-size:25.7px;fill:#5c6c76;font-family:FiraSans-Regular, Fira Sans;}.cls-6{letter-spacing:-0.02em;}.cls-7{letter-spacing:-0.02em;}.cls-8{letter-spacing:-0.01em;}.cls-9{letter-spacing:0em;}.cls-10{letter-spacing:-0.01em;}.cls-11{letter-spacing:-0.01em;}.cls-12{letter-spacing:0em;}</style></defs><path class="cls-1" d="M395.57,337.51c0-41.09-40-74.39-89.28-74.39S217,296.42,217,337.51s40,74.39,89.29,74.39S395.57,378.59,395.57,337.51Z" transform="translate(-217 -205)"/><path class="cls-2" d="M306.29,304a3.06,3.06,0,0,0-2.71,1.46l-9.14,17.18-23,3.83a2.78,2.78,0,0,0-2.24,1.7,2.17,2.17,0,0,0,.74,2.45L286,344l-4.47,19.09a2.18,2.18,0,0,0,.93,2.41,3.47,3.47,0,0,0,1.88.52,3.37,3.37,0,0,0,1.18-.21l20.82-7.69,20.84,7.7a3.22,3.22,0,0,0,1.18.21,3.42,3.42,0,0,0,1.83-.52,2.2,2.2,0,0,0,.93-2.42L326.59,344l16-13.33a2.15,2.15,0,0,0,.74-2.45,2.83,2.83,0,0,0-2.25-1.7l-23-3.83L309,305.5a3,3,0,0,0-2.69-1.46Z" transform="translate(-217 -205)"/><text class="cls-3" transform="translate(254.46 101.61) scale(1.2 1)">2018</text><ellipse class="cls-1" cx="604.82" cy="132.51" rx="43.18" ry="35.97"/><path class="cls-4" d="M437.53,337.51h295c0-41.08,40-74.39,89.29-74.39V214.77" transform="translate(-217 -205)"/><path class="cls-1" d="M449.11,337.51c0,5.33-5.18,9.64-11.58,9.64S426,342.84,426,337.51s5.18-9.64,11.57-9.64S449.11,332.18,449.11,337.51Z" transform="translate(-217 -205)"/><path class="cls-1" d="M833.4,214.64c0,5.33-5.19,9.65-11.58,9.65s-11.57-4.32-11.57-9.65,5.18-9.64,11.57-9.64S833.4,209.32,833.4,214.64Z" transform="translate(-217 -205)"/><line class="cls-4" x1="604.82" y1="206.21" x2="604.82" y2="345.21"/><ellipse class="cls-1" cx="604.82" cy="345.21" rx="11.57" ry="9.64"/><ellipse class="cls-1" cx="604.82" cy="206.21" rx="11.57" ry="9.64"/><text class="cls-5" transform="translate(254.46 181.8) scale(1.2 1)"><tspan class="cls-6">L</tspan><tspan x="12.15" y="0">o</tspan><tspan class="cls-7" x="27.16" y="0">r</tspan><tspan x="36.49" y="0">em ipsum </tspan><tspan x="0" y="41.11">do</tspan><tspan class="cls-8" x="30.17" y="41.11">l</tspan><tspan x="37.59" y="41.11">or sit ame</tspan><tspan class="cls-9" x="154.09" y="41.11">t</tspan><tspan x="163.47" y="41.11">, </tspan><tspan class="cls-10" x="0" y="82.22">c</tspan><tspan x="11.9" y="82.22">onsec</tspan><tspan class="cls-11" x="80.04" y="82.22">t</tspan><tspan x="88.93" y="82.22">etuer </tspan><tspan x="0" y="123.34">adipiscing eli</tspan><tspan class="cls-12" x="153.29" y="123.34">t</tspan><tspan x="162.67" y="123.34">, </tspan><tspan x="0" y="164.45">sed diam nonum.</tspan></text></svg>