<svg id="Layer_1" data-name="Layer 1" xmlns="http://www.w3.org/2000/svg" viewBox="0 0 167.5 178.46"><defs><style>.cls-1,.cls-4{fill:#59bdc9;}.cls-2{fill:#fffbf5;}.cls-3,.cls-5{fill:#5c6c76;}.cls-4{font-size:28px;font-family:BebasNeueBold, Bebas Neue;}.cls-5{font-size:13px;font-family:FiraSans-SemiBold, Fira Sans;font-weight:600;}.cls-6{letter-spacing:-0.01em;}.cls-7{letter-spacing:-0.02em;}.cls-8{letter-spacing:-0.01em;}</style></defs><rect class="cls-1" y="133.56" width="12" height="12"/><path class="cls-1" d="M467.74,294.27a30.82,30.82,0,0,1,30.83,30.83c0,26.66-30.83,52.29-30.83,52.29s-30.82-27-30.82-52.3a30.82,30.82,0,0,1,30.82-30.82Zm0,55.17a24.69,24.69,0,1,0-24.68-24.69,24.7,24.7,0,0,0,24.68,24.69Z" transform="translate(-422.85 -294.27)"/><path class="cls-2" d="M467.74,390.65a5.82,5.82,0,1,1,5.83-5.82A5.83,5.83,0,0,1,467.74,390.65Z" transform="translate(-422.85 -294.27)"/><path class="cls-3" d="M467.74,381a3.82,3.82,0,1,1-3.82,3.82,3.83,3.83,0,0,1,3.82-3.82m0-4a7.82,7.82,0,1,0,7.83,7.82,7.82,7.82,0,0,0-7.83-7.82Z" transform="translate(-422.85 -294.27)"/><text class="cls-4" transform="translate(33.81 41.56)">01</text><text class="cls-5" transform="translate(24.32 144.41)">Tincidunt <tspan class="cls-6" x="58.59" y="0">e</tspan><tspan x="65.64" y="0">x in ia</tspan><tspan class="cls-6" x="100.36" y="0">c</tspan><tspan x="106.44" y="0">ulis</tspan><tspan x="0" y="20.8">Amet e</tspan><tspan class="cls-7" x="41.04" y="20.8">r</tspan><tspan x="45.86" y="20.8">at e</tspan><tspan class="cls-8" x="68.24" y="20.8">g</tspan><tspan x="75.22" y="20.8">et dapibus </tspan></text></svg>