<svg id="Layer_1" data-name="Layer 1" xmlns="http://www.w3.org/2000/svg" viewBox="0 0 395 72"><defs><style>.cls-1{fill:#adb5ba;}.cls-2{fill:#59bdc9;}.cls-3{font-size:58px;font-family:BebasNeueBold, Bebas Neue;}.cls-3,.cls-4{fill:#fff;}.cls-4{font-size:13px;font-family:FiraSans-SemiBold, Fira Sans;font-weight:600;}.cls-5{letter-spacing:-0.02em;}.cls-6{letter-spacing:-0.02em;}.cls-7{letter-spacing:0em;}.cls-8{font-size:10px;font-family:FiraSans-Regular, Fira Sans;font-weight:400;}.cls-9{letter-spacing:0em;}.cls-10{letter-spacing:-0.01em;}.cls-11{letter-spacing:0em;}.cls-12{letter-spacing:0em;}.cls-13{letter-spacing:0em;}.cls-14{fill:none;stroke:#fff;stroke-miterlimit:10;stroke-width:1.5px;}</style></defs><rect class="cls-1" width="395" height="72"/><polygon class="cls-2" points="333 0 298.83 72 395 72 395 0 333 0"/><text class="cls-3" transform="translate(337.15 57.1)">04</text><text class="cls-4" transform="translate(96.5 25.23)"><tspan class="cls-5">L</tspan><tspan x="6.29" y="0">o</tspan><tspan class="cls-6" x="13.88" y="0">r</tspan><tspan x="18.77" y="0">em ipsum do</tspan><tspan class="cls-7" x="94.42" y="0">l</tspan><tspan x="98.23" y="0">or </tspan><tspan class="cls-8"><tspan x="0" y="16">Sit ame</tspan><tspan class="cls-9" x="33.8" y="16">t</tspan><tspan x="37.45" y="16">, </tspan><tspan class="cls-10" x="42.5" y="16">c</tspan><tspan x="47.13" y="16">onsec</tspan><tspan class="cls-10" x="73.65" y="16">t</tspan><tspan class="cls-11" x="77.11" y="16">etur adipiscing eli</tspan><tspan class="cls-12" x="158.05" y="16">t</tspan><tspan x="161.7" y="16">. </tspan><tspan x="0" y="32">Vi</tspan><tspan class="cls-13" x="8.32" y="32">v</tspan><tspan x="13.19" y="32">amus euismod tincidunt </tspan><tspan class="cls-13" x="125.06" y="32">e</tspan><tspan x="130.45" y="32">x in.</tspan></tspan></text><path class="cls-14" d="M368.24,378.6l-10.82,22.9a2.65,2.65,0,0,1-3.51,1.26l-12.69-6a2.65,2.65,0,0,1-1.25-3.51l10.82-22.91,9.85-2.87a3,3,0,0,1,3.56,1.68Z" transform="translate(-303.78 -348)"/><path class="cls-14" d="M359.71,371.65A1.78,1.78,0,0,0,359,375a1.9,1.9,0,0,0,.76.17,1.78,1.78,0,0,0,.76-3.39,1.69,1.69,0,0,0-.76-.17Z" transform="translate(-303.78 -348)"/></svg>