<svg id="Layer_1" data-name="Layer 1" xmlns="http://www.w3.org/2000/svg" viewBox="0 0 207.8 60"><defs><style>.cls-1{fill:#b71044;}.cls-2{fill:none;stroke:#fff;stroke-linecap:round;stroke-linejoin:round;stroke-width:1.2px;}.cls-3{font-size:13px;fill:#5c6c76;font-family:FiraSans-SemiBold, Fira Sans;font-weight:600;}.cls-4{letter-spacing:-0.02em;}.cls-5{letter-spacing:-0.02em;}.cls-6{font-size:10px;font-family:FiraSans-Regular, Fira Sans;font-weight:400;}.cls-7{letter-spacing:-0.02em;}.cls-8{letter-spacing:0em;}.cls-9{letter-spacing:-0.02em;}.cls-10{letter-spacing:0em;}.cls-11{letter-spacing:0em;}.cls-12{letter-spacing:0em;}</style></defs><path class="cls-1" d="M465.07,384a30,30,0,1,0-30,30A30,30,0,0,0,465.07,384Z" transform="translate(-405.07 -354)"/><circle class="cls-2" cx="30" cy="31.32" r="5.91"/><path class="cls-2" d="M442.62,377.68h3.58a2.69,2.69,0,0,1,2.68,2.69v11.94A2.69,2.69,0,0,1,446.2,395H423.94a2.7,2.7,0,0,1-2.68-2.69V380.37a2.7,2.7,0,0,1,2.68-2.69h3.59l3.16-4.68h8.76Z" transform="translate(-405.07 -354)"/><text class="cls-3" transform="translate(94.28 17.61)"><tspan class="cls-4">L</tspan><tspan x="6.29" y="0">o</tspan><tspan class="cls-5" x="13.88" y="0">r</tspan><tspan x="18.77" y="0">em ipsum </tspan><tspan class="cls-6"><tspan x="0" y="16">Donec sed orna</tspan><tspan class="cls-7" x="70.45" y="16">r</tspan><tspan x="74.08" y="16">e </tspan><tspan class="cls-8" x="82.17" y="16">l</tspan><tspan x="85.06" y="16">o</tspan><tspan class="cls-9" x="90.9" y="16">r</tspan><tspan x="94.53" y="16">em. </tspan><tspan x="0" y="32">Aliquam e</tspan><tspan class="cls-9" x="45.06" y="32">r</tspan><tspan x="48.69" y="32">at </tspan><tspan class="cls-10" x="60.34" y="32">v</tspan><tspan x="65.22" y="32">olut</tspan><tspan class="cls-8" x="83.36" y="32">p</tspan><tspan class="cls-11" x="89.17" y="32">a</tspan><tspan class="cls-12" x="94.56" y="32">t</tspan><tspan x="98.21" y="32">.</tspan></tspan></text></svg>