<svg id="Layer_1" data-name="Layer 1" xmlns="http://www.w3.org/2000/svg" viewBox="0 0 573 479"><defs><style>.cls-1{fill:#a1d13b;}.cls-2{fill:#23282b;}.cls-3{fill:#fff;}.cls-4{fill:#e6e6e6;}.cls-5{fill:#b2b2b2;}</style></defs><path class="cls-1" d="M571.83,256H387.42C340.22,256,293,269.84,257,297.51s-54,63.93-54,100.19V539.4H387.42c47.19,0,94.39-13.84,130.4-41.5s54-63.94,54-100.2Z" transform="translate(-203 -117)"/><polygon class="cls-2" points="159.97 249.68 149.32 249.68 146.22 261.56 163.07 261.56 159.97 249.68"/><polygon class="cls-2" points="124.17 254.84 114.94 258.93 120 270.44 134.61 263.96 124.17 254.84"/><polygon class="cls-2" points="96.54 273.08 91.23 280.16 103.09 288.18 111.51 276.97 96.54 273.08"/><polygon class="cls-2" points="84.47 299.49 84.48 307.67 99.97 310.05 99.97 297.1 84.47 299.49"/><polygon class="cls-2" points="91.23 326.98 96.54 334.08 111.51 330.19 103.09 318.97 91.23 326.98"/><polygon class="cls-2" points="114.94 348.22 124.17 352.31 134.61 343.19 120 336.73 114.94 348.22"/><polygon class="cls-2" points="149.33 357.49 159.97 357.49 163.07 345.59 146.22 345.59 149.33 357.49"/><polygon class="cls-2" points="185.11 352.31 194.33 348.22 189.28 336.73 174.67 343.19 185.11 352.31"/><polygon class="cls-2" points="212.73 334.08 218.06 326.98 206.2 318.97 197.77 330.19 212.73 334.08"/><polygon class="cls-2" points="224.8 307.67 224.8 299.49 209.32 297.1 209.32 310.05 224.8 307.67"/><polygon class="cls-2" points="218.06 280.16 212.73 273.08 197.77 276.97 206.2 288.18 218.06 280.16"/><polygon class="cls-2" points="194.33 258.93 185.1 254.85 174.67 263.96 189.28 270.42 194.33 258.93"/><path class="cls-2" d="M357.64,378.08c-30.55,0-55.31,19-55.31,42.51s24.76,42.49,55.31,42.49,55.32-19,55.32-42.49S388.2,378.08,357.64,378.08Zm0,62.9c-14.68,0-26.55-9.13-26.55-20.39s11.87-20.42,26.55-20.42,26.56,9.14,26.56,20.42S372.3,441,357.64,441Z" transform="translate(-203 -117)"/><polygon class="cls-3" points="245.86 203.91 239.54 203.91 237.69 210.97 247.7 210.97 245.86 203.91"/><polygon class="cls-3" points="224.6 206.98 219.12 209.41 222.12 216.24 230.8 212.39 224.6 206.98"/><polygon class="cls-3" points="208.2 217.81 205.04 222.01 212.08 226.78 217.08 220.12 208.2 217.81"/><polygon class="cls-3" points="201.03 233.49 201.03 238.35 210.23 239.76 210.23 232.07 201.03 233.49"/><polygon class="cls-3" points="205.04 249.82 208.2 254.03 217.08 251.72 212.08 245.06 205.04 249.82"/><polygon class="cls-3" points="219.12 262.43 224.6 264.85 230.8 259.44 222.13 255.6 219.12 262.43"/><polygon class="cls-3" points="239.54 267.93 245.86 267.93 247.7 260.86 237.69 260.86 239.54 267.93"/><polygon class="cls-3" points="260.79 264.85 266.26 262.43 263.26 255.6 254.59 259.44 260.79 264.85"/><polygon class="cls-3" points="277.19 254.03 280.35 249.82 273.31 245.06 268.31 251.72 277.19 254.03"/><polygon class="cls-3" points="284.35 238.35 284.35 233.49 275.16 232.07 275.16 239.76 284.35 238.35"/><polygon class="cls-3" points="280.35 222.01 277.19 217.81 268.31 220.12 273.31 226.78 280.35 222.01"/><polygon class="cls-3" points="266.26 209.41 260.78 206.99 254.59 212.39 263.26 216.23 266.26 209.41"/><path class="cls-3" d="M445.69,327.68c-18.14,0-32.84,11.3-32.84,25.25s14.7,25.22,32.84,25.22,32.85-11.28,32.85-25.22S463.84,327.68,445.69,327.68Zm0,37.35c-8.71,0-15.76-5.42-15.76-12.1S437,340.8,445.69,340.8s15.78,5.43,15.78,12.13S454.4,365,445.69,365Z" transform="translate(-203 -117)"/><path class="cls-4" d="M493.52,548.84l43.4,33.35C548,590.72,563.37,596,580.32,596s32.29-5.28,43.4-13.81l43.4-33.35-43.4-33.35c-11.11-8.53-26.45-13.81-43.4-13.81S548,507,536.92,515.49Z" transform="translate(-203 -117)"/><path class="cls-2" d="M445.78,130.18c9.25,0,17.42,4.49,21.23,10.14l16.6-6.28c-6.4-8.78-18-17-37.83-17-27.35,0-48.45,14.54-48.45,36.07s21.1,36.08,48.45,36.08c19.87,0,31.43-8.47,37.83-17.15L467,165.83C463.2,171.48,455,176,445.78,176c-16.6,0-28.58-9.72-28.58-22.9S429.18,130.18,445.78,130.18Z" transform="translate(-203 -117)"/><rect class="cls-5" x="368.83" y="1.2" width="136.11" height="7.75"/><rect class="cls-5" x="300.77" y="16.7" width="272.23" height="7.75"/><rect class="cls-5" x="300.77" y="32.2" width="272.23" height="7.75"/><rect class="cls-5" x="300.77" y="47.69" width="272.23" height="7.75"/><rect class="cls-5" x="300.77" y="63.19" width="136.11" height="7.75"/></svg>