<svg id="Layer_1" data-name="Layer 1" xmlns="http://www.w3.org/2000/svg" viewBox="0 0 816 628"><defs><style>.cls-1{fill:#23282b;}.cls-2{fill:#b2b2b2;}.cls-3{fill:#a1d13b;}.cls-4{fill:#fff;}</style></defs><path class="cls-1" d="M184.65,590.43c15,0,28.27,7.82,34.45,17.65L246,597.16c-10.37-15.28-29.16-29.64-61.39-29.64-44.43,0-78.65,25.28-78.65,62.74,0,37.28,34.22,62.74,78.65,62.74,32.23,0,51-14.73,61.39-29.82L219.1,652.45c-6.18,9.81-19.43,17.63-34.45,17.63-27,0-46.41-16.91-46.41-39.82S157.7,590.43,184.65,590.43Z" transform="translate(-106 -65)"/><rect class="cls-2" x="347.99" y="504.61" width="312.03" height="13.48"/><rect class="cls-2" x="192" y="531.56" width="624" height="13.48"/><rect class="cls-2" x="192" y="558.52" width="624" height="13.48"/><rect class="cls-2" x="192" y="585.47" width="624" height="13.48"/><rect class="cls-2" x="192" y="612.43" width="312.01" height="13.47"/><path class="cls-3" d="M564,65H335c-58.64,0-117.26,18.37-161.94,55.21S106,205.25,106,253.5V441.93H335c58.63,0,117.06-18.38,161.93-55.21C541.56,350,564,301.69,564,253.5Z" transform="translate(-106 -65)"/><path class="cls-4" d="M448.6,253.47C448.6,305.11,397.73,347,335,347c-31.35,0-59.76-10.48-80.32-27.4L335,253.47Z" transform="translate(-106 -65)"/><path class="cls-1" d="M335,159.94v93.53l-80.32,66.12c-20.57-16.91-33.29-40.29-33.29-66.12C221.38,201.8,272.27,159.94,335,159.94Z" transform="translate(-106 -65)"/><path class="cls-1" d="M383.28,153.17c-3.46-.91-7-1.68-10.55-2.32l-24.11,19.84v11Z" transform="translate(-106 -65)"/><path class="cls-1" d="M348.62,159.68l12.6-10.38c-4.14-.37-8.34-.58-12.6-.58Z" transform="translate(-106 -65)"/><path class="cls-1" d="M425.53,173.42l-76.91,63.31v5.52h6.69l76.9-63.32C430.08,177,427.84,175.18,425.53,173.42Z" transform="translate(-106 -65)"/><path class="cls-1" d="M402.08,159.7c-2.94-1.28-6-2.48-9-3.56L348.62,192.7v11Z" transform="translate(-106 -65)"/><path class="cls-1" d="M418.29,168.38q-3.78-2.4-7.82-4.58l-61.85,50.91v11Z" transform="translate(-106 -65)"/><path class="cls-1" d="M459.64,222.37a82.13,82.13,0,0,0-2.82-8.68l-34.67,28.56h13.36Z" transform="translate(-106 -65)"/><path class="cls-1" d="M453.23,205.66c-1.33-2.54-2.79-5-4.37-7.44l-53.45,44h13.34Z" transform="translate(-106 -65)"/><path class="cls-1" d="M462.24,242.25a76.3,76.3,0,0,0-.73-10.42l-12.65,10.42Z" transform="translate(-106 -65)"/><path class="cls-1" d="M443.9,191.32c-1.76-2.21-3.61-4.36-5.57-6.43l-69.66,57.36H382Z" transform="translate(-106 -65)"/></svg>