<svg id="Layer_1" data-name="Layer 1" xmlns="http://www.w3.org/2000/svg" viewBox="0 0 800 535"><defs><style>.cls-1{fill:#00b9c4;}.cls-2{fill:#fff;}.cls-3{fill:#b2b2b2;}.cls-4{fill:#23282b;}</style></defs><path class="cls-1" d="M486.8,176.07a37.64,37.64,0,0,0-9.33,20.14,13.07,13.07,0,0,0-.25,1.71,8.57,8.57,0,0,1-2.1,4.07,7.82,7.82,0,0,1-11.8,0L364.84,94,290,176.07c26,28.49,26,74.86.05,103.36s-68.29,28.48-94.26,0l-74.81,82,98.47,108a9.85,9.85,0,0,1,0,13,8.19,8.19,0,0,1-3.73,2.33,5.25,5.25,0,0,0-1.56.22,32.27,32.27,0,0,0-18.37,10.25c-13,14.27-13,37.44,0,51.71s34.13,14.27,47.15,0a38.39,38.39,0,0,0,9.32-20.07.08.08,0,0,1,0-.12,7.22,7.22,0,0,0,.22-1.67l.05-.07a9,9,0,0,1,2.07-4.07,7.92,7.92,0,0,1,11.81,0l98.44,108,74.83-82c-26-28.5-26-74.88,0-103.44s68.25-28.42,94.22.06l74.85-82.1-98.53-108a9.77,9.77,0,0,1,0-12.85,7.73,7.73,0,0,1,3.68-2.29l.06,0a8.44,8.44,0,0,0,1.56-.25s0,0,.06,0A32.35,32.35,0,0,0,534,227.74c13-14.27,13-37.43,0-51.67S499.81,161.79,486.8,176.07Z" transform="translate(-121 -94)"/><path class="cls-2" d="M398.79,373V307.22H369.71l-39.34,67.9v18.21h47.35v22.45h21.07V393.33h12.77V373Zm-21.07,0H351l26.72-45.27Z" transform="translate(-121 -94)"/><rect class="cls-3" x="617.92" y="267.52" width="117.32" height="14.32"/><rect class="cls-3" x="553.15" y="296.17" width="246.85" height="14.34"/><rect class="cls-3" x="553.15" y="324.83" width="246.85" height="14.34"/><rect class="cls-3" x="553.15" y="353.49" width="246.85" height="14.32"/><rect class="cls-3" x="553.15" y="382.15" width="123.42" height="14.32"/><path class="cls-4" d="M758.27,332.87h78.61V246.64H758.27Zm35.54-8.57h-9.7V313.68h9.7Zm0-19.48h-9.7V294.19h9.7Zm0-19.49h-9.7V274.7h9.7Zm25.83-30.11h9.69v10.63h-9.69Zm0,19.48h9.69v10.63h-9.69Zm0,19.49h9.69V324.3h-9.69Zm-17.76-39h9.69v10.63h-9.69Zm0,19.48h9.69v10.63h-9.69Zm0,19.49h9.69v10.63h-9.69Zm0,19.49h9.69V324.3h-9.69Zm-35.54-58.46h27.47v10.63H766.34Zm0,19.48H776v10.63h-9.69Zm0,19.49H776v10.63h-9.69Zm0,19.49H776V324.3h-9.69Z" transform="translate(-121 -94)"/><path class="cls-4" d="M758.27,203.9v38.38h78.61V203.9ZM829.33,234H765.82V212.18h63.51Z" transform="translate(-121 -94)"/></svg>