<svg id="Layer_1" data-name="Layer 1" xmlns="http://www.w3.org/2000/svg" viewBox="0 0 791 575"><defs><style>.cls-1{fill:#23282b;}.cls-2{fill:#b2b2b2;}.cls-3{fill:#a1d13b;}.cls-4{fill:#fff;}</style></defs><path class="cls-1" d="M805.58,496.64c10.47-1.81,19.1-9.74,19.1-21.29,0-12.4-10.77-23.67-31.87-23.67H734.48v92.85h60.16c21.25,0,32.23-11.14,32.23-25.2C826.87,507.78,817.56,498.18,805.58,496.64Zm-47.51-27.56h29.57c8,0,13,4.05,13,9.76,0,6-5,9.73-13,9.73H758.07Zm30.59,58.05H758.07V506h30.59c9.13,0,14.11,4.74,14.11,10.58C802.77,523.23,797.45,527.13,788.66,527.13Z" transform="translate(-106 -83)"/><rect class="cls-2" x="616.51" y="482.16" width="116.32" height="10.32"/><rect class="cls-2" x="558.35" y="502.78" width="232.65" height="10.31"/><rect class="cls-2" x="558.35" y="523.42" width="232.65" height="10.32"/><rect class="cls-2" x="558.35" y="544.05" width="232.65" height="10.31"/><rect class="cls-2" x="558.35" y="564.67" width="116.32" height="10.33"/><polygon class="cls-3" points="279.18 467.83 0 233.91 279.17 0 558.35 233.92 279.18 467.83"/><polygon class="cls-2" points="488.54 487.33 395.5 409.36 302.45 487.33 395.5 565.29 488.54 487.33"/><path class="cls-1" d="M385.15,235.7c-53.52,0-96.91,36.33-96.91,81.22s43.39,81.21,96.91,81.21,97-36.33,97-81.21S438.73,235.7,385.15,235.7Z" transform="translate(-106 -83)"/><path class="cls-4" d="M465.61,316.92c0,37.21-36,67.39-80.46,67.39s-80.43-30.18-80.43-67.39,36-67.4,80.43-67.4S465.61,279.7,465.61,316.92Z" transform="translate(-106 -83)"/><rect class="cls-1" x="274.59" y="195.02" width="9.1" height="30.5"/><rect class="cls-1" x="289.16" y="230.11" width="36.41" height="7.61"/><path class="cls-1" d="M402,316.92c0,7.78-7.56,14.11-16.86,14.11s-16.83-6.33-16.83-14.11,7.53-14.12,16.83-14.12S402,309.13,402,316.92Z" transform="translate(-106 -83)"/><path class="cls-4" d="M392.9,316.92c0,3.58-3.51,6.49-7.75,6.49s-7.72-2.91-7.72-6.49,3.45-6.51,7.72-6.51S392.9,313.33,392.9,316.92Z" transform="translate(-106 -83)"/><rect class="cls-1" x="274.59" y="165.81" width="9.1" height="10.47"/><rect class="cls-1" x="197.89" y="230.11" width="12.5" height="7.6"/><rect class="cls-1" x="274.59" y="291.53" width="9.1" height="10.49"/><rect class="cls-1" x="347.92" y="230.11" width="12.47" height="7.6"/></svg>