<svg width="482" height="482" xmlns="http://www.w3.org/2000/svg" xmlns:xlink="http://www.w3.org/1999/xlink" overflow="hidden"><defs><clipPath id="clip0"><rect x="399" y="119" width="482" height="482"/></clipPath><clipPath id="clip1"><rect x="400" y="120" width="480" height="480"/></clipPath><clipPath id="clip2"><rect x="400" y="120" width="480" height="480"/></clipPath><clipPath id="clip3"><rect x="400" y="120" width="480" height="480"/></clipPath></defs><g clip-path="url(#clip0)" transform="translate(-399 -119)"><g clip-path="url(#clip1)"><g clip-path="url(#clip2)"><g clip-path="url(#clip3)"><path d="M726.572 305.426C703.264 282.119 669.154 276.208 640.357 287.672L744.327 391.637C755.792 362.841 749.88 328.733 726.572 305.426Z" stroke="#FFC000" stroke-width="3.66667" fill="#505050"/><path d="M595.352 333.189C593.885 336.993 592.722 340.882 591.859 344.829L593.68 353.549 619.075 401.604 674.359 441.882C682.677 441.429 690.933 439.676 698.809 436.64 698.809 436.64 712.429 395.946 677.067 366.245 650.026 343.532 616.55 335.878 602.297 333.697 597.911 333.026 595.352 333.189 595.352 333.189Z" stroke="#FFC000" stroke-width="3.66667" fill="#737373"/><path d="M613.416 418.576C630.15 435.309 652.452 443.071 674.358 441.881 674.358 441.881 677.847 423.31 638.877 398.774 600.687 374.73 591.859 344.828 591.859 344.828 586.225 370.575 593.396 398.557 613.416 418.576Z" stroke="#FFC000" stroke-width="3.66667" fill="#505050"/><path d="M744.328 391.637C744.328 391.637 739.303 357.758 695.455 319.57 672.628 299.69 640.358 287.672 640.358 287.672 630.549 291.577 621.355 297.488 613.417 305.426 612.543 306.3 611.7 307.195 610.875 308.1L657.265 366.244 736.093 407.076C739.438 402.181 742.189 397.004 744.328 391.637Z" stroke="#FFC000" stroke-width="3.66667" fill="#2F2F2F"/><path d="M726.572 418.576C730.165 414.983 733.325 411.124 736.092 407.076 736.092 407.076 718.852 369.744 682.724 352.101 621.903 322.399 610.874 308.101 610.874 308.101 603.996 315.63 598.83 324.158 595.351 333.19 595.351 333.19 636.047 333.715 640.29 369.074 644.342 402.836 698.807 436.641 698.807 436.641 708.925 432.742 718.413 426.735 726.572 418.576Z" stroke="#FFC000" stroke-width="3.66667" fill="#505050"/><path d="M679.989 395.052C679.989 398.951 676.829 402.111 672.93 402.111 669.031 402.111 665.871 398.951 665.871 395.052 665.871 391.153 669.031 387.993 672.93 387.993 676.829 387.993 679.989 391.153 679.989 395.052Z" stroke="#FFC000" stroke-width="3.66667" fill="#737373"/><path d="M715.994 401.754C715.994 407.602 711.254 412.342 705.406 412.342 699.558 412.342 694.818 407.602 694.818 401.754 694.818 395.906 699.558 391.166 705.406 391.166 711.254 391.166 715.994 395.906 715.994 401.754Z" stroke="#FFC000" stroke-width="3.66667" fill="#FFC000"/><path d="M599.268 287.511C600.945 288.15 601.787 290.028 601.148 291.705 600.509 293.382 598.631 294.224 596.954 293.585 595.277 292.946 594.435 291.068 595.074 289.391 595.713 287.714 597.591 286.872 599.268 287.511Z" stroke="#FFC000" stroke-width="3.66671" fill="#FFC000"/><path d="M555.651 323.238C559.006 324.516 560.689 328.271 559.411 331.626 558.133 334.981 554.378 336.664 551.023 335.386 547.668 334.108 545.985 330.353 547.263 326.998 548.541 323.643 552.296 321.96 555.651 323.238Z" stroke="#FFC000" stroke-width="3.66671" fill="#505050"/><path d="M574.615 295.08C577.969 296.358 579.653 300.113 578.375 303.468 577.097 306.823 573.341 308.506 569.987 307.228 566.632 305.95 564.948 302.195 566.226 298.84 567.504 295.485 571.26 293.802 574.615 295.08Z" stroke="#FFC000" stroke-width="3.66671" fill="#F2F2F2"/><path d="M540.224 357.431C543.579 358.709 545.263 362.464 543.985 365.819 542.707 369.174 538.951 370.857 535.596 369.579 532.242 368.301 530.558 364.546 531.836 361.191 533.114 357.836 536.87 356.153 540.224 357.431Z" stroke="#FFC000" stroke-width="3.66671" fill="#FFC000"/><path d="M573.031 390.592C574.497 391.628 574.845 393.656 573.809 395.122 572.773 396.588 570.745 396.936 569.279 395.9 567.814 394.864 567.465 392.836 568.501 391.37 569.537 389.904 571.565 389.556 573.031 390.592Z" stroke="#FFC000" stroke-width="3.66666" fill="#FFC000"/></g></g></g></g></svg>