<svg viewBox="0 0 960 960" xmlns="http://www.w3.org/2000/svg" xmlns:xlink="http://www.w3.org/1999/xlink" id="e3f120cb-b24f-4883-90db-e723784d51d3" overflow="hidden"><g id="tray"><path d="M820.4 690 140.349 690C126.562 690 115.377 678.838 115.349 665.051L114.6 295.051C114.572 281.224 125.773 270 139.6 270L820.4 270C834.207 270 845.4 281.193 845.4 295L845.4 665C845.4 678.807 834.207 690 820.4 690Z" fill="#E6E6E6"/><path d="M290.4 470 160.4 470C146.593 470 135.4 458.807 135.4 445L135.4 315C135.4 301.193 146.593 290 160.4 290L290.4 290C304.207 290 315.4 301.193 315.4 315L315.4 445C315.4 458.807 304.207 470 290.4 470Z" fill="#D2D2D2"/><path d="M800.4 668 760.4 668C746.593 668 735.4 656.807 735.4 643L735.4 314.694C735.4 300.887 746.593 289.694 760.4 289.694L800.4 289.694C814.207 289.694 825.4 300.887 825.4 314.694L825.4 643C825.4 656.807 814.207 668 800.4 668Z" fill="#D2D2D2"/><path d="M798.65 657.56 764.65 657.56C752.914 657.56 743.4 648.046 743.4 636.31L743.4 333.25C743.4 321.514 752.914 312 764.65 312L798.65 312C810.386 312 819.9 321.514 819.9 333.25L819.9 636.31C819.9 648.047 810.386 657.56 798.65 657.56Z" fill="#737373"/><path d="M283.161 460 176 460C164.619 460 155.392 450.773 155.392 439.392L155.392 332.231C155.392 320.85 164.619 311.623 176 311.623L283.161 311.623C294.542 311.623 303.769 320.85 303.769 332.231L303.769 439.392C303.769 450.773 294.543 460 283.161 460Z" fill="#737373"/><path d="M360.4 670 160.4 670C146.593 670 135.4 658.807 135.4 645L135.4 515C135.4 501.193 146.593 490 160.4 490L360.4 490C374.207 490 385.4 501.193 385.4 515L385.4 645C385.4 658.807 374.207 670 360.4 670Z" fill="#D2D2D2"/><path d="M353.275 660 176.025 660C164.634 660 155.4 650.766 155.4 639.375L155.4 532.125C155.4 520.734 164.634 511.5 176.025 511.5L353.275 511.5C364.666 511.5 373.9 520.734 373.9 532.125L373.9 639.375C373.9 650.766 364.666 660 353.275 660Z" fill="#737373"/><path d="M690.4 670 430.4 670C416.593 670 405.4 658.807 405.4 645L405.4 515C405.4 501.193 416.593 490 430.4 490L690.4 490C704.207 490 715.4 501.193 715.4 515L715.4 645C715.4 658.807 704.207 670 690.4 670Z" fill="#D2D2D2"/><path d="M683.275 660 446.025 660C434.634 660 425.4 650.766 425.4 639.375L425.4 532.125C425.4 520.734 434.634 511.5 446.025 511.5L683.275 511.5C694.666 511.5 703.9 520.734 703.9 532.125L703.9 639.375C703.9 650.766 694.666 660 683.275 660Z" fill="#737373"/><path d="M690.4 470 560.4 470C546.593 470 535.4 458.807 535.4 445L535.4 315C535.4 301.193 546.593 290 560.4 290L690.4 290C704.207 290 715.4 301.193 715.4 315L715.4 445C715.4 458.807 704.207 470 690.4 470Z" fill="#D2D2D2"/><path d="M683.275 460 576.025 460C564.634 460 555.4 450.766 555.4 439.375L555.4 332.125C555.4 320.734 564.634 311.5 576.025 311.5L683.275 311.5C694.666 311.5 703.9 320.734 703.9 332.125L703.9 439.375C703.9 450.766 694.666 460 683.275 460Z" fill="#737373"/><path d="M490.4 470 360.4 470C346.593 470 335.4 458.807 335.4 445L335.4 315C335.4 301.193 346.593 290 360.4 290L490.4 290C504.207 290 515.4 301.193 515.4 315L515.4 445C515.4 458.807 504.207 470 490.4 470Z" fill="#D2D2D2"/><path d="M483.275 460 376.025 460C364.634 460 355.4 450.766 355.4 439.375L355.4 332.125C355.4 320.734 364.634 311.5 376.025 311.5L483.275 311.5C494.666 311.5 503.9 320.734 503.9 332.125L503.9 439.375C503.9 450.766 494.666 460 483.275 460Z" fill="#737373"/></g><g id="fries"><path d="M172.277 618.295C174.974 626.604 182.823 633.329 191.628 635.334 200.464 637.346 210.949 634.762 216.886 627.998 228.125 615.195 213.089 598.787 222.957 582.84 232.608 567.244 253.323 572.706 258.222 558.436 261.795 548.027 254.726 533.613 247 531.848 240.281 530.312 236.603 539.153 225.902 538.697 219.155 538.409 217.716 534.771 210.356 533.379 203.979 532.173 193.616 532.728 187.716 538.137 179.365 545.794 187.591 556.327 183.503 578.373 179.406 600.467 168.204 605.75 172.277 618.295Z" fill="#505050"/><path d="M332.856 553.998C336.957 560.308 339.42 564.097 342.856 563.998 347.096 563.876 349.941 557.916 350.856 555.998 351.464 554.724 356.261 544.313 350.856 537.998 344.628 530.721 329.215 533.974 326.856 539.998 325.691 542.974 328.08 546.648 332.856 553.998Z" fill="#505050"/><path d="M303.278 534C302.315 540.471 307.178 547.982 313.278 548 318.303 548.015 322.543 542.939 323.278 538 324.241 531.529 319.378 524.018 313.278 524 308.252 523.985 304.013 529.06 303.278 534Z" fill="#505050"/><g><rect x="232.892" y="549.759" width="15.193" height="117.79" fill="#FFC000" transform="matrix(0.4542 -0.8909 0.8909 0.4542 -410.988 546.43)"/><path d="M294.099 631.235C293.886 631.304 293.646 631.294 293.428 631.187L253.17 611.37C252.728 611.152 252.545 610.616 252.763 610.173 252.981 609.73 253.516 609.548 253.959 609.766L294.217 629.583C294.659 629.801 294.842 630.337 294.624 630.78 294.513 631.005 294.32 631.163 294.099 631.235Z" fill="#FFFFFF"/></g><g><path d="M298.186 640.641 293.535 655.104 181.409 619.05C181.404 619.048 181.401 619.043 181.403 619.037L186.048 604.593C186.05 604.588 186.055 604.585 186.061 604.587L298.186 640.641Z" fill="#FFC000"/><path d="M210.958 612.024C210.961 612.025 210.961 612.023 210.962 612.026 211.002 612.11 216.073 622.734 218.685 624.067 224.221 626.89 229.381 624.372 233.069 627.854 235.476 630.127 236.385 634.505 236.333 637.201 218.702 631.659 182.742 620.007 180.753 619.362 180.701 619.345 180.68 619.292 180.697 619.239L185.57 603.896C185.587 603.843 185.643 603.814 185.696 603.831L210.958 612.024Z" fill="#2F2F2F"/></g><g><rect x="263.964" y="541.683" width="15.193" height="117.79" fill="#FFC000" transform="matrix(0.4542 -0.8909 0.8909 0.4542 -386.835 569.704)"/><path d="M250.292 584.868C250.08 584.937 249.842 584.927 249.627 584.822L221.754 571.32C221.31 571.105 221.124 570.57 221.339 570.126 221.554 569.682 222.09 569.496 222.533 569.711L250.406 583.213C250.85 583.428 251.036 583.963 250.821 584.407 250.71 584.636 250.515 584.796 250.292 584.868Z" fill="#FFFFFF"/></g><g><path d="M316.158 592.602 309.257 606.137 204.32 552.633 211.221 539.098 270.226 574.44Z" fill="#FFC000"/><path d="M280.061 581.583C279.832 581.657 279.574 581.639 279.347 581.512L211.537 543.391C211.107 543.149 210.954 542.604 211.196 542.174 211.439 541.744 211.983 541.591 212.413 541.833L280.223 579.954C280.653 580.196 280.806 580.741 280.564 581.171 280.45 581.374 280.267 581.516 280.061 581.583Z" fill="#FFFFFF"/></g><g><rect x="301.722" y="506.625" width="15.193" height="117.79" fill="#FFC000" transform="matrix(0.4542 -0.8909 0.8909 0.4542 -334.996 584.209)"/><path d="M289.745 549.543C289.533 549.612 289.295 549.602 289.08 549.497L261.207 535.995C260.763 535.78 260.577 535.245 260.792 534.801 261.007 534.357 261.543 534.171 261.986 534.386L289.859 547.888C290.303 548.103 290.489 548.638 290.274 549.082 290.163 549.311 289.968 549.471 289.745 549.543Z" fill="#FFFFFF"/></g><g><rect x="275.885" y="506.625" width="15.193" height="117.79" fill="#FFC000" transform="matrix(0.4542 -0.8909 0.8909 0.4542 -349.097 561.19)"/><path d="M337.358 588.301C337.145 588.37 336.905 588.36 336.687 588.253L296.429 568.436C295.987 568.218 295.804 567.682 296.022 567.239 296.24 566.796 296.775 566.614 297.218 566.832L337.476 586.649C337.918 586.867 338.101 587.403 337.883 587.846 337.772 588.071 337.579 588.229 337.358 588.301Z" fill="#FFFFFF"/></g></g><g id="fruit"><g><path d="M480.19 388.121C474.743 396.778 464.572 399.273 454.873 400.89 443.819 402.732 436.642 407.651 431.122 402.217 421.255 392.501 433.075 364.498 444.458 352.939 455.841 341.379 463.888 349.206 473.755 358.922 483.622 368.636 486.395 378.258 480.19 388.121Z" fill="#FFC000"/><path d="M499.995 354.837 499.969 354.819C497.942 353.48 495.75 352.551 493.465 351.98 491.178 351.425 488.809 351.272 486.513 351.528 484.216 351.79 481.989 352.456 479.969 353.468 478.854 354.029 477.808 354.697 476.828 355.444 476.82 355.45 476.81 355.443 476.813 355.434 477.696 353.261 478.456 350.309 478.899 347.002 479.814 340.167 477.167 334.147 477.062 333.912 477.059 333.905 477.059 333.905 477.054 333.911 476.891 334.11 472.753 339.221 471.838 346.056 471.549 348.217 471.428 350.271 471.458 352.085 471.458 352.094 471.447 352.098 471.441 352.091 470.372 350.683 469.061 349.189 467.561 347.712 462.647 342.874 456.244 341.372 455.994 341.315 455.987 341.313 455.986 341.314 455.988 341.321 456.049 341.57 457.649 347.95 462.563 352.788 466.742 356.903 471.031 359.568 473.144 359.531 473.149 359.531 473.152 359.534 473.152 359.539 473.148 361.652 475.879 365.9 480.058 370.015 484.972 374.853 491.375 376.355 491.625 376.412 491.632 376.414 491.633 376.413 491.631 376.406 491.57 376.157 489.97 369.777 485.056 364.939 481.678 361.613 478.228 359.234 475.912 358.461 475.904 358.458 475.903 358.449 475.91 358.444 477.427 357.256 479.138 356.322 480.923 355.693 482.798 355.037 484.753 354.724 486.687 354.75 488.622 354.783 490.516 355.159 492.283 355.835 494.042 356.52 495.697 357.501 497.069 358.691 497.145 358.756 497.236 358.826 497.321 358.882 498.701 359.793 500.668 359.112 501.06 357.28 501.261 356.339 500.793 355.376 499.995 354.837Z" fill="#505050"/><g><path d="M461.342 367.564C461.073 367.564 460.809 367.429 460.656 367.184 460.419 366.806 460.534 366.307 460.913 366.07L464.307 363.948C464.687 363.711 465.185 363.827 465.421 364.205 465.658 364.583 465.543 365.082 465.164 365.319L461.77 367.441C461.636 367.524 461.488 367.564 461.342 367.564Z" fill="#FFFFFF"/><path d="M468.978 375.083C468.709 375.083 468.445 374.948 468.292 374.703 468.055 374.325 468.17 373.826 468.549 373.589L471.943 371.467C472.323 371.23 472.821 371.345 473.057 371.724 473.294 372.102 473.179 372.601 472.8 372.838L469.406 374.96C469.272 375.043 469.124 375.083 468.978 375.083Z" fill="#FFFFFF"/><path d="M476.614 382.601C476.345 382.601 476.081 382.466 475.928 382.221 475.691 381.843 475.806 381.344 476.185 381.107L479.578 378.985C479.958 378.748 480.455 378.864 480.692 379.242 480.929 379.621 480.814 380.119 480.435 380.356L477.042 382.478C476.908 382.561 476.76 382.601 476.614 382.601Z" fill="#FFFFFF"/><path d="M453.078 378.878C452.809 378.878 452.545 378.743 452.392 378.498 452.155 378.12 452.27 377.621 452.649 377.384L456.15 375.195C456.529 374.958 457.028 375.074 457.264 375.452 457.501 375.83 457.386 376.329 457.007 376.566L453.506 378.755C453.373 378.838 453.224 378.878 453.078 378.878Z" fill="#FFFFFF"/><path d="M431.449 394.436C431.18 394.436 430.916 394.301 430.763 394.056 430.526 393.678 430.641 393.179 431.02 392.942L434.521 390.753C434.9 390.516 435.399 390.631 435.635 391.01 435.872 391.388 435.757 391.887 435.378 392.124L431.877 394.313C431.744 394.397 431.595 394.436 431.449 394.436Z" fill="#FFFFFF"/><path d="M454.936 361.256C454.667 361.256 454.403 361.121 454.25 360.876 454.013 360.498 454.128 359.999 454.507 359.762L457.9 357.64C458.279 357.403 458.778 357.519 459.014 357.897 459.251 358.275 459.136 358.774 458.757 359.011L455.364 361.133C455.23 361.216 455.082 361.256 454.936 361.256Z" fill="#FFFFFF"/><path d="M446.672 372.57C446.403 372.57 446.139 372.435 445.986 372.19 445.749 371.812 445.864 371.313 446.243 371.076L449.744 368.887C450.124 368.65 450.622 368.765 450.858 369.144 451.095 369.522 450.98 370.021 450.601 370.258L447.1 372.447C446.966 372.53 446.818 372.57 446.672 372.57Z" fill="#FFFFFF"/><path d="M460.714 386.396C460.445 386.396 460.181 386.261 460.028 386.016 459.791 385.638 459.906 385.139 460.285 384.902L463.786 382.713C464.165 382.476 464.664 382.592 464.9 382.97 465.137 383.348 465.022 383.847 464.643 384.084L461.142 386.273C461.009 386.357 460.86 386.396 460.714 386.396Z" fill="#FFFFFF"/><path d="M445.441 390.635C445.172 390.635 444.908 390.5 444.755 390.255 444.518 389.877 444.633 389.378 445.012 389.141L448.405 387.019C448.785 386.782 449.283 386.897 449.519 387.276 449.756 387.654 449.641 388.153 449.262 388.39L445.869 390.512C445.735 390.595 445.587 390.635 445.441 390.635Z" fill="#FFFFFF"/><path d="M438.698 383.995C438.429 383.995 438.165 383.86 438.012 383.615 437.775 383.237 437.89 382.738 438.269 382.501L441.662 380.379C442.041 380.142 442.54 380.258 442.776 380.636 443.013 381.014 442.898 381.513 442.519 381.75L439.126 383.872C438.992 383.955 438.844 383.995 438.698 383.995Z" fill="#FFFFFF"/></g></g><g><ellipse cx="420.121" cy="417.118" rx="13.78" ry="13.78" fill="#2F2F2F" transform="matrix(0.9899 -0.1416 0.1416 0.9899 -54.8451 63.7114)"/><path d="M431.417 411.632 427.647 412.855 428.533 416.72C428.535 416.73 428.524 416.736 428.517 416.73L425.57 414.076 422.664 416.775C422.657 416.782 422.645 416.775 422.647 416.766L423.473 412.887 419.685 411.723C419.676 411.72 419.676 411.707 419.685 411.704L423.455 410.481 422.569 406.616C422.567 406.606 422.578 406.6 422.585 406.606L425.532 409.26 428.438 406.561C428.445 406.554 428.457 406.561 428.455 406.57L427.629 410.449 431.417 411.613C431.426 411.616 431.426 411.629 431.417 411.632Z" fill="#505050"/></g><g><ellipse cx="401.752" cy="437.182" rx="16.346" ry="16.346" fill="#2F2F2F" transform="matrix(0.9899 -0.1416 0.1416 0.9899 -57.8727 61.3123)"/><path d="M405.263 437.885 401.493 439.108 402.379 442.973C402.381 442.983 402.37 442.989 402.363 442.983L399.416 440.329 396.51 443.028C396.503 443.035 396.491 443.028 396.493 443.019L397.319 439.14 393.531 437.976C393.522 437.973 393.522 437.96 393.531 437.957L397.301 436.734 396.415 432.869C396.413 432.859 396.424 432.853 396.431 432.859L399.378 435.513 402.284 432.814C402.291 432.807 402.303 432.814 402.301 432.823L401.475 436.702 405.263 437.866C405.272 437.868 405.272 437.882 405.263 437.885Z" fill="#505050"/></g><g><g><ellipse cx="399.954" cy="358.154" rx="32.331" ry="32.33" fill="#E6E6E6" transform="matrix(0.6958 -0.7182 0.7182 0.6958 -135.573 396.212)"/></g><path d="M399.954 382.402C386.562 382.402 375.706 371.546 375.706 358.154 375.706 344.762 386.562 333.906 399.954 333.906 413.346 333.906 424.202 344.762 424.202 358.154 424.202 371.546 413.346 382.402 399.954 382.402Z" fill="#D2D2D2"/><g><path d="M399.77 346.838C399.781 346.918 399.843 346.984 399.927 346.996 400.029 347.011 400.124 346.94 400.138 346.838L401.303 338.755C401.32 338.631 401.322 338.496 401.303 338.366 401.196 337.621 400.505 337.104 399.76 337.212 399.015 337.319 398.498 338.01 398.605 338.755L399.77 346.838Z" fill="#E6E6E6"/><path d="M394.454 339.099C394.098 338.436 393.272 338.186 392.609 338.542 391.945 338.898 391.696 339.724 392.052 340.387L395.91 347.584C395.949 347.655 396.03 347.696 396.113 347.678 396.213 347.657 396.278 347.558 396.257 347.458L394.587 339.465C394.561 339.342 394.516 339.215 394.454 339.099Z" fill="#E6E6E6"/><path d="M392.539 349.604C392.599 349.658 392.69 349.668 392.762 349.623 392.849 349.569 392.876 349.454 392.822 349.367L388.519 342.427C388.453 342.321 388.367 342.217 388.269 342.129 387.709 341.627 386.847 341.676 386.345 342.237 385.843 342.798 385.891 343.66 386.452 344.161L392.539 349.604Z" fill="#E6E6E6"/><path d="M382.48 349.623 390.062 352.656C390.137 352.686 390.225 352.665 390.277 352.598 390.34 352.517 390.327 352.4 390.245 352.337L383.828 347.287C383.729 347.21 383.613 347.141 383.492 347.093 382.793 346.814 381.999 347.153 381.72 347.852 381.441 348.551 381.781 349.343 382.48 349.623Z" fill="#E6E6E6"/><path d="M380.616 356.114 388.778 356.371C388.859 356.374 388.934 356.323 388.961 356.243 388.993 356.145 388.94 356.04 388.842 356.008L381.085 353.458C380.966 353.42 380.833 353.395 380.702 353.39 379.95 353.366 379.321 353.957 379.297 354.709 379.273 355.461 379.864 356.09 380.616 356.114Z" fill="#E6E6E6"/><path d="M388.97 360.117C388.967 360.014 388.881 359.934 388.778 359.937L380.616 360.194C380.491 360.199 380.358 360.22 380.233 360.262 379.518 360.497 379.129 361.267 379.364 361.982 379.599 362.697 380.369 363.086 381.084 362.851L388.841 360.301C388.919 360.275 388.973 360.202 388.97 360.117Z" fill="#E6E6E6"/><path d="M390.305 363.756C390.266 363.661 390.158 363.614 390.063 363.652L382.481 366.685C382.365 366.732 382.247 366.798 382.145 366.879 381.553 367.344 381.451 368.201 381.917 368.793 382.382 369.384 383.239 369.487 383.83 369.021L390.247 363.971C390.309 363.921 390.335 363.834 390.305 363.756Z" fill="#E6E6E6"/><path d="M392.802 366.718C392.733 366.641 392.616 366.635 392.539 366.703L386.452 372.146C386.359 372.23 386.271 372.332 386.202 372.444 385.806 373.084 386.002 373.924 386.642 374.32 387.281 374.717 388.121 374.52 388.518 373.88L392.821 366.94C392.864 366.872 392.859 366.781 392.802 366.718Z" fill="#E6E6E6"/><path d="M395.91 368.724 392.052 375.921C391.994 376.032 391.945 376.158 391.919 376.286 391.765 377.023 392.238 377.745 392.974 377.899 393.711 378.053 394.433 377.581 394.587 376.844L396.257 368.85C396.274 368.771 396.237 368.688 396.163 368.648 396.072 368.599 395.959 368.633 395.91 368.724Z" fill="#E6E6E6"/><path d="M400.138 369.469C400.127 369.389 400.065 369.323 399.981 369.311 399.879 369.296 399.784 369.367 399.77 369.469L398.605 377.552C398.588 377.676 398.586 377.811 398.605 377.941 398.712 378.686 399.403 379.203 400.148 379.095 400.893 378.988 401.41 378.297 401.303 377.552L400.138 369.469Z" fill="#E6E6E6"/><path d="M403.998 368.724C403.959 368.653 403.878 368.612 403.795 368.63 403.695 368.651 403.63 368.75 403.651 368.85L405.321 376.844C405.347 376.966 405.392 377.093 405.454 377.209 405.81 377.872 406.636 378.122 407.299 377.766 407.963 377.41 408.212 376.584 407.856 375.921L403.998 368.724Z" fill="#E6E6E6"/><path d="M407.369 366.704C407.309 366.65 407.218 366.64 407.146 366.685 407.059 366.739 407.032 366.854 407.086 366.941L411.389 373.881C411.455 373.987 411.541 374.091 411.639 374.179 412.199 374.681 413.061 374.632 413.563 374.071 414.065 373.51 414.017 372.649 413.456 372.147L407.369 366.704Z" fill="#E6E6E6"/><path d="M417.428 366.685 409.846 363.652C409.771 363.622 409.683 363.643 409.631 363.71 409.568 363.791 409.581 363.908 409.663 363.971L416.08 369.021C416.179 369.098 416.295 369.167 416.416 369.215 417.115 369.495 417.909 369.155 418.188 368.456 418.467 367.757 418.127 366.964 417.428 366.685Z" fill="#E6E6E6"/><path d="M419.292 360.194 411.13 359.937C411.049 359.935 410.974 359.985 410.947 360.065 410.915 360.163 410.968 360.268 411.066 360.3L418.823 362.85C418.942 362.888 419.075 362.913 419.206 362.917 419.958 362.941 420.587 362.35 420.611 361.598 420.635 360.846 420.044 360.218 419.292 360.194Z" fill="#E6E6E6"/><path d="M410.938 356.19C410.941 356.293 411.027 356.373 411.13 356.37L419.292 356.113C419.417 356.108 419.55 356.087 419.675 356.045 420.39 355.81 420.779 355.04 420.544 354.325 420.309 353.61 419.539 353.221 418.824 353.456L411.067 356.006C410.99 356.033 410.935 356.106 410.938 356.19Z" fill="#E6E6E6"/><path d="M409.603 352.552C409.642 352.647 409.75 352.694 409.845 352.656L417.427 349.623C417.543 349.576 417.661 349.51 417.763 349.429 418.355 348.964 418.457 348.107 417.991 347.515 417.526 346.924 416.669 346.821 416.078 347.287L409.661 352.337C409.599 352.386 409.573 352.473 409.603 352.552Z" fill="#E6E6E6"/><path d="M407.106 349.589C407.175 349.666 407.292 349.672 407.369 349.604L413.456 344.161C413.549 344.077 413.637 343.975 413.706 343.863 414.102 343.223 413.906 342.383 413.266 341.987 412.627 341.59 411.787 341.787 411.39 342.427L407.087 349.367C407.044 349.435 407.049 349.526 407.106 349.589Z" fill="#E6E6E6"/><path d="M403.998 347.583 407.856 340.386C407.914 340.275 407.963 340.149 407.989 340.021 408.143 339.284 407.67 338.562 406.934 338.408 406.197 338.254 405.475 338.727 405.321 339.463L403.651 347.456C403.634 347.535 403.671 347.618 403.745 347.658 403.836 347.708 403.949 347.674 403.998 347.583Z" fill="#E6E6E6"/></g></g><g><path d="M477.025 382.921C492.808 398.704 492.809 424.293 477.027 440.075 461.245 455.858 435.657 455.858 419.874 440.075L477.025 382.921Z" fill="#FFC000"/><path d="M472.37 387.55C485.502 400.681 485.502 421.971 472.372 435.103 459.241 448.234 437.952 448.234 424.82 435.103L472.37 387.55Z" fill="#FFFFFF"/><path d="M445.218 416.815C444.808 416.815 444.204 416.93 443.657 417.477L429.892 431.249C429.442 431.7 429.204 432.324 429.239 432.961 429.275 433.607 429.572 434.184 430.076 434.587 434.36 438.012 439.52 440.16 444.998 440.797 445.085 440.807 445.172 440.812 445.256 440.812 446.481 440.812 447.477 439.804 447.477 438.566L447.477 419.058C447.477 417.654 446.328 416.815 445.218 416.815Z" fill="#E6E6E6"/><path d="M452.913 417.474C452.366 416.927 451.763 416.812 451.353 416.812 450.242 416.812 449.093 417.651 449.093 419.056L449.093 438.601C449.093 439.839 450.091 440.847 451.317 440.847 451.395 440.847 451.473 440.843 451.552 440.835 457.065 440.255 462.276 438.145 466.625 434.734 467.127 434.34 467.437 433.747 467.476 433.108 467.515 432.466 467.277 431.838 466.823 431.384L452.913 417.474Z" fill="#F2F2F2"/><path d="M468.177 392.917 454.045 407.075C453.267 407.855 453.285 408.846 453.562 409.513 453.839 410.18 454.527 410.893 455.629 410.893L475.555 410.893C476.19 410.893 476.8 410.622 477.227 410.149 477.655 409.674 477.855 409.065 477.789 408.433 477.204 402.795 475.029 397.485 471.497 393.077 471.079 392.555 470.45 392.255 469.772 392.255 469.169 392.256 468.603 392.491 468.177 392.917Z" fill="#F2F2F2"/><path d="M475.51 412.51 455.639 412.51C454.536 412.51 453.848 413.224 453.572 413.891 453.295 414.559 453.278 415.55 454.057 416.33L468.013 430.286C468.438 430.711 469.005 430.946 469.607 430.946 470.276 430.946 470.901 430.652 471.319 430.14 474.859 425.807 477.08 420.57 477.741 414.997 477.816 414.363 477.622 413.75 477.195 413.268 476.767 412.786 476.153 412.51 475.51 412.51Z" fill="#E6E6E6"/><path d="M462.002 408.288C460.815 408.909 456.579 408.39 456.579 408.39 456.579 408.39 458.565 404.612 459.751 403.991 460.938 403.37 462.404 403.828 463.025 405.015 463.647 406.2 463.188 407.666 462.002 408.288Z" fill="#D2D2D2"/><path d="M440.832 422.715C441.417 421.51 445.132 419.41 445.132 419.41 445.132 419.41 445.781 423.628 445.196 424.833 444.611 426.038 443.16 426.541 441.955 425.956 440.75 425.372 440.247 423.92 440.832 422.715Z" fill="#737373"/></g><g><path d="M402.794 424.638C402.893 426.296 402.326 427.984 401.05 429.241 398.815 431.442 395.299 431.494 392.972 429.47L392.941 429.504 366.184 402.329C365.719 401.857 365.465 401.21 365.494 400.548 365.716 395.542 369.041 393.342 372.213 393.58 372.114 391.923 372.681 390.234 373.957 388.977 376.303 386.667 380.079 386.696 382.389 389.042 382.599 389.256 382.768 389.493 382.94 389.728 383.199 388.71 383.71 387.742 384.514 386.951 386.86 384.641 390.636 384.67 392.946 387.016 393.156 387.23 393.325 387.467 393.497 387.702 393.756 386.684 394.267 385.716 395.071 384.925 397.417 382.615 401.193 382.644 403.503 384.99 403.599 385.087 403.666 385.2 403.753 385.302 406.109 383.169 409.74 383.237 411.991 385.523 414.241 387.808 414.253 391.437 412.088 393.759 414.152 396.117 414.066 399.692 411.804 401.919 411.001 402.71 410.025 403.206 409.003 403.449 409.235 403.624 409.47 403.797 409.68 404.01 411.99 406.356 411.961 410.132 409.615 412.442 408.812 413.233 407.836 413.729 406.814 413.972 407.046 414.147 407.281 414.32 407.491 414.533 409.801 416.879 409.772 420.655 407.426 422.965 406.147 424.222 404.45 424.762 402.794 424.638Z" fill="#505050"/><g><path d="M385.222 404.33C380.447 404.938 380.4 411.06 385.165 411.742 389.939 411.134 389.987 405.013 385.222 404.33Z" fill="#737373"/><path d="M386.15 393.375C381.375 393.983 381.328 400.105 386.093 400.787 390.868 400.179 390.915 394.058 386.15 393.375Z" fill="#737373"/><path d="M376.693 396.887C371.918 397.495 371.871 403.617 376.636 404.299 381.411 403.691 381.458 397.57 376.693 396.887Z" fill="#737373"/><path d="M403.526 401.452C404.391 396.717 398.572 394.819 396.479 399.154 396.479 399.154 396.479 399.154 396.479 399.154 395.614 403.889 401.434 405.787 403.526 401.452L403.526 401.452Z" fill="#737373"/><path d="M399.338 385.934C394.563 386.542 394.516 392.664 399.281 393.346 404.055 392.738 404.103 386.616 399.338 385.934Z" fill="#737373"/></g><path d="M380.015 418.645C380.02 418.639 380.029 418.639 380.032 418.646 380.782 420.345 382.43 422.63 384.639 424.873 388.299 428.59 393.137 429.776 393.232 429.799 393.236 429.8 393.234 429.802 393.233 429.798 393.212 429.703 392.101 424.847 388.441 421.13 385.36 418 382.179 415.955 380.596 415.957 380.591 415.957 380.589 415.954 380.589 415.949 380.616 414.366 378.62 411.154 375.538 408.025 371.878 404.308 367.04 403.122 366.945 403.099 366.941 403.098 366.943 403.096 366.944 403.1 366.965 403.195 368.076 408.051 371.736 411.768 372.841 412.89 373.958 413.87 375.011 414.67 375.018 414.676 375.015 414.686 375.005 414.686 373.648 414.664 372.111 414.754 370.495 414.971 365.324 415.663 361.47 418.818 361.395 418.88 361.392 418.883 361.392 418.88 361.395 418.882 361.484 418.922 366.032 420.952 371.203 420.26 373.248 419.986 375.11 419.55 376.616 419.034 376.625 419.031 376.634 419.037 376.629 419.045 376.206 419.687 375.885 420.226 375.577 420.86 374.814 422.435 374.324 424.165 374.144 425.939 373.97 427.712 374.112 429.535 374.56 431.284 375.02 433.033 375.752 434.698 376.796 436.237L376.812 436.261C376.854 436.322 376.899 436.381 376.947 436.438 377.764 437.405 379.255 437.467 380.149 436.517 380.906 435.713 380.852 434.443 380.148 433.592 379.329 432.602 378.655 431.417 378.189 430.172 377.715 428.885 377.462 427.514 377.455 426.118 377.453 424.723 377.695 423.321 378.183 421.978 378.615 420.795 379.243 419.659 380.015 418.645Z" fill="#2F2F2F"/></g><g><ellipse cx="371.053" cy="466.346" rx="16.346" ry="16.346" fill="#505050" transform="matrix(0.9899 -0.1416 0.1416 0.9899 -62.313 57.2581)"/><path d="M374.565 467.049 370.795 468.272 371.681 472.137C371.683 472.147 371.672 472.153 371.665 472.147L368.718 469.493 365.812 472.192C365.805 472.199 365.793 472.192 365.795 472.183L366.621 468.304 362.833 467.14C362.824 467.137 362.824 467.124 362.833 467.121L366.603 465.898 365.717 462.033C365.715 462.023 365.726 462.017 365.733 462.023L368.68 464.677 371.586 461.978C371.593 461.971 371.605 461.978 371.603 461.987L370.777 465.866 374.565 467.03C374.574 467.032 374.574 467.046 374.565 467.049Z" fill="#2F2F2F"/></g></g><g id="cookie"><path d="M639.022 430.99C639.022 424.648 642.878 419.218 648.372 416.893 650.382 416.042 651.622 414.036 651.4 411.864 651.192 409.831 651.252 407.719 651.625 405.56 653.355 395.542 661.663 387.76 671.772 386.683 674.671 386.374 677.471 386.612 680.09 387.298 681.387 387.638 682.648 386.689 682.682 385.349 682.691 384.984 682.696 384.618 682.696 384.251 682.696 354.199 657.981 329.92 627.768 330.631 599.316 331.301 576.111 354.505 575.441 382.958 574.73 413.171 599.009 437.886 629.061 437.886 631.636 437.886 634.168 437.702 636.646 437.349 638.412 437.098 639.576 435.433 639.261 433.677 639.104 432.806 639.022 431.908 639.022 430.99Z" fill="#FFC000"/><path d="M632.9 432.367C632.488 432.367 632.147 432.039 632.135 431.623 632.129 431.413 632.126 431.202 632.126 430.99 632.126 423.217 636.312 415.897 643.051 411.887 643.888 411.39 644.387 410.52 644.386 409.56 644.386 393.058 657.791 379.653 674.269 379.653 674.693 379.653 675.035 379.996 675.035 380.419 675.035 380.842 674.692 381.185 674.269 381.185 658.636 381.185 645.919 393.903 645.919 409.535 645.92 411.065 645.141 412.427 643.835 413.204 637.559 416.939 633.659 423.754 633.659 430.989 633.659 431.186 633.662 431.382 633.668 431.577 633.68 432 633.348 432.353 632.924 432.365 632.916 432.367 632.909 432.367 632.9 432.367Z" fill="#FFFFFF"/><g><circle cx="600.711" cy="349.771" r="4.597" fill="#2F2F2F"/><circle cx="600.711" cy="373.524" r="6.13" fill="#737373"/><circle cx="601.435" cy="405.986" r="4.597" fill="#505050"/><circle cx="592.283" cy="398.043" r="4.597" fill="#737373"/><path d="M618.952 366.253C618.952 366.253 616.894 368.177 614.355 368.177 611.816 368.177 609.758 366.253 609.758 366.253 609.758 366.253 611.816 364.329 614.355 364.329 616.894 364.329 618.952 366.253 618.952 366.253Z" fill="#505050"/><path d="M589.404 377.166C589.404 377.166 586.588 377.071 584.793 375.276 582.998 373.481 582.903 370.665 582.903 370.665 582.903 370.665 585.719 370.76 587.514 372.555 589.309 374.35 589.404 377.166 589.404 377.166Z" fill="#505050"/><path d="M623.698 404.545C623.698 404.545 620.882 404.45 619.087 402.655 617.292 400.86 617.197 398.044 617.197 398.044 617.197 398.044 620.013 398.139 621.808 399.934 623.603 401.729 623.698 404.545 623.698 404.545Z" fill="#FFFFFF"/><path d="M620.819 379.84C620.819 379.84 618.003 379.745 616.208 377.95 614.413 376.155 614.318 373.339 614.318 373.339 614.318 373.339 617.134 373.434 618.929 375.229 620.724 377.024 620.819 379.84 620.819 379.84Z" fill="#FFFFFF"/><path d="M608.559 382.141C608.559 382.141 608.464 384.957 606.669 386.752 604.874 388.547 602.058 388.642 602.058 388.642 602.058 388.642 602.153 385.826 603.948 384.031 605.743 382.236 608.559 382.141 608.559 382.141Z" fill="#FFFFFF"/><path d="M615.641 344.408C615.641 344.408 615.546 347.224 613.751 349.019 611.956 350.814 609.14 350.909 609.14 350.909 609.14 350.909 609.235 348.093 611.03 346.298 612.825 344.503 615.641 344.408 615.641 344.408Z" fill="#FFFFFF"/><path d="M666.606 355.135C666.606 355.135 666.511 357.951 664.716 359.746 662.921 361.541 660.105 361.636 660.105 361.636 660.105 361.636 660.2 358.82 661.995 357.025 663.79 355.23 666.606 355.135 666.606 355.135Z" fill="#FFFFFF"/><path d="M617.185 419.689C617.185 421.593 615.641 421.988 613.737 421.988 611.833 421.988 610.289 421.594 610.289 419.689 610.289 417.785 613.737 413.942 613.737 413.942 613.737 413.942 617.185 417.784 617.185 419.689Z" fill="#2F2F2F"/><path d="M665.84 365.862C667.744 365.862 668.139 367.406 668.139 369.31 668.139 371.214 667.745 372.758 665.84 372.758 663.936 372.758 660.093 369.31 660.093 369.31 660.093 369.31 663.935 365.862 665.84 365.862Z" fill="#505050"/></g><g><path d="M667.564 403.79C669.468 403.79 669.863 405.334 669.863 407.238 669.863 409.142 669.469 410.686 667.564 410.686 665.66 410.686 661.817 407.238 661.817 407.238 661.817 407.238 665.659 403.79 667.564 403.79Z" fill="#D2D2D2"/><circle cx="653.58" cy="429.458" r="3.448" fill="#505050"/><path d="M668.51 431.757C668.51 431.757 665.694 431.662 663.899 429.867 662.104 428.072 662.009 425.256 662.009 425.256 662.009 425.256 664.825 425.351 666.62 427.146 668.415 428.941 668.51 431.757 668.51 431.757Z" fill="#505050"/><path d="M663.248 443.251C663.248 443.251 661.19 445.175 658.651 445.175 656.112 445.175 654.054 443.251 654.054 443.251 654.054 443.251 656.112 441.327 658.651 441.327 661.19 441.327 663.248 443.251 663.248 443.251Z" fill="#D2D2D2"/><path d="M676.938 414.528C676.938 414.528 676.843 417.344 675.048 419.139 673.253 420.934 670.437 421.029 670.437 421.029 670.437 421.029 670.532 418.213 672.327 416.418 674.123 414.623 676.938 414.528 676.938 414.528Z" fill="#505050"/></g></g><g id="salad"><g><path d="M229.749 393.096C225.136 388.483 223.853 384.635 225.172 380.804 226.907 375.766 232.274 371.735 232.436 366.528 232.598 361.307 228.157 356.713 226.076 351.827 224.081 347.139 223.94 340.731 219.88 337.059 219.131 336.381 218.308 335.836 217.438 335.378 216.827 336.588 215.914 337.853 214.742 339.025 211.554 342.213 207.676 343.505 206.082 341.912 204.488 340.317 205.78 336.44 208.969 333.252 209.027 333.194 209.087 333.141 209.146 333.084 207.014 332.76 204.885 332.484 202.928 331.988 197.253 330.549 191.32 326.963 185.619 328.287 180.04 329.584 175.74 333.955 171.892 339.087 171.892 339.087 171.7 347.098 182.1 357.598 192.5 368.098 219.2 388.098 219.2 388.098L231.4 400.298 233.476 400.67 235.4 398.746 229.749 393.096Z" fill="#505050"/><path d="M161.092 352.817C159.767 358.518 163.354 364.451 164.793 370.126 166.2 375.678 165.824 382.612 169.864 387.078 173.536 391.139 179.945 391.279 184.632 393.274 189.517 395.354 194.112 399.795 199.333 399.633 204.539 399.471 208.571 394.105 213.608 392.369 217.438 391.049 221.287 392.332 225.9 396.945L231.551 402.596 233.475 400.672 171.891 339.089C166.76 342.938 162.388 347.238 161.092 352.817Z" fill="#2F2F2F"/></g><g><path d="M266.4 320C259.272 320.109 253.141 326.524 252.324 334.726 252.318 334.788 252.312 334.85 252.306 334.912 251.996 338.364 250.372 341.58 247.643 343.017 246.342 343.702 245.159 344.788 244.234 346.278 242.168 349.604 242.15 354.212 244.183 357.566 244.614 358.278 245.902 359.632 247.352 361.057 250.798 364.44 252.76 369.43 252.76 374.662 252.76 377.913 249.473 379.672 247.335 377.565 247.335 377.565 245.227 375.519 245.133 375.433L245.024 375.327 245.018 375.334C241.689 372.398 236.921 372.682 233.88 376.203 230.687 379.901 230.577 385.806 233.534 389.669L233.516 389.691 256.282 416.44C260.023 420.836 262.121 426.76 262.121 432.933L262.121 440.486 266.398 440.486 268.315 438.068 268.315 425.567C268.315 425.567 274.531 353.534 272.798 339.401 271.065 325.268 266.4 320 266.4 320Z" fill="#2F2F2F"/><path d="M266.4 320C273.528 320.109 279.628 326.524 280.445 334.726 280.451 334.788 280.457 334.85 280.463 334.912 280.773 338.364 282.397 341.58 285.126 343.017 286.427 343.702 287.61 344.788 288.535 346.278 290.601 349.604 290.619 354.212 288.586 357.566 288.155 358.278 286.867 359.632 285.417 361.057 281.971 364.44 280.009 369.43 280.009 374.662 280.009 377.913 283.296 379.672 285.434 377.565 285.434 377.565 287.542 375.519 287.636 375.433L287.745 375.327 287.751 375.334C291.08 372.398 295.848 372.682 298.889 376.203 302.082 379.901 302.192 385.806 299.235 389.669L299.253 389.691 276.487 416.44C272.746 420.836 270.648 426.76 270.648 432.933L270.648 440.486 266.402 440.486 266.402 320Z" fill="#505050"/></g><g><path d="M161.481 347.936C161.472 347.936 161.468 347.947 161.474 347.953 163.262 350.004 165.442 350.701 167.9 351.15 170.759 351.673 174.3 351.4 177.362 350.592 182.235 348.201 186.488 344.747 189.831 340.536 189.837 340.529 189.83 340.518 189.821 340.519 187.092 340.803 185.696 341.172 183.151 341.8 180.938 342.346 178.201 343.55 175.716 344.298 171.484 346.605 166.636 347.922 161.481 347.936Z" fill="#FFFFFF"/><path d="M196.882 325.609C196.2 324.45 195.087 323.626 194.15 323.1 193.127 322.526 192.3 322.25 191.026 322.291 190.702 324.552 190.122 326.729 189.321 328.797 189.749 330.2 190.652 330.666 191.599 331.15 192.547 331.634 193.899 331.85 195.004 331.697 195.8 329.746 196.433 327.712 196.882 325.609Z" fill="#E6E6E6"/><path d="M161.424 347.921C161.412 347.929 161.412 347.929 161.4 347.937L161.4 354.287C167.111 354.287 172.511 352.963 177.317 350.613 177.327 350.608 177.323 350.593 177.312 350.594 171.926 350.897 166.487 350.008 161.424 347.921Z" fill="#E6E6E6"/><path d="M197.687 318 191.337 318C191.337 319.457 191.227 320.889 191.026 322.291 192.837 323.604 194.797 324.724 196.882 325.609 197.405 323.155 197.687 320.611 197.687 318Z" fill="#D2D2D2"/><path d="M175.755 344.297C180.625 344.218 185.474 342.957 189.846 340.516 191.956 337.853 193.702 334.89 195.005 331.697 193.017 330.895 191.117 329.923 189.322 328.797 186.76 335.418 181.918 340.903 175.751 344.278 175.741 344.283 175.745 344.297 175.755 344.297Z" fill="#F2F2F2"/></g><g><path d="M271.012 452.757C277.952 444.028 276.501 431.326 267.771 424.387 259.041 417.448 246.34 418.899 239.4 427.628L246.036 432.903C248.191 434.616 248.549 437.751 246.836 439.906L242.957 444.785 253.494 453.162 257.373 448.283C259.086 446.128 262.221 445.77 264.376 447.483L271.012 452.757Z" fill="#D2D2D2"/><path d="M271.793 442.398C271.618 442.573 271.37 442.677 271.103 442.663 270.602 442.636 270.219 442.209 270.246 441.708 270.525 436.493 268.254 431.441 264.171 428.195 263.779 427.884 263.714 427.313 264.025 426.92 264.332 426.531 264.907 426.463 265.299 426.775 269.841 430.385 272.367 436.004 272.057 441.806 272.045 442.037 271.945 442.245 271.793 442.398Z" fill="#FFFFFF"/></g><g><path d="M297.317 338.064C297.326 338.064 297.33 338.053 297.324 338.047 295.439 336.044 293.546 335.036 290.8 334.6 288.213 334.19 284.2 334.55 281.438 335.408 276.565 337.799 272.312 341.253 268.969 345.464 268.963 345.471 268.97 345.482 268.979 345.481 271.161 345.199 272.646 344.975 274.899 344.351 277.375 343.664 280.349 342.451 283.084 341.703 287.315 339.395 292.163 338.078 297.317 338.064Z" fill="#FFFFFF"/><path d="M261.918 360.391C262.55 361.55 263.395 362.661 264.35 363.2 265.352 363.765 266.8 363.8 267.774 363.709 268.098 361.448 268.678 359.271 269.478 357.203 268.85 355.85 267.846 355.053 266.85 354.55 265.946 354.094 264.95 354.05 263.795 354.303 262.999 356.254 262.367 358.288 261.918 360.391Z" fill="#E6E6E6"/><path d="M297.376 338.079C297.389 338.084 297.4 338.077 297.4 338.063L297.4 331.713C291.689 331.713 286.289 333.037 281.483 335.387 281.473 335.392 281.477 335.407 281.488 335.406 286.874 335.103 292.312 335.992 297.376 338.079Z" fill="#E6E6E6"/><path d="M261.112 368 267.462 368C267.462 366.543 267.572 365.111 267.773 363.709 265.962 362.396 264.002 361.276 261.917 360.391 261.394 362.845 261.112 365.389 261.112 368Z" fill="#D2D2D2"/><path d="M283.044 341.703C278.174 341.782 273.325 343.043 268.953 345.484 266.843 348.147 265.098 351.11 263.794 354.303 265.782 355.105 267.682 356.077 269.477 357.203 272.039 350.582 276.881 345.097 283.048 341.722 283.058 341.717 283.055 341.703 283.044 341.703Z" fill="#F2F2F2"/></g><g><path d="M226.386 419.976C226.386 425.283 222.428 429.577 219.949 433.863 217.391 438.284 215.564 443.83 211.143 446.388 206.858 448.867 201.2 447.748 195.893 447.748 190.586 447.748 184.929 448.868 180.643 446.388 176.222 443.83 174.395 438.284 171.837 433.863 169.358 429.578 165.4 425.283 165.4 419.976 165.4 414.669 169.358 410.375 171.837 406.089 174.395 401.668 176.222 396.122 180.643 393.564 184.928 391.085 190.586 392.204 195.893 392.204 201.2 392.204 206.857 391.084 211.143 393.564 215.564 396.122 217.391 401.668 219.949 406.089 222.428 410.375 226.386 414.669 226.386 419.976Z" fill="#FFC000"/><ellipse cx="195.893" cy="419.976" rx="22.798" ry="22.798" fill="#FFFFFF" transform="matrix(0.9685 -0.2489 0.2489 0.9685 -98.3735 61.9798)"/><g><path d="M198.165 402.562C198.149 403.69 196.067 406.617 196.067 406.617 196.067 406.617 194.066 403.633 194.082 402.505 194.098 401.377 195.024 400.476 196.152 400.492 197.279 400.508 198.18 401.435 198.165 402.562Z" fill="#D2D2D2"/><g><path d="M179.636 417.157C180.764 417.173 183.691 419.255 183.691 419.255 183.691 419.255 180.707 421.256 179.579 421.24 178.451 421.224 177.55 420.298 177.566 419.17 177.582 418.042 178.509 417.142 179.636 417.157Z" fill="#737373"/><path d="M180.919 425.525C181.903 424.975 185.48 425.315 185.48 425.315 185.48 425.315 183.896 428.54 182.912 429.09 181.928 429.64 180.684 429.288 180.133 428.304 179.583 427.32 179.935 426.076 180.919 425.525Z" fill="#D2D2D2"/><path d="M186.213 432.131C186.79 431.162 190.058 429.668 190.058 429.668 190.058 429.668 190.299 433.253 189.721 434.221 189.143 435.189 187.89 435.507 186.922 434.93 185.953 434.353 185.636 433.1 186.213 432.131Z" fill="#737373"/><path d="M194.102 435.204C194.118 434.076 196.2 431.149 196.2 431.149 196.2 431.149 198.201 434.133 198.185 435.261 198.169 436.389 197.243 437.29 196.115 437.274 194.987 437.259 194.086 436.332 194.102 435.204Z" fill="#D2D2D2"/><path d="M202.47 433.922C201.92 432.938 202.26 429.361 202.26 429.361 202.26 429.361 205.485 430.945 206.035 431.929 206.585 432.913 206.233 434.157 205.249 434.708 204.264 435.258 203.02 434.906 202.47 433.922Z" fill="#737373"/><path d="M209.075 428.628C208.106 428.051 206.612 424.783 206.612 424.783 206.612 424.783 210.197 424.542 211.165 425.12 212.133 425.698 212.451 426.951 211.874 427.919 211.297 428.888 210.044 429.205 209.075 428.628Z" fill="#737373"/><path d="M212.149 420.74C211.021 420.724 208.094 418.642 208.094 418.642 208.094 418.642 211.078 416.641 212.206 416.657 213.334 416.673 214.235 417.599 214.219 418.727 214.203 419.854 213.276 420.755 212.149 420.74Z" fill="#D2D2D2"/><path d="M210.867 412.372C209.883 412.922 206.306 412.582 206.306 412.582 206.306 412.582 207.89 409.357 208.874 408.807 209.858 408.257 211.102 408.609 211.653 409.593 212.203 410.577 211.851 411.821 210.867 412.372Z" fill="#D2D2D2"/><path d="M205.572 405.766C204.995 406.735 201.727 408.229 201.727 408.229 201.727 408.229 201.486 404.644 202.064 403.676 202.641 402.707 203.895 402.39 204.863 402.967 205.832 403.544 206.149 404.797 205.572 405.766Z" fill="#D2D2D2"/><path d="M189.316 403.975C189.866 404.959 189.526 408.536 189.526 408.536 189.526 408.536 186.301 406.952 185.751 405.968 185.201 404.984 185.553 403.74 186.537 403.189 187.521 402.638 188.766 402.99 189.316 403.975Z" fill="#737373"/><path d="M182.71 409.269C183.679 409.846 185.173 413.114 185.173 413.114 185.173 413.114 181.588 413.355 180.62 412.777 179.651 412.2 179.334 410.946 179.911 409.978 180.488 409.009 181.741 408.692 182.71 409.269Z" fill="#737373"/></g></g></g><g><path d="M287.4 434C287.4 434 287.287 437.334 285.162 439.459 283.036 441.585 279.703 441.697 279.703 441.697 279.703 441.697 279.816 438.363 281.941 436.238 284.066 434.113 287.4 434 287.4 434Z" fill="#505050"/><path d="M253.4 402.278C253.4 402.278 250.963 404.556 247.957 404.556 244.951 404.556 242.514 402.278 242.514 402.278 242.514 402.278 244.95 400 247.957 400 250.964 400 253.4 402.278 253.4 402.278Z" fill="#E6E6E6"/><path d="M216.286 361.722C216.286 361.722 213.849 364 210.843 364 207.837 364 205.4 361.722 205.4 361.722 205.4 361.722 207.837 359.444 210.843 359.444 213.849 359.444 216.286 361.722 216.286 361.722Z" fill="#737373"/><path d="M261.097 390C261.097 390 257.763 389.887 255.638 387.762 253.512 385.636 253.4 382.303 253.4 382.303 253.4 382.303 256.734 382.416 258.859 384.541 260.985 386.666 261.097 390 261.097 390Z" fill="#FFFFFF"/><path d="M293.122 426.886C293.122 426.886 290.844 424.449 290.844 421.443 290.844 418.437 293.122 416 293.122 416 293.122 416 295.4 418.437 295.4 421.443 295.4 424.449 293.122 426.886 293.122 426.886Z" fill="#2F2F2F"/><path d="M281.097 413.698C281.097 413.698 277.763 413.585 275.638 411.46 273.512 409.334 273.4 406 273.4 406 273.4 406 276.734 406.113 278.859 408.238 280.985 410.364 281.097 413.698 281.097 413.698Z" fill="#D2D2D2"/></g><g><path d="M220.043 330.539 216.419 330.539C214.751 330.539 213.399 329.187 213.399 327.519L213.399 327.519C213.399 325.851 214.751 324.499 216.419 324.499L220.043 324.499C221.711 324.499 223.063 325.851 223.063 327.519L223.063 327.519C223.063 329.187 221.711 330.539 220.043 330.539Z" fill="#FFC000"/><path d="M294.31 404 290.602 404C288.895 404 287.512 402.617 287.512 400.91L287.512 400.91C287.512 399.203 288.895 397.82 290.602 397.82L294.31 397.82C296.017 397.82 297.4 399.203 297.4 400.91L297.4 400.91C297.4 402.617 296.016 404 294.31 404Z" fill="#FFC000"/><path d="M281.582 426.586 278.96 423.964C277.753 422.757 277.753 420.801 278.96 419.594L278.96 419.594C280.167 418.387 282.123 418.387 283.33 419.594L285.952 422.216C287.159 423.423 287.159 425.379 285.952 426.586L285.952 426.586C284.745 427.792 282.789 427.792 281.582 426.586Z" fill="#FFC000"/><path d="M241.853 329.062 239.208 331.706C237.991 332.923 236.017 332.923 234.8 331.705L234.8 331.705C233.583 330.487 233.583 328.514 234.801 327.296L237.446 324.652C238.663 323.435 240.637 323.435 241.854 324.653L241.854 324.653C243.071 325.871 243.071 327.845 241.853 329.062Z" fill="#FFC000"/><path d="M228.574 368.784 226.184 371.174C225.083 372.275 223.299 372.275 222.198 371.174L222.197 371.173C221.097 370.072 221.097 368.288 222.197 367.188L224.587 364.798C225.688 363.697 227.472 363.697 228.573 364.798L228.574 364.799C229.675 365.9 229.675 367.684 228.574 368.784Z" fill="#FFC000"/></g><circle cx="234.4" cy="413" r="7" fill="#D2D2D2"/><circle cx="228.4" cy="443" r="7" fill="#D2D2D2"/><circle cx="288.4" cy="369" r="3" fill="#D2D2D2"/><path d="M173.63 444.176C175.636 446.243 172.477 449.402 170.41 447.396 170.389 447.375 170.367 447.354 170.346 447.333 170.325 447.312 170.304 447.29 170.283 447.269 168.277 445.202 171.436 442.043 173.503 444.049 173.524 444.07 173.546 444.091 173.567 444.112 173.588 444.133 173.61 444.154 173.63 444.176Z" fill="#505050"/></g><g id="burger"><path d="M454.856 626.175C458.957 632.485 461.42 636.274 464.856 636.175 469.096 636.053 471.941 630.093 472.856 628.175 473.464 626.901 478.261 616.49 472.856 610.175 466.628 602.898 451.215 606.151 448.856 612.175 447.691 615.151 450.08 618.826 454.856 626.175Z" fill="#505050"/><path d="M473.278 596C472.315 602.471 477.178 609.982 483.278 610 488.303 610.015 492.543 604.939 493.278 600 494.241 593.529 489.378 586.018 483.278 586 478.252 585.985 474.013 591.06 473.278 596Z" fill="#505050"/><g><circle cx="464.4" cy="555" r="28" fill="#D2D2D2"/><path d="M464.4 581.2C463.848 581.2 463.4 580.753 463.4 580.2 463.4 579.647 463.848 579.2 464.4 579.2 477.744 579.2 488.6 568.344 488.6 555 488.6 554.447 489.047 554 489.6 554 490.153 554 490.6 554.447 490.6 555 490.6 569.447 478.847 581.2 464.4 581.2Z" fill="#FFFFFF"/><path d="M464.4 535C453.354 535 444.4 543.954 444.4 555 444.4 566.046 453.354 575 464.4 575 475.446 575 484.4 566.046 484.4 555 484.4 543.954 475.445 535 464.4 535ZM464.4 548C461.639 548 459.4 545.761 459.4 543 459.4 540.239 461.639 538 464.4 538 467.161 538 469.4 540.239 469.4 543 469.4 545.761 467.161 548 464.4 548ZM474.4 556C472.743 556 471.4 554.657 471.4 553 471.4 551.343 472.743 550 474.4 550 476.057 550 477.4 551.343 477.4 553 477.4 554.657 476.057 556 474.4 556Z" fill="#505050"/></g><g><path d="M604.245 635.682 604.245 534.583C604.245 527.635 598.612 522.001 591.664 522.002L529.982 522C523.034 522 517.401 527.633 517.401 534.581L517.401 608.406C520.372 607.783 523.588 608.618 525.896 610.926 529.528 614.558 529.528 620.447 525.896 624.079 523.589 626.386 520.373 627.222 517.402 626.598L517.402 635.679C517.402 642.628 523.035 648.26 529.984 648.261L591.665 648.262C598.611 648.263 604.244 642.63 604.245 635.682ZM530.817 604.125C529.28 605.662 526.789 605.661 525.252 604.125 523.715 602.588 523.715 600.097 525.252 598.56 526.789 597.023 529.28 597.023 530.817 598.56 532.353 600.097 532.353 602.589 530.817 604.125ZM533.62 637.824C531.245 640.199 527.395 640.199 525.02 637.824 522.645 635.449 522.645 631.599 525.02 629.224 527.395 626.849 531.245 626.849 533.62 629.224 535.995 631.599 535.995 635.449 533.62 637.824Z" fill="#FFC000"/><path d="M686.298 605.549C686.298 610.678 683.733 615.341 682.23 619.969 680.672 624.766 679.954 630.035 677.048 634.028 674.113 638.061 669.304 640.359 665.272 643.294 661.279 646.2 657.623 650.08 652.826 651.638 648.198 653.141 642.98 652.2 637.851 652.2 632.722 652.2 627.504 653.141 622.876 651.638 618.079 650.08 614.423 646.2 610.43 643.294 606.397 640.359 601.589 638.061 598.654 634.028 595.748 630.035 595.03 624.766 593.472 619.97 591.969 615.342 589.404 610.679 589.404 605.55 589.404 600.421 591.969 595.758 593.472 591.13 595.03 586.333 595.748 581.064 598.654 577.071 601.589 573.038 606.398 570.74 610.43 567.805 614.423 564.899 618.079 561.019 622.876 559.461 627.504 557.958 632.722 558.899 637.851 558.899 642.981 558.899 648.198 557.958 652.826 559.461 657.623 561.019 661.279 564.899 665.272 567.805 669.305 570.74 674.113 573.038 677.048 577.071 679.954 581.064 680.672 586.333 682.23 591.129 683.733 595.758 686.298 600.42 686.298 605.549Z" fill="#F2F2F2"/><ellipse cx="637.851" cy="605.549" rx="38.039" ry="38.039" fill="#FFFFFF" transform="matrix(0.9932 -0.1163 0.1163 0.9932 -66.0715 78.2572)"/><g><path d="M633.147 632.673C633.173 630.792 636.648 625.907 636.648 625.907 636.648 625.907 639.986 630.886 639.96 632.767 639.934 634.648 638.388 636.152 636.506 636.126 634.625 636.101 633.121 634.554 633.147 632.673Z" fill="#E6E6E6"/><path d="M647.109 630.533C646.191 628.891 646.758 622.923 646.758 622.923 646.758 622.923 652.138 625.566 653.056 627.208 653.974 628.85 653.387 630.926 651.745 631.844 650.103 632.763 648.027 632.176 647.109 630.533Z" fill="#D2D2D2"/><path d="M658.131 621.699C656.515 620.736 654.022 615.284 654.022 615.284 654.022 615.284 660.003 614.882 661.619 615.846 663.235 616.809 663.765 618.9 662.801 620.517 661.837 622.134 659.747 622.662 658.131 621.699Z" fill="#737373"/><path d="M663.259 608.538C661.378 608.512 656.493 605.037 656.493 605.037 656.493 605.037 661.472 601.699 663.353 601.725 665.234 601.751 666.738 603.297 666.712 605.179 666.687 607.06 665.14 608.564 663.259 608.538Z" fill="#D2D2D2"/><path d="M609.214 602.225C611.095 602.251 615.98 605.726 615.98 605.726 615.98 605.726 611.001 609.064 609.12 609.038 607.239 609.012 605.735 607.466 605.761 605.584 605.786 603.703 607.332 602.199 609.214 602.225Z" fill="#D2D2D2"/><path d="M661.12 594.576C659.478 595.494 653.51 594.927 653.51 594.927 653.51 594.927 656.153 589.547 657.795 588.628 659.437 587.709 661.513 588.297 662.431 589.939 663.349 591.582 662.762 593.657 661.12 594.576Z" fill="#737373"/><path d="M652.286 583.554C651.323 585.17 645.871 587.663 645.871 587.663 645.871 587.663 645.47 581.682 646.433 580.066 647.396 578.45 649.487 577.92 651.104 578.884 652.719 579.846 653.249 581.937 652.286 583.554Z" fill="#737373"/><path d="M639.124 578.425C639.098 580.306 635.623 585.191 635.623 585.191 635.623 585.191 632.285 580.212 632.311 578.331 632.337 576.45 633.883 574.946 635.765 574.972 637.647 574.998 639.15 576.544 639.124 578.425Z" fill="#D2D2D2"/><path d="M625.162 580.565C626.08 582.207 625.513 588.175 625.513 588.175 625.513 588.175 620.133 585.532 619.215 583.89 618.297 582.248 618.884 580.172 620.526 579.254 622.168 578.336 624.244 578.923 625.162 580.565Z" fill="#D2D2D2"/><path d="M614.141 589.399C615.757 590.362 618.25 595.814 618.25 595.814 618.25 595.814 612.269 596.216 610.653 595.252 609.037 594.289 608.507 592.198 609.471 590.581 610.433 588.965 612.524 588.436 614.141 589.399Z" fill="#D2D2D2"/><path d="M611.152 616.523C612.794 615.605 618.762 616.172 618.762 616.172 618.762 616.172 616.119 621.552 614.477 622.471 612.835 623.389 610.759 622.802 609.841 621.16 608.922 619.517 609.51 617.441 611.152 616.523Z" fill="#737373"/><path d="M619.986 627.545C620.949 625.929 626.401 623.436 626.401 623.436 626.401 623.436 626.802 629.417 625.839 631.033 624.876 632.649 622.785 633.179 621.168 632.215 619.552 631.252 619.023 629.161 619.986 627.545Z" fill="#737373"/></g><path d="M638.949 623.972C644.663 621.838 652.211 618.245 654.637 613.518 655.51 611.818 656.141 610.099 656.566 608.386 657.842 603.253 660.895 598.669 665.157 595.537 669.582 592.285 672.875 587.464 674.102 581.666 675.755 573.853 673.272 566.128 668.134 560.767 666.39 558.947 666.027 556.18 667.202 553.951 667.741 552.929 668.201 551.854 668.586 550.737 669.175 549.354 669.643 547.896 669.966 546.369 672.652 533.671 664.536 521.2 651.839 518.514 639.141 515.827 626.67 523.943 623.984 536.641 623.653 538.208 623.486 539.771 623.473 541.314 623.37 542.6 623.364 543.877 623.475 545.133 623.677 547.441 622.314 549.568 620.157 550.415 613.132 553.176 607.586 559.302 605.907 567.239 604.68 573.037 605.739 578.778 608.468 583.544 611.096 588.134 612.031 593.562 611.119 598.771 610.815 600.509 610.695 602.336 610.805 604.245 611.093 609.279 616.013 615.248 620.241 619.489 620.241 619.489 624.401 623.134 629.401 624.001 634.401 624.868 638.949 623.972 638.949 623.972Z" fill="#505050"/><g><circle cx="594.4" cy="585" r="67" fill="#D2D2D2"/><path d="M635.4 631C635.169 631 634.936 630.921 634.748 630.758 634.329 630.398 634.282 629.766 634.643 629.348 641.979 620.827 651.015 606.724 652.404 587.927 652.744 583.324 653.54 572.545 648.478 560.385 645.743 553.814 641.776 547.864 636.689 542.702 636.301 542.308 636.305 541.676 636.699 541.288 637.094 540.9 637.726 540.905 638.113 541.298 643.382 546.645 647.49 552.808 650.324 559.615 655.57 572.217 654.749 583.329 654.398 588.073 652.97 607.414 643.691 621.903 636.159 630.652 635.96 630.882 635.68 631 635.4 631Z" fill="#E6E6E6"/></g><g><path d="M613.656 604C613.656 604 611.4 601.586 611.4 598.609 611.4 595.632 613.656 593.218 613.656 593.218 613.656 593.218 615.912 595.632 615.912 598.609 615.912 601.586 613.656 604 613.656 604Z" fill="#505050"/><path d="M578.471 580.32C578.471 580.32 575.169 580.209 573.063 578.103 570.958 575.998 570.847 572.696 570.847 572.696 570.847 572.696 574.149 572.807 576.254 574.913 578.36 577.018 578.471 580.32 578.471 580.32Z" fill="#737373"/><path d="M569.024 590C569.024 590 565.722 589.888 563.617 587.783 561.512 585.678 561.4 582.376 561.4 582.376 561.4 582.376 564.702 582.488 566.807 584.593 568.912 586.698 569.024 590 569.024 590Z" fill="#F2F2F2"/><path d="M585.402 603.999C585.402 603.999 585.29 607.301 583.185 609.406 581.08 611.511 577.778 611.623 577.778 611.623 577.778 611.623 577.89 608.321 579.995 606.216 582.1 604.111 585.402 603.999 585.402 603.999Z" fill="#F2F2F2"/><path d="M587.656 576C587.656 576 585.4 573.586 585.4 570.609 585.4 567.632 587.656 565.218 587.656 565.218 587.656 565.218 589.912 567.632 589.912 570.609 589.912 573.586 587.656 576 587.656 576Z" fill="#505050"/><path d="M623.144 577.071C623.144 577.071 620.888 574.657 620.888 571.68 620.888 568.703 623.144 566.289 623.144 566.289 623.144 566.289 625.4 568.703 625.4 571.68 625.4 574.657 623.144 577.071 623.144 577.071Z" fill="#505050"/><path d="M597.402 575.999C597.402 575.999 597.291 579.301 595.185 581.407 593.08 583.512 589.778 583.623 589.778 583.623 589.778 583.623 589.889 580.321 591.995 578.216 594.1 576.111 597.402 575.999 597.402 575.999Z" fill="#737373"/><path d="M627.4 592C627.4 592 624.098 591.888 621.993 589.783 619.888 587.678 619.776 584.376 619.776 584.376 619.776 584.376 623.078 584.488 625.183 586.593 627.288 588.698 627.4 592 627.4 592Z" fill="#F2F2F2"/><path d="M609.686 562.695C609.686 562.695 607.43 560.281 607.43 557.304 607.43 554.327 609.686 551.913 609.686 551.913 609.686 551.913 611.942 554.327 611.942 557.304 611.942 560.281 609.686 562.695 609.686 562.695Z" fill="#505050"/></g><g><circle cx="601.707" cy="596.713" r="1" fill="#737373"/><circle cx="599.707" cy="607.713" r="1" fill="#505050"/><circle cx="609.707" cy="617.713" r="1" fill="#737373"/><circle cx="596.4" cy="613" r="1" fill="#737373"/><circle cx="606.4" cy="609" r="1" fill="#737373"/><circle cx="597.707" cy="624.713" r="1" fill="#737373"/><circle cx="586.4" cy="617" r="1" fill="#737373"/><circle cx="596.707" cy="605.713" r="1" fill="#505050"/><circle cx="566.707" cy="573.713" r="1" fill="#505050"/><circle cx="565.707" cy="546.713" r="1" fill="#737373"/><circle cx="575.707" cy="556.713" r="1" fill="#737373"/><circle cx="573.707" cy="562.713" r="1" fill="#505050"/><circle cx="558.707" cy="568.713" r="1" fill="#737373"/><circle cx="563.707" cy="563.713" r="1" fill="#505050"/><circle cx="558.707" cy="590.713" r="1" fill="#737373"/><circle cx="606.4" cy="637" r="1" fill="#737373"/></g></g></g><g id="fork"><path d="M799.4 630 761.049 636.742 769.4 494 799.4 494Z" fill="#E6E6E6"/><path d="M807.4 347.028C807.4 345.301 805.925 343.919 804.166 344.072 802.596 344.209 801.465 345.662 801.465 347.238L801.465 396.249C801.465 398.02 800.03 399.455 798.259 399.455L796.098 399.455C794.327 399.455 792.892 398.02 792.892 396.249L792.892 347.238C792.892 345.662 791.76 344.208 790.19 344.072 788.431 343.919 786.957 345.302 786.957 347.028L786.957 395.837C786.957 396.85 786.488 397.823 785.667 398.415 782.171 400.935 778.385 398.495 778.385 395.169L778.385 347.238C778.385 345.662 777.254 344.209 775.684 344.072 773.925 343.919 772.45 345.301 772.45 347.028L772.45 396.25C772.45 398.021 771.015 399.456 769.244 399.456L767.083 399.456C765.312 399.456 763.877 398.021 763.877 396.25L763.877 347.239C763.877 345.663 762.745 344.209 761.175 344.073 759.416 343.92 757.942 345.303 757.942 347.029L757.954 409.349C758.122 417.86 762.588 425.313 769.271 429.632 772.074 431.444 773.769 434.549 773.769 437.887L773.769 591.684C773.769 594.095 775.405 597.177 777.486 598.395 784.44 602.466 791.575 597.554 791.575 590.976L791.575 437.887C791.575 434.549 793.27 431.444 796.073 429.632 802.756 425.313 807.222 417.86 807.389 409.349L807.4 347.028ZM785.153 588.26C781.096 590.76 776.839 586.502 779.339 582.445 779.55 582.103 779.845 581.808 780.187 581.597 784.244 579.102 788.496 583.356 786 587.412 785.79 587.755 785.495 588.05 785.153 588.26Z" fill="#505050"/><path d="M785.509 474.96C784.94 474.96 784.478 474.498 784.478 473.929L784.478 442C784.478 441.431 784.94 440.969 785.509 440.969 786.078 440.969 786.54 441.431 786.54 442L786.54 473.929C786.54 474.499 786.078 474.96 785.509 474.96Z" fill="#737373"/><path d="M807.4 622.121 756.633 622.121 767.4 458.166 803.4 458.166Z" fill="#FFFFFF"/></g><g id="seeds"><path d="M319.4 464.302C319.4 464.302 319.287 467.636 317.162 469.761 315.036 471.887 311.703 471.999 311.703 471.999 311.703 471.999 311.816 468.665 313.941 466.54 316.066 464.415 319.4 464.302 319.4 464.302Z" fill="#F2F2F2"/><path d="M329.677 464C329.677 464 327.399 461.563 327.399 458.557 327.399 455.551 329.677 453.114 329.677 453.114 329.677 453.114 331.955 455.551 331.955 458.557 331.955 461.563 329.677 464 329.677 464Z" fill="#737373"/></g></svg>