<svg viewBox="0 0 960 960" xmlns="http://www.w3.org/2000/svg" xmlns:xlink="http://www.w3.org/1999/xlink" id="61016015-a387-412c-b125-2dfe53d26b43" overflow="hidden"><g><path d="M370.24 232.417C370.246 232.417 370.25 232.412 370.25 232.407 370.244 216.877 357.655 200.667 342.125 200.667 326.595 200.667 314.006 216.877 314 232.407 314 232.413 314.005 232.417 314.01 232.417L370.24 232.417Z" fill="#D1D1D1"/><path d="M426 232.417C426 216.884 413.408 200.667 397.875 200.667 382.342 200.667 369.75 216.884 369.75 232.417L426 232.417Z" fill="#E5E5E5"/><path d="M482.25 232.417C482.25 216.884 469.658 200.667 454.125 200.667 438.592 200.667 426 216.884 426 232.417L482.25 232.417Z" fill="#D1D1D1"/><path d="M540 232.417C540 216.884 527.408 200.667 511.875 200.667 496.342 200.667 483.75 216.884 483.75 232.417L540 232.417Z" fill="#E5E5E5"/><path d="M596.25 232.417C596.25 216.884 583.658 200.667 568.125 200.667 552.592 200.667 540 216.884 540 232.417L596.25 232.417Z" fill="#D1D1D1"/></g><g><path d="M664 233.75C664 215.11 679.11 200 697.75 200 716.39 200 731.5 215.11 731.5 233.75 731.5 233.75 724.2 243.667 697.533 243.667 670.866 243.667 664 233.75 664 233.75Z" fill="#737373"/><path d="M746 233.75 648 233.75 648 259.75 660 259.75 660 399.75 734 399.75 734 259.75 746 259.75Z" fill="#FFC000"/><path d="M722 272.75 722 270.75 672 270.75 672 272.75 677 272.75 677 287.417 672 287.417 672 289.417 713 289.417 713 304.084 682 304.084 682 306.084 703 306.084 703 320.751 694 320.751 694 322.751 722 322.751 722 320.751 705 320.751 705 306.084 722 306.084 722 304.084 715 304.084 715 289.417 722 289.417 722 287.417 705 287.417 705 272.75 722 272.75ZM703 287.417 679 287.417 679 272.75 703 272.75 703 287.417Z" fill="#FFFFFF"/></g><g><path d="M656.837 286.116 602.003 232.003C602.001 232.002 601.998 232.001 601.996 232L304.01 232C304.004 232 304 232.004 304 232.01L304 406 728 406 753.992 382.007C753.996 382.003 753.996 381.997 753.992 381.993L656.837 286.116Z" fill="#737373"/><rect x="383.999" y="382" width="370.001" height="276" fill="#505050"/><path d="M654.89 283.028C654.431 282.301 653.891 281.629 653.279 281.025L605.317 233.934C604.768 233.392 604.217 232.934 603.508 232.581 603.508 232.581 602.667 232.068 602 231.868 601.388 231.684 600.65 231.757 599.968 231.757 592.797 227.662 582.92 223.462 570.934 222.628 555.235 221.536 546.709 226.968 536.221 230.304 531.401 230.867 526.928 231.3 521.801 231.267 516.634 231.233 511.134 230.734 505.281 230.105 494.344 226.041 489.795 218.885 474.216 220.148 458.329 221.436 456.448 228.676 440.323 229.241 419.63 229.967 412.33 218.41 393.203 220.974 384.085 222.197 376.471 225.297 372.327 230.28 308.199 230.815 304.181 231.937 304.008 231.998 304.004 232 304.001 231.998 304.001 232.002 304.016 232.238 305.695 258.228 340.734 293.267 375.934 328.467 402.001 329.75 402.001 329.75 402.001 329.75 426.118 341.58 438.001 337.75 456.496 331.79 456.938 307.654 472.001 301.75 492.619 293.669 510.847 341.83 534.001 337.75 556.122 333.852 558.928 288.983 582.001 287.75 594.025 287.107 602.379 298.806 614.001 293.75 621.11 290.657 620.995 284.268 628.001 281.75 643.481 276.187 656 285.475 656.798 286.084 656.822 286.102 656.825 286.093 656.808 286.068L654.89 283.028Z" fill="#FFFFFF"/><path d="M303.993 232.007 154 382 154.24 658 454 658 454 382 304.007 232.007Z" fill="#D1D1D1"/></g><g><path d="M350 649 350 497C350 472.147 329.853 452 305 452L305 452C280.147 452 260 472.147 260 497L260 649C272.716 653.362 337.706 654.477 350 649Z" fill="#F1F1F1"/><circle cx="274" cy="562" r="6" fill="#D1D1D1"/><circle cx="305" cy="496.5" r="20" fill="#D1D1D1"/></g><g><g><path d="M196.23 356.2C205.017 364.987 205.017 379.233 196.23 388.02 187.443 396.807 173.197 396.807 164.41 388.02L196.23 356.2Z" fill="#FFFFFF"/><path d="M260.577 291.854C269.364 300.641 269.364 314.887 260.577 323.674 251.79 332.461 237.544 332.461 228.757 323.674L260.577 291.854Z" fill="#FFFFFF"/><path d="M228.403 324.027C237.19 332.814 237.19 347.06 228.403 355.847 219.616 364.634 205.37 364.634 196.583 355.847L228.403 324.027Z" fill="#FFFFFF"/><path d="M292.75 259.68C301.537 268.467 301.537 282.713 292.75 291.5 283.963 300.287 269.717 300.287 260.93 291.5L292.75 259.68Z" fill="#FFFFFF"/></g><g><path d="M412.18 356.2C403.393 364.987 403.393 379.233 412.18 388.02 420.967 396.807 435.213 396.807 444 388.02L412.18 356.2Z" fill="#FFFFFF"/><path d="M347.833 291.854C339.046 300.641 339.046 314.887 347.833 323.674 356.62 332.461 370.866 332.461 379.653 323.674L347.833 291.854Z" fill="#FFFFFF"/><path d="M380.007 324.027C371.22 332.814 371.22 347.06 380.007 355.847 388.794 364.634 403.04 364.634 411.827 355.847L380.007 324.027Z" fill="#FFFFFF"/><path d="M315.66 259.68C306.873 268.467 306.873 282.713 315.66 291.5 324.447 300.287 338.693 300.287 347.48 291.5L315.66 259.68Z" fill="#FFFFFF"/></g></g><path d="M329.915 395.116 349.798 397.206C349.926 395.82 350 394.419 350 393 350 391.581 349.926 390.18 349.798 388.794L329.915 390.883 329.811 389.889 349.692 387.8C349.366 384.968 348.787 382.214 347.96 379.567L328.931 385.75 328.622 384.799 347.639 378.62C346.734 375.936 345.586 373.366 344.216 370.936L326.901 380.933 326.401 380.067 343.718 370.069C342.28 367.646 340.619 365.372 338.767 363.27L323.914 376.644 323.245 375.901 338.101 362.524C336.199 360.459 334.11 358.57 331.854 356.89L320.099 373.069 319.29 372.481 331.039 356.31C328.76 354.689 326.325 353.277 323.758 352.097L315.625 370.364 314.712 369.958 322.847 351.686C320.294 350.581 317.617 349.712 314.844 349.093L310.687 368.65 309.708 368.442 313.866 348.878C311.157 348.337 308.36 348.044 305.499 348.012L305.499 368 304.499 368 304.499 348.013C301.638 348.044 298.841 348.337 296.132 348.879L300.291 368.443 299.312 368.651 295.155 349.094C292.382 349.713 289.705 350.582 287.152 351.687L295.287 369.959 294.374 370.365 286.241 352.098C283.674 353.277 281.239 354.69 278.96 356.311L290.709 372.481 289.9 373.069 278.145 356.89C275.89 358.57 273.8 360.459 271.898 362.524L286.754 375.901 286.085 376.644 271.232 363.27C269.38 365.372 267.719 367.646 266.281 370.069L283.597 380.067 283.097 380.933 265.782 370.936C264.412 373.366 263.263 375.936 262.358 378.62L281.375 384.799 281.066 385.75 262.037 379.567C261.21 382.214 260.631 384.968 260.305 387.8L280.186 389.889 280.082 390.883 260.2 388.794C260.074 390.18 260 391.581 260 393 260 394.419 260.074 395.82 260.202 397.206L280.084 395.116 280.188 396.11 260.307 398.2C260.633 401.032 261.212 403.786 262.039 406.433L281.068 400.25 281.377 401.201 262.36 407.38C263.265 410.064 264.413 412.633 265.783 415.064L283.098 405.067 283.598 405.933 266.282 415.931C267.72 418.354 269.381 420.628 271.233 422.731L286.086 409.357 286.755 410.1 271.9 423.477C273.802 425.542 275.891 427.431 278.147 429.111L289.902 412.932 290.711 413.52 278.963 429.69C281.242 431.311 283.677 432.723 286.244 433.903L294.377 415.636 295.29 416.043 287.155 434.315C289.708 435.42 292.385 436.289 295.158 436.908L299.315 417.351 300.294 417.559 296.135 437.123C298.844 437.665 301.642 437.957 304.502 437.989L304.502 418 305.502 418 305.502 437.987C308.363 437.956 311.16 437.663 313.869 437.121L309.711 417.557 310.69 417.349 314.847 436.906C317.62 436.287 320.297 435.418 322.85 434.313L314.715 416.041 315.628 415.635 323.761 433.902C326.328 432.723 328.763 431.31 331.042 429.689L319.294 413.519 320.103 412.931 331.858 429.11C334.114 427.43 336.203 425.541 338.105 423.476L323.244 410.1 323.913 409.357 338.766 422.73C340.619 420.628 342.279 418.354 343.717 415.93L326.4 405.932 326.9 405.066 344.215 415.063C345.585 412.633 346.734 410.063 347.638 407.38L328.621 401.201 328.93 400.25 347.959 406.433C348.786 403.786 349.365 401.032 349.691 398.2L329.81 396.11 329.915 395.116Z" fill="#F1F1F1"/><g><circle cx="380.31" cy="605.933" r="14" fill="#F1F1F1"/><circle cx="425.147" cy="591.874" r="17" fill="#737373"/><circle cx="228" cy="498" r="14" fill="#E5E5E5"/><circle cx="234" cy="426" r="15" fill="#F1F1F1"/><circle cx="246" cy="452" r="6" fill="#F1F1F1"/><circle cx="380" cy="402" r="6" fill="#F1F1F1"/></g><circle cx="305" cy="393" r="20" fill="#D1D1D1"/><g><path d="M558.8 392C558.8 404.426 548.726 414.5 536.3 414.5 523.874 414.5 513.8 404.426 513.8 392L558.8 392Z" fill="#737373"/><path d="M513 392C513 404.426 502.926 414.5 490.5 414.5 478.074 414.5 468 404.426 468 392L513 392Z" fill="#737373"/><path d="M604.6 392C604.6 404.426 594.526 414.5 582.1 414.5 569.674 414.5 559.6 404.426 559.6 392L604.6 392Z" fill="#737373"/><path d="M650.4 392C650.4 404.426 640.326 414.5 627.9 414.5 615.474 414.5 605.4 404.426 605.4 392L650.4 392Z" fill="#737373"/><path d="M696.2 392C696.2 404.426 686.126 414.5 673.7 414.5 661.274 414.5 651.2 404.426 651.2 392L696.2 392Z" fill="#737373"/></g><g><circle cx="630" cy="602" r="14" fill="#737373"/><circle cx="499" cy="609" r="14" fill="#2F2F2F"/><circle cx="650" cy="435" r="14" fill="#737373"/><circle cx="597" cy="613" r="6" fill="#2F2F2F"/><circle cx="480" cy="532" r="6" fill="#2F2F2F"/><circle cx="610" cy="426" r="6" fill="#737373"/></g><path d="M627.81 516.926 657.627 520.06C657.805 518.062 657.911 516.044 657.911 514 657.911 511.956 657.804 509.938 657.627 507.94L627.81 511.074 627.601 509.086 657.417 505.952C656.933 501.877 656.1 497.909 654.923 494.09L626.384 503.363 625.767 501.461 654.29 492.193C652.973 488.333 651.321 484.63 649.36 481.121L623.388 496.116 622.388 494.384 648.363 479.387C646.278 475.904 643.883 472.632 641.225 469.593L618.949 489.65 617.611 488.164 639.891 468.104C637.14 465.14 634.134 462.416 630.894 459.984L613.264 484.25 611.647 483.074 629.268 458.821C625.975 456.498 622.468 454.462 618.778 452.75L606.579 480.15 604.753 479.337 616.957 451.927C613.271 450.349 609.413 449.103 605.424 448.197L599.19 477.528 597.233 477.112 603.468 447.774C599.561 447.008 595.532 446.586 591.414 446.526L591.414 476.5 589.414 476.5 589.414 446.525C585.296 446.585 581.267 447.007 577.359 447.773L583.595 477.111 581.638 477.527 575.403 448.196C571.414 449.102 567.555 450.348 563.87 451.926L576.074 479.336 574.248 480.149 562.049 452.749C558.359 454.461 554.852 456.497 551.559 458.82L569.18 483.074 567.563 484.25 549.933 459.984C546.693 462.416 543.686 465.14 540.935 468.104L563.214 488.164 561.876 489.65 539.6 469.593C536.942 472.632 534.547 475.904 532.462 479.386L558.437 494.383 557.437 496.115 531.465 481.12C529.504 484.629 527.852 488.332 526.535 492.192L555.057 501.46 554.44 503.362 525.902 494.089C524.725 497.908 523.892 501.876 523.408 505.951L553.224 509.085 553.015 511.073 523.199 507.939C523.021 509.937 522.915 511.955 522.915 513.999 522.915 516.043 523.022 518.061 523.199 520.059L553.015 516.925 553.224 518.913 523.408 522.047C523.892 526.122 524.725 530.09 525.902 533.909L554.44 524.636 555.057 526.538 526.535 535.806C527.852 539.666 529.504 543.369 531.465 546.878L557.437 531.883 558.437 533.615 532.462 548.612C534.547 552.095 536.942 555.367 539.6 558.405L561.876 538.348 563.214 539.834 540.935 559.894C543.686 562.859 546.693 565.582 549.933 568.015L567.563 543.749 569.18 544.925 551.559 569.179C554.852 571.502 558.358 573.538 562.048 575.249L574.247 547.849 576.073 548.663 563.87 576.072C567.556 577.65 571.414 578.896 575.403 579.802L581.638 550.471 583.595 550.887 577.359 580.225C581.267 580.991 585.296 581.413 589.414 581.473L589.414 551.5 591.414 551.5 591.414 581.475C595.532 581.415 599.56 580.993 603.468 580.227L597.233 550.889 599.19 550.473 605.424 579.804C609.413 578.898 613.271 577.652 616.957 576.074L604.753 548.665 606.579 547.851 618.778 575.251C622.469 573.539 625.975 571.503 629.268 569.18L611.647 544.926 613.264 543.75 630.894 568.016C634.134 565.584 637.14 562.86 639.891 559.896L617.611 539.836 618.949 538.35 641.225 558.407C643.883 555.368 646.279 552.096 648.363 548.613L622.388 533.616 623.388 531.884 649.36 546.879C651.322 543.37 652.973 539.667 654.29 535.807L625.767 526.539 626.384 524.637 654.923 533.91C656.1 530.091 656.933 526.123 657.417 522.048L627.601 518.914 627.81 516.926ZM590.411 544C573.842 544 560.411 530.569 560.411 514 560.411 497.431 573.842 484 590.411 484 606.98 484 620.411 497.431 620.411 514 620.411 530.569 606.979 544 590.411 544Z" fill="#737373"/><path d="M608.549 628.541C552.666 624.655 535.955 656.396 481.899 651.568 470.493 650.549 461.595 648.126 454 645.09 430.124 635.546 419.173 619.936 384.033 622.784 347.155 625.773 342.788 642.579 305.356 643.892 257.322 645.577 240.376 618.749 195.977 624.703 178.814 627.004 163.953 633.38 154.24 639.331 140.2 647.933 132.467 662 132.467 662L691.134 661.95C691.134 660.466 687.667 656.6 685.307 655.405 668.437 644.496 642.002 630.867 608.549 628.541Z" fill="#FFFFFF"/><g><path d="M918.271 672.853 890.557 628.656C885.881 621.198 891.242 611.509 900.044 611.509L900.044 611.509C908.847 611.509 914.208 601.82 909.531 594.362L881.818 550.165C877.141 542.707 882.502 533.018 891.305 533.018 900.108 533.018 905.469 523.329 900.792 515.871L873.078 471.674C868.402 464.216 873.763 454.527 882.565 454.527 891.368 454.527 896.729 444.838 892.052 437.38L885.244 426.523 868.6 411 833.644 354.2C829.255 347.201 819.058 347.201 814.669 354.2L789 392.2 780.401 398.879 756.258 437.38C751.581 444.838 756.942 454.527 765.745 454.527L765.746 454.527C774.549 454.527 779.91 464.216 775.233 471.674L747.519 515.871C742.843 523.329 748.204 533.018 757.006 533.018 765.808 533.018 771.17 542.707 766.493 550.165L738.78 594.362C734.103 601.82 739.464 611.509 748.267 611.509 757.07 611.509 762.431 621.198 757.754 628.656L730.04 672.853C725.364 680.311 730.725 690 739.527 690L908.782 690C917.587 690 922.948 680.311 918.271 672.853Z" fill="#D1D1D1"/><path d="M794.313 398.98C804.966 405.371 795.854 433.269 804.313 436.98 810.999 439.913 820.101 423.98 830.313 426.98 838.373 429.348 839.205 441.183 844.313 440.98 850.463 440.736 850.542 423.533 860.313 418.98 866.799 415.958 881.646 424.378 885.214 426.503 885.223 426.508 885.23 426.496 885.225 426.487L833.645 344.228C829.256 337.229 819.059 337.229 814.67 344.228L780.414 398.857C780.409 398.865 780.414 398.875 780.422 398.873 782.347 398.405 790.413 396.641 794.313 398.98Z" fill="#F1F1F1"/><g><circle cx="856" cy="626" r="6" fill="#F1F1F1"/><circle cx="872" cy="576" r="6" fill="#F1F1F1"/></g></g><g><path d="M228.271 692.853 200.557 648.656C195.881 641.198 201.242 631.509 210.044 631.509L210.044 631.509C218.847 631.509 224.208 621.82 219.531 614.362L191.818 570.165C187.141 562.707 192.502 553.018 201.305 553.018 210.108 553.018 215.469 543.329 210.792 535.871L183.078 491.674C178.402 484.216 183.763 474.527 192.565 474.527 201.368 474.527 206.729 464.838 202.052 457.38L195.244 446.523 183.133 434.4 143.644 371.667C139.255 364.668 129.058 364.668 124.669 371.667L96.8 413.467 90.401 418.879 66.258 457.38C61.581 464.838 66.942 474.527 75.745 474.527L75.746 474.527C84.549 474.527 89.91 484.216 85.233 491.674L57.52 535.871C52.844 543.329 58.205 553.018 67.007 553.018 75.809 553.018 81.171 562.707 76.494 570.165L48.781 614.362C44.104 621.82 49.465 631.509 58.268 631.509 67.071 631.509 72.432 641.198 67.755 648.656L40.041 692.853C35.365 700.311 40.726 710 49.529 710L218.784 710C227.587 710 232.948 700.311 228.271 692.853Z" fill="#FFC000"/><path d="M104.313 418.98C114.966 425.371 105.854 453.269 114.313 456.98 120.999 459.913 130.101 443.98 140.313 446.98 148.373 449.348 149.205 461.183 154.313 460.98 160.463 460.736 160.542 443.533 170.313 438.98 176.799 435.958 191.646 444.378 195.214 446.503 195.223 446.508 195.23 446.496 195.225 446.487L143.645 364.228C139.256 357.229 129.059 357.229 124.67 364.228L90.414 418.857C90.409 418.865 90.414 418.875 90.422 418.873 92.347 418.405 100.413 416.641 104.313 418.98Z" fill="#F1F1F1"/><g><circle cx="138" cy="486" r="6" fill="#F1F1F1"/><circle cx="114" cy="522" r="6" fill="#737373"/><circle cx="162" cy="540" r="6" fill="#F1F1F1"/><circle cx="78" cy="680" r="6" fill="#737373"/></g></g><g><path d="M831.958 692.853 804.244 648.656C799.568 641.198 804.929 631.509 813.731 631.509L813.731 631.509C822.534 631.509 827.895 621.82 823.218 614.362L795.505 570.165C790.828 562.707 796.189 553.018 804.992 553.018 813.795 553.018 819.156 543.329 814.479 535.871L786.765 491.674C782.089 484.216 787.45 474.527 796.252 474.527 805.055 474.527 810.416 464.838 805.739 457.38L798.931 446.523 785 434.2 747.331 374.2C742.942 367.201 732.745 367.201 728.356 374.2L705.8 409 694.088 418.879 669.945 457.38C665.268 464.838 670.629 474.527 679.432 474.527L679.433 474.527C688.236 474.527 693.597 484.216 688.92 491.674L661.206 535.871C656.53 543.329 661.891 553.018 670.693 553.018 679.495 553.018 684.857 562.707 680.18 570.165L652.467 614.362C647.79 621.82 653.151 631.509 661.954 631.509 670.757 631.509 676.118 641.198 671.441 648.656L643.727 692.853C639.051 700.311 644.412 710 653.214 710L822.469 710C831.274 710 836.635 700.311 831.958 692.853Z" fill="#737373"/><path d="M708 418.98C718.653 425.371 709.541 453.269 718 456.98 724.686 459.913 733.788 443.98 744 446.98 752.06 449.348 752.892 461.183 758 460.98 764.15 460.736 764.229 443.533 774 438.98 780.486 435.958 795.333 444.378 798.901 446.503 798.91 446.508 798.917 446.496 798.912 446.487L747.332 364.228C742.943 357.229 732.746 357.229 728.357 364.228L694.101 418.857C694.096 418.865 694.101 418.875 694.109 418.873 696.034 418.405 704.101 416.641 708 418.98Z" fill="#F1F1F1"/><g><circle cx="712" cy="592" r="6" fill="#F1F1F1"/><circle cx="702" cy="506" r="6" fill="#F1F1F1"/><circle cx="752" cy="676" r="6" fill="#505050"/><circle cx="694" cy="652" r="6" fill="#505050"/></g></g><g><ellipse cx="576" cy="679" rx="26" ry="19" fill="#D1D1D1"/><ellipse cx="618.677" cy="680.866" rx="26" ry="18.999" fill="#FFC000" transform="matrix(0.6974 -0.7167 0.7167 0.6974 -300.754 649.458)"/><ellipse cx="266" cy="707" rx="26" ry="19" fill="#737373"/><ellipse cx="405.69" cy="648.571" rx="26.001" ry="19" fill="#FFC000" transform="matrix(0.9738 -0.2273 0.2273 0.9738 -136.785 109.174)"/><ellipse cx="446" cy="667" rx="26" ry="19" fill="#737373"/><ellipse cx="308.147" cy="647.209" rx="19" ry="26.001" fill="#505050" transform="matrix(0.1574 -0.9875 0.9875 0.1574 -379.489 849.669)"/><ellipse cx="219.69" cy="709.429" rx="26.001" ry="19" fill="#505050" transform="matrix(0.9738 -0.2273 0.2273 0.9738 -155.483 68.4937)"/><ellipse cx="709.998" cy="707.011" rx="26.005" ry="19.001" fill="#D1D1D1" transform="matrix(0.9994 -0.0346 0.0346 0.9994 -24.0351 24.9867)"/><ellipse cx="742.102" cy="719.147" rx="25.999" ry="18.999" fill="#505050" transform="matrix(0.9912 -0.1321 0.1321 0.9912 -88.4818 104.315)"/><g><circle cx="296" cy="642" r="4" fill="#F1F1F1"/><circle cx="306" cy="638" r="2" fill="#F1F1F1"/></g><g><circle cx="230" cy="702" r="2" fill="#FFFFFF"/><circle cx="220" cy="700" r="4" fill="#FFFFFF"/></g><g><circle cx="400" cy="640" r="2" fill="#FFFFFF"/><circle cx="392" cy="642" r="4" fill="#FFFFFF"/></g><g><circle cx="734" cy="714" r="4" fill="#F1F1F1"/><circle cx="738" cy="706" r="2" fill="#F1F1F1"/></g></g><g><path d="M534.184 500.271C534.134 499.912 530.4 493.8 529 489.4 527.216 483.795 527.264 478.223 527.112 477.928 524.215 472.309 520.578 467.132 516.334 462.523 515.988 462.148 510.759 460.191 506.101 456.6 501.301 452.9 500.341 449.582 500.037 449.405 494.287 446.048 488.019 443.488 481.383 441.875 480.87 441.75 471.4 442.6 465 442.4 459.002 442.213 453.36 440.843 452.924 440.918 423.864 445.927 400.879 468.912 395.87 497.972 395.725 498.812 398.1 503 398.1 510.6 398.1 518.2 394.849 528.408 394.849 528.408L394.849 554.586C394.849 554.59 394.851 554.593 394.854 554.595L413.74 565.113C413.742 565.113 413.743 565.114 413.745 565.114L426.849 565.114 426.849 552.007C426.849 552.007 423.9 547.1 423.9 538 423.9 528.9 426.849 522.591 426.849 522.591L426.849 509.897C426.849 503.362 428.508 497.208 431.426 491.831 431.59 491.529 430.85 487.65 437.1 481.4 442.5 476 446.513 476.621 446.784 476.474 452.16 473.556 458.315 471.897 464.85 471.897 468.693 471.897 472.402 472.475 475.9 473.541 476.35 473.678 480.466 472.786 486.6 476.4 492.2 479.7 493.438 484.903 493.676 485.18 497.929 490.134 500.929 496.188 502.184 502.855 502.237 503.139 505.299 504.2 505.499 512.4 505.699 520.6 502.848 531.606 502.848 531.606L502.848 557.789C502.848 557.789 505.699 561.5 505.699 570.4 505.699 579.3 502.848 587.205 502.848 587.205L502.848 613.388C502.848 613.388 505.799 617 505.799 626.5 505.799 636 502.848 642.803 502.848 642.803L502.848 668.986C502.848 668.986 505.699 672.5 505.699 681.9 505.699 691.3 502.848 698.402 502.848 698.402L502.848 724.575C502.848 724.58 502.852 724.585 502.858 724.585L523.1 724.7 534.849 692.585 534.849 666.402C534.849 666.402 531.6 661.6 531.6 653 531.6 644.4 534.849 636.986 534.849 636.986L534.849 610.803C534.849 610.803 531.9 606.2 531.9 597.1 531.9 588 534.849 581.388 534.849 581.388L534.849 555.205C534.849 555.205 532.1 552 532.1 541.8 532.1 531.6 534.849 525.789 534.849 525.789L534.849 509.897C534.849 506.631 534.619 503.419 534.184 500.271Z" fill="#FFFFFF"/><path d="M502.849 724.585 534.849 692.585 534.849 737.896 502.849 738Z" fill="#FFC000"/><path d="M431.426 491.831 394.849 528.408 394.849 509.897C394.849 505.832 395.201 501.848 395.87 497.972L452.924 440.918C456.801 440.25 460.785 439.897 464.849 439.897 470.543 439.897 476.079 440.585 481.382 441.875L446.783 476.474C440.298 479.993 434.946 485.346 431.426 491.831Z" fill="#FFC000"/><path d="M426.849 552.007 413.742 565.114 394.849 565.114 394.849 554.591 426.849 522.591Z" fill="#FFC000"/><path d="M475.9 473.541 500.036 449.405C506.107 452.95 511.599 457.382 516.333 462.523L493.676 485.18C489.028 479.767 482.891 475.67 475.9 473.541Z" fill="#FFC000"/><path d="M502.849 509.897C502.849 507.49 502.614 505.138 502.184 502.855L527.111 477.928C530.652 484.796 533.086 492.323 534.184 500.271L502.849 531.606 502.849 509.897Z" fill="#FFC000"/><path d="M502.849 557.789 534.849 525.789 534.849 555.205 502.849 587.205Z" fill="#FFC000"/><path d="M502.849 613.388 534.849 581.388 534.849 610.803 502.849 642.803Z" fill="#FFC000"/><path d="M502.849 668.986 534.849 636.986 534.849 666.402 502.849 698.402Z" fill="#FFC000"/></g><g><rect x="95.519" y="695.25" width="118.005" height="7.5" fill="#D1D1D1" transform="matrix(0.0089 -1 1 0.0089 -545.82 847.326)"/><path d="M203.276 583.775C202.859 583.358 155.968 564 155.536 564 136.891 563.997 120.009 571.55 107.787 583.762 107.41 584.139 88 630.899 88 631.484 87.996 650.122 95.549 666.996 107.766 679.212 108.135 679.581 154.816 698.987 155.506 698.987 174.151 698.99 191.033 691.437 203.255 679.225 203.627 678.854 223.042 632.19 223.042 631.503 223.046 612.865 215.492 595.99 203.276 583.775Z" fill="#737373"/><g><path d="M203.276 583.775C191.06 571.559 174.181 564.003 155.536 564L155.521 631.493 203.276 583.775Z" fill="#D1D1D1"/><path d="M155.521 631.493 203.255 679.225C215.477 667.013 223.038 650.141 223.042 631.503L155.521 631.493Z" fill="#D1D1D1"/><path d="M155.521 631.493 107.766 679.211C119.982 691.427 136.861 698.983 155.506 698.986L155.521 631.493 155.521 631.493Z" fill="#D1D1D1"/><path d="M155.521 631.493 107.787 583.762C95.566 595.974 88.004 612.846 88 631.484L155.521 631.493 155.521 631.493Z" fill="#D1D1D1"/></g></g><g><rect x="787.292" y="550" width="7.5" height="184" fill="#FFFFFF"/><g><path d="M839.276 493.775C827.06 481.559 810.181 474.003 791.536 474 790.956 474 744.183 493.366 743.787 493.762 731.565 505.974 724.004 522.847 724 541.484 724 542.037 743.359 588.805 743.766 589.212 755.982 601.428 772.861 608.984 791.506 608.987 792.006 608.987 838.939 589.541 839.255 589.225 851.477 577.013 859.038 560.14 859.042 541.503 859.042 540.844 839.613 494.111 839.276 493.775ZM791.521 541.493 791.521 541.493 791.521 541.493 791.521 541.493Z" fill="#FFC000"/><path d="M791.536 474C772.891 473.997 756.009 481.55 743.787 493.762L791.521 541.493 791.536 474Z" fill="#FFFFFF"/><path d="M791.521 541.493 791.506 608.986C810.151 608.989 827.033 601.436 839.255 589.224L791.521 541.493 791.521 541.493Z" fill="#FFFFFF"/><path d="M791.521 541.493 859.042 541.502C859.046 522.864 851.493 505.99 839.276 493.774L791.521 541.493 791.521 541.493Z" fill="#FFFFFF"/><path d="M724 541.484C723.996 560.122 731.549 576.996 743.766 589.212L791.521 541.494 724 541.484Z" fill="#FFFFFF"/></g></g></svg>