<?xml version="1.0" encoding="iso-8859-1"?>
<!-- Generator: Adobe Illustrator 19.0.0, SVG Export Plug-In . SVG Version: 6.00 Build 0)  -->
<svg version="1.1" id="Layer_1" xmlns="http://www.w3.org/2000/svg" xmlns:xlink="http://www.w3.org/1999/xlink" x="0px" y="0px"
	 viewBox="0 0 512 512" style="enable-background:new 0 0 512 512;" xml:space="preserve">
<g>
	<path style="fill:#E6563A;" d="M389.565,512h-83.478c-6.327,0-12.109-3.571-14.935-9.228l-28.772-57.554h-12.761l-28.772,57.554
		c-2.825,5.658-8.607,9.228-14.934,9.228h-83.478c-13.279,0-21.294-14.841-13.891-25.956l16.826-25.239
		c21.728-32.587,39.413-67.804,52.598-104.685c3.098-8.691,12.663-13.212,21.337-10.103c8.685,3.103,13.206,12.658,10.098,21.343
		c-13.989,39.174-32.75,76.597-55.771,111.25h41.967l28.772-57.554c2.825-5.658,8.607-9.228,14.934-9.228h33.391
		c6.327,0,12.109,3.571,14.935,9.228l28.772,57.554h41.967c-23.022-34.652-41.783-72.076-55.771-111.25
		c-3.109-8.685,1.414-18.239,10.098-21.343c8.674-3.109,18.239,1.414,21.337,10.103c13.185,36.881,30.869,72.097,52.598,104.685
		l16.826,25.239C410.859,497.159,402.844,512,389.565,512z"/>
	<path style="fill:#E6563A;" d="M347.88,445.217H164.119c-9.217,0-16.696-7.473-16.696-16.696s7.479-16.696,16.696-16.696H347.88
		c9.217,0,16.696,7.473,16.696,16.696S357.097,445.217,347.88,445.217z"/>
	<path style="fill:#E6563A;" d="M256,445.217c-5.25,0-10.207-2.473-13.359-6.679l-50.087-66.783
		c-5.533-7.375-4.033-17.842,3.337-23.375c7.392-5.516,17.848-4.033,23.381,3.342L256,400.696l36.728-48.973
		c5.543-7.375,16-8.859,23.381-3.342c7.369,5.533,8.87,16,3.337,23.375l-50.087,66.783C266.206,442.744,261.25,445.217,256,445.217z
		"/>
</g>
<g>
	<path style="fill:#D9472B;" d="M386.63,460.804c-21.728-32.587-39.413-67.804-52.598-104.685
		c-3.098-8.691-12.663-13.212-21.337-10.103c-8.685,3.103-13.206,12.658-10.098,21.343c13.989,39.174,32.75,76.597,55.771,111.25
		h-41.967l-28.772-57.554c-2.825-5.658-8.607-9.228-14.934-9.228H256v33.391h6.38l28.772,57.554
		c2.826,5.658,8.608,9.228,14.935,9.228h83.478c13.279,0,21.294-14.841,13.891-25.956L386.63,460.804z"/>
	<path style="fill:#D9472B;" d="M347.88,411.826H256v33.391h91.881c9.217,0,16.696-7.473,16.696-16.696
		S357.097,411.826,347.88,411.826z"/>
	<path style="fill:#D9472B;" d="M269.358,438.538l50.087-66.783c5.533-7.375,4.033-17.842-3.337-23.375
		c-7.381-5.516-17.837-4.033-23.381,3.342L256,400.696v44.522C261.25,445.217,266.206,442.744,269.358,438.538z"/>
</g>
<path style="fill:#E6563A;" d="M209.022,311.309c-9.032-1.864-14.848-10.695-12.978-19.723c6.544-31.782,9.869-64.353,9.869-96.804
	V128c0-9.223,7.479-16.696,16.696-16.696h66.783c9.217,0,16.584,7.473,16.584,16.696v66.783c0,32.451,3.437,65.022,9.981,96.805
	c1.87,9.027-3.946,17.859-12.978,19.723c-1.131,0.234-2.272,0.348-3.391,0.348L209.022,311.309z"/>
<path style="fill:#D9472B;" d="M305.975,194.783V128c0-9.223-7.367-16.696-16.584-16.696H256v200.186l43.587,0.167
	c1.12,0,2.261-0.115,3.391-0.348c9.032-1.864,14.848-10.695,12.978-19.723C309.412,259.804,305.975,227.233,305.975,194.783z"/>
<path style="fill:#E6563A;" d="M256,77.913c-9.217,0-16.696-7.473-16.696-16.696V16.696C239.304,7.473,246.783,0,256,0
	c9.217,0,16.584,7.473,16.584,16.696v44.522C272.584,70.44,265.217,77.913,256,77.913z"/>
<path style="fill:#D9472B;" d="M272.584,61.217V16.696C272.584,7.473,265.217,0,256,0v77.913
	C265.217,77.913,272.584,70.44,272.584,61.217z"/>
<path style="fill:#EDF0F2;" d="M322.782,211.478H189.217c-9.217,0-16.696-7.473-16.696-16.696c0-9.223,7.479-16.696,16.696-16.696
	h133.565c9.217,0,16.696,7.473,16.696,16.696C339.478,204.005,331.999,211.478,322.782,211.478z"/>
<path style="fill:#DAE1E6;" d="M322.782,178.087H256v33.391h66.783c9.217,0,16.696-7.473,16.696-16.696
	C339.478,185.56,331.999,178.087,322.782,178.087z"/>
<path style="fill:#EDF0F2;" d="M305.975,144.696H205.913V61.217c0-9.22,7.475-16.696,16.696-16.696h66.783
	c9.22,0,16.584,7.475,16.584,16.696V144.696z"/>
<path style="fill:#DAE1E6;" d="M289.391,44.522H256v100.174h49.976V61.217C305.975,51.997,298.612,44.522,289.391,44.522z"/>
<path style="fill:#EDF0F2;" d="M356.174,378.435H155.826c-9.217,0-16.696-7.473-16.696-16.696v-66.783
	c0-9.223,7.479-16.696,16.696-16.696h200.348c9.217,0,16.584,7.473,16.584,16.696v66.783
	C372.758,370.962,365.391,378.435,356.174,378.435z"/>
<path style="fill:#DAE1E6;" d="M356.174,278.261H256v100.174h100.174c9.217,0,16.584-7.473,16.584-16.696v-66.783
	C372.758,285.734,365.391,278.261,356.174,278.261z"/>
<rect x="172.521" y="311.652" style="fill:#806A5F;" width="166.845" height="33.391"/>
<rect x="256" y="311.652" style="fill:#736056;" width="83.367" height="33.391"/>
<g>
</g>
<g>
</g>
<g>
</g>
<g>
</g>
<g>
</g>
<g>
</g>
<g>
</g>
<g>
</g>
<g>
</g>
<g>
</g>
<g>
</g>
<g>
</g>
<g>
</g>
<g>
</g>
<g>
</g>
</svg>
