<svg id="Layer_1" data-name="Layer 1" xmlns="http://www.w3.org/2000/svg" viewBox="0 0 643 468"><defs><style>@import url('https://fonts.googleapis.com/css2?family=Kiwi+Maru:wght@500&display=swap');@import url('https://fonts.googleapis.com/css2?family=Balsamiq+Sans:ital@1&family=Kiwi+Maru:wght@500&display=swap');
    .lb1{font-family:Kiwi Maru, serif; font-size: 35px;}.lb1{fill:#2c7bb6;}.txt1{font-family: Balsamiq Sans, cursive; font-size: 32px;}.color1{fill:#23282b;}.color2{fill:#fff;}.lb1{fill:#fff;}.color-1{fill:#00b9c4;}</style></defs><rect class="text-wrap" height="300" width="270" x="320" y="300" style="fill:none"/><text id="wrap" class="txt1" y="300" x="320" dy="1" font-size="12"></text><path class="color-1" d="M316.84,468.63l-1.93-14.45c4.79-.62,9.59-1.45,14.28-2.48l3.21,14.23C327.29,467,322.06,468,316.84,468.63Zm30.82-6.73L343.2,448c4.59-1.42,9.17-3.06,13.63-4.89l5.67,13.46C357.65,458.55,352.66,460.34,347.66,461.9ZM376.82,450,370,437.06c4.27-2.2,8.49-4.62,12.55-7.17l8,12.27C386.07,445,381.47,447.58,376.82,450Zm26.6-16.76-9-11.54c3.84-2.91,7.58-6,11.11-9.21l10,10.74C411.66,426.68,407.59,430.05,403.42,433.21Zm23.24-21-10.91-9.85c3.25-3.48,6.39-7.17,9.33-10.94l11.74,8.87C433.62,404.38,430.2,408.4,426.66,412.19Zm19.24-24.67-12.49-7.82c2.6-4,5-8.19,7.26-12.38l13.12,6.74C451.38,378.61,448.72,383.14,445.9,387.52Zm14.58-27.58-13.68-5.57c1.85-4.38,3.51-8.9,5-13.43l14.12,4.38C464.31,350.25,462.49,355.17,460.48,359.94ZM470,330.28l-14.46-3.14c1-4.62,1.88-9.35,2.49-14.07l14.69,1.87C472,320.09,471.07,325.25,470,330.28ZM474,299.45l-14.79-.62c.1-2.33.15-4.68.15-7s-.05-4.85-.16-7.26L474,283.9q.18,3.93.18,7.91C474.18,294.37,474.13,296.92,474,299.45ZM458,270.3c-.63-4.71-1.47-9.45-2.51-14.07l14.45-3.16c1.14,5,2.06,10.2,2.74,15.33Zm-6.27-27.87c-1.45-4.5-3.12-9-5-13.42l13.66-5.59c2,4.8,3.84,9.72,5.42,14.62Zm-11.13-26.35c-2.23-4.18-4.68-8.34-7.28-12.35l12.47-7.86c2.84,4.37,5.5,8.89,7.93,13.46ZM424.92,192c-2.93-3.75-6.07-7.42-9.35-10.93l10.9-9.86c3.57,3.82,7,7.82,10.19,11.91ZM405.3,171c-3.56-3.2-7.3-6.29-11.12-9.18l9-11.57c4.17,3.15,8.24,6.51,12.12,10Zm-23-17.38c-4-2.54-8.28-4.94-12.56-7.13l6.82-12.94c4.68,2.39,9.28,5,13.7,7.78Zm-25.72-13.18c-4.47-1.81-9.06-3.45-13.63-4.87l4.43-13.9c5,1.53,10,3.32,14.86,5.3Zm-27.65-8.54c-4.68-1-9.49-1.83-14.29-2.45L316.51,115c5.23.67,10.47,1.56,15.57,2.66Z" transform="translate(-195 -115)"/><path class="color-1" d="M390.39,291.83C390.39,345,346.63,388,292.7,388S195,345,195,291.83s43.77-96.21,97.7-96.21S390.39,238.7,390.39,291.83Z" transform="translate(-195 -115)"/><text class="lb1" x="20" y="190" font-size="30">4</text><image class="img1" x='380' y='130' href='sample_img.png' width='160'/></svg>