<svg id="Layer_1" data-name="Layer 1" xmlns="http://www.w3.org/2000/svg" viewBox="0 0 729 286"><defs><style>@import url('https://fonts.googleapis.com/css2?family=Kiwi+Maru:wght@500&display=swap');@import url('https://fonts.googleapis.com/css2?family=Balsamiq+Sans:ital@1&family=Kiwi+Maru:wght@500&display=swap');
    .lb1{font-family:Kiwi Maru, serif; font-size: 50px;}.lb1{fill:#2c7bb6;}.txt1{font-family: Balsamiq Sans, cursive; font-size: 26px;fill: aliceblue;}.color2{fill:#fffbf5;}</style></defs><polygon class="color-1" points="729 142.99 636.71 11.09 636.4 44.68 237.55 44.68 237.55 241.32 636.4 241.32 636.71 274.91 729 142.99"/><rect class="text-wrap" height="150" width="300" x="310" y="80" style="fill:none"/><text id="wrap" class="txt1" y="80" x="330" dy="1" font-size="22"></text><ellipse class="color2" cx="156.22" cy="143" rx="134.96" ry="123.54"/><path class="color-1" d="M312.22,292.93c62.69,0,113.69,46.68,113.69,104.07s-51,104.07-113.69,104.07S198.53,454.39,198.53,397s51-104.07,113.69-104.07m0-38.93C225.94,254,156,318,156,397s69.94,143,156.22,143,156.22-64,156.22-143S398.49,254,312.22,254Z" transform="translate(-156 -254)"/><text class="lb1" transform="translate(60.91 158.23)">04</text></svg>