<svg id="Layer_1" data-name="Layer 1" xmlns="http://www.w3.org/2000/svg" viewBox="0 0 518 604"><defs><style>@import url('https://fonts.googleapis.com/css2?family=Kiwi+Maru:wght@500&display=swap');@import url('https://fonts.googleapis.com/css2?family=Balsamiq+Sans:ital@1&family=Kiwi+Maru:wght@500&display=swap');
    .lb1{font-family:Kiwi Maru, serif; font-size: 50px;}.lb1{fill:#2c7bb6;}.txt1{font-family: Balsamiq Sans, cursive; font-size: 22px;}.color-1{fill:#59bdc9;}</style></defs><path class="color-1" d="M701.75,101H415.48c-14.56,0-26.36,10.86-26.36,24.26V258.31c0,13.4,11.8,24.26,26.36,24.26h26.45v58c0,5.74,7.45,8.71,12,4.78l72.72-62.77H701.75c14.56,0,26.37-10.86,26.37-24.26v-133C728.12,111.86,716.31,101,701.75,101Z" transform="translate(-301 -101)"/><path class="color-1" d="M330.8,329.35c0,16.17,14.24,29.27,31.83,29.27s31.83-13.1,31.83-29.27S380.2,300,362.63,300s-31.83,13.12-31.83,29.31Zm0,0" transform="translate(-301 -101)"/><path class="color-1" d="M383.79,365.77a13.18,13.18,0,0,0-1.63-.74,38.13,38.13,0,0,0-11.6-4.69l-7.94,7.34-7.68-7.43h-.08a38.57,38.57,0,0,0-11.64,4.67,13,13,0,0,0-1.88.84c-19.34,10.91-32.24,20.05-39,54.45h51.75l.82-4.22,7.66-47.23h.17L370.37,416l.92,4.22h51.54c-6.8-34.41-19.69-43.54-39-54.45Zm0,0" transform="translate(-301 -101)"/><rect class="text-wrap" height="150" width="300" x="100" y="20" style="fill:none"/><text id="wrap" class="txt1" fill="whitesmoke" y="30" x="100" dy="1" font-size="22"></text><text class="lb1" font-size="80" x="200" y="550">04</text><image class="img1" x='0' y='450' href='sample_img.png' width='180'/></svg>