<svg id="Layer_1" data-name="Layer 1" xmlns="http://www.w3.org/2000/svg" viewBox="0 0 755 563"><defs><style>@import url('https://fonts.googleapis.com/css2?family=Kiwi+Maru:wght@500&display=swap');@import url('https://fonts.googleapis.com/css2?family=Balsamiq+Sans:ital@1&family=Kiwi+Maru:wght@500&display=swap');
    .lb1{font-family:Kiwi Maru, serif; font-size: 50px;}.lb1{fill:aliceblue;}.txt1{font-family: Balsamiq Sans, cursive; font-size: 32px;}.color-1{fill:#a1d13b;}</style></defs><path class="color-1" d="M435.48,106,310.18,221.83c27.56,25.46,27.56,66.85.07,92.37s-72.44,25.45-99.89,0L131,387.49,235.44,484a7.88,7.88,0,0,1,0,11.62,9.27,9.27,0,0,1-4,2.06,6.15,6.15,0,0,0-1.64.21A36.65,36.65,0,0,0,210.36,507c-13.88,12.79-13.88,33.48,0,46.24s36.15,12.72,50,0a32.16,32.16,0,0,0,9.84-18v0a7.14,7.14,0,0,0,.27-1.53l.06-.06a7.52,7.52,0,0,1,2.21-3.59,9.32,9.32,0,0,1,12.5,0L435.51,669c73.92-74,119.24-172.83,119.24-281.49S509.42,180,435.48,106Z" transform="translate(-131 -106)"/><text class="lb1" x="120" y="330" font-size="50">L</text><image class="img1" x='580' y='90' href='sample_img.png' width='200'/><rect class="text-wrap" height="200" width="200" x="560" y="280" style="fill:none"/><text id="wrap" class="txt1" x="560" y="280" dy="1"></text></svg>