<svg id="Layer_1" data-name="Layer 1" xmlns="http://www.w3.org/2000/svg" viewBox="0 0 755 563"><defs><style>.cls-1{fill:#a1d13b;}.cls-2{fill:#fff;}.cls-3{fill:#23282b;}.cls-4{fill:#b2b2b2;}</style></defs><path class="cls-1" d="M435.48,106,310.18,221.83c27.56,25.46,27.56,66.85.07,92.37s-72.44,25.45-99.89,0L131,387.49,235.44,484a7.88,7.88,0,0,1,0,11.62,9.27,9.27,0,0,1-4,2.06,6.15,6.15,0,0,0-1.64.21A36.65,36.65,0,0,0,210.36,507c-13.88,12.79-13.88,33.48,0,46.24s36.15,12.72,50,0a32.16,32.16,0,0,0,9.84-18v0a7.14,7.14,0,0,0,.27-1.53l.06-.06a7.52,7.52,0,0,1,2.21-3.59,9.32,9.32,0,0,1,12.5,0L435.51,669c73.92-74,119.24-172.83,119.24-281.49S509.42,180,435.48,106Z" transform="translate(-131 -106)"/><path class="cls-2" d="M431.3,385.92A22.77,22.77,0,0,0,450,363c0-13.36-10.57-25.51-31.18-25.51h-57V437.56h58.78c20.78,0,31.5-12,31.5-27.17A24.58,24.58,0,0,0,431.3,385.92Zm-46.43-29.71h28.9c7.81,0,12.67,4.34,12.67,10.51,0,6.45-4.86,10.51-12.67,10.51h-28.9Zm29.88,62.58H384.87V396h29.88c8.92,0,13.81,5.11,13.81,11.4C428.56,414.59,423.36,418.79,414.75,418.79Z" transform="translate(-131 -106)"/><rect class="cls-3" x="645.47" y="188.7" width="34" height="9.49"/><polygon class="cls-3" points="678.76 152.05 678.76 164.26 670.6 164.26 670.6 152.05 654.33 152.05 654.33 164.26 646.17 164.26 646.17 152.05 629.92 152.05 629.92 188.7 695.02 188.7 695.02 152.05 678.76 152.05"/><rect class="cls-3" x="629.92" y="198.19" width="65.09" height="9.2"/><polygon class="cls-3" points="679.47 207.39 645.47 207.39 629.92 269.93 695.02 269.93 679.47 207.39"/><rect class="cls-3" x="617.69" y="269.93" width="89.55" height="16.56"/><rect class="cls-4" x="616.2" y="309.12" width="92.53" height="11.32"/><rect class="cls-4" x="569.93" y="331.76" width="185.07" height="11.32"/><rect class="cls-4" x="569.93" y="354.4" width="185.07" height="11.32"/><rect class="cls-4" x="569.93" y="377.03" width="185.07" height="11.32"/><rect class="cls-4" x="569.93" y="399.68" width="92.53" height="11.32"/></svg>
