<svg viewBox="0 0 960 960" xmlns="http://www.w3.org/2000/svg" xmlns:xlink="http://www.w3.org/1999/xlink" id="e527ae6f-dd75-45f1-b476-414c561c04fc" overflow="hidden"><circle cx="669.972" cy="182.15" r="82.675" fill="#FFC000"/><path d="M177.429 668.114C177.422 668.114 177.417 668.107 177.42 668.1 218.888 559.282 254.588 534.817 280.299 533.996 297.688 533.441 310.126 543.68 381.346 563.392 442.018 580.184 441.487 570.933 486.987 584.52 566.974 608.405 567.903 641.229 621.104 641.474 668.399 641.692 683.851 632.893 710.209 639.637 721.112 642.427 736.769 649.217 753.369 668.097 753.375 668.103 753.37 668.114 753.362 668.114L177.429 668.114Z" fill="#F1F1F1"/><g><rect x="152.022" y="668.114" width="193.123" height="1.837" fill="#D1D1D1"/><rect x="204.054" y="680.056" width="63.384" height="1.837" fill="#D1D1D1"/><rect x="605.488" y="680.056" width="63.384" height="1.837" fill="#D1D1D1"/><rect x="186.964" y="692.917" width="40.055" height="1.837" fill="#D1D1D1"/><rect x="668.872" y="692.917" width="61.187" height="1.837" fill="#D1D1D1"/><rect x="432.789" y="692.917" width="63.384" height="1.837" fill="#D1D1D1"/><rect x="544.645" y="667.195" width="213.333" height="1.837" fill="#D1D1D1"/></g><g><path d="M738.342 373.567C727.069 331.883 677.613 308.995 627.879 322.444 611.391 326.903 596.947 334.799 585.41 344.879 585.394 344.893 585.387 344.889 585.396 344.869 595.809 320.843 585.887 289.392 560.166 270.054 543.911 257.833 524.76 253.02 507.77 255.339 538.359 281.879 557.332 313.181 563.677 339.657 563.692 339.718 563.683 339.72 563.659 339.662 558.535 327.577 550.859 315.97 540.697 305.755 504.364 269.229 450.09 264.305 419.475 294.757 412.903 301.294 407.961 308.931 404.602 317.254 438.994 298.979 498.925 316.946 554.624 361.522 554.654 361.546 554.65 361.553 554.615 361.538 521.184 347.388 480.633 344.039 439.871 354.783 353.788 377.473 299.418 454.357 318.434 526.507 322.516 541.995 329.655 556 339.19 568.229 341.818 496.464 431.34 416.957 558.93 373.668 558.933 373.667 558.937 373.668 558.939 373.67 641.313 439.478 686.008 521.877 668.762 575.3 679.01 568.88 687.975 560.52 695.095 550.258 728.263 502.456 708.906 431.629 651.862 392.06 627.581 375.218 600.39 366.768 574.604 366.289 574.548 366.288 574.548 366.28 574.603 366.27 648.141 353.892 712.296 370.885 739.964 400.485 741.22 391.6 740.762 382.515 738.342 373.567Z" fill="#D1D1D1"/><path d="M568.233 369.603 556.791 371.51C531.958 390.634 510.202 411.038 490.876 432.346 477.013 447.63 464.581 463.559 453.235 480.048 442.702 495.354 433.09 511.133 424.49 527.57 407.768 559.53 394.477 593.704 384.092 630.593 377.198 655.979 372.229 681.755 369.052 707.405 367.781 717.675 366.785 728.172 366.106 737.989 363.398 777.207 365.456 806.854 366.81 820.314 366.81 820.314 367.938 829.791 367.938 829.791L451.425 829.791C451.103 828.449 450.588 826.184 450.588 826.184 434.913 758.647 431.794 696.259 441.755 629.643 445.34 606.464 450.265 585.007 456.827 563.133 461.341 548.165 466.531 533.562 472.321 519.336 486.45 482.397 506.682 448.238 525.19 421.899 540.207 400.529 554.078 384.229 562.068 375.903 566.416 371.373 567.988 369.8 568.242 369.618 568.263 369.604 568.255 369.599 568.233 369.603Z" fill="#E5E5E5"/><g><path d="M439.613 645.248C439.692 644.596 439.77 643.943 439.851 643.292L379.307 649.588C379.304 649.599 379.302 649.61 379.299 649.621 379.282 649.692 379.267 649.763 379.25 649.834 379.116 650.41 378.996 650.988 378.864 651.565L439.613 645.248Z" fill="#FFFFFF"/><path d="M436.43 685.307C436.455 684.666 436.484 684.027 436.511 683.388L372.574 683.388C372.467 684.028 372.357 684.668 372.252 685.307L436.43 685.307Z" fill="#FFFFFF"/><path d="M368.408 712.867 368.354 713.728 436.214 717.969C436.197 717.327 436.175 716.685 436.161 716.042L368.527 711.815C368.487 712.165 368.448 712.516 368.408 712.867Z" fill="#FFFFFF"/><path d="M475.274 511.887 441.067 498.632C440.855 498.973 440.646 499.317 440.434 499.658 440.305 499.87 440.174 500.082 440.044 500.294L474.558 513.668C474.797 513.074 475.032 512.479 475.274 511.887Z" fill="#FFFFFF"/><path d="M417.576 541.367 463.951 541.367C463.989 541.258 464.469 539.913 464.631 539.458 464.633 539.452 464.628 539.447 464.621 539.447L418.484 539.447C418.175 540.08 417.873 540.718 417.567 541.353 417.564 541.36 417.569 541.367 417.576 541.367Z" fill="#FFFFFF"/><path d="M436.082 698.503 369.312 705.447C369.229 706.099 369.133 706.753 369.053 707.405L436.066 700.436C436.072 699.791 436.074 699.147 436.082 698.503Z" fill="#FFFFFF"/><path d="M435.745 507.411C435.407 507.983 435.072 508.554 434.737 509.126L472.323 519.334C472.553 518.732 472.798 518.138 473.032 517.538L435.745 507.411Z" fill="#FFFFFF"/><path d="M411.111 555.263 456.281 564.977C456.464 564.362 456.644 563.744 456.828 563.131L411.91 553.471C411.642 554.068 411.378 554.666 411.111 555.263Z" fill="#FFFFFF"/><path d="M366.107 737.988 436.647 729.386C436.615 728.745 436.586 728.105 436.556 727.464L366.248 736.038C366.201 736.686 366.151 737.339 366.107 737.982 366.108 737.984 366.107 737.986 366.107 737.988Z" fill="#FFFFFF"/><path d="M395.995 593.169 450.157 587.536C450.319 586.879 450.481 586.222 450.645 585.567 450.647 585.561 450.641 585.554 450.635 585.555L396.692 591.165C396.454 591.826 396.222 592.492 395.986 593.155 395.983 593.163 395.988 593.169 395.995 593.169Z" fill="#FFFFFF"/><path d="M384.117 630.508C384.109 630.536 384.101 630.565 384.094 630.593L441.46 631.557C441.555 630.924 441.656 630.298 441.753 629.667 441.754 629.659 441.755 629.65 441.757 629.642L441.757 629.642 384.643 628.682C384.469 629.292 384.29 629.897 384.117 630.508Z" fill="#FFFFFF"/></g></g><g><path d="M525.307 194.766C427.762 269.189 352.806 369.23 308.507 483.071 266.674 589.517 248.017 716.423 259.417 828.283 259.417 828.284 259.598 829.789 259.598 829.789L374.727 829.789C373.948 826.538 372.574 820.495 372.574 820.495 333.362 651.567 355.303 478.02 439.927 326.442 452.417 303.991 466.087 282.308 480.779 261.707 511.363 218.788 535.604 195.778 536.169 195.177 536.169 195.178 525.307 194.766 525.307 194.766Z" fill="#E5E5E5"/><g><path d="M354.392 626.701C354.421 626.056 354.443 625.406 354.474 624.762L267.109 633.848C266.998 634.502 266.894 635.158 266.785 635.813L354.392 626.701Z" fill="#D1D1D1"/><path d="M258.968 698.41 355.311 704.432C355.268 703.788 355.227 703.145 355.187 702.501L259.133 696.497C259.077 697.136 259.022 697.773 258.968 698.41Z" fill="#D1D1D1"/><path d="M354.92 616.427C354.958 615.785 355.005 615.149 355.045 614.509L270.905 613.095C270.78 613.733 270.658 614.371 270.534 615.009L354.92 616.427Z" fill="#D1D1D1"/><path d="M259.783 689.428C259.72 690.079 259.657 690.731 259.596 691.378L354.139 681.545C354.116 680.904 354.093 680.262 354.072 679.621L259.783 689.428Z" fill="#D1D1D1"/><path d="M262.038 668.805 353.815 668.805C353.804 668.165 353.794 667.525 353.785 666.886L262.274 666.886C262.192 667.528 262.116 668.165 262.038 668.805Z" fill="#D1D1D1"/><path d="M306.744 487.665C306.513 488.265 306.282 488.865 306.053 489.466L333.144 496.824 369.041 513.77C369.181 513.127 369.325 512.489 369.466 511.848L343.83 499.746C343.776 499.72 343.779 499.712 343.837 499.728L370.553 506.984C370.696 506.358 370.843 505.737 370.987 505.113L333.812 495.016 308.509 483.071 308.509 483.071C308.275 483.666 308.052 484.271 307.819 484.868L323.126 492.094C323.18 492.12 323.177 492.128 323.119 492.112L306.744 487.665Z" fill="#D1D1D1"/><path d="M256.163 767.001 362.917 771.376C362.813 770.732 362.717 770.087 362.615 769.443L256.143 765.079C256.145 765.721 256.158 766.36 256.163 767.001Z" fill="#D1D1D1"/><path d="M293.926 523.861C293.72 524.498 293.525 525.142 293.32 525.78L366.551 525.78C366.551 525.78 366.551 525.78 366.551 525.78 366.679 525.136 366.807 524.491 366.936 523.848 366.936 523.848 366.936 523.848 366.936 523.848L298.962 508.921C298.75 509.53 298.536 510.136 298.325 510.746L357.958 523.841C358.006 523.851 358.005 523.86 357.956 523.86L293.926 523.86Z" fill="#D1D1D1"/><path d="M359.368 569.569C359.453 568.915 359.541 568.264 359.628 567.611L279.108 575.985C278.945 576.645 278.783 577.305 278.622 577.966L359.368 569.569Z" fill="#D1D1D1"/><path d="M372.095 500.373 311.044 476.715C310.806 477.309 310.569 477.903 310.332 478.498L371.648 502.259C371.797 501.629 371.946 501 372.095 500.373Z" fill="#D1D1D1"/><path d="M361.662 553.492C361.76 552.859 361.857 552.224 361.957 551.592L290.082 536.135C289.895 536.748 289.715 537.365 289.53 537.979L361.662 553.492Z" fill="#D1D1D1"/><path d="M355.541 707.894 257.438 719.858C257.4 720.507 257.361 721.16 257.325 721.805L355.686 709.81C355.639 709.171 355.586 708.533 355.541 707.894Z" fill="#D1D1D1"/><path d="M450.012 308.91C450.342 308.356 450.671 307.809 451 307.259L425.15 289.117C424.73 289.604 424.321 290.098 423.903 290.586L450.012 308.91Z" fill="#D1D1D1"/><path d="M364.636 781.547C364.525 780.917 364.41 780.287 364.3 779.656L257.183 799.585C257.219 800.23 257.26 800.873 257.297 801.517L364.636 781.547Z" fill="#D1D1D1"/><path d="M464.417 285.746 438.066 274.602C437.608 275.102 437.153 275.605 436.697 276.107L463.357 287.382C463.711 286.834 464.064 286.29 464.417 285.746Z" fill="#D1D1D1"/><path d="M404.925 313.743C404.502 314.284 404.072 314.819 403.651 315.361L439.927 326.443C440.247 325.868 440.567 325.301 440.887 324.729L404.925 313.743Z" fill="#D1D1D1"/><path d="M463.839 247.961 479.653 263.289C480.03 262.756 480.404 262.235 480.78 261.708L465.222 246.628C464.763 247.073 464.296 247.516 463.839 247.961Z" fill="#D1D1D1"/><path d="M457.678 254.049 476.034 268.452C476.4 267.925 476.767 267.395 477.131 266.873L459.053 252.688C458.596 253.142 458.132 253.594 457.678 254.049Z" fill="#D1D1D1"/><path d="M380.17 347.532C379.802 348.069 379.431 348.604 379.065 349.142L419.095 366.87C419.369 366.292 419.643 365.713 419.919 365.135L380.17 347.532Z" fill="#D1D1D1"/><path d="M328.467 437.116C328.187 437.703 327.915 438.289 327.637 438.875L384.549 455.163C384.74 454.552 384.923 453.939 385.116 453.328L328.467 437.116Z" fill="#D1D1D1"/><path d="M336.425 421.03C336.134 421.6 335.839 422.169 335.55 422.739L386.746 448.265C386.946 447.649 387.14 447.032 387.341 446.417L336.425 421.03Z" fill="#D1D1D1"/><path d="M370.441 362.09C370.08 362.647 369.729 363.212 369.37 363.77L414.173 377.456C414.439 376.868 414.715 376.283 414.983 375.696L370.441 362.09Z" fill="#D1D1D1"/><path d="M341.961 410.401C341.654 410.977 341.356 411.554 341.051 412.13L393.604 428.184C393.821 427.581 394.04 426.979 394.258 426.377L341.961 410.401Z" fill="#D1D1D1"/><path d="M350.99 394.06C350.671 394.619 350.354 395.18 350.036 395.74L398.085 416.061C398.313 415.463 398.542 414.865 398.772 414.268L350.99 394.06Z" fill="#D1D1D1"/></g><path d="M628.384 149.415C599.291 149.416 572.463 157.513 550.906 171.153 550.9 171.157 550.9 171.156 550.905 171.152 551.919 170.275 552.91 169.361 553.859 168.385 575.31 146.344 571.372 107.733 545.063 82.146 530.481 67.964 512.088 60.764 494.936 60.912 527.26 97.08 542.195 137.913 540.08 166.851 540.078 166.881 540.069 166.882 540.061 166.853 533.926 144.796 521.651 123.162 503.454 104.833 454.482 55.504 381.265 48.788 339.919 89.832 331.044 98.643 324.365 108.94 319.823 120.164 327.986 115.837 337.218 113.029 347.29 111.656L358.305 94.957C358.311 94.948 358.324 94.952 358.323 94.962 358.23 95.56 357.127 102.53 354.862 110.905 369.44 109.974 385.548 111.796 402.606 116.193L407.133 91.305C407.135 91.296 407.148 91.294 407.152 91.303 411.334 101.446 412.832 111.445 413.242 119.231 425.725 123.132 438.631 128.331 451.744 134.759L464.834 119.637C464.84 119.63 464.852 119.635 464.851 119.644 464.4 127.746 462.214 134.415 460.157 139.04 463.629 140.869 467.113 142.778 470.604 144.773L476.143 114.317C476.145 114.308 476.158 114.306 476.162 114.315 482.362 129.355 482.666 144.076 482.263 151.732 489.706 156.362 497.16 161.364 504.59 166.717L507.043 145.001C507.044 144.99 507.058 144.985 507.061 144.995 507.264 145.838 510.091 157.641 512.244 170.501 512.245 170.508 512.239 170.514 512.232 170.512 478.857 161.786 441.357 161.431 403.701 171.356 302.93 197.92 239.284 287.92 261.543 372.38 266.322 390.51 274.678 406.905 285.84 421.221 286.347 407.378 289.628 393.29 295.402 379.186L281.98 352.34C281.975 352.331 281.984 352.32 281.992 352.326 282.565 352.787 290.853 359.485 300.108 368.794 309.837 349.173 324.285 329.63 342.789 310.787L313.866 286.229C313.859 286.223 313.864 286.211 313.874 286.212 330.185 288.392 344.294 293.95 354.712 299.26 369.141 285.983 385.572 273.131 403.753 260.932L393.94 232.583C393.937 232.574 393.947 232.567 393.955 232.572 404.14 239.236 411.161 247.081 415.623 253.224 420.602 250.089 425.693 246.999 430.902 243.965L395.511 213.916C395.504 213.91 395.509 213.898 395.519 213.899 419.701 217.131 439.044 227.784 448.682 234.052 460.276 227.864 472.361 221.941 484.883 216.312L458.512 196.821C458.503 196.815 458.504 196.799 458.515 196.802 459.588 197.119 479.057 202.894 498.556 210.359 511.365 204.961 524.604 199.881 538.215 195.146 538.219 195.145 538.223 195.146 538.226 195.149 548.047 207.776 557.221 220.521 565.711 233.301 584.971 237.607 603.326 243.226 604.376 243.548 604.386 243.551 604.38 243.565 604.369 243.565L573.381 245.146C580.312 256.134 586.746 267.126 592.653 278.069 603.532 278.166 624.358 279.88 645.118 289.977 645.127 289.981 645.125 289.994 645.115 289.996L601.491 295.186C604.013 300.303 606.412 305.402 608.699 310.479 615.43 307.968 625.069 305.453 636.586 305.523 636.595 305.523 636.599 305.535 636.592 305.541L614.028 322.766C621.987 341.895 628.224 360.624 632.66 378.641 643.652 379.9 657.686 382.896 671.689 389.706 671.698 389.71 671.696 389.724 671.686 389.725L636.035 393.966C640.774 418.503 641.949 441.472 639.36 462.034 651.517 459.535 661.549 458.586 662.257 458.521 662.267 458.52 662.268 458.534 662.259 458.539L637.637 472.69C634.815 486.833 630.034 499.66 623.195 510.842 639.484 505.389 654.649 496.829 667.899 485.03 729.623 430.062 726.496 325.798 660.915 252.152 632.161 219.862 596.177 198.84 559.626 190.024 559.546 190.005 559.548 189.997 559.63 190.006 657.771 201.014 733.982 242.233 749.609 293.786 754.484 282.398 757.146 270.127 757.146 257.333 757.143 197.729 699.494 149.414 628.384 149.415ZM449.033 107.793C447.297 108.796 444.67 107.499 443.165 104.895 441.66 102.291 441.847 99.367 443.583 98.363 445.319 97.36 447.946 98.657 449.451 101.261 450.956 103.866 450.769 106.79 449.033 107.793ZM320.839 308.757C320.839 311.763 317.184 314.2 312.675 314.2 308.166 314.2 304.511 311.763 304.511 308.757 304.511 305.751 308.166 303.314 312.675 303.314 317.183 303.314 320.839 305.751 320.839 308.757ZM358.551 249.662C354.042 249.662 350.387 247.225 350.387 244.219 350.387 241.213 354.042 238.776 358.551 238.776 363.06 238.776 366.715 241.213 366.715 244.219 366.715 247.226 363.06 249.662 358.551 249.662ZM662.683 441.397C658.422 441.614 654.85 439.486 654.705 436.645 654.561 433.804 657.898 431.325 662.159 431.109 666.42 430.892 669.992 433.02 670.137 435.861 670.282 438.701 666.945 441.18 662.683 441.397ZM684.256 415.858C690.087 419.724 692.723 426.009 690.146 429.896 687.569 433.783 680.753 433.8 674.923 429.933 669.093 426.067 666.456 419.782 669.034 415.896 671.611 412.009 678.426 411.992 684.256 415.858ZM651.978 328.953C653.55 326.582 657.707 326.572 661.263 328.93 664.819 331.288 666.427 335.122 664.855 337.492 663.283 339.863 659.126 339.873 655.57 337.515 652.015 335.157 650.406 331.323 651.978 328.953Z" fill="#737373"/><g><path d="M298.735 252.089C298.632 252.089 298.528 252.056 298.44 251.987 298.231 251.824 298.194 251.522 298.357 251.314 298.529 251.093 315.994 229.007 349.832 208.909 381.054 190.365 433.004 169.752 503.235 176.87 503.498 176.897 503.691 177.132 503.663 177.396 503.637 177.661 503.394 177.849 503.137 177.825 433.179 170.735 381.419 191.263 350.322 209.734 316.638 229.741 299.285 251.685 299.113 251.905 299.019 252.026 298.878 252.089 298.735 252.089Z" fill="#505050"/><path d="M700.302 370.359C700.07 370.359 699.865 370.189 699.829 369.953 688.073 293.993 633.594 241.477 633.044 240.955 632.852 240.773 632.844 240.469 633.027 240.277 633.209 240.085 633.515 240.078 633.706 240.26 634.257 240.783 688.97 293.514 700.778 369.806 700.818 370.068 700.639 370.313 700.377 370.354 700.351 370.357 700.326 370.359 700.302 370.359Z" fill="#505050"/><path d="M685.634 180.577C685.572 180.577 685.509 180.565 685.449 180.54 620.382 153.429 561.698 174.827 561.114 175.046 560.868 175.137 560.59 175.014 560.496 174.765 560.402 174.517 560.528 174.241 560.776 174.147 561.365 173.926 620.389 152.392 685.817 179.654 686.062 179.756 686.177 180.037 686.076 180.281 686 180.466 685.821 180.577 685.634 180.577Z" fill="#505050"/></g></g><g><path d="M572.418 875.721 579.358 875.721C587.539 875.721 595.697 876.175 603.802 877.044 617.595 829.866 626.276 761.361 626.276 685.109 626.276 560.656 603.158 456.813 572.419 432.714L545.877 432.147C514.756 455.108 491.251 559.624 491.251 685.109 491.251 760.646 499.768 828.591 513.336 875.721L545.877 875.721 572.418 875.721Z" fill="#FFC000"/><path d="M568.743 875.721 571.178 873.105 571.511 434.805 568.742 430.246C565.485 428.404 562.153 427.438 558.761 427.438 555.636 427.438 552.561 428.267 549.549 429.836L546.977 434.672 546.844 873.705 549.549 875.721 568.743 875.721Z" fill="#737373"/><path d="M570.581 431.378C569.977 430.971 569.369 430.6 568.759 430.254 568.752 430.25 568.744 430.255 568.744 430.263L568.744 875.72 570.581 875.72 572.418 875.72 572.418 432.713C571.809 432.235 571.196 431.792 570.581 431.378Z" fill="#505050"/><path d="M545.876 432.146 545.876 875.72 547.713 875.72 549.55 875.72 549.55 429.852C549.55 429.844 549.542 429.839 549.535 429.843 548.925 430.161 548.317 430.512 547.712 430.892 547.098 431.279 546.485 431.697 545.876 432.146Z" fill="#505050"/></g><path d="M711.086 833.251 721.282 819.959 720.306 819.209 709.7 833.035C701.833 831.783 693.893 831.398 686.017 831.88 702.037 817.252 721.54 806.515 743.104 800.968L742.797 799.777C720.521 805.507 700.432 816.736 684.055 832.033 680.515 832.313 676.991 832.752 673.495 833.374L683.784 819.96 682.808 819.21 671.673 833.727C657.714 836.452 644.255 841.879 632.119 849.842 632.092 849.86 632.086 849.853 632.106 849.828 650.262 825.995 675.992 808.587 705.608 800.969L705.301 799.778C674.22 807.773 647.382 826.454 628.972 851.991 619.591 858.292 610.663 867.998 602.971 876.462 587.065 874.215 506.307 875.595 488.79 875.241L488.79 876.16C515.395 876.855 590.069 874.058 615.164 878.981 637.612 882.209 659.758 890.27 680.609 899.092L680.952 898.24 665.896 892.169 710.234 834.366C719.492 835.899 728.751 838.707 737.476 842.754L737.992 841.636C729.367 837.636 720.229 834.822 711.086 833.251ZM604.536 876.624C608.32 872.633 612.286 868.092 616.532 863.945 619.859 860.695 623.341 857.716 626.784 855.163 626.809 855.144 626.816 855.151 626.798 855.177 621.969 862.29 617.738 869.877 614.273 877.909 611.026 877.411 607.807 876.982 604.536 876.624ZM615.525 878.105C618.072 871.973 622.166 864.619 625.4 859.46 627.883 855.5 629.841 852.879 629.841 852.879 629.841 852.879 632.973 850.62 636.976 848.263 640.524 846.173 644.87 843.901 648.735 842.198 655.288 839.31 662.135 836.998 670.543 835.198L634.651 881.99C628.332 880.419 621.953 879.129 615.525 878.105ZM635.947 882.323 672.366 834.844C675.761 834.196 679.181 833.698 682.622 833.376 667.608 847.78 655.896 865.722 648.578 885.923 644.396 884.6 640.184 883.402 635.947 882.323ZM664.705 891.694C659.768 889.718 654.785 887.913 649.757 886.29 657.187 865.789 669.197 847.663 684.584 833.224 692.645 832.618 700.782 832.915 708.846 834.147L664.705 891.694Z" fill="#D1D1D1"/><g><path d="M434.367 814.833 429.771 814.833 427.621 803.408 460.14 815.342C469.089 818.924 473.439 829.083 469.857 838.032L434.367 814.833Z" fill="#505050"/><path d="M416.263 809.276 416.254 800.395 470.344 801.999C471.514 802.034 472.685 802.18 473.803 802.527 482.165 805.12 487.429 813.634 485.76 822.441L416.263 809.276Z" fill="#737373"/><path d="M386.854 758.018 363.52 753.383C351.989 751.093 343.683 740.974 343.683 729.218L343.683 713.126C343.683 694.564 299.59 693.385 299.59 720.607L299.59 764.569 299.59 764.695C299.59 792.529 322.154 815.093 349.988 815.093L433.707 815.093 433.707 815.093C433.707 787.326 414.089 763.427 386.854 758.018Z" fill="#FFFFFF"/><circle cx="310.613" cy="714.963" r="2.756" fill="#737373"/><path d="M371.907 791.275C356.213 786.119 345.525 770.842 345.52 753.558 345.52 753.552 345.526 753.547 345.532 753.548L383.011 760.935C404.013 765.075 419.234 784.349 419.24 806.811 419.24 806.818 419.233 806.823 419.227 806.821L371.907 791.275Z" fill="#D1D1D1"/><path d="M354.283 868.372 332 868.372 332 868.372C332 864.313 335.29 861.023 339.349 861.023L354.284 861.023C359.299 861.023 363.61 857.445 364.535 852.515L370.324 819.685 378.592 819.685 371.759 853.87C370.181 862.273 362.832 868.372 354.283 868.372Z" fill="#FFC000"/><path d="M369.263 868.372 340.267 868.372 340.267 868.372C340.267 864.313 343.557 861.023 347.616 861.023L369.264 861.023C373.57 861.023 377.376 858.436 378.961 854.432L392.37 819.685 400.638 819.685 385.794 857.136C383.091 863.962 376.603 868.372 369.263 868.372Z" fill="#FFC000"/><path d="M300.333 716.534 278.905 711.509C274.46 710.467 270.011 713.225 268.968 717.671L297.406 724.34 297.406 725.084 271.868 734.747C273.409 739.045 278.142 741.281 282.44 739.74L299.687 733.07 301.264 733.07 301.264 716.535 300.333 716.535Z" fill="#FFC000"/></g><g><ellipse cx="215.651" cy="815.437" rx="14.353" ry="9.76" fill="#D0D0D0"/><path d="M223.984 851.496C224.894 869.095 253.524 869.905 276.537 868.715 299.551 867.525 308.234 864.786 307.323 847.187 306.413 829.588 287.019 816.286 264.005 817.476 240.992 818.666 223.074 833.897 223.984 851.496Z" fill="#D0D0D0"/><path d="M340.009 865.913C340.009 876.224 325.726 876.027 312.243 876.027 298.76 876.027 291.182 876.224 291.182 865.913 291.182 855.602 302.112 847.244 315.596 847.244 329.078 847.244 340.009 855.602 340.009 865.913Z" fill="#737373"/></g></svg>