<svg viewBox="0 0 960 960" xmlns="http://www.w3.org/2000/svg" xmlns:xlink="http://www.w3.org/1999/xlink" id="77986e8e-7c87-4367-a9b0-3fa9f01f2cd4" overflow="hidden"><circle cx="481.969" cy="479.004" r="360" fill="#F0F0F0"/><g><g><path d="M612.794 143.519C598.302 137.863 583.355 133.117 568.02 129.356L577.844 621.138C577.845 621.211 577.837 621.212 577.824 621.14L491.611 119.133C488.407 119.049 485.193 119.004 481.968 119.004 465.245 119.004 448.791 120.149 432.674 122.356L533.75 835.301C550.19 832.933 566.271 829.454 581.914 824.942 591.838 822.08 601.586 818.803 611.138 815.129 623.826 810.25 636.168 804.673 648.117 798.445L612.794 143.519Z" fill="#FFFFFF"/><path d="M416.027 125.037C395.985 128.747 376.525 134.113 357.796 140.995L415.85 832.938C437.284 836.917 459.382 839.004 481.969 839.004 487.101 839.004 492.206 838.89 497.286 838.678L416.027 125.037Z" fill="#FFFFFF"/><path d="M332.237 151.531C325.542 154.597 318.958 157.863 312.491 161.32L325.314 803.221C339.18 809.933 353.542 815.778 368.33 820.694L332.237 151.531Z" fill="#FFFFFF"/><path d="M505.453 198.004 443.1 198.004 443.387 200.004 505.8 200.004Z" fill="#F0F0F0"/><path d="M436.917 305.861 436.547 302.645 371.058 302.642 371.335 305.906 436.917 305.91Z" fill="#F0F0F0"/><path d="M621.318 296.004 571.05 296.004 571.09 298.004 621.427 298.004Z" fill="#F0F0F0"/><path d="M339.734 285.004 314.662 285.004 314.703 287.004 339.844 287.004Z" fill="#E6E6E6"/></g><path d="M895.218 410.004C895.218 410.004 849.775 394.004 793.718 394.004 748.559 394.004 710.294 404.386 697.12 408.424 697.07 408.439 697.067 408.432 697.113 408.406 711.426 400.525 742.908 381.483 772.303 352.089 811.941 312.451 832.761 269.004 832.761 269.004 832.761 269.004 789.314 289.823 749.676 329.462 715.3 363.838 690.262 410.297 690.262 410.297L573.803 526.757 575.217 528.171 691.676 411.711 895.218 410.004Z" fill="#E4E4E4"/><path d="M576.874 189.622C576.805 189.588 576.808 189.581 576.881 189.605 585.804 192.511 627.049 205.005 676.588 205.005 732.645 205.005 778.088 189.005 778.088 189.005 778.088 189.005 732.645 173.005 676.588 173.005 626.393 173.005 576.546 188.463 576.546 188.463L553.511 188.463 575.02 167.005 677.969 64.056C677.969 64.056 646.809 78.988 618.38 107.416 597.574 128.222 584.008 150.475 578.223 160.921L455.656 283.249 431.265 258.858 428.969 54.26C428.969 54.26 412.969 99.703 412.969 155.76 412.969 205.61 421.792 242.499 424.554 251.02 424.579 251.097 424.57 251.097 424.535 251.024 423.004 247.793 406.05 210.77 368.054 172.773 328.416 133.135 284.969 112.315 284.969 112.315 284.969 112.315 305.788 155.762 345.427 195.4 376.067 226.04 422.29 252.711 422.29 252.711L454.241 284.661 436.226 302.641 436.622 305.906 551.511 190.462 576.546 190.462C576.546 190.462 598.034 233.577 637.003 272.547 676.641 312.185 720.088 333.005 720.088 333.005 720.088 333.005 699.269 289.558 659.63 249.92 621.976 212.265 580.892 191.596 576.874 189.622Z" fill="#D0D0D0"/><path d="M245.694 252.366C245.694 252.366 211.252 268.87 179.829 300.293 154.843 325.279 138.857 352.603 133.354 362.75 133.315 362.822 133.308 362.819 133.338 362.742 137.492 352.078 143.877 323.179 143.878 286.423 143.878 241.984 131.194 205.96 131.194 205.96 131.194 205.96 131.199 366.873 131.199 366.871L189.194 424.866 190.608 423.452 132.857 365.7C132.852 365.695 132.852 365.688 132.859 365.685 138.601 362.793 169.41 346.59 197.768 318.232 229.19 286.808 245.694 252.366 245.694 252.366Z" fill="#D0D0D0"/></g><g><path d="M249.037 430.363C224.414 466.397 180.264 531.211 187.916 616.363 190.183 641.589 205.733 674.309 218.74 697.861 231.136 720.308 238.991 744.971 241.987 770.437L241.987 770.437C243.726 785.221 256.255 796.362 271.141 796.362L271.141 796.362C290.832 796.362 315.037 760.475 315.037 760.475L314.884 753.75C314.494 736.571 309.877 719.746 301.414 704.791 298.529 699.694 295.629 694.838 293.268 691.444L273.059 662.393C273.045 662.372 273.038 662.347 273.042 662.321L297.036 498.36 249.037 430.363Z" fill="#2F2F2F"/><g><path d="M287.905 804.362C287.479 804.362 287.05 804.226 286.687 803.947 278.145 797.373 273.247 787.427 273.247 776.662 273.247 775.558 274.143 774.662 275.247 774.662 276.351 774.662 277.247 775.558 277.247 776.662 277.247 786.177 281.577 794.966 289.127 800.777 290.002 801.451 290.166 802.707 289.492 803.582 289.098 804.094 288.505 804.362 287.905 804.362Z" fill="#737373"/><path d="M297.914 794.354C297.488 794.354 297.059 794.218 296.696 793.939 288.154 787.365 283.256 777.419 283.256 766.654 283.256 765.55 284.152 764.654 285.256 764.654 286.36 764.654 287.256 765.55 287.256 766.654 287.256 776.169 291.586 784.958 299.136 790.769 300.011 791.443 300.175 792.699 299.501 793.574 299.106 794.085 298.514 794.354 297.914 794.354Z" fill="#737373"/><path d="M309.035 783.233C308.609 783.233 308.18 783.097 307.816 782.818 299.275 776.243 294.376 766.297 294.376 755.532 294.376 754.428 295.272 753.532 296.376 753.532 297.48 753.532 298.376 754.428 298.376 755.532 298.376 765.046 302.706 773.836 310.256 779.648 311.131 780.322 311.295 781.578 310.621 782.453 310.228 782.965 309.635 783.233 309.035 783.233Z" fill="#737373"/></g><g><path d="M227.037 665.073C226.62 665.073 226.231 664.81 226.09 664.393L222.125 652.682C221.948 652.16 222.229 651.591 222.751 651.414 223.275 651.237 223.842 651.518 224.019 652.041L227.984 663.752C228.161 664.274 227.88 664.843 227.358 665.02 227.251 665.057 227.143 665.073 227.037 665.073Z" fill="#737373"/><path d="M285.899 731.565C285.751 731.565 285.599 731.532 285.457 731.461 284.962 731.217 284.759 730.616 285.003 730.121L291.169 717.642C291.413 717.147 292.013 716.943 292.508 717.189 293.003 717.433 293.206 718.034 292.962 718.529L286.796 731.008C286.622 731.361 286.268 731.565 285.899 731.565Z" fill="#737373"/><path d="M284.591 747.362C284.443 747.362 284.291 747.329 284.149 747.258L271.273 740.896C270.778 740.652 270.575 740.051 270.819 739.556 271.063 739.061 271.663 738.856 272.158 739.103L285.034 745.465C285.529 745.709 285.732 746.31 285.488 746.805 285.314 747.158 284.959 747.362 284.591 747.362Z" fill="#505050"/><path d="M257.037 727.41C256.62 727.41 256.231 727.147 256.09 726.73 255.913 726.208 256.194 725.639 256.716 725.462L268.799 721.371C269.324 721.195 269.89 721.475 270.067 721.998 270.244 722.52 269.963 723.089 269.441 723.266L257.358 727.357C257.251 727.394 257.143 727.41 257.037 727.41Z" fill="#505050"/></g></g><path d="M514.993 794.165C514.981 794.204 514.954 794.232 514.913 794.235 513.09 794.384 470.887 797.451 466.974 762.23 462.783 724.515 474.974 694.23 474.974 694.23L427.008 652.26C426.986 652.241 426.974 652.214 426.974 652.185L426.974 570.23 510.073 557.131 513.72 646.473C513.95 652.101 515.954 657.511 519.447 661.93L521.125 664.053C536.072 682.966 540.849 707.983 533.923 731.072L514.993 794.165Z" fill="#2F2F2F"/><g><path d="M131.037 793.654C131.037 793.654 134.265 746.37 165.462 715.958 196.659 685.546 218.546 708.986 218.546 708.986 218.546 708.986 240.781 730.806 209.585 761.218 178.389 791.63 131.037 793.654 131.037 793.654Z" fill="#FFC000"/><path d="M199.037 688.967C199.037 688.967 199.331 657.815 155.767 658.37 112.203 658.925 77.29 690.977 77.29 690.977L199.037 688.967Z" fill="#FFC000"/><path d="M355.037 616.363 311.037 609.363 235.962 687.363 171.037 687.363 171.037 689.363 235.495 689.363C235.504 689.363 235.508 689.374 235.502 689.38L188.37 733.651 189.739 735.108 238.441 689.362 280.182 689.362 355.037 616.363Z" fill="#737373"/><path d="M632.337 506.363 318.956 506.363 122.237 506.363C124.997 544.495 133.715 580.975 147.449 614.894L321.357 626.424 639.963 647.547 795.306 657.846C821.11 612.574 837.368 561.171 841.336 506.364L632.337 506.364Z" fill="#737373"/><path d="M728.167 578.397 273.364 515.538 273.227 516.528 273.09 517.518 713.436 578.379 445.467 578.058 236.62 519.399 236.079 521.325 438.037 578.049 255.415 577.83 130.575 559.343C130.653 559.691 130.729 560.041 130.809 560.389 130.888 560.737 130.962 561.087 131.042 561.434L241.651 577.814 186.964 577.749 132.525 567.577C132.614 567.932 132.695 568.289 132.785 568.644 132.875 569.001 132.969 569.356 133.061 569.713L176 577.736 135.213 577.687C135.307 578.021 135.404 578.354 135.499 578.687 135.594 579.021 135.689 579.354 135.785 579.687L186.773 579.748 436.165 626.345 436.349 625.362 436.533 624.378 197.737 579.761 255.266 579.83 684.202 643.351 684.348 642.362 684.495 641.372 649.401 636.175 649.619 635.398 452.617 580.066 728.032 580.396 823.494 593.59C823.601 593.269 823.706 592.947 823.812 592.625 823.918 592.303 824.025 591.982 824.13 591.66L742.762 580.414 827.566 580.516C827.662 580.184 827.754 579.849 827.85 579.516 827.946 579.183 828.039 578.849 828.134 578.516L728.167 578.397ZM269.032 579.847 445.189 580.058 640.064 634.793 269.032 579.847Z" fill="#505050"/></g><g><path d="M699.037 508.363C699.037 332.363 529.037 320.363 375.037 402.363 309.578 437.218 394.268 550.363 394.268 550.363L498.866 551.443 499.353 551.447 699.734 524.266 699.037 508.363Z" fill="#FFC000"/><path d="M366.351 520.363C403.129 557.141 404.78 649.715 384.119 697.446L384.119 697.446C381.758 700.84 378.858 705.696 375.973 710.793 367.51 725.748 362.894 742.573 362.503 759.752L362.35 766.477C362.35 766.477 386.554 802.364 406.246 802.364L406.246 802.364C421.132 802.364 433.661 791.222 435.4 776.439L435.4 776.439C438.396 750.973 446.252 726.31 458.647 703.863 471.653 680.31 487.204 647.59 489.471 622.365 491.473 600.085 494.205 565.17 484.55 540.559 470.35 504.365 486.35 474.365 486.35 474.365 486.35 474.365 464.35 448.365 418.35 450.365L366.351 520.363Z" fill="#2F2F2F"/><path d="M649.306 479.673C677.927 484.674 704.36 515.339 703.036 544.363 701.888 569.543 699.04 594.066 697.036 616.363 688.642 709.77 633.453 796.363 584.28 796.363L528.28 796.363 528.838 765.648C529.224 744.372 541.026 724.95 559.732 714.806L582.021 702.718C595.117 695.616 597.92 678.028 587.681 667.207L587.681 667.207C557.722 635.546 503.143 594.822 498.866 551.444L498.866 551.444C577.037 468.363 649.306 479.673 649.306 479.673Z" fill="#2F2F2F"/><g><path d="M789.671 616.99C786.284 597.048 781.575 578.979 775.676 564.234 757.929 528.633 743.08 462.499 691.88 464.308 691.224 464.331 690.773 464.982 690.965 465.61 708.294 522.267 699.824 574.04 681.902 627.759 681.899 627.767 681.913 627.762 681.915 627.771 683.4 636.2 722.2 644.2 735.8 643.6 752.4 642.6 780.4 633 789.671 616.99Z" fill="#FFC000"/><path d="M714.6 746.2C681.357 752.645 645.8 781.2 641.396 809.381 641.395 809.385 641.391 809.387 641.392 809.391 643.444 821.832 646.868 833.925 651.88 845.336 662 858.2 689.665 864.312 715 859.4 737.326 855.072 763.4 834 776.81 818.773 776.813 818.77 776.819 818.771 776.82 818.767 781.736 805.831 785.648 791.363 788.617 775.967 778.8 758.2 742.473 740.796 714.6 746.2Z" fill="#FFC000"/><path d="M718.333 652.2C693.925 656.932 673.533 669.267 656.966 693.135 650.719 708.049 645.865 724.063 642.788 740.468 660.2 753 687.041 751.273 719.4 745 750.945 738.885 780.2 721 795.653 709.461 796.043 696.671 795.933 683.827 795.349 671.193 783.4 657.533 749.713 646.116 718.333 652.2Z" fill="#FFC000"/><path d="M717.542 820.92C692.207 825.832 652.744 844.447 651.881 845.336 655.081 852.627 658.886 859.526 663.352 865.889 693.426 908.736 705.438 910.058 705.438 910.058 705.438 910.058 744.923 875.49 766.727 840.546 770.473 833.95 773.828 826.642 776.817 818.774 760.083 816.793 739.871 816.591 717.542 820.92Z" fill="#F1F1F1"/><path d="M717.542 617.176C704.454 619.713 692.566 623.436 681.897 627.778 675.278 647.616 667.371 667.719 658.997 688.431 658.305 689.985 657.629 691.554 656.967 693.134 672.889 683.815 693.134 674.966 717.543 670.234 748.923 664.15 776.11 667.016 795.351 671.193 794.481 652.354 792.56 633.991 789.673 616.99 770.919 613.496 745.948 611.669 717.542 617.176Z" fill="#505050"/><path d="M717.542 708.436C685.183 714.709 660.136 728.217 642.789 740.467 638.503 763.317 637.688 786.922 641.392 809.384 658.781 796.875 684.296 782.796 717.542 776.351 745.415 770.947 769.989 772.603 788.617 775.967 792.661 755 794.956 732.323 795.653 709.461 776.395 705.248 749.086 702.321 717.542 708.436Z" fill="#505050"/></g><g><path d="M537.931 802.362C536.942 802.362 536.081 801.628 535.951 800.62 534.56 789.932 538.129 779.436 545.741 771.824 546.522 771.043 547.788 771.043 548.569 771.824 549.35 772.605 549.35 773.871 548.569 774.652 541.841 781.38 538.688 790.657 539.918 800.104 540.061 801.199 539.288 802.203 538.192 802.345 538.104 802.357 538.017 802.362 537.931 802.362Z" fill="#737373"/><path d="M552.085 802.362C551.096 802.362 550.235 801.628 550.105 800.62 548.714 789.932 552.283 779.436 559.895 771.824 560.676 771.043 561.942 771.043 562.723 771.824 563.504 772.605 563.504 773.871 562.723 774.652 555.995 781.38 552.842 790.657 554.072 800.104 554.215 801.199 553.442 802.203 552.346 802.345 552.259 802.357 552.171 802.362 552.085 802.362Z" fill="#737373"/><path d="M567.813 802.362C566.824 802.362 565.963 801.628 565.833 800.62 564.442 789.932 568.011 779.436 575.623 771.824 576.404 771.043 577.67 771.043 578.451 771.824 579.232 772.605 579.232 773.871 578.451 774.652 571.723 781.38 568.57 790.657 569.8 800.104 569.943 801.199 569.17 802.203 568.074 802.345 567.986 802.357 567.898 802.362 567.813 802.362Z" fill="#737373"/></g><g><path d="M383.695 803.792C382.591 803.792 381.695 802.896 381.695 801.792 381.695 800.688 382.591 799.792 383.695 799.792 393.209 799.792 401.999 795.462 407.81 787.912 408.484 787.036 409.739 786.874 410.615 787.547 411.49 788.221 411.654 789.477 410.98 790.352 404.405 798.894 394.46 803.792 383.695 803.792Z" fill="#737373"/><path d="M373.686 793.783C372.582 793.783 371.686 792.887 371.686 791.783 371.686 790.679 372.582 789.783 373.686 789.783 383.2 789.783 391.99 785.453 397.801 777.903 398.475 777.028 399.73 776.864 400.606 777.538 401.481 778.212 401.645 779.468 400.971 780.343 394.396 788.885 384.451 793.783 373.686 793.783Z" fill="#737373"/><path d="M362.565 782.662C361.461 782.662 360.565 781.766 360.565 780.662 360.565 779.558 361.461 778.662 362.565 778.662 372.079 778.662 380.869 774.332 386.68 766.782 387.354 765.906 388.609 765.744 389.485 766.417 390.36 767.091 390.524 768.347 389.85 769.222 383.275 777.764 373.33 782.662 362.565 782.662Z" fill="#737373"/></g><g><path d="M428.944 440.779C451.726 417.994 466.89 373.921 449.504 356.533 432.118 339.144 380.103 361.716 357.32 384.501L428.944 440.779Z" fill="#505050"/><path d="M424.295 361.529C424.435 361.466 424.574 361.406 424.712 361.347 433.679 357.517 449.727 364.897 443.727 382.897 441.921 388.313 439.209 392.454 436.302 395.607L410.705 370.01C414.108 367.11 418.565 364.083 424.295 361.529Z" fill="#2F2F2F"/><path d="M199.129 440.779C176.347 417.994 161.183 373.921 178.569 356.533 195.955 339.144 247.97 361.716 270.753 384.501L199.129 440.779Z" fill="#505050"/><path d="M205.799 361.529C205.659 361.466 205.52 361.406 205.382 361.347 196.415 357.517 180.367 364.897 186.367 382.897 188.173 388.313 190.885 392.454 193.792 395.607L219.389 370.01C215.986 367.11 211.529 364.083 205.799 361.529Z" fill="#2F2F2F"/><path d="M444.556 481.428C447.868 474.271 450.17 469.317 450.17 469.317 450.17 469.317 439.265 459.899 437.037 446.363 431.346 411.793 418.098 350.363 313.261 350.363 217.929 350.363 203.829 411.158 195.037 446.363 190.375 465.032 176.351 469.317 176.351 469.317 176.351 469.317 178.279 474.937 182.992 483.282 203.8 502.6 253.4 521.8 313 521.8 372.6 521.8 441.7 487.6 444.556 481.428Z" fill="#FFC000"/><path d="M382.837 427.673 378.348 427.673C359.755 427.673 328.971 442.746 328.971 461.339L299.794 461.339C299.794 442.746 269.01 427.673 250.417 427.673L245.928 427.673C245.928 427.673 214.572 459.027 182.992 483.282 195.246 504.981 226.37 545.149 291.691 553.179 297.795 553.929 332.942 553.389 332.942 553.389 398.614 546.01 430.268 506.321 443 484.213 443.555 483.25 444.139 482.33 444.557 481.428L382.837 427.673Z" fill="#505050"/><path d="M295.305 446.873 293.314 454.837C288.861 472.65 277.157 487.786 261.038 496.578L236.95 509.717 239.181 513.773C253.079 539.042 279.397 554.983 308.229 555.597L314.934 555.74C346.7 556.416 375.91 538.404 389.57 509.718L389.57 509.718 371.941 500.484C353.203 490.669 339.653 473.199 334.809 452.609L333.46 446.875 295.305 446.875Z" fill="#F1F1F1"/><circle cx="266.836" cy="459.926" r="13.88" fill="#2F2F2F"/><circle cx="359.684" cy="459.926" r="13.88" fill="#2F2F2F"/><path d="M338.376 500.762C338.376 505.335 330.201 505.953 324.055 509.052 317.446 512.384 312.833 518.03 312.833 518.03 312.833 518.03 308.134 512.523 301.611 509.052 295.835 505.979 288.144 505.22 288.144 500.762 288.144 491.271 298.962 484.363 312.833 484.363 326.704 484.363 338.376 491.271 338.376 500.762Z" fill="#2F2F2F"/><g><path d="M470.234 537.359 448.59 528.905C417.608 516.803 385.025 511.035 351.783 511.733L351.737 509.592C385.273 508.874 418.123 514.704 449.369 526.91L471.013 535.364 470.234 537.359Z"/><path d="M447.213 539.283C410.904 517.692 352.365 518.429 351.778 518.432L351.742 516.291C352.334 516.278 411.473 515.54 448.307 537.44L447.213 539.283Z"/><path d="M156.287 537.359 155.508 535.365 177.152 526.911C208.398 514.705 241.243 508.881 274.784 509.593L274.738 511.734C241.482 511.034 208.913 516.804 177.931 528.906L156.287 537.359Z"/><path d="M179.308 539.283 178.213 537.441C215.048 515.539 274.178 516.274 274.778 516.292L274.742 518.433C274.146 518.43 215.617 517.693 179.308 539.283Z"/></g></g><path d="M693.037 585.362C692.944 585.362 692.849 585.349 692.756 585.322 692.227 585.168 691.922 584.612 692.076 584.082 692.216 583.604 705.863 535.662 694.058 480.572 693.942 480.032 694.286 479.5 694.826 479.384 695.369 479.265 695.897 479.613 696.014 480.153 707.929 535.757 694.137 584.16 693.996 584.642 693.869 585.079 693.47 585.362 693.037 585.362Z" fill="#737373"/><path d="M465.036 695.362C464.868 695.362 464.698 695.32 464.541 695.23 464.062 694.957 463.895 694.345 464.169 693.866 464.328 693.588 480.13 665.759 484.053 644.183 484.151 643.639 484.675 643.273 485.215 643.378 485.759 643.477 486.119 643.997 486.02 644.54 482.036 666.455 466.066 694.576 465.905 694.857 465.72 695.182 465.383 695.362 465.036 695.362Z" fill="#E5E5E5"/><g><path d="M631.536 438.106C631.354 438.106 631.171 438.057 631.006 437.954L619.209 430.566C618.741 430.273 618.6 429.656 618.893 429.188 619.188 428.72 619.805 428.58 620.272 428.871L632.069 436.259C632.537 436.552 632.678 437.169 632.385 437.637 632.194 437.94 631.869 438.106 631.536 438.106Z" fill="#FFFFFF"/><path d="M570.969 418.761C570.514 418.761 570.102 418.448 569.995 417.985 569.871 417.446 570.207 416.91 570.746 416.786L584.312 413.668C584.85 413.546 585.386 413.88 585.51 414.418 585.634 414.957 585.298 415.493 584.759 415.617L571.193 418.735C571.118 418.752 571.043 418.761 570.969 418.761Z" fill="#737373"/><path d="M652.48 466.776C652.025 466.776 651.613 466.463 651.506 466L648.389 452.434C648.265 451.895 648.602 451.359 649.14 451.235 649.679 451.113 650.215 451.447 650.338 451.985L653.455 465.551C653.579 466.09 653.242 466.626 652.704 466.75 652.63 466.768 652.555 466.776 652.48 466.776Z" fill="#737373"/><path d="M603.87 409.06C603.811 409.06 603.751 409.055 603.69 409.044 603.147 408.946 602.787 408.425 602.884 407.882L605.365 394.185C605.464 393.642 605.977 393.275 606.528 393.379 607.071 393.477 607.431 393.998 607.334 394.541L604.853 408.238C604.766 408.721 604.345 409.06 603.87 409.06Z" fill="#FFFFFF"/><path d="M508.828 403.925C508.646 403.925 508.463 403.876 508.299 403.773L497.82 397.211C497.351 396.918 497.21 396.301 497.503 395.833 497.796 395.365 498.417 395.226 498.881 395.516L509.36 402.078C509.829 402.371 509.97 402.988 509.677 403.456 509.487 403.759 509.161 403.925 508.828 403.925Z" fill="#FFFFFF"/><path d="M578.35 459.363C578.168 459.363 577.985 459.314 577.82 459.211L567.341 452.648C566.873 452.355 566.732 451.738 567.025 451.27 567.318 450.801 567.937 450.662 568.404 450.953L578.883 457.516C579.351 457.809 579.492 458.426 579.199 458.894 579.009 459.197 578.683 459.363 578.35 459.363Z" fill="#FFFFFF"/><path d="M637.038 419.363C636.583 419.363 636.171 419.05 636.064 418.587 635.94 418.048 636.276 417.512 636.815 417.388L650.812 414.171C651.35 414.051 651.887 414.383 652.01 414.921 652.134 415.46 651.798 415.996 651.259 416.12L637.262 419.337C637.188 419.354 637.112 419.363 637.038 419.363Z" fill="#FFFFFF"/><path d="M588.639 440.3C588.184 440.3 587.772 439.987 587.665 439.524 587.541 438.985 587.877 438.449 588.416 438.325L602.414 435.108C602.951 434.986 603.488 435.32 603.612 435.858 603.736 436.396 603.4 436.933 602.861 437.057L588.863 440.274C588.788 440.292 588.713 440.3 588.639 440.3Z" fill="#FFFFFF"/><path d="M503.038 433.363C502.583 433.363 502.171 433.05 502.064 432.587 501.94 432.048 502.276 431.512 502.815 431.388L516.812 428.171C517.348 428.05 517.887 428.383 518.01 428.921 518.134 429.46 517.798 429.996 517.259 430.12L503.262 433.337C503.188 433.354 503.112 433.363 503.038 433.363Z" fill="#737373"/><path d="M668.352 476.325C667.897 476.325 667.485 476.012 667.378 475.549 667.254 475.01 667.59 474.474 668.129 474.35L682.127 471.133C682.663 471.013 683.201 471.345 683.325 471.883 683.449 472.421 683.113 472.958 682.574 473.082L668.576 476.299C668.501 476.316 668.426 476.325 668.352 476.325Z" fill="#FFFFFF"/><path d="M612.352 457.363C611.897 457.363 611.485 457.05 611.378 456.587 611.254 456.048 611.59 455.512 612.129 455.388L626.127 452.171C626.665 452.049 627.201 452.383 627.325 452.921 627.449 453.459 627.113 453.996 626.574 454.12L612.576 457.337C612.501 457.354 612.426 457.363 612.352 457.363Z" fill="#737373"/><path d="M632.265 467.363C632.083 467.363 631.9 467.314 631.736 467.211 631.267 466.918 631.126 466.301 631.419 465.833L638.19 455.021C638.483 454.553 639.104 454.413 639.568 454.704 640.037 454.997 640.178 455.614 639.885 456.082L633.114 466.894C632.924 467.197 632.598 467.363 632.265 467.363Z" fill="#FFFFFF"/></g><g><path d="M427.133 694.111C426.716 694.111 426.327 693.848 426.186 693.431L421.722 680.246C421.545 679.724 421.826 679.155 422.348 678.978 422.873 678.801 423.439 679.082 423.616 679.605L428.08 692.79C428.257 693.312 427.976 693.881 427.454 694.058 427.348 694.095 427.24 694.111 427.133 694.111Z" fill="#737373"/><path d="M432.25 636.615C432.102 636.615 431.95 636.582 431.808 636.511L419.329 630.344C418.834 630.099 418.631 629.499 418.875 629.004 419.119 628.509 419.719 628.304 420.214 628.551L432.693 634.718C433.188 634.963 433.391 635.563 433.147 636.058 432.973 636.411 432.619 636.615 432.25 636.615Z" fill="#505050"/><path d="M437.395 609.539C437.247 609.539 437.095 609.506 436.953 609.435L424.474 603.269C423.979 603.025 423.776 602.424 424.02 601.929 424.264 601.434 424.863 601.231 425.359 601.476L437.838 607.642C438.333 607.886 438.536 608.487 438.292 608.982 438.118 609.335 437.763 609.539 437.395 609.539Z" fill="#505050"/><path d="M425.22 729.565C425.072 729.565 424.92 729.532 424.778 729.461 424.283 729.217 424.08 728.616 424.324 728.121L430.491 715.642C430.735 715.147 431.334 714.943 431.83 715.189 432.325 715.433 432.528 716.034 432.284 716.529L426.117 729.008C425.943 729.361 425.589 729.565 425.22 729.565Z" fill="#737373"/><path d="M404.673 574.428C404.256 574.428 403.867 574.165 403.726 573.748L399.761 562.037C399.584 561.515 399.865 560.946 400.387 560.769 400.913 560.592 401.478 560.873 401.655 561.396L405.62 573.107C405.797 573.629 405.516 574.198 404.994 574.375 404.888 574.411 404.78 574.428 404.673 574.428Z" fill="#737373"/><path d="M456.287 665.926C456.139 665.926 455.987 665.893 455.845 665.822L442.969 659.459C442.474 659.214 442.271 658.614 442.515 658.119 442.759 657.624 443.359 657.42 443.854 657.666L456.73 664.029C457.225 664.274 457.428 664.874 457.184 665.369 457.01 665.722 456.656 665.926 456.287 665.926Z" fill="#737373"/><path d="M423.912 745.362C423.764 745.362 423.612 745.329 423.47 745.258L410.594 738.896C410.099 738.652 409.896 738.051 410.14 737.556 410.384 737.061 410.984 736.858 411.479 737.103L424.355 743.465C424.85 743.709 425.053 744.31 424.809 744.805 424.635 745.158 424.281 745.362 423.912 745.362Z" fill="#505050"/><path d="M435.036 675.726C434.888 675.726 434.736 675.693 434.594 675.622L421.718 669.259C421.223 669.014 421.02 668.414 421.264 667.919 421.508 667.424 422.107 667.22 422.603 667.466L435.479 673.829C435.974 674.074 436.177 674.674 435.933 675.169 435.759 675.521 435.404 675.726 435.036 675.726Z" fill="#505050"/><path d="M396.358 725.41C395.941 725.41 395.552 725.147 395.411 724.73 395.234 724.208 395.515 723.639 396.037 723.462L408.12 719.371C408.644 719.195 409.211 719.475 409.388 719.998 409.565 720.52 409.284 721.089 408.762 721.266L396.679 725.357C396.572 725.394 396.464 725.41 396.358 725.41Z" fill="#505050"/></g><g><path d="M675.037 593.362C674.659 593.362 674.299 593.148 674.129 592.783L668.267 580.159C668.035 579.658 668.252 579.063 668.753 578.831 669.254 578.598 669.849 578.816 670.081 579.317L675.943 591.941C676.175 592.442 675.958 593.037 675.457 593.269 675.321 593.333 675.178 593.362 675.037 593.362Z" fill="#505050"/><path d="M648.9 679.362C648.522 679.362 648.162 679.148 647.992 678.783L642.129 666.159C641.897 665.658 642.114 665.064 642.615 664.831 643.116 664.598 643.711 664.816 643.943 665.317L649.806 677.941C650.038 678.442 649.821 679.036 649.32 679.269 649.185 679.333 649.041 679.362 648.9 679.362Z" fill="#505050"/><path d="M622.413 715.226C622.035 715.226 621.675 715.012 621.505 714.647 621.273 714.146 621.49 713.552 621.991 713.319L634.615 707.456C635.116 707.224 635.71 707.441 635.943 707.942 636.175 708.443 635.958 709.037 635.457 709.27L622.833 715.133C622.697 715.196 622.554 715.226 622.413 715.226Z" fill="#737373"/><path d="M621.035 687.776C620.497 687.776 620.053 687.347 620.036 686.805 620.02 686.253 620.454 685.792 621.007 685.776L634.921 685.362C635.428 685.371 635.934 685.78 635.95 686.333 635.966 686.885 635.532 687.346 634.979 687.362L621.065 687.776C621.056 687.776 621.046 687.776 621.035 687.776Z" fill="#737373"/><path d="M594.769 555.589C594.655 555.589 594.539 555.569 594.425 555.528 593.906 555.338 593.64 554.763 593.829 554.245L598.075 542.634C598.264 542.115 598.839 541.851 599.358 542.038 599.877 542.228 600.143 542.803 599.954 543.321L595.708 554.932C595.56 555.338 595.177 555.589 594.769 555.589Z" fill="#737373"/><path d="M653.036 610.974C652.922 610.974 652.806 610.954 652.692 610.913 652.173 610.723 651.907 610.148 652.096 609.63L656.343 598.019C656.533 597.5 657.109 597.236 657.626 597.423 658.145 597.613 658.411 598.188 658.222 598.706L653.975 610.317C653.827 610.723 653.444 610.974 653.036 610.974Z" fill="#737373"/><path d="M650.676 635.759C650.298 635.759 649.938 635.545 649.768 635.18L643.718 622.154C643.486 621.653 643.703 621.058 644.204 620.826 644.706 620.594 645.3 620.811 645.532 621.312L651.582 634.338C651.814 634.839 651.597 635.434 651.096 635.666 650.96 635.729 650.816 635.759 650.676 635.759Z" fill="#505050"/><path d="M635.087 676.39C634.709 676.39 634.349 676.176 634.179 675.811L628.129 662.784C627.897 662.283 628.114 661.688 628.615 661.456 629.116 661.223 629.711 661.442 629.943 661.942L635.993 674.969C636.225 675.47 636.008 676.065 635.507 676.297 635.371 676.36 635.228 676.39 635.087 676.39Z" fill="#737373"/><path d="M611.037 672.39C610.659 672.39 610.299 672.176 610.129 671.811L604.08 658.784C603.848 658.283 604.065 657.688 604.566 657.456 605.068 657.223 605.662 657.441 605.894 657.942L611.943 670.969C612.175 671.47 611.958 672.065 611.457 672.297 611.321 672.36 611.178 672.39 611.037 672.39Z" fill="#505050"/><path d="M596.352 599.362C595.974 599.362 595.614 599.148 595.444 598.783L589.394 585.757C589.162 585.256 589.379 584.661 589.88 584.429 590.382 584.196 590.976 584.414 591.208 584.915L597.258 597.941C597.49 598.442 597.273 599.037 596.772 599.269 596.636 599.333 596.492 599.362 596.352 599.362Z" fill="#505050"/><path d="M625.018 733.744C624.904 733.744 624.788 733.724 624.674 733.683L612.693 729.301C612.174 729.111 611.908 728.536 612.097 728.018 612.286 727.5 612.861 727.234 613.38 727.422L625.361 731.804C625.88 731.994 626.146 732.569 625.957 733.087 625.809 733.493 625.426 733.744 625.018 733.744Z" fill="#505050"/><path d="M565.47 563.362C565.015 563.362 564.603 563.049 564.496 562.586 564.372 562.048 564.709 561.512 565.247 561.388L578.812 558.271C579.348 558.146 579.886 558.484 580.01 559.022 580.134 559.56 579.798 560.096 579.259 560.22L565.694 563.337C565.619 563.354 565.544 563.362 565.47 563.362Z" fill="#737373"/></g></g></svg>