<svg viewBox="0 0 480 480" xmlns="http://www.w3.org/2000/svg" xmlns:xlink="http://www.w3.org/1999/xlink" id="e71b0fd1-5149-4834-a124-175c95c7de8c" overflow="hidden"><path d="M408.069 273.427C406.524 273.048 404.976 272.665 403.445 272.314 375.084 266.916 346.724 268.715 315.214 265.116 293.261 261.533 268.189 263.297 246.212 263.314 246.039 263.314 246.039 263.323 246.212 263.334 298.384 266.627 353.197 265.402 403.317 277.836 403.325 277.838 403.327 277.848 403.321 277.854 398.247 282.096 392.185 285.48 385.128 285.48 368.13 283.804 351.355 282.631 334.718 281.827L334.718 274.679C287.454 280.08 243.335 265.679 196.071 274.679 197.484 275.486 197.004 276.651 196.609 277.694 196.534 277.892 196.406 278.27 196.406 278.27 196.406 278.27 196.847 278.253 197.067 278.245 243.308 276.533 286.587 278.266 332.793 281.74 332.801 281.741 332.805 281.741 332.8 281.741 260.706 278.374 191.197 281.88 117.297 281.88 114.151 281.88 107.847 281.88 104.696 281.88 92.096 276.484 79.492 274.681 66.901 274.68 66.894 274.68 66.889 274.673 66.892 274.667 70.021 265.663 57.441 247.682 82.642 251.28L82.642 244.082C57.429 235.082 47.974 209.881 73.187 202.681 101.542 195.483 139.357 202.681 174.011 199.082 199.225 197.282 224.434 195.482 249.634 199.082 284.294 204.482 322.108 202.681 356.763 209.881 369.372 211.681 391.432 206.282 397.736 211.681 402.263 214.268 402.443 218.1 401.75 222.373 381.032 221.738 360.378 221.541 339.955 220.756 315.364 218.777 290.77 216.581 266.193 213.116 265.73 213.051 266.208 213.199 266.909 213.336 290.733 217.967 315.172 219.802 339.954 220.756 360.33 222.398 380.721 223.892 401.1 225.821 400.355 229.495 399.638 233.327 400.881 236.881L410.331 236.881C422.94 245.881 419.781 258.483 413.49 267.483 411.885 269.307 410.081 271.368 408.069 273.427Z" fill="#FFC000"/></svg>