<svg viewBox="0 0 960 960" xmlns="http://www.w3.org/2000/svg" xmlns:xlink="http://www.w3.org/1999/xlink" id="1588b4c4-1cac-4e16-a0ad-3f438725e56f" overflow="hidden"><g><rect x="469.92" y="810.956" width="19.072" height="90" fill="#F1F1F1"/><rect x="421.92" y="793.956" width="14" height="107" fill="#D1D1D1"/><rect x="453.92" y="695.956" width="10" height="205" fill="#737373"/><rect x="512.92" y="698.956" width="12" height="202" fill="#737373"/><rect x="502.565" y="695.231" width="4" height="205.725" fill="#D1D1D1"/><rect x="535.92" y="755.956" width="14" height="145" fill="#D1D1D1"/></g><g><path d="M354.009 410.874C345.063 399.269 348.416 382.443 361.055 375.029 399.728 352.341 464.022 305.344 421.592 262.914 401.217 242.539 360.455 227.443 315.954 216.416L283.705 294.734C283.705 294.734 254.467 252.078 280.821 208.627 269.484 206.377 258.185 204.363 247.181 202.564L219.358 230.387C219.358 218.482 221.558 207.952 224.587 199.096 174.827 191.938 135.92 189.374 135.92 189.374 135.92 189.374 138.411 227.178 145.338 275.915 154.934 272.187 166.786 269.277 180.468 269.277L149.11 300.635C153.76 329.091 159.859 359.53 167.728 387.452 209.474 365.886 249.057 393.02 249.057 393.02L178.953 421.886C187.486 444.339 197.575 463.16 209.46 475.044 246.957 512.541 288.022 466.685 312.723 428.823 319.733 418.077 333.166 415.126 343.671 420.126 348.257 422.309 353.582 419.04 353.848 413.968L354.009 410.874ZM202.388 346.673C185.543 346.673 171.888 343.987 171.888 340.673 171.888 337.359 185.543 334.673 202.388 334.673 219.233 334.673 232.888 337.359 232.888 340.673 232.888 343.987 219.233 346.673 202.388 346.673Z" fill="#F1F1F1"/><path d="M468.92 674.956C433.866 582.126 405.982 480.379 336.875 409.171L335.769 408.031 341.426 402.374 341.426 402.374C413.832 472.644 454.92 576.955 487.92 673.955L468.92 674.956Z" fill="#F1F1F1"/></g><g><path d="M497.92 669.956C528.92 562.956 557.858 480.379 626.965 409.171L628.071 408.031 622.414 402.374 622.414 402.374C550.008 472.644 504.92 574.955 477.92 669.955" fill="#F1F1F1"/><path d="M610.003 414.153C610.265 419.137 615.515 422.387 620.006 420.208 630.535 415.098 644.072 418.024 651.119 428.826 675.82 466.688 716.885 512.544 754.382 475.047 766.267 463.163 776.356 444.342 784.889 421.889L714.785 393.023C714.785 393.023 754.368 365.888 796.114 387.455 803.983 359.533 810.082 329.094 814.732 300.638L783.374 269.28C797.056 269.28 808.908 272.19 818.504 275.918 825.431 227.181 827.922 189.377 827.922 189.377 827.922 189.377 789.015 191.94 739.255 199.099 742.283 207.955 744.484 218.484 744.484 230.39L716.661 202.567C705.657 204.366 694.358 206.38 683.021 208.63 709.375 252.081 680.137 294.737 680.137 294.737L647.888 216.419C603.387 227.446 562.625 242.542 542.25 262.917 499.821 305.347 564.114 352.344 602.787 375.032 615.425 382.446 618.778 399.272 609.833 410.877L610.003 414.153ZM730.953 340.673C730.953 337.359 744.608 334.673 761.453 334.673 778.298 334.673 791.953 337.359 791.953 340.673 791.953 343.987 778.298 346.673 761.453 346.673 744.608 346.673 730.953 343.987 730.953 340.673Z" fill="#F1F1F1"/></g><path d="M525.92 595.956C524.816 595.956 523.92 595.06 523.92 593.956L523.92 209.956C523.92 208.852 524.816 207.956 525.92 207.956 527.024 207.956 527.92 208.852 527.92 209.956L527.92 593.956C527.92 595.061 527.024 595.956 525.92 595.956Z" fill="#F1F1F1"/><path d="M503.323 413.937C498.309 415.185 494.374 416.859 491.395 418.821 495.263 389.339 509.889 362.191 532.847 342.662L527.663 336.568C498.872 361.059 482.359 396.785 482.359 434.584L482.359 900.955 490.359 900.955 490.359 442.559C494.743 445.15 501.417 445.865 510.676 443.56 526.647 439.586 535.917 421.552 535.917 421.552 535.917 421.552 519.293 409.963 503.323 413.937Z" fill="#F1F1F1"/><g><path d="M655.997 189.058C638.501 203.038 620.914 217.184 605.87 233.802 555.894 289.622 527.523 359.45 512.891 432.404 512.18 431.025 511.101 429.547 509.715 428.161 506.2 424.646 502.085 423.063 500.523 424.625 498.961 426.187 500.543 430.302 504.057 433.817 506.767 436.527 509.829 438.081 511.808 437.938 504.267 477.473 500.685 517.843 499.822 557.326 499.212 581.176 499.403 615.935 499.176 639.925L498.921 672.955C498.911 674.07 499.821 674.98 500.936 674.97 502.041 674.961 502.929 674.059 502.921 672.955 502.921 672.955 502.666 639.925 502.666 639.925 502.597 611 502.091 573.822 502.684 545.01 506.026 451.014 524.912 354.024 577.704 274.62 596.389 247.254 627.953 207.971 659.608 196.737 666.358 194.764 661.542 185.265 655.997 189.058Z" fill="#D1D1D1"/><path d="M685.913 193.474C686.042 192.233 684.45 190.948 681.854 189.94 681.846 189.937 681.846 189.926 681.853 189.922 684.327 188.643 685.772 187.196 685.512 185.976 685.251 184.756 683.34 184.025 680.56 183.869 680.552 183.869 680.548 183.858 680.554 183.852 682.512 181.872 683.439 180.048 682.814 178.968 682.189 177.888 680.146 177.784 677.453 178.494 677.445 178.496 677.438 178.488 677.442 178.48 678.692 175.992 679.01 173.971 678.082 173.137 677.154 172.303 675.178 172.835 672.837 174.343 672.83 174.348 672.821 174.342 672.822 174.333 673.242 171.58 672.92 169.56 671.78 169.054 670.64 168.548 668.925 169.664 667.165 171.822 667.16 171.829 667.149 171.826 667.148 171.817 666.696 169.069 665.766 167.247 664.525 167.118 663.284 166.989 661.999 168.581 660.991 171.176 660.988 171.184 660.977 171.184 660.973 171.177 659.694 168.703 658.247 167.258 657.026 167.518 655.806 167.779 655.075 169.69 654.919 172.47 654.919 172.478 654.908 172.482 654.902 172.476 652.922 170.519 651.098 169.591 650.018 170.216 648.106 171.323 649.247 176.87 652.567 182.606 654.623 186.158 657.032 188.949 659.022 190.297 660.246 191.126 661.035 192.442 661.131 193.882 661.29 196.281 662.514 199.793 664.589 203.378 667.909 209.114 672.15 212.867 674.062 211.76 675.142 211.135 675.246 209.092 674.536 206.399 674.534 206.391 674.542 206.384 674.55 206.388 677.038 207.638 679.059 207.956 679.893 207.028 680.727 206.1 680.195 204.124 678.687 201.784 678.682 201.777 678.688 201.768 678.697 201.769 681.45 202.189 683.47 201.867 683.977 200.727 684.484 199.587 683.367 197.872 681.209 196.112 681.202 196.107 681.205 196.096 681.214 196.095 683.962 195.645 685.784 194.715 685.913 193.474Z" fill="#FFC000"/></g><g><g><path d="M758.738 302.429C767.349 293.816 762.39 274.917 747.663 260.216 732.936 245.515 714.017 240.58 705.406 249.192 701.505 253.094 700.392 259.107 701.71 265.884 702.906 272.036 691.692 289.314 689.331 295.116 686.165 302.899 685.64 312.191 690.675 317.217 695.71 322.243 705.009 321.71 712.795 318.538 718.599 316.173 735.879 304.951 742.036 306.139 748.82 307.449 754.837 306.331 758.738 302.429Z" fill="#FFFFFF"/></g><path d="M741.483 267.733C732.936 259.186 722.732 255.533 718.692 259.573 714.835 263.43 718.001 272.9 725.73 281.188 725.734 281.192 725.741 281.192 725.745 281.188 726.238 280.613 726.733 280.04 727.195 279.431 728.429 277.779 729.577 276.032 730.441 273.97 731.339 271.825 733.727 270.583 735.961 271.226 738.639 271.997 739.981 274.887 738.947 277.388 738.4 278.711 737.283 279.648 736.011 280.032 733.833 280.676 731.949 281.647 730.153 282.716 729.561 283.075 729 283.469 728.433 283.856 728.428 283.86 728.427 283.868 728.432 283.872 736.62 291.327 745.848 294.318 749.642 290.524 753.683 286.484 750.03 276.28 741.483 267.733Z" fill="#FFC000"/></g><g><path d="M394.055 284.559C395.175 282.964 395.921 280.159 395.921 276.957 395.921 271.987 394.13 267.957 391.921 267.957 389.873 267.957 388.187 271.42 387.952 275.885 371.823 253.65 351.472 230.959 325.8 207.426 326.961 207.669 328.252 207.808 329.62 207.808 334.591 207.808 338.62 206.017 338.621 203.808 338.622 201.599 334.592 199.808 329.621 199.808 325.33 199.808 321.747 201.144 320.845 202.93 319.186 201.442 317.513 199.951 315.811 198.456L313.172 201.461C314.859 202.943 316.509 204.419 318.153 205.894 316.831 207.363 315.92 210.417 315.92 213.958 315.92 218.928 317.711 222.958 319.92 222.958 322.129 222.958 323.92 218.929 323.92 213.959 323.92 212.89 323.833 211.869 323.681 210.917 446.185 323.53 445.679 416.859 445.02 534.169 444.971 542.875 444.92 551.877 444.92 560.956L448.92 560.956C448.92 551.889 448.971 542.893 449.02 534.192 449.53 443.335 449.95 366.742 394.055 284.559Z" fill="#D1D1D1"/><path d="M302.639 150.642C294.7 142.703 281.299 143.207 281.076 143.216 281.071 143.216 281.073 143.213 281.073 143.219 281.069 143.33 280.923 147.189 281.988 151.972 277.206 150.907 273.346 151.052 273.235 151.056 273.23 151.056 273.233 151.053 273.232 151.059 273.228 151.17 273.082 155.029 274.147 159.812 269.365 158.747 265.505 158.892 265.394 158.896 265.389 158.896 265.392 158.894 265.391 158.899 265.382 159.122 264.877 172.524 272.816 180.463 280.821 188.469 290.477 191.794 294.382 187.889 295.832 186.439 296.282 184.193 295.868 181.535 298.526 181.949 300.772 181.5 302.222 180.049 303.672 178.599 304.122 176.353 303.708 173.695 306.366 174.109 308.612 173.66 310.062 172.209 313.969 168.304 310.644 158.648 302.639 150.642Z" fill="#FFC000"/><path d="M314.495 184.993C308.433 177.414 299.814 173.245 292.121 170.527 280.04 166.258 268.267 167.346 260.991 174.623 260.247 175.367 259.567 176.158 258.951 176.992 261.696 181.985 265.332 186.873 269.812 191.352 286.348 207.889 308.436 213.003 320.947 203.762 321.781 203.146 318.5 190 314.495 184.993Z" fill="#E5E5E5"/><path d="M312.946 148.217C308.467 143.738 303.58 140.101 298.586 137.356 297.752 137.972 296.961 138.651 296.217 139.396 288.94 146.673 287.852 158.446 292.121 170.526 294.84 178.219 299.725 186.038 306.587 192.9 311.066 197.379 315.953 201.016 320.947 203.761 321.781 203.145 322.572 202.466 323.316 201.721 324.06 200.977 324.74 200.186 325.356 199.352 334.597 186.842 329.482 164.754 312.946 148.217Z" fill="#D1D1D1"/></g><g><path d="M387.307 218.087C382.529 215.578 370.665 228.759 360.807 247.528 359.908 249.239 359.059 250.937 358.258 252.612 358.254 252.621 358.241 252.619 358.24 252.609 358.054 250.935 357.839 249.235 357.587 247.508 354.53 226.529 347.723 210.153 342.383 210.931 337.043 211.709 335.192 229.347 338.249 250.325 338.627 252.918 339.062 255.441 339.545 257.869 339.547 257.879 339.535 257.885 339.528 257.877 337.807 255.908 335.971 253.916 334.031 251.927 319.227 236.752 304.094 227.504 300.232 231.273 296.369 235.041 305.239 250.398 320.043 265.574 321.873 267.45 323.708 269.235 325.526 270.916 325.533 270.923 325.527 270.935 325.517 270.932 322.967 270.351 320.312 269.818 317.573 269.35 296.676 265.774 278.998 267.188 278.088 272.507 277.178 277.826 293.38 285.037 314.277 288.612 316.86 289.054 319.394 289.419 321.853 289.711 321.863 289.712 321.865 289.725 321.856 289.729 319.451 290.758 316.99 291.888 314.498 293.118 295.491 302.508 282.02 314.042 284.41 318.881 286.8 323.719 304.146 320.029 323.154 310.639 328.038 308.226 332.557 305.676 336.532 303.127 343.802 298.466 348.669 285.599 351.602 282.866 354.535 280.133 365.802 276.266 369.455 270.99 372.358 266.797 375.317 261.932 378.11 256.614 387.966 237.846 392.084 220.596 387.307 218.087Z" fill="#FFC000"/><path d="M436.707 386.207C426.855 361.404 412.291 339.255 393.456 320.42L367.757 294.188C362.081 288.37 360.472 284.636 365.005 277.289L369.526 270.929C361.451 262.651 347.64 264.003 339.363 272.078 331.086 280.153 328.494 294.833 336.569 303.111L343.024 298.733C350.493 293.396 355.506 295.622 361.697 301.968L386.386 327.492C404.252 345.358 418.066 366.366 427.412 389.892 436.209 412.038 440.422 435.74 440.422 459.57L440.422 476.957 426.954 476.957C426.951 476.966 426.951 476.966 426.948 476.975L440.422 486.303 440.422 715.957 450.422 715.957 450.422 459.657C450.42 434.537 445.98 409.552 436.707 386.207Z" fill="#D1D1D1"/></g><g><path d="M416.321 495.062C398.478 459.193 376.363 425.869 350.59 396.014 335.153 378.133 318.344 361.451 300.349 346.098 301.303 344.453 301.921 341.871 301.921 338.957 301.921 333.986 300.13 329.957 297.921 329.957 295.712 329.957 293.921 333.986 293.921 338.956 293.921 339.582 293.95 340.192 294.004 340.782 283.089 331.798 271.765 323.287 260.047 315.304L257.795 318.61C291.129 341.322 321.331 368.244 347.563 398.629 373.118 428.231 395.047 461.275 412.741 496.844 447.532 566.782 465.921 647.058 465.921 728.995L465.921 900.957 469.921 900.957 469.921 728.994C469.92 646.442 451.386 565.55 416.321 495.062Z" fill="#D1D1D1"/><g><path d="M218.325 295.956 227.913 327.956C229.733 334.031 226.284 340.432 220.209 342.252 214.134 344.072 207.733 340.623 205.913 334.548 205.243 332.31 205.286 330.037 205.913 327.956L215.501 295.956C215.735 295.176 216.556 294.734 217.336 294.967 217.826 295.114 218.185 295.501 218.325 295.956Z" fill="#FFC000"/><path d="M223.346 293.407 249.912 313.66C254.956 317.505 255.927 324.71 252.082 329.754 248.237 334.798 241.032 335.769 235.988 331.924 234.13 330.508 232.829 328.643 232.113 326.591L221.061 295.067C220.792 294.299 221.196 293.458 221.964 293.189 222.447 293.019 222.966 293.122 223.346 293.407Z" fill="#FFC000"/><path d="M225.909 288.394 259.306 289.163C265.646 289.309 270.668 294.567 270.522 300.908 270.376 307.248 265.118 312.27 258.777 312.124 256.442 312.07 254.293 311.326 252.508 310.087L225.037 291.079C224.368 290.616 224.201 289.698 224.664 289.029 224.954 288.609 225.434 288.387 225.909 288.394Z" fill="#FFC000"/><path d="M225.037 282.832 252.508 263.824C257.723 260.215 264.876 261.518 268.485 266.733 272.094 271.948 270.791 279.101 265.576 282.71 263.655 284.039 261.479 284.7 259.307 284.747L225.91 285.516C225.096 285.535 224.422 284.89 224.403 284.077 224.39 283.567 224.648 283.105 225.037 282.832Z" fill="#FFC000"/><path d="M221.062 278.845 232.114 247.321C234.212 241.336 240.765 238.185 246.75 240.284 252.735 242.383 255.886 248.935 253.787 254.92 253.014 257.124 251.643 258.938 249.912 260.253L223.346 280.506C222.699 280.999 221.774 280.875 221.281 280.227 220.971 279.819 220.908 279.295 221.062 278.845Z" fill="#FFC000"/><path d="M215.502 277.956 205.914 245.956C204.094 239.881 207.543 233.48 213.618 231.66 219.693 229.84 226.094 233.289 227.914 239.364 228.584 241.602 228.541 243.875 227.914 245.956L218.326 277.956C218.092 278.736 217.271 279.178 216.491 278.945 216.001 278.798 215.642 278.41 215.502 277.956Z" fill="#FFC000"/><path d="M210.482 280.504 183.916 260.251C178.872 256.406 177.901 249.201 181.746 244.157 185.591 239.113 192.796 238.142 197.84 241.987 199.698 243.403 200.999 245.268 201.715 247.32L212.767 278.844C213.036 279.612 212.632 280.453 211.864 280.722 211.38 280.892 210.862 280.79 210.482 280.504Z" fill="#FFC000"/><path d="M207.918 285.517 174.521 284.748C168.181 284.602 163.159 279.344 163.305 273.003 163.451 266.663 168.709 261.641 175.05 261.787 177.385 261.841 179.534 262.585 181.319 263.824L208.79 282.832C209.459 283.295 209.626 284.213 209.163 284.882 208.873 285.303 208.393 285.525 207.918 285.517Z" fill="#FFC000"/><path d="M208.79 291.079 181.319 310.087C176.104 313.696 168.951 312.393 165.342 307.178 161.733 301.963 163.036 294.81 168.251 291.201 170.172 289.872 172.348 289.211 174.52 289.164L207.917 288.395C208.731 288.376 209.405 289.021 209.424 289.834 209.437 290.345 209.179 290.806 208.79 291.079Z" fill="#FFC000"/><path d="M212.766 295.067 201.714 326.591C199.616 332.576 193.063 335.727 187.078 333.628 181.093 331.53 177.942 324.977 180.041 318.992 180.814 316.788 182.185 314.974 183.916 313.659L210.482 293.406C211.129 292.913 212.054 293.037 212.547 293.685 212.857 294.092 212.919 294.617 212.766 295.067Z" fill="#FFC000"/></g></g><g><g><path d="M435.92 675.956C434.016 609.241 429.053 558.724 384.313 504.998 364.637 483.016 344.185 461.249 329.461 435.415L308.379 456.497C362.867 490.552 398.212 526.388 414.234 573.827 412.386 572.522 410.3 571.161 407.958 569.745 392.787 560.571 376.383 559.956 376.383 559.956 376.383 559.956 384.573 574.216 399.744 583.391 408.489 588.679 414.9 591.167 419.207 591.615 423.04 608.663 424.666 627.169 424.062 647.526 418.504 641.763 409.823 635.09 397.417 627.626 368.282 610.097 336.783 608.956 336.783 608.956 336.783 608.956 352.522 636.236 381.658 653.765 401.054 665.435 414.496 669.985 422.604 669.599 422.604 671.801 422.701 675.957 422.701 675.957L435.92 675.957Z" fill="#D1D1D1"/><path d="M409.919 653.956C409.744 653.956 409.566 653.91 409.405 653.813 409.155 653.663 384.117 638.601 363.314 622.751 362.875 622.416 362.79 621.788 363.125 621.349 363.459 620.911 364.086 620.826 364.526 621.16 385.239 636.942 410.185 651.949 410.435 652.098 410.909 652.382 411.062 652.996 410.778 653.47 410.59 653.783 410.259 653.956 409.919 653.956Z" fill="#E5E5E5"/></g><g><path d="M378.288 444.43C374.618 443.61 371.014 442.904 367.512 442.309 367.502 442.307 367.501 442.294 367.51 442.29 371.029 440.99 374.638 439.548 378.297 437.964 406.173 425.896 426.28 410.36 423.208 403.265 420.136 396.17 395.048 400.201 367.173 412.269 363.722 413.763 360.392 415.31 357.208 416.887 357.199 416.892 357.19 416.881 357.196 416.873 359.279 413.753 361.351 410.465 363.38 407.033 378.838 380.885 385.974 356.498 379.318 352.563 372.662 348.628 354.735 366.636 339.277 392.784 337.364 396.021 335.578 399.23 333.93 402.377 333.925 402.386 333.912 402.383 333.912 402.373 333.763 398.624 333.507 394.747 333.131 390.778 330.268 360.538 321.706 336.614 314.008 337.343 306.31 338.072 302.392 363.177 305.255 393.418 305.609 397.161 306.052 400.807 306.568 404.322 306.569 404.332 306.557 404.337 306.551 404.329 304.227 401.384 301.741 398.397 299.104 395.407 279.012 372.625 258.024 358.303 252.225 363.417 246.426 368.531 258.012 391.145 278.104 413.927 280.591 416.747 283.092 419.437 285.576 421.977 285.583 421.984 285.576 421.996 285.566 421.993 281.955 420.976 278.188 420.021 274.297 419.152 244.652 412.531 219.253 413.28 217.568 420.826 215.883 428.372 238.549 439.857 268.194 446.478 271.864 447.298 275.468 448.004 278.97 448.599 278.98 448.601 278.981 448.614 278.972 448.618 275.453 449.918 271.844 451.36 268.185 452.944 240.309 465.012 220.202 480.548 223.274 487.643 226.346 494.739 251.434 490.707 279.309 478.639 282.76 477.145 286.09 475.598 289.274 474.021 289.283 474.016 289.292 474.027 289.286 474.035 287.203 477.155 285.131 480.443 283.102 483.875 267.644 510.023 260.508 534.41 267.164 538.345 273.82 542.28 291.747 524.272 307.205 498.124 309.118 494.887 310.904 491.678 312.552 488.531 312.557 488.522 312.57 488.525 312.57 488.535 312.719 492.284 312.975 496.161 313.351 500.13 316.214 530.37 324.776 554.294 332.474 553.565 340.172 552.836 344.09 527.731 341.227 497.49 339.748 481.872 336.748 467.95 333.133 458.228 342.337 463.231 356.249 468.196 372.185 471.755 401.83 478.376 427.229 477.627 428.914 470.081 430.599 462.537 407.933 451.052 378.288 444.43Z" fill="#FFC000"/><ellipse cx="323.24" cy="445.456" rx="15" ry="15" fill="#FFFFFF" transform="matrix(0.9677 -0.2523 0.2523 0.9677 -101.924 95.9553)"/></g></g><g><circle cx="804.204" cy="242.239" r="3" fill="#FFC000"/><g><ellipse cx="797.687" cy="248.756" rx="4.5" ry="2" fill="#FFFFFF" transform="matrix(0.7071 -0.7071 0.7071 0.7071 57.7398 636.909)"/><ellipse cx="804.204" cy="251.456" rx="2" ry="4.5" fill="#FFFFFF"/><ellipse cx="810.721" cy="248.756" rx="2" ry="4.5" fill="#FFFFFF" transform="matrix(0.7071 -0.7071 0.7071 0.7071 61.5574 646.125)"/><ellipse cx="813.42" cy="242.239" rx="4.5" ry="2" fill="#FFFFFF"/><ellipse cx="810.721" cy="235.722" rx="4.5" ry="2" fill="#FFFFFF" transform="matrix(0.7071 -0.7071 0.7071 0.7071 70.7739 642.308)"/><ellipse cx="804.204" cy="233.023" rx="2" ry="4.5" fill="#FFFFFF"/><ellipse cx="797.687" cy="235.722" rx="2" ry="4.5" fill="#FFFFFF" transform="matrix(0.7071 -0.7071 0.7071 0.7071 66.9563 633.091)"/><ellipse cx="794.987" cy="242.239" rx="4.5" ry="2" fill="#FFFFFF"/></g></g><g><circle cx="779.637" cy="216.672" r="3" fill="#FFC000"/><g><ellipse cx="773.12" cy="223.189" rx="4.5" ry="2" fill="#FFFFFF" transform="matrix(0.7071 -0.7071 0.7071 0.7071 68.6229 612.049)"/><ellipse cx="779.637" cy="225.889" rx="2" ry="4.5" fill="#FFFFFF"/><ellipse cx="786.154" cy="223.189" rx="2" ry="4.5" fill="#FFFFFF" transform="matrix(0.7071 -0.7071 0.7071 0.7071 72.4405 621.265)"/><ellipse cx="788.853" cy="216.672" rx="4.5" ry="2" fill="#FFFFFF"/><ellipse cx="786.154" cy="210.155" rx="4.5" ry="2" fill="#FFFFFF" transform="matrix(0.7071 -0.7071 0.7071 0.7071 81.657 617.448)"/><ellipse cx="779.637" cy="207.456" rx="2" ry="4.5" fill="#FFFFFF"/><ellipse cx="773.12" cy="210.155" rx="2" ry="4.5" fill="#FFFFFF" transform="matrix(0.7071 -0.7071 0.7071 0.7071 77.8394 608.231)"/><ellipse cx="770.42" cy="216.672" rx="4.5" ry="2" fill="#FFFFFF"/></g></g><g><path d="M413.834 221.042 413.266 220.474 413.266 146.559C413.266 145.455 412.37 144.559 411.266 144.559 410.162 144.559 409.266 145.455 409.266 146.559L409.266 216.474 388.438 195.646C389.509 195.846 390.685 195.957 391.919 195.957 396.89 195.957 400.919 194.166 400.92 191.957 400.92 189.748 396.891 187.957 391.92 187.957 387.977 187.957 384.634 189.086 383.417 190.655 382.632 190.014 381.477 190.051 380.746 190.783 380.131 191.398 380.008 192.312 380.362 193.055 378.418 193.667 376.92 197.413 376.92 201.957 376.92 206.927 378.711 210.957 380.92 210.957 383.129 210.957 384.92 206.928 384.92 201.958 384.92 200.195 384.691 198.556 384.302 197.168L411.005 223.871C411.395 224.262 411.907 224.457 412.419 224.457 412.931 224.457 413.443 224.262 413.833 223.871 414.616 223.089 414.616 221.822 413.834 221.042Z" fill="#D1D1D1"/><g><path d="M380.729 163.13C377.297 160.36 372.937 158.693 368.182 158.694 357.136 158.694 348.182 167.648 348.182 178.694 348.182 182.933 349.51 186.858 351.76 190.093 355.372 195.287 373.334 200.933 381.533 191.6 389.259 182.807 385.271 166.797 380.729 163.13Z" fill="#737373"/><path d="M367.66 181.022C360.995 181.307 355.178 184.839 351.76 190.093 355.372 195.287 361.376 198.694 368.182 198.694 370.607 198.694 372.92 198.24 375.07 197.45 379.152 195.95 379.734 189.933 378.067 186.199 374.454 181.006 367.949 181.01 367.66 181.022Z" fill="#505050"/><path d="M380.729 163.13C373.341 165.845 368.013 172.78 367.66 181.022 367.648 181.311 367.616 181.595 367.616 181.887 367.616 188.178 370.528 193.784 375.07 197.45 379.152 195.95 382.61 193.17 384.947 189.579 386.986 186.445 388.182 182.712 388.182 178.694 388.182 172.402 385.271 166.797 380.729 163.13Z" fill="#2F2F2F"/></g><g><path d="M430.806 127.994C430.338 123.608 428.433 119.347 425.071 115.985 417.26 108.174 404.597 108.174 396.787 115.985 393.79 118.983 391.953 122.697 391.257 126.576 390.138 132.802 396 147.7 410.8 147.9 424.699 148.088 431.426 133.798 430.806 127.994Z" fill="#737373"/><path d="M396.787 144.269C398.502 145.983 400.458 147.298 402.537 148.26 409.4 149.1 413 144.7 413.3 139.7 413.582 135.004 408.701 131.6 408.914 131.404 403.999 126.893 397.39 125.277 391.257 126.575 390.138 132.802 391.974 139.456 396.787 144.269Z" fill="#505050"/><path d="M430.806 127.994C423.662 124.69 414.992 125.826 408.913 131.405 408.7 131.6 408.477 131.779 408.27 131.985 403.822 136.434 401.916 142.456 402.536 148.26 406.483 150.086 410.894 150.565 415.086 149.678 418.744 148.904 422.23 147.11 425.07 144.269 429.52 139.82 431.426 133.798 430.806 127.994Z" fill="#D1D1D1"/></g></g><g><path d="M494.447 146.175C494.213 142.256 493.625 138.342 492.174 134.498 491.959 133.928 491.473 133.452 490.76 133.282 489.988 133.098 489.185 133.463 488.751 134.127L488.735 134.152C486.538 137.511 484.878 140.765 483.235 143.949 481.619 147.135 480.096 150.248 478.666 153.358 475.796 159.571 473.102 165.741 470.574 172.229 468.06 178.705 465.889 185.617 463.913 192.8L461.218 202.36C461.215 202.371 461.198 202.369 461.198 202.357 461.38 197.826 461.557 193.294 461.746 188.763 462.163 177.962 462.863 167.161 462.875 156.36 462.881 150.959 462.734 145.559 462.441 140.159 462.233 137.459 461.886 134.759 461.262 132.058 460.642 129.358 459.833 126.658 458.484 123.957 458.394 123.776 458.246 123.622 458.052 123.525 457.575 123.287 456.995 123.48 456.756 123.957 455.407 126.657 454.598 129.358 453.978 132.058 453.354 134.758 453.006 137.459 452.799 140.159 452.506 145.56 452.36 150.96 452.365 156.36 452.377 167.161 453.076 177.962 453.494 188.763 453.683 193.294 453.86 197.826 454.042 202.357 454.042 202.369 454.026 202.372 454.022 202.36L451.327 192.8C449.352 185.618 447.18 178.705 444.666 172.229 442.137 165.742 439.444 159.572 436.574 153.358 435.145 150.247 433.621 147.134 432.005 143.949 430.362 140.765 428.702 137.511 426.505 134.152L426.487 134.124C426.216 133.709 425.782 133.393 425.233 133.284 424.304 133.099 423.371 133.684 423.039 134.571 421.607 138.392 421.025 142.281 420.793 146.176 420.585 150.093 420.806 154.015 421.431 157.848 422.66 165.53 425.347 172.849 428.884 179.507 432.429 186.189 437.017 192.092 441.688 197.775 442.849 199.202 443.992 200.633 445.116 202.069 446.253 203.5 447.36 204.945 448.414 206.417 450.491 209.307 452.393 212.294 454.067 215.402 454.655 222.848 455.127 230.298 455.465 237.754 455.632 241.55 455.769 245.346 455.85 249.146 455.91 252.946 455.981 256.745 455.893 260.552 455.892 260.621 455.895 260.702 455.902 260.772 456.022 261.921 457.24 262.689 458.405 262.145 459.055 261.841 459.416 261.126 459.347 260.412L459.345 260.389C459.263 256.638 459.332 252.893 459.39 249.147 459.47 245.348 459.608 241.551 459.774 237.755 460.112 230.299 460.584 222.849 461.172 215.403 462.846 212.296 464.748 209.308 466.825 206.418 467.879 204.946 468.985 203.502 470.123 202.07 471.248 200.634 472.39 199.203 473.551 197.776 478.222 192.093 482.811 186.19 486.355 179.508 489.893 172.85 492.58 165.531 493.808 157.849 494.434 154.014 494.655 150.092 494.447 146.175Z" fill="#E5E5E5"/><path d="M483.862 193.975C483.862 193.975 467.576 224.232 458.797 258 458.636 258.618 458.045 261.005 457.963 261.339 457.96 261.349 457.946 261.349 457.944 261.339 457.861 261.003 457.261 258.581 457.095 257.946 448.313 224.2 432.043 193.976 432.043 193.976 407.548 196.892 396.864 231.877 406.512 269.121 407.533 273.06 408.745 276.861 410.113 280.511 440.333 319.268 476.999 317.934 505.784 280.532 507.156 276.875 508.371 273.068 509.394 269.121 519.041 231.876 508.359 196.891 483.862 193.975Z" fill="#FFC000"/><path d="M482.949 457.075C474.38 459.207 468.151 462.263 463.92 465.862L463.92 431.855 470.911 419.97C470.915 419.963 470.91 419.955 470.902 419.955L463.92 419.955 463.92 324.795C483.488 319.49 501.748 291.261 505.778 280.546 505.781 280.539 505.776 280.531 505.768 280.533 502.334 281.111 485.182 284.535 472.785 296.932 471.845 297.873 470.94 298.819 470.061 299.767 470.083 298.901 470.107 298.036 470.107 297.153 470.107 277.762 458.225 262.01 458.013 261.73 458.009 261.725 458.011 261.725 458.007 261.73 457.794 262.01 445.913 277.763 445.913 297.153 445.913 298.035 445.935 298.901 445.957 299.767 445.078 298.819 444.173 297.873 443.233 296.932 430.691 284.391 413.278 281.032 410.129 280.513 410.121 280.512 410.117 280.519 410.119 280.526 414.282 291.6 433.63 321.851 453.92 325.329L453.92 381.263C451.101 378.473 447.496 375.697 442.996 372.99 423.968 361.544 397.92 369.898 397.92 369.898 397.92 369.898 402.721 396.809 421.749 408.254 436.185 416.938 446.985 417.24 453.92 412.63L453.92 600.955 445.937 600.955C445.929 600.955 445.924 600.963 445.928 600.97L453.919 614.555 453.919 707.955 463.919 707.955 463.919 533.855 470.91 521.97C470.914 521.963 470.909 521.955 470.901 521.955L463.919 521.955 463.919 494.697C469.757 498.99 479.248 500.421 492.86 497.034 514.407 491.673 526.919 467.347 526.919 467.347 526.919 467.347 504.497 451.714 482.949 457.075Z" fill="#737373"/><path d="M448.92 403.956C448.656 403.956 448.393 403.852 448.197 403.646 427.661 382.132 410.805 376.964 410.637 376.915 410.108 376.758 409.805 376.203 409.962 375.673 410.119 375.143 410.675 374.842 411.203 374.996 411.908 375.204 428.7 380.324 449.644 402.265 450.025 402.664 450.011 403.297 449.611 403.679 449.417 403.864 449.168 403.956 448.92 403.956Z" fill="#505050"/><path d="M462.338 482.956C461.929 482.956 461.546 482.703 461.398 482.297 461.21 481.777 461.478 481.204 461.997 481.016 489.426 471.071 514.667 470.956 514.919 470.956 515.471 470.956 515.919 471.404 515.919 471.956 515.919 472.508 515.472 472.956 514.919 472.956 514.671 472.956 489.763 473.076 462.678 482.897 462.567 482.937 462.452 482.956 462.338 482.956Z" fill="#505050"/></g><g><path d="M653.151 330.164C654.443 328.573 649.18 322.227 650.278 320.539 651.393 318.825 659.326 321.064 660.242 319.266 661.169 317.447 654.696 312.342 655.419 310.455 656.148 308.552 664.374 309.081 664.896 307.126 665.421 305.16 658.025 301.517 658.341 299.515 658.657 297.507 666.814 296.316 666.92 294.29 667.026 292.262 659.036 290.229 658.931 288.201 658.825 286.175 666.56 283.323 666.244 281.315 665.929 279.313 657.692 278.979 657.168 277.012 656.646 275.057 663.62 270.66 662.891 268.757 662.168 266.87 654.044 268.261 653.117 266.442 652.201 264.645 658.101 258.886 656.986 257.172 655.888 255.484 648.234 258.544 646.943 256.953 645.677 255.393 650.251 248.534 648.799 247.081 647.347 245.629 640.487 250.203 638.927 248.937 637.336 247.645 640.395 239.992 638.708 238.894 636.994 237.779 631.236 243.679 629.438 242.762 627.619 241.835 629.01 233.711 627.123 232.988 625.22 232.259 620.823 239.233 618.867 238.711 616.9 238.186 616.566 229.95 614.564 229.634 612.556 229.318 609.704 237.052 607.677 236.947 605.649 236.841 603.616 228.852 601.588 228.958 599.562 229.064 598.371 237.22 596.363 237.537 594.361 237.852 590.718 230.457 588.752 230.982 586.797 231.504 587.326 239.729 585.423 240.459 583.536 241.182 578.431 234.709 576.612 235.636 574.815 236.552 577.053 244.484 575.339 245.6 573.651 246.698 567.305 241.435 565.714 242.727 564.153 243.99 651.884 331.724 653.151 330.164Z" fill="#FFC000"/><path d="M593.815 272.928C601.89 264.65 615.701 266.002 623.978 274.077 632.255 282.152 634.534 297.146 626.459 305.423L620.318 300.732C612.849 295.395 607.836 297.621 601.645 303.967L573.165 333.205 566.171 326.382 595.584 296.187C601.259 290.369 602.869 286.635 598.336 279.288L593.815 272.928Z" fill="#D1D1D1"/><path d="M574.677 216.956C574.677 200.387 559.16 187.956 542.591 187.956 526.022 187.956 508.677 200.387 508.677 216.956L519.677 218.956C532.677 220.956 535.591 228.253 535.591 240.956L535.591 674.956 549.591 674.956 549.591 239.041C549.591 227.396 551.677 221.955 563.677 218.955L574.677 216.956Z" fill="#D1D1D1"/><path d="M645.681 180.551C643.292 173.197 617.936 174.846 589.047 184.232 586.398 185.093 583.812 185.989 581.3 186.913 582.794 184.999 584.285 183.026 585.764 180.99 603.618 156.416 613.021 132.81 606.766 128.265 600.511 123.72 580.966 139.958 563.112 164.532 560.894 167.584 558.808 170.621 556.865 173.609 557.071 169.852 557.183 165.956 557.183 161.956 557.183 131.58 550.915 106.956 543.183 106.956 535.451 106.956 529.183 131.58 529.183 161.956 529.183 165.729 529.28 169.412 529.464 172.972 527.422 169.811 525.223 166.593 522.871 163.357 505.017 138.783 485.472 122.545 479.217 127.09 472.962 131.635 482.365 155.24 500.219 179.815 502.437 182.867 504.68 185.79 506.921 188.561 503.411 187.204 499.74 185.894 495.936 184.658 467.047 175.271 441.691 173.623 439.302 180.977 436.913 188.331 458.395 201.901 487.284 211.288 512.694 219.544 535.363 221.81 542.082 217.233 542.092 217.24 542.1 217.25 542.11 217.258 542.965 217.879 544.017 218.351 545.334 218.701 554.167 221.234 574.868 218.481 597.734 211.051 626.622 201.663 648.07 187.905 645.681 180.551Z" fill="#FFC000"/></g><g><path d="M740.832 347.401C740.525 346.708 739.758 346.34 739.017 346.497L739.007 346.499C735.726 347.186 732.823 348.127 729.973 349.037 727.133 349.957 724.415 350.93 721.718 351.896 716.349 353.86 711.126 355.941 705.795 358.263 700.485 360.599 695.121 363.402 689.712 366.476L682.394 370.575C682.384 370.581 682.373 370.567 682.382 370.559L690.816 362.812 700.797 353.657C704.139 350.62 707.422 347.525 710.615 344.339 713.797 341.143 716.911 337.877 719.927 334.515 721.404 332.803 722.79 330.999 724.017 329.037 725.245 327.076 726.362 325.004 727.16 322.612 727.213 322.452 727.217 322.274 727.16 322.101 727.019 321.678 726.562 321.45 726.139 321.591 723.748 322.389 721.675 323.506 719.714 324.734 717.752 325.961 715.948 327.347 714.236 328.824 710.873 331.84 707.608 334.954 704.412 338.136 701.227 341.329 698.131 344.613 695.094 347.955L685.939 357.937 678.192 366.371C678.184 366.38 678.17 366.37 678.176 366.359L682.275 359.041C685.349 353.632 688.152 348.268 690.488 342.958 692.81 337.627 694.891 332.404 696.855 327.035 697.821 324.338 698.794 321.62 699.714 318.78 700.624 315.929 701.565 313.027 702.252 309.746L702.258 309.719C702.327 309.389 702.294 309.035 702.14 308.705 701.761 307.895 700.774 307.576 699.96 307.946 696.858 309.357 694.216 311.311 691.779 313.474 689.336 315.66 687.184 318.127 685.263 320.744 681.441 326.002 678.734 331.923 676.875 337.938 675.019 343.976 674.245 350.173 673.647 356.288 673.314 359.339 673.004 362.377 672.515 365.364 672.035 368.297 671.394 371.185 670.547 374.008 666.497 378.752 662.376 383.431 658.173 388.034 656.036 390.38 653.855 392.685 651.673 394.989 649.464 397.268 647.262 399.555 644.963 401.75 644.921 401.79 644.876 401.839 644.838 401.885 644.335 402.506 644.43 403.416 645.051 403.919 645.63 404.388 646.449 404.317 646.966 403.804 646.976 403.803 646.981 403.811 647.002 403.788 647.027 403.761 647.054 403.736 647.079 403.71 647.081 403.708 647.083 403.707 647.084 403.706 647.086 403.704 647.088 403.702 647.09 403.699 649.259 401.432 651.514 399.258 653.763 397.078 656.067 394.896 658.372 392.714 660.718 390.577 665.321 386.374 670 382.252 674.744 378.202 677.568 377.356 680.455 376.714 683.388 376.234 686.375 375.745 689.413 375.435 692.464 375.102 698.578 374.504 704.775 373.73 710.814 371.874 716.829 370.015 722.749 367.308 728.008 363.486 730.625 361.565 733.092 359.413 735.278 356.97 737.454 354.518 739.419 351.859 740.831 348.732 741.014 348.336 741.035 347.859 740.832 347.401Z" fill="#737373"/><path d="M703.577 376.175C703.577 376.175 674.997 384.754 649.482 400.063 649.141 400.266 648.799 400.451 648.752 400.404 648.726 400.378 648.882 400.008 649.087 399.668 664.396 374.153 672.973 345.571 672.973 345.571 656.785 332.827 629.814 347.179 613.517 374.872 611.794 377.801 610.265 380.762 608.917 383.726 604.732 425.533 627.132 444.467 665.406 440.239 668.376 438.89 671.342 437.359 674.277 435.632 701.97 419.334 716.322 392.364 703.577 376.175Z" fill="#FFC000"/><g><path d="M618.321 443.412C633.53 449.138 657.385 443.875 665.394 440.245 665.4 440.242 665.402 440.234 665.396 440.23 663.025 438.542 650.874 430.437 636.233 430.436 635.122 430.436 634.029 430.461 632.95 430.502 633.474 430.003 633.999 429.506 634.52 428.985 645.963 417.542 648.254 401.237 648.297 400.923 648.298 400.916 648.3 400.918 648.293 400.919 647.979 400.962 631.674 403.253 620.231 414.696 619.71 415.217 619.212 415.741 618.713 416.266 618.754 415.187 618.778 414.094 618.779 412.983 618.778 398.171 610.479 385.904 608.925 383.736 608.92 383.729 608.914 383.731 608.911 383.738 604.798 392.806 598.299 422.469 608.554 436.376L590.781 457.423 583.335 449.977C583.328 449.97 583.316 449.976 583.318 449.986L585.765 463.443C556.448 499.554 532.271 548.472 519.117 597.825 516.27 594.97 512.6 592.127 507.995 589.357 488.967 577.911 462.919 586.265 462.919 586.265 462.919 586.265 467.72 613.176 486.748 624.621 498.653 631.782 508.087 633.246 514.919 630.955L514.919 676.955 526.919 676.955 526.919 616.594C528.496 609.303 530.344 601.992 532.427 594.704L542.895 587.971C542.903 587.966 542.9 587.953 542.89 587.953L534.633 587.286C537.234 578.866 540.152 570.498 543.354 562.246 548.73 568.386 559.032 571.049 575.012 567.073 596.559 561.712 609.071 537.386 609.071 537.386 609.071 537.386 586.647 521.752 565.1 527.113 562.513 527.757 560.143 528.487 557.972 529.288 569.545 506.234 583.216 484.983 598.185 467.257L618.321 443.412Z" fill="#737373"/><path d="M510.921 618.956C510.586 618.956 510.259 618.788 510.069 618.482 497.446 598.09 472.932 591.987 472.686 591.928 472.149 591.798 471.819 591.258 471.948 590.722 472.077 590.184 472.618 589.858 473.154 589.983 473.408 590.045 498.705 596.324 511.771 617.429 512.061 617.899 511.917 618.515 511.447 618.806 511.282 618.908 511.101 618.956 510.921 618.956Z" fill="#505050"/><path d="M551.206 551.343C550.868 551.343 550.539 551.172 550.351 550.863 550.064 550.391 550.214 549.776 550.686 549.489 576.772 533.622 596.266 539.374 597.082 539.628 597.609 539.791 597.904 540.35 597.742 540.877 597.581 541.404 597.024 541.699 596.493 541.539 596.302 541.48 576.989 535.831 551.724 551.198 551.563 551.296 551.383 551.343 551.206 551.343Z" fill="#505050"/></g></g><g><path d="M493.046 562.764C522.181 545.235 537.921 517.955 537.921 517.955 537.921 517.955 506.422 519.096 477.287 536.625 448.152 554.154 439.491 567.339 443.843 574.557 448.194 581.775 463.91 580.293 493.046 562.764Z" fill="#D1D1D1"/><path d="M451.921 566.956C451.549 566.956 451.192 566.748 451.02 566.39 450.78 565.893 450.989 565.295 451.487 565.055 451.757 564.925 478.904 551.787 518.39 527.109 518.86 526.815 519.476 526.959 519.768 527.426 520.061 527.895 519.918 528.512 519.451 528.804 479.863 553.547 452.625 566.727 452.355 566.858 452.214 566.925 452.066 566.956 451.921 566.956Z" fill="#E5E5E5"/></g><g><path d="M582.224 357.802C584.243 351.652 596.915 347.302 596.935 341.162 596.956 334.798 584.246 330.364 582.334 324.433 580.403 318.443 588.12 307.435 584.441 302.329 580.798 297.273 567.945 301.111 562.807 297.356 557.85 293.732 557.66 280.269 551.511 278.25 545.361 276.231 537.228 286.96 531.087 286.94 524.723 286.919 516.647 276.208 510.716 278.12 504.726 280.051 504.415 293.491 499.309 297.17 494.253 300.813 481.389 296.849 477.633 301.987 474.009 306.944 481.635 317.959 479.616 324.109 477.597 330.259 464.925 334.609 464.905 340.749 464.884 347.113 477.594 351.547 479.506 357.478 481.437 363.468 473.72 374.476 477.399 379.582 481.042 384.638 493.895 380.8 499.033 384.555 503.99 388.179 504.18 401.641 510.329 403.661 516.479 405.68 524.612 394.951 530.753 394.971 537.117 394.992 545.193 405.703 551.124 403.791 557.114 401.86 557.425 388.42 562.531 384.741 567.587 381.098 580.451 385.062 584.207 379.924 587.83 374.967 580.205 363.952 582.224 357.802Z" fill="#FFC000"/><path d="M576.084 339.861C576.089 338.355 565.828 337.101 553.166 337.062 546.013 337.04 539.626 337.41 535.419 338.007 539.188 336.046 544.615 332.615 550.442 328.409 560.709 320.998 568.318 314 567.436 312.779 566.554 311.557 557.516 316.575 547.249 323.985 541.449 328.171 536.5 332.224 533.449 335.18 535.345 331.378 537.719 325.411 539.96 318.586 543.911 306.556 545.953 296.422 544.521 295.952 543.09 295.482 538.727 304.853 534.776 316.884 532.544 323.681 530.922 329.87 530.191 334.055 529.491 329.865 527.905 323.643 525.705 316.8 521.83 304.745 517.526 295.347 516.091 295.808 514.657 296.269 516.636 306.415 520.511 318.47 522.7 325.279 525.026 331.24 526.894 335.056 523.864 332.078 518.924 327.977 513.124 323.735 502.903 316.26 493.897 311.187 493.008 312.403 492.119 313.619 499.683 320.664 509.904 328.139 515.678 332.361 521.061 335.816 524.816 337.805 520.614 337.177 514.206 336.763 507.022 336.741 494.36 336.702 484.091 337.891 484.087 339.397 484.082 340.903 494.343 342.157 507.005 342.196 514.158 342.218 520.545 341.848 524.752 341.251 520.983 343.212 515.556 346.643 509.729 350.849 499.462 358.26 491.853 365.258 492.735 366.479 493.617 367.7 502.655 362.683 512.922 355.273 518.722 351.087 523.671 347.034 526.723 344.078 524.827 347.88 522.453 353.847 520.212 360.672 516.261 372.702 514.219 382.836 515.651 383.306 517.082 383.776 521.445 374.405 525.396 362.374 527.628 355.577 529.25 349.388 529.981 345.203 530.681 349.393 532.267 355.615 534.467 362.458 538.342 374.513 542.646 383.911 544.081 383.45 545.515 382.989 543.536 372.843 539.661 360.788 537.472 353.978 535.146 348.018 533.278 344.202 536.308 347.18 541.248 351.281 547.049 355.524 557.27 362.999 566.276 368.072 567.165 366.856 568.054 365.64 560.49 358.595 550.269 351.12 544.496 346.898 539.112 343.443 535.357 341.454 539.559 342.082 545.967 342.496 553.151 342.518 565.811 342.557 576.079 341.368 576.084 339.861Z" fill="#FFFFFF"/></g><g><path d="M644.756 560.669C584.523 560.669 535.52 609.672 535.52 669.904L535.52 707.956 549.52 707.956 549.52 669.904C549.52 669.47 549.531 669.038 549.537 668.605 553.821 670.149 559.673 670.301 567.277 668.409 583.248 664.435 592.518 646.401 592.518 646.401 592.518 646.401 575.894 634.811 559.923 638.786 557.806 639.313 555.886 639.918 554.144 640.586 566.537 602.376 602.469 574.669 644.756 574.669L684.52 574.669 684.52 560.669 644.756 560.669Z" fill="#D1D1D1"/><path d="M732.139 564.624C728.551 563.458 725.018 562.412 721.576 561.488 725.213 560.523 728.953 559.425 732.757 558.189 761.646 548.802 783.128 535.232 780.739 527.878 778.35 520.524 752.994 522.173 724.105 531.559 720.517 532.725 717.044 533.955 713.716 535.231 716.092 532.312 718.472 529.226 720.823 525.99 738.677 501.416 748.08 477.81 741.825 473.265 735.57 468.72 716.025 484.958 698.171 509.532 695.953 512.584 693.867 515.621 691.924 518.609 692.13 514.852 692.242 510.955 692.242 506.956 692.242 476.58 685.974 451.956 678.242 451.956 670.51 451.956 664.242 476.58 664.242 506.956 664.242 510.729 664.339 514.412 664.523 517.971 662.481 514.81 660.282 511.592 657.93 508.356 640.076 483.782 620.531 467.544 614.276 472.089 608.021 476.634 617.424 500.239 635.278 524.814 637.496 527.866 639.739 530.789 641.98 533.56 638.47 532.203 634.799 530.893 630.995 529.657 602.106 520.27 576.75 518.622 574.361 525.976 571.972 533.33 593.454 546.9 622.343 556.287 625.931 557.453 629.464 558.499 632.906 559.423 629.269 560.388 625.529 561.486 621.725 562.722 592.836 572.109 571.354 585.679 573.743 593.033 576.132 600.387 601.488 598.738 630.377 589.352 633.965 588.186 637.438 586.956 640.766 585.68 638.391 588.598 636.01 591.685 633.659 594.921 615.805 619.495 606.402 643.101 612.657 647.646 618.912 652.191 638.457 635.953 656.311 611.379 658.529 608.327 660.615 605.29 662.558 602.302 662.352 606.059 662.24 609.955 662.24 613.955 662.24 644.331 668.508 668.955 676.24 668.955 683.972 668.955 690.24 644.331 690.24 613.955 690.24 610.182 690.143 606.499 689.959 602.94 692.001 606.101 694.2 609.319 696.552 612.555 714.406 637.129 733.951 653.367 740.206 648.822 746.461 644.277 737.058 620.671 719.204 596.097 716.986 593.045 714.743 590.122 712.502 587.351 716.012 588.708 719.683 590.018 723.487 591.254 752.376 600.641 777.732 602.289 780.121 594.935 782.51 587.582 761.028 574.011 732.139 564.624Z" fill="#FFC000"/><path d="M701.887 562.576C695.111 560.374 688.94 558.776 684.753 558.054 684.742 558.052 684.742 558.038 684.753 558.036 688.941 557.318 695.135 555.717 701.942 553.505 713.985 549.592 723.37 545.259 722.904 543.826 722.438 542.393 712.299 544.404 700.256 548.317 693.48 550.519 687.547 552.853 683.735 554.729 683.726 554.734 683.718 554.723 683.725 554.715 686.691 551.673 690.761 546.736 694.968 540.945 702.411 530.701 707.456 521.679 706.237 520.793 705.018 519.907 697.997 527.494 690.554 537.738 686.366 543.502 682.939 548.877 680.958 552.635 680.953 552.644 680.94 552.64 680.942 552.63 681.553 548.426 681.944 542.038 681.944 534.882 681.944 522.22 680.723 511.955 679.216 511.955 677.709 511.955 676.488 522.22 676.488 534.882 676.488 542.005 676.875 548.367 677.481 552.572 677.483 552.583 677.469 552.587 677.464 552.578 675.487 548.817 672.051 543.422 667.844 537.633 660.401 527.389 653.38 519.802 652.161 520.688 650.942 521.573 655.988 530.596 663.43 540.84 667.617 546.602 671.669 551.521 674.631 554.567 674.639 554.575 674.63 554.587 674.62 554.582 670.81 552.702 664.857 550.357 658.053 548.147 646.011 544.234 635.871 542.224 635.405 543.656 634.939 545.089 644.324 549.422 656.367 553.335 663.143 555.536 669.313 557.135 673.5 557.857 673.511 557.859 673.511 557.873 673.5 557.875 669.312 558.593 663.119 560.194 656.312 562.406 644.269 566.319 634.884 570.652 635.35 572.085 635.816 573.518 645.955 571.507 657.998 567.594 664.772 565.393 670.704 563.059 674.516 561.183 674.526 561.178 674.534 561.19 674.527 561.198 671.561 564.24 667.492 569.176 663.286 574.965 655.843 585.209 650.798 594.231 652.017 595.117 653.236 596.002 660.257 588.416 667.7 578.172 671.887 572.41 675.313 567.036 677.294 563.278 677.299 563.268 677.313 563.273 677.311 563.284 676.7 567.489 676.31 573.875 676.31 581.028 676.31 593.69 677.531 603.955 679.038 603.955 680.544 603.955 681.766 593.69 681.766 581.028 681.766 573.906 681.379 567.543 680.773 563.338 680.771 563.327 680.785 563.323 680.79 563.332 682.767 567.093 686.203 572.488 690.41 578.277 697.853 588.521 704.874 596.108 706.093 595.222 707.312 594.336 702.266 585.314 694.824 575.07 690.637 569.307 686.584 564.387 683.622 561.342 683.614 561.334 683.623 561.323 683.632 561.328 687.442 563.208 693.395 565.553 700.2 567.764 712.243 571.677 722.382 573.687 722.848 572.255 723.314 570.822 713.929 566.489 701.887 562.576Z" fill="#FFFFFF"/></g><g><circle cx="362.92" cy="129.956" r="10" fill="#FFC000"/><circle cx="336.92" cy="142.956" r="5" fill="#FFC000"/></g><g><circle cx="709.92" cy="183.956" r="10" fill="#FFC000"/><circle cx="712.92" cy="156.956" r="10" fill="#FFC000"/><circle cx="731.92" cy="152.956" r="5" fill="#FFC000"/><circle cx="736.92" cy="177.956" r="10" fill="#FFC000"/></g><g><circle cx="187.92" cy="212.956" r="10" fill="#FFC000"/><circle cx="188.92" cy="164.956" r="10" fill="#FFC000"/><circle cx="230.92" cy="176.956" r="10" fill="#FFC000"/></g><g><rect x="422.029" y="669.836" width="128" height="148" fill="#737373"/><path d="M550.029 725.353 422.029 687.427 422.029 689.513 550.029 727.439Z" fill="#505050"/><rect x="422.029" y="733.956" width="128" height="2" fill="#505050"/><rect x="422.029" y="747.956" width="128" height="2" fill="#505050"/><path d="M550.029 801.239 422.029 769.892 422.029 771.951 550.029 803.299Z" fill="#505050"/></g><path d="M550.42 743.956 550.42 726.084 421.92 725.956 421.92 743.956 510.458 744.045C501.181 753.207 495.42 765.92 495.42 779.957L512.42 779.957C512.42 765.813 521.235 753.697 533.657 748.792 536.1 774.377 557.706 794.457 583.92 794.457L583.92 777.457C565.448 777.456 550.42 762.428 550.42 743.956Z" fill="#FFC000"/></svg>