<svg viewBox="0 0 480 480" xmlns="http://www.w3.org/2000/svg" xmlns:xlink="http://www.w3.org/1999/xlink" id="03ec1f6a-cf2a-489b-b1dd-6be1d8b50f2c" overflow="hidden"><path d="M359 210.207C359 204.388 358.663 198.611 358.007 192.899 342.112 188.27 331 177.702 331 165.4L352.213 165.4C346.946 148.381 338.72 132.401 327.896 118.219 326.684 119.654 325.403 121.064 324.034 122.433 306.46 140.006 282.717 144.756 271.001 133.04L307.594 96.447C305.022 94.182 302.375 91.986 299.634 89.885L239 43.4 178.367 89.885C176.004 91.697 173.704 93.572 171.467 95.506L209 133.04C197.284 144.756 173.541 140.007 155.967 122.433 154.202 120.668 152.572 118.838 151.07 116.967 140.199 130.907 131.856 146.627 126.411 163.4L179 163.4C179 179.968 158.853 193.4 134 193.4 129.152 193.4 124.487 192.883 120.112 191.937 119.381 197.962 119 204.061 119 210.207L119 223.4 179 223.4C179 239.968 158.853 253.4 134 253.4 128.739 253.4 123.692 252.793 119 251.686L119 257.073C119 281.155 126.202 303.971 138.858 323.115L178.639 283.334C190.355 295.05 185.606 318.793 168.033 336.367 164.684 339.715 161.112 342.595 157.442 344.987 169.673 356.31 184.372 365.192 200.896 370.7L200.897 370.7 236.975 344.852 235.46 433.401C235.46 433.436 235.459 433.486 235.46 433.522 235.493 435.477 237.106 437.034 239.06 437.001 241.014 436.967 242.572 435.356 242.539 433.401L241.024 344.852 277.102 370.7C277.102 370.7 309.006 355.906 321.403 344.208 318.139 341.976 314.963 339.363 311.966 336.367 294.393 318.794 289.644 295.05 301.36 283.334L339.92 321.894C352.084 303.003 359 280.649 359 257.074L359 252.125C354.883 252.952 350.521 253.401 346 253.401 321.147 253.401 301 239.969 301 223.401L359 223.401 359 210.207ZM215.455 341.854C207.226 350.083 195.657 351.856 189.613 345.812 183.57 339.769 185.342 328.199 193.571 319.97 201.8 311.741 213.369 309.968 219.412 316.011 225.456 322.055 223.684 333.624 215.455 341.854Z" fill="#FFC000"/><path d="M299.441 253.583C299.05 253.192 298.418 253.192 298.027 253.583L240 311.611 240 253.824 270.195 224.619C270.591 224.235 270.602 223.602 270.218 223.205 269.835 222.809 269.203 222.797 268.804 223.182L240 251.041 240 193.813 285.207 148.606C285.598 148.215 285.598 147.583 285.207 147.192 284.816 146.801 284.184 146.801 283.793 147.192L240 190.986 240 133.814 253.707 120.107C254.098 119.716 254.098 119.084 253.707 118.693 253.316 118.302 252.684 118.302 252.293 118.693L240 130.986 240 103.4C240 102.848 239.553 102.4 239 102.4 238.447 102.4 238 102.848 238 103.4L238 130.986 225.707 118.693C225.316 118.302 224.684 118.302 224.293 118.693 223.902 119.084 223.902 119.716 224.293 120.107L238 133.814 238 190.986 193.707 146.693C193.316 146.302 192.684 146.302 192.293 146.693 191.902 147.084 191.902 147.716 192.293 148.107L238 193.814 238 250.986 194.707 207.693C194.316 207.302 193.684 207.302 193.293 207.693 192.902 208.084 192.902 208.716 193.293 209.107L238 253.814 238 311.641 193.191 266.833C192.8 266.442 192.168 266.442 191.777 266.833 191.386 267.224 191.386 267.856 191.777 268.247L238.277 314.747C238.472 314.942 238.728 315.04 238.984 315.04 239.24 315.04 239.496 314.942 239.691 314.747L299.441 254.997C299.832 254.606 299.832 253.974 299.441 253.583Z" fill="#505050"/></svg>