<?xml version="1.0" encoding="iso-8859-1"?>
<!-- Generator: Adobe Illustrator 19.0.0, SVG Export Plug-In . SVG Version: 6.00 Build 0)  -->
<svg version="1.1" id="Layer_1" xmlns="http://www.w3.org/2000/svg" xmlns:xlink="http://www.w3.org/1999/xlink" x="0px" y="0px"
	 viewBox="0 0 302.816 302.816" style="enable-background:new 0 0 302.816 302.816;" xml:space="preserve">
<path id="XMLID_2_" d="M241.053,78.136c0.01-0.224,0.031-0.448,0.03-0.672c0-0.345-0.024-0.686-0.049-1.027
	c-0.01-0.141-0.01-0.283-0.023-0.424c-0.032-0.322-0.086-0.638-0.138-0.955c-0.027-0.166-0.045-0.332-0.077-0.496
	c-0.054-0.271-0.127-0.535-0.196-0.801c-0.053-0.21-0.1-0.422-0.162-0.631c-0.064-0.21-0.145-0.414-0.217-0.621
	c-0.091-0.257-0.176-0.516-0.281-0.769c-0.064-0.157-0.144-0.306-0.213-0.46c-0.133-0.29-0.262-0.581-0.413-0.864
	c-0.07-0.131-0.153-0.254-0.227-0.384c-0.166-0.29-0.33-0.581-0.518-0.862c-0.144-0.216-0.307-0.418-0.461-0.626
	c-0.134-0.18-0.256-0.365-0.399-0.54c-0.317-0.39-0.655-0.762-1.012-1.119c-0.002-0.002-0.004-0.005-0.006-0.007L174.208,4.393
	c-5.857-5.858-15.355-5.858-21.213,0c-5.858,5.857-5.858,15.355,0,21.213l35.13,35.13c-59.791,5.858-111.389,50.117-123.7,112.007
	c-4.736,23.817-3.136,48.02,4.125,70.432c0.112,0.348,0.215,0.7,0.331,1.047c6.663,20.032,17.873,38.595,33.157,54.118
	c0.614,0.624,1.276,1.167,1.964,1.66c2.601,1.866,5.658,2.816,8.726,2.816c0.475,0,0.95-0.022,1.423-0.067
	c3.313-0.314,6.545-1.727,9.101-4.244c5.903-5.813,5.977-15.31,0.164-21.213c-3.604-3.66-6.909-7.542-9.926-11.598
	c-18.44-24.791-25.755-56.355-19.64-87.097c9.72-48.866,50.676-83.772,97.979-88.071l-38.835,38.836
	c-5.858,5.858-5.858,15.355,0,21.213c2.929,2.929,6.768,4.394,10.607,4.394c3.839,0,7.678-1.464,10.606-4.394l62.41-62.411
	c0.022-0.022,0.045-0.046,0.067-0.068l0.007-0.006c0.013-0.013,0.023-0.027,0.036-0.04c0.338-0.339,0.659-0.694,0.963-1.065
	c0.088-0.106,0.162-0.219,0.246-0.327c0.217-0.279,0.432-0.559,0.629-0.854c0.115-0.172,0.213-0.351,0.32-0.527
	c0.146-0.24,0.296-0.476,0.429-0.725c0.125-0.234,0.232-0.475,0.343-0.713c0.095-0.202,0.195-0.399,0.281-0.606
	c0.128-0.308,0.233-0.622,0.34-0.936c0.051-0.15,0.11-0.295,0.156-0.448c0.128-0.421,0.231-0.847,0.321-1.275
	c0.012-0.055,0.03-0.107,0.041-0.163c0.001-0.004,0.001-0.009,0.002-0.013c0.097-0.492,0.171-0.987,0.218-1.484
	C241.041,78.652,241.041,78.394,241.053,78.136z"/>
<g>
</g>
<g>
</g>
<g>
</g>
<g>
</g>
<g>
</g>
<g>
</g>
<g>
</g>
<g>
</g>
<g>
</g>
<g>
</g>
<g>
</g>
<g>
</g>
<g>
</g>
<g>
</g>
<g>
</g>
</svg>
