<?xml version="1.0" encoding="iso-8859-1"?>
<!-- Generator: Adobe Illustrator 16.0.0, SVG Export Plug-In . SVG Version: 6.00 Build 0)  -->
<!DOCTYPE svg PUBLIC "-//W3C//DTD SVG 1.1//EN" "http://www.w3.org/Graphics/SVG/1.1/DTD/svg11.dtd">
<svg version="1.1" id="Capa_1" xmlns="http://www.w3.org/2000/svg" xmlns:xlink="http://www.w3.org/1999/xlink" x="0px" y="0px"
	 width="141.611px" height="141.611px" viewBox="0 0 141.611 141.611" style="enable-background:new 0 0 141.611 141.611;"
	 xml:space="preserve">
<g>
	<path d="M138.68,92.325c-1.029,0.651-2.174,0.95-3.3,0.95c-2.077,0-4.104-1.035-5.298-2.941
		c-6.369-10.193-14.852-18.262-25.203-23.973c-1.888-1.047-2.91-2.944-3.081-4.944c-13.037-6.038-27.767-8.245-42.478-5.979
		c-6.905,1.072-13.408,3.136-19.503,5.934c-0.158,2.021-1.182,3.937-3.087,4.99c-10.352,5.7-18.833,13.768-25.203,23.961
		c-1.181,1.905-3.221,2.953-5.297,2.953c-1.126,0-2.271-0.323-3.294-0.95c-2.922-1.827-3.812-5.675-1.985-8.586
		c7.514-12.032,17.524-21.556,29.758-28.296c2.088-1.16,4.53-0.911,6.399,0.322c6.637-3.06,13.731-5.319,21.257-6.485
		c15.954-2.463,31.95-0.048,46.101,6.509c1.882-1.245,4.329-1.501,6.454-0.347c12.233,6.752,22.244,16.27,29.752,28.283
		C142.485,86.65,141.597,90.498,138.68,92.325z" fill="#1f78b4
"/>
</g>
<g>
</g>
<g>
</g>
<g>
</g>
<g>
</g>
<g>
</g>
<g>
</g>
<g>
</g>
<g>
</g>
<g>
</g>
<g>
</g>
<g>
</g>
<g>
</g>
<g>
</g>
<g>
</g>
<g>
</g>
</svg>
