<?xml version="1.0" encoding="iso-8859-1"?>
<!-- Generator: Adobe Illustrator 18.0.0, SVG Export Plug-In . SVG Version: 6.00 Build 0)  -->
<!DOCTYPE svg PUBLIC "-//W3C//DTD SVG 1.1//EN" "http://www.w3.org/Graphics/SVG/1.1/DTD/svg11.dtd">
<svg version="1.1" id="Capa_1" xmlns="http://www.w3.org/2000/svg" xmlns:xlink="http://www.w3.org/1999/xlink" x="0px" y="0px"
	 viewBox="0 0 341.973 341.973" style="enable-background:new 0 0 341.973 341.973;" xml:space="preserve">
<g>
	<path style="fill:#231F20;" d="M113.08,107.477c4.079-0.72,6.802-4.61,6.082-8.689l-3.477-19.695
		c-0.72-4.079-4.609-6.802-8.689-6.082l-36.932,6.52c5.196-6.14,11.076-11.74,17.625-16.754
		c19.523-14.944,43.796-23.174,68.349-23.174c1.341,0,2.7,0.024,4.04,0.073c1.995,0.077,3.923-0.648,5.38-2.003
		c1.457-1.354,2.316-3.232,2.388-5.221l0.725-19.987c0.071-1.988-0.649-3.923-2.004-5.38c-1.355-1.457-3.233-2.315-5.222-2.387
		c-1.741-0.063-3.508-0.094-5.252-0.094c-32.236,0-64.084,10.79-89.678,30.381c-9.378,7.179-17.861,15.48-25.247,24.642l-6.585-37.3
		c-0.72-4.079-4.609-6.803-8.689-6.082L6.197,19.722c-4.079,0.72-6.802,4.61-6.082,8.69l15.646,88.63
		c0.346,1.959,1.456,3.7,3.085,4.841c1.27,0.888,2.773,1.355,4.301,1.355c0.434,0,0.871-0.038,1.303-0.114L113.08,107.477z"/>
	<path style="fill:#231F20;" d="M341.143,75.309c-0.911-1.769-2.486-3.104-4.379-3.711L251.061,44.12
		c-3.943-1.264-8.168,0.908-9.432,4.852l-27.479,85.703c-1.265,3.944,0.907,8.167,4.852,9.432l19.045,6.106
		c0.747,0.239,1.519,0.358,2.29,0.358c1.183,0,2.36-0.28,3.43-0.831c1.77-0.91,3.104-2.485,3.712-4.379l11.451-35.714
		c3.009,7.459,5.222,15.272,6.604,23.404c4.366,25.69-0.362,52.259-13.311,74.811c-0.991,1.725-1.255,3.773-0.736,5.693
		c0.519,1.92,1.78,3.556,3.505,4.546l17.344,9.959c1.178,0.676,2.461,0.998,3.728,0.998c2.598,0,5.124-1.352,6.511-3.767
		c16.987-29.581,23.19-64.421,17.465-98.103c-1.979-11.644-5.367-23.02-10.029-33.825l36.066,11.564
		c3.944,1.264,8.168-0.907,9.432-4.852l6.107-19.045C342.222,79.136,342.052,77.078,341.143,75.309z"/>
	<path style="fill:#231F20;" d="M136.724,197.181c-1.468-1.342-3.408-2.046-5.396-1.958c-1.987,0.089-3.858,0.963-5.2,2.431
		l-13.498,14.758c-2.796,3.057-2.584,7.801,0.472,10.597l27.669,25.307c-8.03-0.382-16.087-1.633-24.019-3.762
		c-25.169-6.756-47.338-22.142-62.426-43.323c-2.403-3.374-7.087-4.161-10.459-1.757l-16.291,11.604
		c-1.62,1.154-2.715,2.905-3.045,4.866c-0.33,1.962,0.134,3.974,1.288,5.594c19.791,27.783,48.862,47.961,81.86,56.82
		c11.377,3.054,23.113,4.718,34.934,4.992l-25.574,27.961c-2.795,3.057-2.584,7.801,0.472,10.596l14.758,13.498
		c1.386,1.267,3.192,1.966,5.062,1.966c0.111,0,0.223-0.003,0.334-0.007c1.987-0.089,3.858-0.963,5.2-2.431l60.742-66.411
		c2.795-3.057,2.584-7.801-0.472-10.596L136.724,197.181z"/>
</g>
<g>
</g>
<g>
</g>
<g>
</g>
<g>
</g>
<g>
</g>
<g>
</g>
<g>
</g>
<g>
</g>
<g>
</g>
<g>
</g>
<g>
</g>
<g>
</g>
<g>
</g>
<g>
</g>
<g>
</g>
</svg>
