<svg id="Layer_1" data-name="Layer 1" xmlns="http://www.w3.org/2000/svg" viewBox="0 0 648 374"><defs><style>@import url('https://fonts.googleapis.com/css2?family=Kiwi+Maru:wght@500&display=swap');@import url('https://fonts.googleapis.com/css2?family=Balsamiq+Sans:ital@1&family=Kiwi+Maru:wght@500&display=swap');
    .lb1{font-family:Kiwi Maru, serif; font-size: 50px;}.lb1{fill:#2c7bb6;}.txt1{font-family: Balsamiq Sans, cursive; font-size: 32px;}.color-1,.lb1{fill:#59bdc9;}.color2,.color3{fill:none;stroke-miterlimit:10;}.color2{stroke:#fff;stroke-width:1.2px;}.lb1{font-size:45px;font-family:BebasNeueBold, Bebas Neue;}.color3{stroke:#59bdc9;stroke-width:2px;}</style></defs><path class="color-1" d="M395.57,337.51c0-41.09-40-74.39-89.28-74.39S217,296.42,217,337.51s40,74.39,89.29,74.39S395.57,378.59,395.57,337.51Z" transform="translate(-217 -205)"/><image class="img1" x="43" y="90" href="sample_img.png" width="100"/><text class="lb1" transform="translate(244.46 101.61) scale(1.2 1)">2018</text><ellipse class="color-1" cx="604.82" cy="132.51" rx="43.18" ry="35.97"/><path class="color3" d="M437.53,337.51h295c0-41.08,40-74.39,89.29-74.39V214.77" transform="translate(-217 -205)"/><path class="color-1" d="M449.11,337.51c0,5.33-5.18,9.64-11.58,9.64S426,342.84,426,337.51s5.18-9.64,11.57-9.64S449.11,332.18,449.11,337.51Z" transform="translate(-217 -205)"/><path class="color-1" d="M833.4,214.64c0,5.33-5.19,9.65-11.58,9.65s-11.57-4.32-11.57-9.65,5.18-9.64,11.57-9.64S833.4,209.32,833.4,214.64Z" transform="translate(-217 -205)"/><line class="color3" x1="604.82" y1="206.21" x2="604.82" y2="345.21"/><ellipse class="color-1" cx="604.82" cy="345.21" rx="11.57" ry="9.64"/><ellipse class="color-1" cx="604.82" cy="206.21" rx="11.57" ry="9.64"/><rect class="text-wrap" height="300" width="239" x="247" y="150" style="fill:none"/><text id="wrap" class="txt1" y="181.8" x="254.46" font-size="12" dy="1"></text></svg>