<svg id="Layer_1" data-name="Layer 1" xmlns="http://www.w3.org/2000/svg" viewBox="0 0 839 612"><defs><style>@import url('https://fonts.googleapis.com/css2?family=Kiwi+Maru:wght@500&display=swap');@import url('https://fonts.googleapis.com/css2?family=Balsamiq+Sans:ital@1&family=Kiwi+Maru:wght@500&display=swap');
    .lb1{font-family:Kiwi Maru, serif; font-size: 50px;}.lb1{fill:#2c7bb6;}.txt1{font-family: Balsamiq Sans, cursive; font-size: 35px;}.color-1{fill:#f75c2a;}.color-2{fill:#23282b;}</style></defs><path class="color-1" d="M510.51,603.6c94.2,0,179.52,31.53,241.21,82.4L930,539C822.65,450.44,674.41,395.72,510.51,395.72S198.34,450.44,91,539L269.31,686C331,635.13,416.29,603.6,510.51,603.6Z" transform="translate(-91 -74)"/><polygon class="color-1" points="497.36 256.05 341.66 256.05 315.68 329.41 523.31 329.41 497.36 256.05"/><polygon class="color-1" points="150.5 298.26 15.65 362.49 37.67 436.75 217.46 351.13 150.5 298.26"/><polygon class="color-1" points="823.43 362.49 688.55 298.26 621.58 351.13 801.39 436.74 823.43 362.49"/><rect class="text-wrap" height="100px" width="400" x="250px" y="40px" style="fill:none"/><text id="wrap" class="txt1" font-size="30" x="330" y="40" dy="1"></text> <image class="img1" x='20' y='30' href='sample_img.png' width='250'/></svg>