<svg id="Layer_1" data-name="Layer 1" xmlns="http://www.w3.org/2000/svg" viewBox="0 0 876 561"><defs><style>@import url('https://fonts.googleapis.com/css2?family=Kiwi+Maru:wght@500&display=swap');@import url('https://fonts.googleapis.com/css2?family=Balsamiq+Sans:ital@1&family=Kiwi+Maru:wght@500&display=swap');
    .lb1{font-family:Kiwi Maru, serif; font-size: 50px;}.lb1{fill:#2c7bb6;}.txt1{font-family: Balsamiq Sans, cursive; font-size: 32px;}.color-1{fill:#a2b2b2;}.color2{fill:#23282b;}</style></defs><image class="img1" x='130' y='130' href='sample_img.png' preserveAspectRatio='none' height='300' width='300'/><polygon class="color-1" points="314.26 0 269.92 0 257.02 61.84 327.15 61.84 314.26 0"/><polygon class="color-1" points="165.24 26.86 126.89 48.17 147.86 107.99 208.68 74.24 165.24 26.86"/><polygon class="color-1" points="50.27 121.77 28.1 158.61 77.49 200.36 112.47 142.02 50.27 121.77"/><polygon class="color-1" points="0 259.14 0 301.7 64.52 314.15 64.52 246.75 0 259.14"/><polygon class="color-1" points="28.1 402.27 50.27 439.14 112.47 418.95 77.49 360.59 28.1 402.27"/><polygon class="color-1" points="126.89 512.77 165.24 534.03 208.68 486.56 147.88 452.96 126.89 512.77"/><polygon class="color-1" points="269.96 561 314.26 561 327.15 499.06 257.02 499.06 269.96 561"/><polygon class="color-1" points="419 534.03 457.32 512.77 436.24 452.96 375.45 486.56 419 534.03"/><polygon class="color-1" points="533.88 439.14 556.08 402.27 506.79 360.59 471.67 418.95 533.88 439.14"/><polygon class="color-1" points="584.06 301.7 584.06 259.14 519.7 246.75 519.7 314.15 584.06 301.7"/><polygon class="color-1" points="556.08 158.61 533.88 121.77 471.67 142.02 506.79 200.36 556.08 158.61"/><polygon class="color-1" points="457.32 48.17 418.94 26.91 375.45 74.24 436.24 107.9 457.32 48.17"/><path class="color-1" d="M374,112.64C242.5,112.64,136,215.07,136,341.56S242.5,570.25,374,570.25s238.3-102.33,238.3-228.69S505.67,112.64,374,112.64Zm-.05,378c-85.77,0-155.21-66.77-155.21-149.07,0-82.49,69.44-149.39,155.21-149.39s155.47,66.9,155.47,149.39C529.46,423.89,459.75,490.66,374,490.66Z" transform="translate(-82 -61)"/><path class="color2" d="M374,510.56c-97,0-175.92-75.8-175.92-169,0-93.34,78.92-169.28,175.92-169.28s176.18,75.94,176.18,169.28C550.17,434.76,471.14,510.56,374,510.56Zm0-298.47c-74.15,0-134.5,58.1-134.5,129.5,0,71.23,60.35,129.18,134.5,129.18,74.31,0,134.76-57.95,134.76-129.18C508.75,270.19,448.3,212.09,374,212.09Z" transform="translate(-82 -61)"/><rect class="text-wrap" height="100px" width="200" x="645px" y="259px" style="fill:none"/><text id="wrap" class="txt1" x="645px" y="259px" dy="1"></text><text class="lb1" x="650" y="220" font-size="30px"></text></svg>