<?xml version="1.0" encoding="iso-8859-1"?>
<!-- Generator: Adobe Illustrator 19.0.0, SVG Export Plug-In . SVG Version: 6.00 Build 0)  -->
<svg version="1.1" id="Layer_1" xmlns="http://www.w3.org/2000/svg" xmlns:xlink="http://www.w3.org/1999/xlink" x="0px" y="0px"
	 viewBox="0 0 512.001 512.001" style="enable-background:new 0 0 512.001 512.001;" xml:space="preserve">
<polygon style="fill:#F4B2B0;" points="162.987,144.418 13.667,256 162.987,367.58 "/>
<path style="fill:#B3404A;" d="M466.897,256l43.862-95.787c2.122-4.633,1.49-10.062-1.639-14.084
	c-3.13-4.019-8.236-5.966-13.247-5.05l-255.656,46.81c-7.424,1.36-12.341,8.48-10.981,15.905c1.36,7.424,8.475,12.344,15.905,10.981
	l229.842-42.083l-31.889,69.641h-72.863c-7.547,0-13.667,6.119-13.667,13.667c0,7.548,6.12,13.667,13.667,13.667h72.863
	l31.889,69.641l-298.328-54.624V144.418c0-5.173-2.921-9.902-7.544-12.218c-4.625-2.317-10.16-1.826-14.304,1.271L5.486,245.051
	C2.034,247.632,0,251.689,0,256c0,4.311,2.034,8.368,5.486,10.949l149.32,111.582c2.408,1.799,5.286,2.718,8.182,2.718
	c2.087,0,4.185-0.478,6.121-1.449c4.624-2.318,7.544-7.047,7.544-12.218v-55.109l319.218,58.449c0.821,0.15,1.644,0.224,2.463,0.224
	c4.17,0,8.17-1.912,10.786-5.274c3.128-4.022,3.761-9.451,1.639-14.084L466.897,256z M149.32,340.307L36.499,255.999l112.821-84.307
	V340.307z"/>
<g>
</g>
<g>
</g>
<g>
</g>
<g>
</g>
<g>
</g>
<g>
</g>
<g>
</g>
<g>
</g>
<g>
</g>
<g>
</g>
<g>
</g>
<g>
</g>
<g>
</g>
<g>
</g>
<g>
</g>
</svg>
