<?xml version="1.0" encoding="iso-8859-1"?>
<!-- Generator: Adobe Illustrator 19.0.0, SVG Export Plug-In . SVG Version: 6.00 Build 0)  -->
<svg version="1.1" id="Capa_1" xmlns="http://www.w3.org/2000/svg" xmlns:xlink="http://www.w3.org/1999/xlink" x="0px" y="0px"
	 viewBox="0 0 55 55" style="enable-background:new 0 0 55 55;" xml:space="preserve">
<path style="fill:#C3A97E;" d="M29.5,17h-4L22.752,1.429C22.621,0.684,23.194,0,23.951,0h7.097c0.757,0,1.331,0.684,1.199,1.429
	L29.5,17z"/>
<path style="fill:#C3A97E;" d="M25.5,38h4l2.748,15.571C32.379,54.316,31.806,55,31.049,55h-7.097c-0.757,0-1.331-0.684-1.199-1.429
	L25.5,38z"/>
<path style="fill:#C3A97E;" d="M37.5,30v-4l15.571-2.748c0.746-0.132,1.429,0.442,1.429,1.199v7.097
	c0,0.757-0.684,1.331-1.429,1.199L37.5,30z"/>
<path style="fill:#C3A97E;" d="M17.5,26v4L1.929,32.748C1.184,32.879,0.5,32.306,0.5,31.549v-7.097c0-0.757,0.684-1.331,1.429-1.199
	L17.5,26z"/>
<path style="fill:#C3A97E;" d="M21.49,18.661l-2.828,2.828L5.708,12.422c-0.62-0.434-0.698-1.323-0.163-1.859l5.019-5.019
	c0.535-0.535,1.424-0.458,1.859,0.163L21.49,18.661z"/>
<path style="fill:#C3A97E;" d="M33.51,36.339l2.828-2.828l12.953,9.067c0.62,0.434,0.698,1.323,0.163,1.859l-5.019,5.019
	c-0.535,0.535-1.424,0.458-1.859-0.163L33.51,36.339z"/>
<path style="fill:#C3A97E;" d="M36.339,22.197l-2.828-2.828l9.067-12.953c0.434-0.62,1.323-0.698,1.859-0.163l5.019,5.019
	c0.535,0.535,0.458,1.424-0.163,1.859L36.339,22.197z"/>
<path style="fill:#C3A97E;" d="M19.368,33.51l2.828,2.828L13.13,49.292c-0.434,0.62-1.323,0.698-1.859,0.163l-5.019-5.019
	c-0.535-0.535-0.458-1.424,0.163-1.859L19.368,33.51z"/>
<path style="fill:#7F5B53;" d="M27.5,40c-6.617,0-12-5.383-12-12s5.383-12,12-12s12,5.383,12,12S34.117,40,27.5,40z"/>
<circle style="fill:#D9B24C;" cx="27.5" cy="28" r="6"/>
<g>
</g>
<g>
</g>
<g>
</g>
<g>
</g>
<g>
</g>
<g>
</g>
<g>
</g>
<g>
</g>
<g>
</g>
<g>
</g>
<g>
</g>
<g>
</g>
<g>
</g>
<g>
</g>
<g>
</g>
</svg>
