<?xml version="1.0" encoding="iso-8859-1"?>
<!-- Generator: Adobe Illustrator 19.0.0, SVG Export Plug-In . SVG Version: 6.00 Build 0)  -->
<svg version="1.1" id="Layer_1" xmlns="http://www.w3.org/2000/svg" xmlns:xlink="http://www.w3.org/1999/xlink" x="0px" y="0px"
	 viewBox="0 0 473.654 473.654" style="enable-background:new 0 0 473.654 473.654;" xml:space="preserve">
<circle style="fill:#65A844;" cx="236.827" cy="236.827" r="236.827"/>
<path style="fill:#FFFFFF;" d="M392.263,207.973c-75.794,0-151.58,0-227.377,0c0-17.625,0-35.249,0-52.874
	c0-12.329-15.257-18.705-23.997-9.966c-27.011,27.011-54.018,54.022-81.029,81.033c-5.422,5.422-5.277,14.453,0.105,19.835
	c27.011,27.007,54.018,54.014,81.029,81.025c4.693,4.693,10.321,4.955,14.936,2.801c0.093-0.03,0.187-0.075,0.277-0.105
	c0.011-0.004,0.022-0.007,0.034-0.015c4.817-1.716,8.646-5.882,8.646-12.55c0-17.692,0-35.388,0-53.08c75.655,0,151.314,0,226.973,0
	C428.084,264.077,428.402,207.973,392.263,207.973z"/>
<g>
</g>
<g>
</g>
<g>
</g>
<g>
</g>
<g>
</g>
<g>
</g>
<g>
</g>
<g>
</g>
<g>
</g>
<g>
</g>
<g>
</g>
<g>
</g>
<g>
</g>
<g>
</g>
<g>
</g>
</svg>
