<?xml version="1.0" encoding="iso-8859-1"?>
<!-- Generator: Adobe Illustrator 19.0.0, SVG Export Plug-In . SVG Version: 6.00 Build 0)  -->
<svg version="1.1" id="Layer_1" xmlns="http://www.w3.org/2000/svg" xmlns:xlink="http://www.w3.org/1999/xlink" x="0px" y="0px"
	 viewBox="0 0 512 512" style="enable-background:new 0 0 512 512;" xml:space="preserve">
<path style="fill:#3BAFDA;" d="M501.344,394.656H10.688C4.781,394.656,0,399.438,0,405.328S4.781,416,10.688,416h490.656
	c5.891,0,10.656-4.781,10.656-10.672S507.234,394.656,501.344,394.656z"/>
<path style="fill:#4FC1E9;" d="M501.344,330.672H378.562c16.875-24.203,26.781-53.609,26.781-85.344
	C405.344,162.859,338.484,96,256,96c-82.469,0-149.312,66.859-149.312,149.328c0,31.734,9.906,61.141,26.781,85.344H10.688
	C4.781,330.672,0,335.438,0,341.328S4.781,352,10.688,352h145.266c5.891,0,10.672-4.781,10.672-10.672
	c0-2.984-1.219-5.672-3.188-7.609C140.562,309.812,128,278.531,128,245.328c0-34.188,13.312-66.328,37.5-90.5
	c24.172-24.172,56.312-37.484,90.5-37.484s66.344,13.312,90.516,37.484S384,211.141,384,245.328
	c0,33.203-12.547,64.484-35.406,88.391c-1.969,1.938-3.188,4.625-3.188,7.609c0,5.891,4.766,10.672,10.656,10.672h145.281
	c5.891,0,10.656-4.781,10.656-10.672S507.234,330.672,501.344,330.672z"/>
<g>
</g>
<g>
</g>
<g>
</g>
<g>
</g>
<g>
</g>
<g>
</g>
<g>
</g>
<g>
</g>
<g>
</g>
<g>
</g>
<g>
</g>
<g>
</g>
<g>
</g>
<g>
</g>
<g>
</g>
</svg>
