<?xml version="1.0" encoding="iso-8859-1"?>
<!-- Generator: Adobe Illustrator 19.0.0, SVG Export Plug-In . SVG Version: 6.00 Build 0)  -->
<svg version="1.1" id="Layer_1" xmlns="http://www.w3.org/2000/svg" xmlns:xlink="http://www.w3.org/1999/xlink" x="0px" y="0px"
	 viewBox="0 0 512 512" style="enable-background:new 0 0 512 512;" xml:space="preserve">
<path style="fill:#2D527C;" d="M478.733,170.634H387.7c-9.059,0-16.406-7.345-16.406-16.406s7.346-16.406,16.406-16.406h91.033
	c9.059,0,16.406,7.345,16.406,16.406S487.792,170.634,478.733,170.634z"/>
<path style="fill:#CEE8FA;" d="M188.332,256l109.01-106.068V32.49c0-14.271-17.229-21.447-27.358-11.394L33.267,256l236.715,234.904
	c10.13,10.052,27.358,2.878,27.358-11.394V362.068L188.332,256z"/>
<g>
	<path style="fill:#2D527C;" d="M478.733,341.366H299.59L211.858,256l96.925-94.31c3.174-3.089,4.964-7.328,4.964-11.758V32.49
		C313.746,14.575,299.135,0,281.174,0c-8.528,0-16.606,3.357-22.746,9.45L21.711,244.355c-3.104,3.079-4.849,7.273-4.849,11.645
		c0,4.372,1.746,8.565,4.849,11.645L258.426,502.55c6.141,6.093,14.219,9.45,22.746,9.45c0,0,0,0,0.002,0
		c8.332,0,16.281-3.137,22.377-8.833c6.574-6.142,10.194-14.543,10.194-23.657V374.177h164.985c9.059,0,16.406-7.345,16.406-16.406
		S487.792,341.366,478.733,341.366z M280.93,478.657L56.558,256L280.935,33.344v109.659L176.891,244.242
		c-3.174,3.088-4.964,7.328-4.964,11.758c0,4.429,1.79,8.67,4.964,11.758l104.044,101.237L280.93,478.657z"/>
	<path style="fill:#2D527C;" d="M443.166,272.406H286.895c-9.059,0-16.406-7.345-16.406-16.406s7.346-16.406,16.406-16.406h156.271
		c9.059,0,16.406,7.345,16.406,16.406S452.225,272.406,443.166,272.406z"/>
</g>
<g>
</g>
<g>
</g>
<g>
</g>
<g>
</g>
<g>
</g>
<g>
</g>
<g>
</g>
<g>
</g>
<g>
</g>
<g>
</g>
<g>
</g>
<g>
</g>
<g>
</g>
<g>
</g>
<g>
</g>
</svg>
