<?xml version="1.0" encoding="iso-8859-1"?>
<!-- Generator: Adobe Illustrator 19.0.0, SVG Export Plug-In . SVG Version: 6.00 Build 0)  -->
<svg version="1.1" id="Layer_1" xmlns="http://www.w3.org/2000/svg" xmlns:xlink="http://www.w3.org/1999/xlink" x="0px" y="0px"
	 viewBox="0 0 512 512" style="enable-background:new 0 0 512 512;" xml:space="preserve">
<circle style="fill:#B5F1F4;" cx="256" cy="256" r="256"/>
<path style="fill:#84DBFF;" d="M511.879,263.58L359.052,110.752l-20.323,44.63l-41.606-41.605l-42.849,48.087l-48.087-48.087
	l-56.708,111.55l-28.625,144.449l142.124,142.124C398.617,508.273,507.937,399.141,511.879,263.58z"/>
<rect x="211.782" y="113.778" style="fill:#F1543F;" width="85.333" height="256"/>
<rect x="253.121" y="113.778" style="fill:#C1321F;" width="43.994" height="256"/>
<g>
	<rect x="211.782" y="142.222" style="fill:#FFD15D;" width="85.333" height="56.889"/>
	<rect x="211.782" y="209.024" style="fill:#FFD15D;" width="85.333" height="28.444"/>
</g>
<g>
	<rect x="253.121" y="142.222" style="fill:#F9B54C;" width="43.994" height="56.889"/>
	<rect x="253.121" y="209.024" style="fill:#F9B54C;" width="43.994" height="28.444"/>
</g>
<rect x="120.846" y="113.778" style="fill:#324A5E;" width="85.333" height="256"/>
<rect x="163.478" y="113.778" style="fill:#2B3B4E;" width="42.701" height="256"/>
<g>
	<rect x="120.846" y="142.222" style="fill:#4CDBC4;" width="85.333" height="56.889"/>
	<rect x="120.846" y="209.024" style="fill:#4CDBC4;" width="85.333" height="28.444"/>
</g>
<g>
	<rect x="163.478" y="142.222" style="fill:#1EA8A4;" width="42.701" height="56.889"/>
	<rect x="163.478" y="209.024" style="fill:#1EA8A4;" width="42.701" height="28.444"/>
</g>
<rect x="325.548" y="113.795" transform="matrix(-0.9838 0.1792 -0.1792 -0.9838 745.584 416.2371)" style="fill:#F1543F;" width="56.888" height="255.997"/>
<g>
	<polygon style="fill:#C1321F;" points="359.052,110.752 329.147,116.202 378.239,367.471 404.939,362.606 	"/>
	
		<rect x="312.812" y="143.396" transform="matrix(-0.9838 0.1792 -0.1792 -0.9838 707.7813 279.7455)" style="fill:#C1321F;" width="56.888" height="56.888"/>
	
		<rect x="322.238" y="209.328" transform="matrix(-0.9838 0.1792 -0.1792 -0.9838 735.7491 380.6389)" style="fill:#C1321F;" width="56.888" height="28.444"/>
</g>
<g>
	<polygon style="fill:#A82116;" points="374.348,194.703 364.151,138.736 334.601,144.12 345.51,199.958 	"/>
	<polygon style="fill:#A82116;" points="381.223,232.439 376.123,204.455 347.412,209.687 352.866,237.606 	"/>
</g>
<g>
</g>
<g>
</g>
<g>
</g>
<g>
</g>
<g>
</g>
<g>
</g>
<g>
</g>
<g>
</g>
<g>
</g>
<g>
</g>
<g>
</g>
<g>
</g>
<g>
</g>
<g>
</g>
<g>
</g>
</svg>
