<?xml version="1.0" encoding="iso-8859-1"?>
<!-- Generator: Adobe Illustrator 19.0.0, SVG Export Plug-In . SVG Version: 6.00 Build 0)  -->
<svg version="1.1" id="Capa_1" xmlns="http://www.w3.org/2000/svg" xmlns:xlink="http://www.w3.org/1999/xlink" x="0px" y="0px"
	 viewBox="0 0 56 56" style="enable-background:new 0 0 56 56;" xml:space="preserve">
<circle style="fill:#2FA8CC;" cx="28" cy="28" r="28"/>
<path style="fill:#EDEDED;" d="M48,35H8c-0.553,0-1-0.447-1-1s0.447-1,1-1h40c0.553,0,1,0.447,1,1S48.553,35,48,35z"/>
<path style="fill:#EDEDED;" d="M48,29h-9c-0.553,0-1-0.447-1-1s0.447-1,1-1h9c0.553,0,1,0.447,1,1S48.553,29,48,29z"/>
<path style="fill:#EDEDED;" d="M17,29H8c-0.553,0-1-0.447-1-1s0.447-1,1-1h9c0.553,0,1,0.447,1,1S17.553,29,17,29z"/>
<path style="fill:#EDEDED;" d="M39,29c-0.553,0-1-0.447-1-1c0-5.514-4.486-10-10-10s-10,4.486-10,10c0,0.553-0.447,1-1,1
	s-1-0.447-1-1c0-6.617,5.383-12,12-12s12,5.383,12,12C40,28.553,39.553,29,39,29z"/>
<g>
</g>
<g>
</g>
<g>
</g>
<g>
</g>
<g>
</g>
<g>
</g>
<g>
</g>
<g>
</g>
<g>
</g>
<g>
</g>
<g>
</g>
<g>
</g>
<g>
</g>
<g>
</g>
<g>
</g>
</svg>
