<?xml version="1.0" encoding="iso-8859-1"?>
<!-- Generator: Adobe Illustrator 19.0.0, SVG Export Plug-In . SVG Version: 6.00 Build 0)  -->
<svg version="1.1" id="Layer_1" xmlns="http://www.w3.org/2000/svg" xmlns:xlink="http://www.w3.org/1999/xlink" x="0px" y="0px"
	 viewBox="0 0 496.182 496.182" style="enable-background:new 0 0 496.182 496.182;" xml:space="preserve">
<path style="fill:#EA4949;" d="M248.094,0C111.074,0,0,111.063,0,248.091c0,137.012,111.074,248.091,248.094,248.091
	c137.012,0,248.088-111.079,248.088-248.091C496.182,111.063,385.106,0,248.094,0z"/>
<path style="fill:#F0F2F2;" d="M344.619,106.08l-41.096-7.406c0,0-9.559-1.075-16.248,2.627c0,0-7.1,7.082-39.184,7.611
	c-32.086-0.529-39.185-7.611-39.185-7.611c-7.048-4.061-16.249-2.627-16.249-2.627l-41.094,7.406l-63.078,31.538l26.758,58.299
	l25.806-4.778c16.727-4.777,17.202,8.602,17.202,8.602s-5.302,148.196-4.299,154.35c1.409,8.635,38.228,55.311,44.775,60.688
	c7.626,6.211,16.453,5.733,16.453,5.733h65.817c0,0,8.829,0.478,16.453-5.733c5.831-4.303,43.368-52.053,44.776-60.688
	c1.001-6.153-4.301-154.35-4.301-154.35s0.479-13.379,17.203-8.602l25.805,4.778l26.76-58.299L344.619,106.08z"/>
<path style="fill:#CBD1D1;" d="M287.276,101.301c0,0-7.1,7.082-39.184,7.611c-32.086-0.529-39.185-7.611-39.185-7.611
	c-7.048-4.061-16.249-2.627-16.249-2.627s17.089,43.364,55.434,43.364c38.348,0,55.432-43.364,55.432-43.364
	S293.965,97.599,287.276,101.301z"/>
<g>
	<path style="fill:#E1E5E5;" d="M348.082,107.813l-3.463-1.732c-26.762,50.652-3.822,86.492-3.822,86.492l3.343-1.972
		C326.221,154.404,348.082,107.813,348.082,107.813z"/>
	<path style="fill:#E1E5E5;" d="M319.354,112.354c-3.971-3.809-8.893-8.25-14.994-13.41c-2.331-1.973-17.324,0.446-19.533,3.942
		c0,0,15.375,8.794,30.456,24.284c6.21,6.382,12.373,13.896,17.389,22.396l3.227-16.129
		C335.898,133.438,336.516,128.811,319.354,112.354z"/>
	<path style="fill:#E1E5E5;" d="M151.387,106.08l-3.466,1.732c0,0,21.861,46.591,3.942,82.788l3.344,1.972
		C155.207,192.572,178.147,156.733,151.387,106.08z"/>
	<path style="fill:#E1E5E5;" d="M191.643,98.944c-6.099,5.16-11.021,9.602-14.993,13.41c-17.16,16.457-16.542,21.084-16.542,21.084
		l3.224,16.129c5.017-8.501,11.179-16.015,17.389-22.396c15.083-15.49,30.456-24.284,30.456-24.284
		C208.907,98.91,193.974,96.971,191.643,98.944z"/>
	<path style="fill:#E1E5E5;" d="M298.744,99.508c0,0-15.703,35.543-50.633,35.543s-50.314-35.543-50.314-35.543l-6.212,10.754
		c0,0,18.71,35.541,56.526,35.541c37.814,0,56.846-35.541,56.846-35.541L298.744,99.508z"/>
</g>
<path style="fill:#F0F2F2;" d="M248.098,382.523c-31.427,0-48.16,10.089-50.929,30.789c0.628,0.636,1.151,1.131,1.56,1.466
	c2.687,2.189,5.519,3.536,8.066,4.378l5.632,1.354l71.246-0.02l5.772-1.357c2.533-0.842,5.34-2.184,8.007-4.355
	c0.4-0.295,0.962-0.811,1.637-1.489C296.406,392.342,280.018,382.523,248.098,382.523z"/>
<g>
	<path style="fill:#E1E5E5;" d="M225.86,387.844c-18.58-24.389-33.527-35.8-48.466-37c-10.994-0.882-19.102-0.561-23.563-0.211
		c0.014,1.811,0.051,3.014,0.123,3.457c0.217,1.328,1.277,3.563,2.93,6.403c4.328-0.234,11.065-0.341,19.707,0.353
		c11.691,0.939,24.81,11.451,41.287,33.078c0.986,1.297,2.482,1.978,3.996,1.978c1.059,0,2.128-0.335,3.037-1.026
		C227.113,393.195,227.538,390.047,225.86,387.844z"/>
	<path style="fill:#E1E5E5;" d="M318.431,350.844c-14.94,1.2-29.888,12.611-48.467,37c-1.68,2.203-1.255,5.352,0.95,7.031
		c0.908,0.691,1.977,1.026,3.035,1.026c1.514,0,3.01-0.681,3.996-1.978c16.478-21.627,29.597-32.139,41.287-33.078
		c8.868-0.711,15.738-0.583,20.047-0.335c1.664-2.857,2.732-5.101,2.949-6.421c0.072-0.441,0.11-1.634,0.12-3.43
		C337.973,350.303,329.721,349.939,318.431,350.844z"/>
	<path style="fill:#E1E5E5;" d="M248.098,382.523c-31.427,0-48.16,10.089-50.929,30.789c0.628,0.636,1.151,1.131,1.56,1.466
		c2.687,2.189,5.519,3.536,8.066,4.378c0.159-13.261,5.477-26.599,41.303-26.599c35.779,0,41.189,12.686,41.348,26.576
		c2.533-0.842,5.34-2.184,8.007-4.355c0.4-0.295,0.962-0.811,1.637-1.489C296.406,392.342,280.018,382.523,248.098,382.523z"/>
</g>
<g>
	<circle style="fill:#F0F2F2;" cx="247.981" cy="387.661" r="3.982"/>
	<circle style="fill:#F0F2F2;" cx="259.211" cy="388.091" r="3.981"/>
	<circle style="fill:#F0F2F2;" cx="236.741" cy="388.091" r="3.981"/>
</g>
<path style="fill:#CE7E42;" d="M248.002,222.835c-18.943,0-34.3,32.542-34.3,57.563c0,25.02,15.356,33.041,34.3,33.041
	c18.94,0,34.297-8.021,34.297-33.041C282.299,255.376,266.943,222.835,248.002,222.835z"/>
<ellipse transform="matrix(-0.4435 -0.8963 0.8963 -0.4435 133.7177 498.7292)" style="fill:#D88845;" cx="221.692" cy="207.851" rx="12.898" ry="16.693"/>
<ellipse transform="matrix(-0.4435 -0.8963 0.8963 -0.4435 133.7191 498.7301)" style="fill:#ED9B5F;" cx="221.693" cy="207.851" rx="9.533" ry="12.338"/>
<ellipse transform="matrix(-0.8962 -0.4436 0.4436 -0.8962 427.9095 515.8182)" style="fill:#D88845;" cx="274.291" cy="207.856" rx="16.692" ry="12.898"/>
<ellipse transform="matrix(-0.8963 -0.4435 0.4435 -0.8963 427.9703 515.7426)" style="fill:#ED9B5F;" cx="274.294" cy="207.826" rx="11.831" ry="9.141"/>
<ellipse style="fill:#D88845;" cx="248.001" cy="228.031" rx="38.07" ry="29.418"/>
<g>
	<path style="fill:#BF6C2E;" d="M232.813,217.457c-2.311,0-4.184,1.71-4.184,3.821c0,2.111,1.873,3.821,4.184,3.821
		c2.308,0,4.182-1.71,4.182-3.821C236.994,219.167,235.12,217.457,232.813,217.457z"/>
	<ellipse style="fill:#BF6C2E;" cx="262.801" cy="221.281" rx="4.183" ry="3.821"/>
</g>
<g>
	<path style="fill:#BA6E3A;" d="M248.002,199.537c-0.359,0-0.648,0.291-0.648,0.649v5.26c0,0.358,0.289,0.648,0.648,0.648
		c0.357,0,0.647-0.29,0.647-0.648v-5.26C248.65,199.827,248.36,199.537,248.002,199.537z"/>
	<path style="fill:#BA6E3A;" d="M248.002,274.153c-0.359,0-0.648,0.291-0.648,0.649v9.734c0,0.358,0.289,0.648,0.648,0.648
		c0.357,0,0.647-0.29,0.647-0.648v-9.734C248.65,274.444,248.36,274.153,248.002,274.153z M248.002,289.972
		c-0.359,0-0.648,0.29-0.648,0.648v9.735c0,0.357,0.289,0.647,0.648,0.647c0.357,0,0.647-0.29,0.647-0.647v-9.735
		C248.65,290.262,248.36,289.972,248.002,289.972z M248.002,258.336c-0.359,0-0.648,0.29-0.648,0.648v9.734
		c0,0.358,0.289,0.649,0.648,0.649c0.357,0,0.647-0.291,0.647-0.649v-9.734C248.65,258.626,248.36,258.336,248.002,258.336z
		 M248.002,242.518c-0.359,0-0.648,0.29-0.648,0.648v9.733c0,0.358,0.289,0.649,0.648,0.649c0.357,0,0.647-0.291,0.647-0.649v-9.733
		C248.65,242.808,248.36,242.518,248.002,242.518z M248.002,210.881c-0.359,0-0.648,0.291-0.648,0.649v9.734
		c0,0.358,0.289,0.649,0.648,0.649c0.357,0,0.647-0.291,0.647-0.649v-9.734C248.65,211.171,248.36,210.881,248.002,210.881z
		 M248.002,226.699c-0.359,0-0.648,0.29-0.648,0.648v9.734c0,0.357,0.289,0.648,0.648,0.648c0.357,0,0.647-0.291,0.647-0.648v-9.734
		C248.65,226.989,248.36,226.699,248.002,226.699z"/>
	<path style="fill:#BA6E3A;" d="M248.002,305.79c-0.359,0-0.648,0.291-0.648,0.649v5.26c0,0.358,0.289,0.647,0.648,0.647
		c0.357,0,0.647-0.29,0.647-0.647v-5.26C248.65,306.081,248.36,305.79,248.002,305.79z"/>
</g>
<ellipse style="fill:#ED9B5F;" cx="247.731" cy="239.481" rx="21.05" ry="16.269"/>
<g>
	<path style="fill:#BF6C2E;" d="M248.002,226.537c-4.78,0-8.652,1.647-8.652,5.34c0,3.692,8.652,8.032,8.652,8.032
		s8.651-4.34,8.651-8.032C256.654,228.184,252.781,226.537,248.002,226.537z"/>
	<path style="fill:#BF6C2E;" d="M258.903,243.33c-0.477-0.421-1.207-0.377-1.629,0.1c-0.188,0.212-0.884,0.868-1.586,1.076
		c-0.684,0.202-3.207,0.382-4.879-0.865c-1.111-0.831-1.677-2.199-1.677-4.068c0-0.637-0.517-1.154-1.153-1.154
		c-0.639,0-1.154,0.517-1.154,1.154c0,3.284,1.416,5.03,2.605,5.917c1.516,1.132,3.412,1.468,4.906,1.468
		c0.846,0,1.563-0.108,2.008-0.24c1.452-0.431,2.538-1.625,2.658-1.759C259.424,244.481,259.38,243.753,258.903,243.33z"/>
	<path style="fill:#BF6C2E;" d="M248.029,238.418c-0.637,0-1.153,0.517-1.153,1.154c0,1.869-0.565,3.237-1.677,4.068
		c-1.671,1.247-4.197,1.067-4.879,0.865c-0.692-0.206-1.382-0.849-1.589-1.079c-0.423-0.474-1.151-0.517-1.626-0.097
		c-0.478,0.422-0.521,1.151-0.1,1.628c0.119,0.135,1.205,1.329,2.658,1.759c0.445,0.132,1.162,0.24,2.008,0.24
		c1.494,0,3.391-0.336,4.906-1.468c1.188-0.887,2.605-2.633,2.605-5.917C249.184,238.935,248.666,238.418,248.029,238.418z"/>
</g>
<g>
	<path style="fill:#D88845;" d="M220.858,248.593c-1.354,0.453-15.567,5.362-18.988,13.033c-1.146,1.323-2.049,2.932-2.566,4.763
		c-1.747,6.181,1.434,12.492,7.109,14.098c5.674,1.604,11.691-2.105,13.438-8.286c0.192-0.673,0.313-1.349,0.39-2.021
		c0.109,0.003,0.183,0.004,0.183,0.004S220.136,249.917,220.858,248.593z"/>
	<path style="fill:#D88845;" d="M296.903,266.472c-0.506-1.835-1.395-3.45-2.532-4.781c-3.367-7.694-17.546-12.706-18.897-13.167
		c0.715,1.33,0.283,21.592,0.283,21.592s0.072-0.001,0.183-0.001c0.071,0.67,0.188,1.347,0.375,2.023
		c1.704,6.192,7.694,9.945,13.38,8.381C295.38,278.954,298.607,272.666,296.903,266.472z"/>
	<path style="fill:#D88845;" d="M242.063,297.587c-2.07-9.926-13.308-20.003-22.74-18.033c-9.432,1.964-13.484,15.234-11.414,25.158
		c2.07,9.924,9.478,12.747,18.909,10.781C236.25,313.526,244.133,307.512,242.063,297.587z"/>
</g>
<path style="fill:#ED9B5F;" d="M238.177,297.523c-1.622-7.769-10.415-15.657-17.801-14.115c-7.381,1.538-10.552,11.923-8.934,19.692
	c1.621,7.768,7.421,9.977,14.801,8.438C233.627,309.997,239.797,305.291,238.177,297.523z"/>
<path style="fill:#D88845;" d="M276.475,279.554c-9.433-1.97-20.67,8.107-22.74,18.033c-2.07,9.925,5.813,15.939,15.246,17.906
	c9.431,1.966,16.839-0.857,18.908-10.781C289.959,294.788,285.906,281.518,276.475,279.554z"/>
<path style="fill:#ED9B5F;" d="M275.42,283.408c-7.385-1.542-16.178,6.347-17.799,14.115c-1.621,7.768,4.549,12.474,11.933,14.015
	c7.382,1.539,13.18-0.67,14.8-8.438C285.973,295.331,282.802,284.945,275.42,283.408z"/>
<g>
</g>
<g>
</g>
<g>
</g>
<g>
</g>
<g>
</g>
<g>
</g>
<g>
</g>
<g>
</g>
<g>
</g>
<g>
</g>
<g>
</g>
<g>
</g>
<g>
</g>
<g>
</g>
<g>
</g>
</svg>
