<svg viewBox="0 0 960 960" xmlns="http://www.w3.org/2000/svg" xmlns:xlink="http://www.w3.org/1999/xlink" id="34fad56b-331c-4f3d-9035-559bc56206c1" overflow="hidden"><g><path d="M711.59 176.589C712.46 176.371 713.07 175.582 713.194 174.694L714.805 163.094C714.805 163.094 713.867 160.733 710.867 160.733 707.867 160.733 707.27 163.094 707.27 163.094L708.895 174.792C709.068 176.041 710.284 176.917 711.59 176.589Z" fill="#D2D2D2"/><path d="M675.635 176.589C676.505 176.371 677.115 175.582 677.239 174.694L678.85 163.094C678.85 163.094 677.934 160.399 675.134 160.399 672.334 160.399 671.315 163.094 671.315 163.094L672.94 174.792C673.112 176.041 674.328 176.917 675.635 176.589Z" fill="#D2D2D2"/><path d="M675.026 191.766C674.167 191.982 673.564 192.76 673.442 193.638L671.851 205.095C671.851 205.095 672.533 207.8 675.6 207.8 678.667 207.8 679.293 205.095 679.293 205.095L677.688 193.542C677.517 192.308 676.316 191.443 675.026 191.766Z" fill="#D2D2D2"/><path d="M710.537 191.766C709.678 191.982 709.075 192.76 708.953 193.638L707.362 205.095C707.362 205.095 708.533 207.134 711.133 207.134 713.733 207.134 714.804 205.095 714.804 205.095L713.199 193.542C713.029 192.308 711.828 191.443 710.537 191.766Z" fill="#D2D2D2"/><path d="M702.763 176.589C703.633 176.371 704.243 175.582 704.367 174.694L705.978 163.094C705.978 163.094 705.001 160.333 702.267 160.333 699.533 160.333 698.442 163.094 698.442 163.094L700.067 174.792C700.24 176.041 701.456 176.917 702.763 176.589Z" fill="#D2D2D2"/><path d="M701.819 191.766C700.96 191.982 700.357 192.76 700.235 193.638L698.644 205.095C698.644 205.095 699.267 207.467 702.267 207.467 705.267 207.467 706.087 205.095 706.087 205.095L704.482 193.542C704.31 192.308 703.109 191.443 701.819 191.766Z" fill="#D2D2D2"/><path d="M692.34 176.589C693.21 176.371 693.82 175.582 693.944 174.694L695.555 163.094C695.555 163.094 694.734 160.266 691.934 160.266 689.134 160.266 688.02 163.094 688.02 163.094L689.645 174.792C689.817 176.041 691.033 176.917 692.34 176.589Z" fill="#D2D2D2"/><path d="M691.525 191.766C690.666 191.982 690.063 192.76 689.941 193.638L688.35 205.095C688.35 205.095 689.134 207.667 692.067 207.667 695 207.667 695.793 205.095 695.793 205.095L694.188 193.542C694.016 192.308 692.815 191.443 691.525 191.766Z" fill="#D2D2D2"/></g><g><path d="M578.065 271.13 578.064 271.109C582.15 270.856 585.317 267.401 585.176 263.284 585.035 259.168 581.637 255.938 577.544 255.966L577.543 255.945C581.629 255.692 584.796 252.237 584.655 248.12 584.514 244.003 581.116 240.774 577.023 240.802 577.023 240.802 576.672 240.812 576.602 240.816 551.679 241.9 532.234 262.864 533.092 287.848 533.092 287.848 533.453 304.513 517.773 305.052L457.644 307.533 457.644 307.533C457.778 323.491 471.124 336.153 487.067 335.448L534.655 333.342C559.78 332.479 579.449 311.411 578.585 286.285L578.585 286.285 578.585 286.274C582.671 286.021 585.838 282.566 585.697 278.449 585.556 274.332 582.159 271.102 578.065 271.13Z" fill="#D2D2D2"/><path d="M553.405 288.066C554.242 288.037 554.898 287.335 554.869 286.497 554.33 270.819 566.647 257.625 582.326 257.086 583.163 257.057 583.819 256.355 583.79 255.517 583.761 254.68 583.059 254.024 582.221 254.053 564.925 254.647 551.185 267.652 551.836 286.601 551.865 287.44 552.568 288.095 553.405 288.066Z" fill="#FFFFFF"/><path d="M567.988 287.566C568.825 287.537 569.481 286.835 569.452 285.997 569.33 282.453 570.596 279.074 573.016 276.482 575.436 273.89 578.72 272.395 582.264 272.274 582.265 272.274 582.265 272.274 582.265 272.274 583.102 272.245 583.758 271.543 583.729 270.705 583.7 269.868 582.998 269.212 582.16 269.241L582.159 269.241C577.804 269.391 573.77 271.226 570.797 274.411 567.823 277.596 566.268 281.748 566.418 286.102 566.448 286.939 567.15 287.595 567.988 287.566Z" fill="#FFFFFF"/></g><g><path d="M718.968 529.552C718.962 525.287 711.2 521.321 710.861 517.053 710.523 512.803 717.562 507.659 716.89 503.428 716.221 499.22 707.936 496.515 706.931 492.348 705.933 488.209 712.076 482.022 710.741 477.945 709.418 473.902 700.81 472.544 699.152 468.582 697.512 464.662 702.569 457.534 700.597 453.714 698.287 449.487 689.306 449.37 686.662 445.494 683.96 441.533 687.15 433.173 684.131 429.552 681.074 425.886 672.257 427.513 668.908 424.168 665.543 420.807 667.178 412.009 663.552 408.943 659.929 405.88 651.496 408.936 647.645 406.139 643.812 403.355 644.141 394.409 640.116 391.86 636.116 389.327 628.138 393.432 623.98 391.105 619.847 388.791 619.209 379.859 614.953 377.72 610.718 375.592 603.14 380.396 598.813 378.415 594.498 376.439 593.214 367.574 588.84 365.717 584.464 363.859 576.781 369.289 572.377 367.524 572.377 367.524 567.125 365.383 563.315 363.865 545.869 356.914 528.355 350.562 511.743 343.988 473.395 331.253 441.863 298.452 443.455 256.2 445.655 215.694 467.389 156.151 548.731 161.697L534.6 126.6C424.144 126.6 384.2 196.093 384.2 260.2 384.2 320.43 453.345 378.706 531.4 390.6 548.434 393.196 561.566 401.844 572.2 415.4 587.106 434.398 610.894 450.553 635.4 461.8 654.151 470.405 655.245 481.1 649.8 501 647.258 510.294 647.4 522.306 647.4 532.2 647.4 540.195 647.32 550.186 649 557.8 652.093 571.823 648.336 582.255 641 594.6 630.598 612.104 626.912 623.919 630.6 644.2 632.2 653 636.867 658.067 639.531 661.074 652.242 652.212 663.242 641.597 672.438 629.729 677.952 629.395 685.623 630.2 687.359 627.825 689.885 624.37 685.952 616.59 688.179 612.949 690.411 609.301 699.126 609.263 701.052 605.451 702.98 601.636 697.842 594.593 699.458 590.638 701.074 586.683 709.674 585.259 710.974 581.187 712.273 577.119 706.093 570.971 707.072 566.808 708.05 562.652 716.324 559.907 716.977 555.679 717.629 551.461 710.573 546.343 710.898 542.077 711.223 537.822 718.975 533.832 718.968 529.552Z" fill="#737373"/><path d="M446.519 812.207C485.468 818.243 524.132 824.961 563.42 805.186 607.639 786.718 628.688 746.343 634.793 700.643 635.704 694.662 636.327 688.496 636.667 682.195 631 683.2 625.653 687.715 624.2 692.6 623.344 695.477 621.776 699.702 621.4 702.6 620.49 709.603 620.114 712.838 613.8 716 613.569 716.116 609.417 718.858 609.2 719 591.2 730.8 582.477 747.149 581.2 768.4 580.706 776.622 574.449 783.339 566.291 784.475L563.8 784.4C546.524 786.819 535.568 791.479 524.297 800.151 520.498 803.074 516.424 802.245 512 800.4 503.415 796.818 493.877 795.4 483.8 795.4 469.517 795.4 445.4 799.2 446.519 812.207Z" fill="#737373"/><path d="M549.267 659.133C540.1 664.611 532.454 664.279 522.067 661.8 517.122 660.619 507.413 659.495 502.067 659.667 491.123 660.019 477.8 664.467 477.291 675.856 514.416 693.053 558.516 695.938 597.333 682.667 605.266 677.267 603.926 658.471 602.866 650.334 599.115 649.413 586.324 647.546 582.333 647.401 570.623 646.975 558.56 653.579 549.267 659.133Z" fill="#737373"/></g><path d="M601.925 163.095 714.805 163.095 714.805 138.886C714.805 128.12 705.997 119.312 695.231 119.312L667.547 119.312C667.544 119.313 667.542 119.314 667.54 119.315L657.923 129.151C657.923 129.151 649.534 131.8 634.601 130.6 622.073 129.593 612.939 125.103 604.601 117.4L604.601 117.4C592.22 105.962 576.257 101.667 559.401 101.667L528.898 100.091C512.691 98.638 496.301 99.585 480.399 102.84 469.887 104.991 458.999 104.392 448.738 101.254L432.206 96.198C429.719 95.855 428.588 99.198 430.772 100.436L439.825 110.457C442.513 112.968 442.181 114.707 441.176 115.818 440.094 117.014 438.357 117.377 436.806 116.935L357.719 94.435C355.577 93.826 354.187 96.64 355.971 97.971L401.925 132.238C405.277 134.738 405.44 139.704 402.259 142.418L402.126 142.531C400.27 144.114 397.687 144.53 395.428 143.609L336.809 119.705C334.784 119.109 333.332 121.645 334.87 123.09L378.098 163.697C379.952 165.439 380.258 168.273 378.818 170.371L378.762 170.452C377.355 172.501 374.69 173.253 372.417 172.246 361.758 167.526 348.216 160.591 346.707 162.74 345.042 165.111 357.973 176.84 366.096 185.445 367.464 186.894 367.795 189.031 366.94 190.831L366.909 190.896C365.927 192.962 363.629 194.05 361.409 193.498 349.916 190.64 333.35 185.062 332.131 187.613 330.79 190.414 347.921 201.072 357.1 208.314 358.414 209.351 358.951 211.085 358.464 212.687L358.447 212.743C357.896 214.553 356.187 215.752 354.297 215.657 342.607 215.07 322.751 211.791 321.929 214.727 321.042 217.897 342.302 226.224 351.979 231.832 353.181 232.529 353.83 233.885 353.632 235.26L353.617 235.361C353.408 236.809 352.289 237.968 350.844 238.195 339.813 239.928 316.897 239.947 316.573 243.197 316.208 246.847 344.236 252.115 352.285 256.232 352.293 257.504 352.327 258.774 352.365 260.045 344.38 263.94 315.887 268.386 316.138 272.054 316.393 275.798 346.394 276.304 354.144 279.233 354.307 280.298 354.48 281.361 354.665 282.423 348.189 287.48 319.536 296.768 320.384 300.436 321.235 304.112 351.337 299.839 359.207 301.616 359.504 302.604 359.81 303.589 360.125 304.572 354.656 310.513 327.513 324.155 328.911 327.67 330.289 331.139 358.861 322.653 367.239 323.056 367.699 324.076 368.171 325.091 368.651 326.103 363.685 332.944 339.422 350.006 341.287 353.246 343.109 356.41 369.034 344.556 377.979 343.295 378.664 344.407 379.352 345.517 380.061 346.616 375.374 354.504 354.873 373.876 357.115 376.751 359.291 379.54 381.918 365.214 391.217 362.056 392.192 363.27 393.185 364.471 394.192 365.662 389.903 374.671 373.502 395.358 376.036 397.812 378.481 400.18 397.484 384.232 406.732 379.088 408.069 380.383 409.43 381.656 410.808 382.913 407.167 393.022 394.972 414.062 397.708 416.056 400.338 417.973 415.646 401.155 424.354 394.109 426.116 395.43 427.9 396.725 429.714 397.984 427.057 409.018 418.909 429.587 421.763 431.101 424.494 432.55 436.162 415.605 443.855 406.874 446.096 408.14 448.379 409.346 450.684 410.52 449.316 422.164 444.876 441.544 447.763 442.576 449.083 443.048 451.678 439.502 454.714 434.578 460.722 424.832 472.482 420.268 483.513 423.335L483.704 423.388C539.656 444.97 628.652 456.689 632.571 529.271 635.822 548.432 630.862 567.362 620.742 583.402 607.474 548.516 586.238 517.283 557.608 498.091L557.562 498.059C554.889 496.222 553.704 492.866 554.633 489.758 555.931 485.419 556.719 481.912 555.697 481.33 554.638 480.727 551.999 483.2 548.918 486.543 546.725 488.923 543.239 489.612 540.304 488.249L540.204 488.202C537.263 486.837 535.54 483.722 535.948 480.506 536.518 476.007 536.72 472.413 535.611 472.01 534.473 471.596 532.313 474.459 529.864 478.257 528.096 480.999 524.758 482.292 521.604 481.457L521.483 481.425C518.329 480.59 516.072 477.812 515.899 474.554 515.659 470.046 515.217 466.496 514.054 466.299 512.87 466.099 511.282 469.27 509.58 473.417 508.326 476.472 505.248 478.38 501.955 478.138L501.899 478.134C498.605 477.892 495.839 475.553 495.047 472.346 493.974 467.999 492.88 464.635 491.704 464.661 490.507 464.688 489.554 468.096 488.673 472.486 488.023 475.725 485.369 478.186 482.09 478.585L481.985 478.598C478.707 478.996 475.542 477.237 474.145 474.245 472.25 470.187 470.525 467.098 469.374 467.353 468.208 467.612 467.943 471.138 467.942 475.613 467.941 478.923 465.815 481.863 462.669 482.894L462.562 482.929C459.408 483.963 455.944 482.857 453.966 480.191 451.312 476.613 449.017 473.952 447.944 474.433 446.86 474.918 447.309 478.399 448.209 482.757 448.883 486.02 447.394 489.352 444.509 491.02L444.411 491.077C441.523 492.747 437.888 492.377 435.388 490.168 432.061 487.228 429.275 485.113 428.326 485.807 427.373 486.505 428.539 489.791 430.332 493.841 431.69 496.908 430.938 500.504 428.456 502.761L428.371 502.838C425.882 505.101 422.226 505.524 419.28 503.899 415.422 501.771 412.273 500.335 411.501 501.219 410.73 502.101 412.574 505.013 415.201 508.533 417.226 511.247 417.305 514.951 415.384 517.74L415.319 517.834C413.402 520.618 409.922 521.868 406.668 520.955 402.438 519.768 399.055 519.096 398.506 520.137 397.965 521.163 400.409 523.546 403.755 526.342 406.366 528.524 407.32 532.119 406.118 535.302L406.077 535.409C404.883 538.568 401.799 540.606 398.424 540.48 394.016 540.315 390.551 540.454 390.257 541.605 389.972 542.729 392.945 544.489 396.889 546.442 399.909 547.938 401.648 551.192 401.198 554.533L401.183 554.647C400.734 557.985 398.2 560.662 394.895 561.308 390.566 562.155 387.222 563.085 387.196 564.28 387.17 565.443 390.527 566.51 394.868 567.555 398.089 568.33 400.451 571.088 400.717 574.39L400.726 574.502C400.992 577.812 399.106 580.923 396.052 582.226 391.952 583.974 388.829 585.6 389.048 586.789 389.26 587.943 392.852 588.324 397.396 588.496 400.615 588.617 403.388 590.787 404.249 593.891 404.273 593.973 404.295 594.055 404.318 594.136 405.177 597.243 403.932 600.539 401.241 602.315 397.445 604.821 394.578 607.035 395.007 608.186 395.447 609.368 399.588 609.002 404.569 608.295 407.146 607.929 409.661 609.302 410.73 611.675 410.895 612.041 411.062 612.407 411.231 612.774L411.252 612.816C412.448 615.261 411.82 618.206 409.738 619.96 406.025 623.09 403.131 625.79 403.655 626.704 404.188 627.636 408.057 626.508 412.705 624.898 415.227 624.024 418.023 624.967 419.491 627.196L419.542 627.273C421.013 629.505 420.783 632.45 418.993 634.436 415.71 638.078 413.174 641.187 413.817 642.032 414.465 642.883 418.149 641.263 422.543 639.064 424.928 637.87 427.821 638.435 429.573 640.447L429.633 640.516C431.38 642.522 431.538 645.46 430.024 647.648 427.225 651.695 425.097 655.121 425.846 655.88 426.598 656.642 430.063 654.556 434.158 651.809 436.361 650.332 439.287 650.534 441.259 652.308L441.327 652.369C442.487 653.413 443.131 654.846 443.225 656.325 421.34 666.453 411.035 692.088 420.176 714.688L420.18 714.698C416.429 716.337 414.638 720.669 416.182 724.487 417.726 728.305 422.025 730.174 425.861 728.745L425.869 728.765C422.118 730.404 420.327 734.736 421.871 738.554 423.415 742.372 427.714 744.241 431.55 742.812L431.558 742.832C427.807 744.471 426.016 748.803 427.56 752.621 429.104 756.44 433.403 758.308 437.239 756.879 437.239 756.879 437.565 756.749 437.63 756.721 460.67 747.157 471.748 720.797 462.375 697.622 462.375 697.622 456.321 682.091 470.866 676.208L474.726 674.616C475.581 675.03 476.433 675.451 477.296 675.851 485.928 670.203 496.122 666.767 507.065 666.415 512.643 666.235 518.051 666.842 523.188 668.13 533.387 670.689 544.099 668.892 553.125 663.497 562.418 657.943 573.388 654.905 585.099 655.331 589.09 655.476 592.978 656.038 596.729 656.959 597.788 665.096 598.482 673.046 598.003 682.13 597.936 685.53 597.601 688.27 597.432 691.003 596.975 698.409 595.955 705.359 594.348 711.648 593.99 714.363 593.51 716.991 592.946 719.556 588.277 721.17 583.509 722.705 582.687 725.231 581.803 727.946 584.631 732.27 587.346 736.501 585.253 741.082 582.764 745.335 579.949 749.293 574.935 749.06 569.818 748.732 567.981 750.762 566.128 752.81 566.978 757.863 567.737 762.822 564.008 766.109 559.982 769.083 555.684 771.727 551.131 769.565 546.5 767.308 543.983 768.549 541.542 769.752 540.6 774.759 539.602 779.684 534.88 781.539 529.966 783.106 524.89 784.371 521.192 780.94 517.452 777.431 514.683 777.926 511.999 778.406 509.788 782.988 507.549 787.497 504.947 787.8 502.324 788.045 499.675 788.214 497.966 788.331 496.26 788.409 494.556 788.458 492.631 784.288 490.709 780.082 488.901 780.06 487.087 780.039 485.095 784.2 483.104 788.335 479.629 788.173 476.159 787.911 472.692 787.577 471.285 783.198 469.878 778.801 468.074 778.592 466.276 778.384 463.948 782.351 461.62 786.308 458.062 785.848 454.504 785.35 450.94 784.846 449.725 780.409 448.508 775.971 446.71 775.72 444.916 775.469 442.571 779.408 440.224 783.355 436.561 782.864 432.889 782.405 429.206 782.013 427.843 777.62 426.477 773.243 424.668 773.087 422.866 772.931 420.805 777.01 418.741 781.112 416.859 780.994 414.973 780.901 413.082 780.84 410.912 780.761 408.697 780.71 406.452 780.687 404.316 776.441 402.149 772.223 399.924 772.262 397.788 772.3 395.847 776.585 393.892 780.907 389.384 781.121 384.82 781.496 380.269 782.068 377.586 778.147 374.906 774.269 372.763 774.63 370.614 774.992 369.395 779.525 368.193 784.109 363.585 785.105 359.059 786.355 354.689 787.91 351.235 784.652 347.814 781.458 345.841 782.31 343.83 783.178 343.862 787.837 343.943 792.569 339.613 794.823 335.54 797.472 331.813 800.574 327.468 798.678 323.187 796.867 321.646 798.417 320.14 799.932 322.051 804.111 324.032 808.376 322.437 810.309 320.937 812.355 319.57 814.552 318.482 816.556 317.545 818.636 316.723 820.763 312.122 820.905 307.604 821.083 307.06 822.957 306.52 824.818 310.218 827.483 314.002 830.167 313.143 834.481 312.76 838.903 312.84 843.325 308.641 845.291 304.525 847.259 304.714 849.194 304.903 851.132 309.324 852.267 313.826 853.384 314.605 857.742 315.834 862.007 317.504 866.066 314.308 869.429 311.193 872.754 312.079 874.473 312.974 876.21 317.475 875.575 322.054 874.884 324.467 878.699 327.339 882.192 330.655 885.243 329.159 889.63 327.739 893.942 329.305 895.114 330.839 896.262 334.521 893.65 338.273 890.953 340.234 892.132 342.289 893.193 344.463 894.089 377.876 907.581 415.463 895.477 444.506 877.212 447.925 875.062 449.275 870.577 447.274 867.068 445.222 863.47 440.694 862.275 437.141 864.277 408.927 880.176 369.277 892.292 343.204 870.005 321.849 840.873 339.248 812.006 373.538 808.241 398.12 804.982 422.376 808.461 446.523 812.203 457.43 805.357 470.67 801.336 484.953 801.336 494.999 801.336 504.53 803.325 513.095 806.887 517.561 808.744 522.635 808.021 526.468 805.072 537.74 796.399 552.974 789.99 570.251 787.57L570.412 787.548C578.57 786.412 584.827 779.695 585.321 771.473 586.598 750.222 597.683 730.891 616.582 721.095 616.818 720.973 617.054 720.852 617.291 720.734 623.599 717.578 627.788 711.45 628.696 704.455 629.072 701.557 629.682 698.661 630.538 695.783 631.991 690.898 634.073 686.356 636.671 682.192 637.01 675.895 637.067 669.464 636.844 662.949 637.403 662.596 638.67 661.73 639.534 661.07 639.362 658.58 639.268 656.075 639.268 653.552 639.268 632.938 645.082 613.397 655.484 595.893 662.82 583.548 664.858 568.906 661.765 554.883 660.085 547.269 659.209 539.437 659.209 531.443 659.209 521.549 660.547 511.901 663.089 502.607 668.534 482.707 658.612 461.887 639.861 453.282 615.355 442.035 594.687 426.152 579.782 407.153 569.148 393.597 553.688 384.528 536.655 381.932 488.503 374.594 447.756 352.645 423.598 322.767 425.009 322.92 426.45 322.97 427.913 322.905L475.501 320.799C500.626 319.936 520.295 298.868 519.431 273.742L519.431 273.731C523.517 273.478 526.684 270.023 526.543 265.906 526.402 261.79 523.004 258.56 518.911 258.588L518.91 258.567C522.996 258.314 526.163 254.859 526.022 250.742 525.881 246.626 522.483 243.396 518.39 243.424L518.389 243.403C522.475 243.15 525.642 239.695 525.501 235.578 525.36 231.461 521.962 228.232 517.869 228.26 517.869 228.26 517.518 228.27 517.448 228.275 492.525 229.359 473.08 250.323 473.939 275.307 473.939 275.307 474.3 291.972 458.62 292.511L406.867 294.646C402.389 283.506 399.986 271.723 399.986 259.531 399.986 202.979 432.309 149.545 515.754 137.735 517.39 137.503 518.905 138.659 519.134 140.296L521.342 156.115C526.958 184.196 542.311 198.827 568.979 209.262L631.917 209.262C642.872 209.262 657.517 221.665 666.594 227.798 668.495 229.082 671.155 230.947 673.621 230.947L688.506 230.947C702.892 230.947 714.808 219.479 714.808 205.093L658.808 205.093 654.717 201.002C637.931 184.216 615.469 174.322 591.753 173.267L591.753 173.267 591.753 173.267C591.75 167.673 596.329 163.095 601.925 163.095ZM581.599 618.468C507.34 657.11 413.969 573.303 475.096 532.593 528.828 514.158 568.243 561.349 586.462 615.897 584.863 616.798 583.245 617.665 581.599 618.468Z" fill="#FFC000"/><g><path d="M494.247 275.428C495.084 275.399 495.74 274.697 495.711 273.859 495.172 258.181 507.489 244.987 523.168 244.448 524.005 244.419 524.661 243.717 524.632 242.879 524.603 242.042 523.901 241.386 523.063 241.415 505.713 242.011 492.082 256.612 492.678 273.963 492.708 274.801 493.41 275.457 494.247 275.428Z" fill="#FFFFFF"/><path d="M508.83 274.928C509.667 274.899 510.323 274.197 510.294 273.359 510.172 269.815 511.438 266.436 513.858 263.844 516.278 261.252 519.562 259.757 523.106 259.636 523.107 259.636 523.107 259.636 523.108 259.636 523.945 259.607 524.601 258.905 524.572 258.067 524.543 257.23 523.841 256.574 523.003 256.603L523.002 256.603C518.647 256.753 514.613 258.588 511.64 261.773 508.666 264.958 507.111 269.11 507.261 273.464 507.29 274.301 507.993 274.956 508.83 274.928Z" fill="#FFFFFF"/></g><g><path d="M443.41 704.353C442.633 704.667 442.258 705.552 442.572 706.329 448.454 720.872 441.408 737.489 426.865 743.371 426.088 743.685 425.713 744.57 426.027 745.347 426.341 746.124 427.226 746.499 428.003 746.185 444.097 739.676 451.895 721.286 445.386 705.192 445.071 704.414 444.187 704.039 443.41 704.353Z" fill="#FFFFFF"/><path d="M429.883 709.823C429.106 710.137 428.731 711.022 429.045 711.799 430.375 715.086 430.344 718.695 428.959 721.959 427.575 725.223 425.002 727.754 421.715 729.083 421.714 729.083 421.714 729.083 421.714 729.084 420.937 729.398 420.562 730.283 420.876 731.06 421.19 731.837 422.075 732.212 422.852 731.898L422.853 731.897C426.892 730.263 430.053 727.156 431.753 723.145 433.455 719.134 433.491 714.7 431.858 710.661 431.544 709.884 430.66 709.509 429.883 709.823Z" fill="#FFFFFF"/></g><path d="M445.203 326.231 430.052 326.231C415.486 326.231 401.792 320.559 391.492 310.259L386.587 305.354C385.865 304.632 385.865 303.461 386.587 302.74 387.309 302.018 388.48 302.018 389.201 302.74L394.106 307.645C403.708 317.247 416.473 322.534 430.051 322.534L445.202 322.534C446.223 322.534 447.051 323.362 447.051 324.383 447.051 325.404 446.224 326.231 445.203 326.231Z" fill="#737373"/><g><path d="M596.945 684.249C596.918 684.249 596.89 684.248 596.862 684.246 596.311 684.2 595.902 683.718 595.947 683.167 595.961 683.001 597.299 666.418 595.952 655.643 594.139 641.147 588.669 626.439 588.613 626.291 588.42 625.774 588.681 625.198 589.199 625.004 589.713 624.813 590.292 625.071 590.486 625.589 590.542 625.738 596.094 640.659 597.936 655.395 599.309 666.377 597.955 683.164 597.941 683.332 597.898 683.854 597.461 684.249 596.945 684.249Z" fill="#FFFFFF"/><path d="M631.918 624.868C631.406 624.868 630.971 624.477 630.923 623.959 629.561 608.966 623.53 590.503 620.183 581.958 619.981 581.443 620.235 580.863 620.748 580.662 621.261 580.457 621.842 580.714 622.044 581.227 625.431 589.872 631.531 608.561 632.915 623.777 632.965 624.328 632.56 624.814 632.01 624.864 631.979 624.867 631.948 624.868 631.918 624.868Z" fill="#FFFFFF"/></g><g><g><path d="M391.591 247.587C391.039 247.587 390.591 248.035 390.591 248.587 390.591 252.623 387.308 255.906 383.272 255.906 379.236 255.906 375.953 252.623 375.953 248.587 375.953 248.035 375.505 247.587 374.953 247.587 374.401 247.587 373.953 248.035 373.953 248.587 373.953 252.623 370.67 255.906 366.634 255.906 362.598 255.906 359.315 252.623 359.315 248.587 359.315 248.035 358.867 247.587 358.315 247.587 357.763 247.587 357.315 248.035 357.315 248.587 357.315 253.726 361.496 257.906 366.634 257.906 370.27 257.906 373.418 255.808 374.953 252.763 376.488 255.808 379.636 257.906 383.272 257.906 388.411 257.906 392.591 253.726 392.591 248.587 392.591 248.035 392.144 247.587 391.591 247.587Z" fill="#FFFFFF"/><path d="M375.877 281.014C370.738 281.014 366.558 276.834 366.558 271.695 366.558 271.143 367.006 270.695 367.558 270.695 368.11 270.695 368.558 271.143 368.558 271.695 368.558 275.731 371.841 279.014 375.877 279.014 379.913 279.014 383.196 275.731 383.196 271.695 383.196 271.143 383.644 270.695 384.196 270.695 384.748 270.695 385.196 271.143 385.196 271.695 385.197 276.834 381.016 281.014 375.877 281.014Z" fill="#FFFFFF"/></g><g><path d="M492.344 124.801C492.897 124.801 493.344 124.353 493.344 123.801 493.344 123.249 492.897 122.801 492.344 122.801 488.309 122.801 485.026 119.518 485.026 115.482 485.026 111.446 488.309 108.163 492.344 108.163 492.897 108.163 493.344 107.715 493.344 107.163 493.344 106.611 492.897 106.163 492.344 106.163 487.206 106.163 483.026 110.343 483.026 115.482 483.026 119.118 485.124 122.266 488.169 123.801 485.125 125.336 483.026 128.484 483.026 132.12 483.026 137.259 487.207 141.439 492.344 141.439 492.897 141.439 493.344 140.991 493.344 140.439 493.344 139.887 492.897 139.439 492.344 139.439 488.309 139.439 485.026 136.156 485.026 132.12 485.025 128.084 488.309 124.801 492.344 124.801Z" fill="#FFFFFF"/><path d="M512.68 133.121C507.541 133.121 503.361 128.94 503.361 123.802 503.361 118.664 507.542 114.483 512.68 114.483 513.233 114.483 513.68 114.931 513.68 115.483 513.68 116.035 513.233 116.483 512.68 116.483 508.644 116.483 505.361 119.766 505.361 123.802 505.361 127.838 508.644 131.121 512.68 131.121 513.233 131.121 513.68 131.569 513.68 132.121 513.68 132.673 513.232 133.121 512.68 133.121Z" fill="#FFFFFF"/><path d="M469.235 134.045C464.096 134.045 459.916 129.864 459.916 124.726 459.916 119.588 464.096 115.407 469.235 115.407 469.787 115.407 470.235 115.855 470.235 116.407 470.235 116.959 469.787 117.407 469.235 117.407 465.199 117.407 461.916 120.69 461.916 124.726 461.916 128.762 465.199 132.045 469.235 132.045 469.787 132.045 470.235 132.493 470.235 133.045 470.235 133.597 469.788 134.045 469.235 134.045Z" fill="#FFFFFF"/></g><g><path d="M528.394 389.011C527.841 389.011 527.394 389.459 527.394 390.011 527.394 394.047 524.111 397.33 520.075 397.33 516.039 397.33 512.756 394.047 512.756 390.011 512.756 389.459 512.309 389.011 511.756 389.011 511.203 389.011 510.756 389.459 510.756 390.011 510.756 394.047 507.473 397.33 503.438 397.33 499.402 397.33 496.119 394.047 496.119 390.011 496.119 389.459 495.672 389.011 495.119 389.011 494.566 389.011 494.119 389.459 494.119 390.011 494.119 395.15 498.3 399.33 503.438 399.33 507.073 399.33 510.221 397.232 511.756 394.187 513.291 397.232 516.439 399.33 520.075 399.33 525.214 399.33 529.394 395.15 529.394 390.011 529.394 389.458 528.946 389.011 528.394 389.011Z" fill="#FFFFFF"/><path d="M470.16 399.33C465.021 399.33 460.841 395.15 460.841 390.011 460.841 389.459 461.289 389.011 461.841 389.011 462.393 389.011 462.841 389.459 462.841 390.011 462.841 394.047 466.124 397.33 470.16 397.33 474.196 397.33 477.479 394.047 477.479 390.011 477.479 389.459 477.927 389.011 478.479 389.011 479.031 389.011 479.479 389.459 479.479 390.011 479.479 395.149 475.299 399.33 470.16 399.33Z" fill="#FFFFFF"/><path d="M553.351 418.741C548.212 418.741 544.032 414.56 544.032 409.422 544.032 408.87 544.479 408.422 545.032 408.422 545.585 408.422 546.032 408.87 546.032 409.422 546.032 413.458 549.315 416.741 553.351 416.741 557.386 416.741 560.669 413.458 560.669 409.422 560.669 408.87 561.116 408.422 561.669 408.422 562.222 408.422 562.669 408.87 562.669 409.422 562.669 414.56 558.488 418.741 553.351 418.741Z" fill="#FFFFFF"/><path d="M528.394 408.421C527.841 408.421 527.394 408.869 527.394 409.421 527.394 413.457 524.111 416.74 520.075 416.74 516.039 416.74 512.756 413.457 512.756 409.421 512.756 408.869 512.309 408.421 511.756 408.421 511.203 408.421 510.756 408.869 510.756 409.421 510.756 413.457 507.473 416.74 503.438 416.74 499.402 416.74 496.119 413.457 496.119 409.421 496.119 408.869 495.672 408.421 495.119 408.421 494.566 408.421 494.119 408.869 494.119 409.421 494.119 414.56 498.3 418.74 503.438 418.74 507.073 418.74 510.221 416.642 511.756 413.597 513.291 416.642 516.439 418.74 520.075 418.74 525.214 418.74 529.394 414.559 529.394 409.421 529.394 408.869 528.946 408.421 528.394 408.421Z" fill="#FFFFFF"/><path d="M580.156 428.757C579.603 428.757 579.156 429.205 579.156 429.757 579.156 433.793 575.873 437.076 571.837 437.076 567.801 437.076 564.518 433.793 564.518 429.757 564.518 429.205 564.071 428.757 563.518 428.757 562.965 428.757 562.518 429.205 562.518 429.757 562.518 433.793 559.235 437.076 555.2 437.076 551.164 437.076 547.881 433.793 547.881 429.757 547.881 429.205 547.434 428.757 546.881 428.757 546.328 428.757 545.881 429.205 545.881 429.757 545.881 434.896 550.062 439.076 555.2 439.076 558.835 439.076 561.983 436.978 563.518 433.933 565.053 436.978 568.201 439.076 571.837 439.076 576.976 439.076 581.156 434.895 581.156 429.757 581.156 429.205 580.709 428.757 580.156 428.757Z" fill="#FFFFFF"/></g><g><path d="M640.238 500.082C635.099 500.082 630.919 495.901 630.919 490.764 630.919 490.211 631.366 489.764 631.919 489.764 632.472 489.764 632.919 490.211 632.919 490.764 632.919 494.799 636.202 498.082 640.238 498.082 644.273 498.082 647.556 494.799 647.556 490.764 647.556 490.211 648.003 489.764 648.556 489.764 649.109 489.764 649.556 490.211 649.556 490.764 649.557 495.901 645.376 500.082 640.238 500.082Z" fill="#FFFFFF"/><path d="M648.557 467.579C648.004 467.579 647.557 468.027 647.557 468.579 647.557 472.615 644.274 475.898 640.239 475.898 636.203 475.898 632.92 472.615 632.92 468.579 632.92 468.027 632.473 467.579 631.92 467.579 631.367 467.579 630.92 468.027 630.92 468.579 630.92 472.615 627.637 475.898 623.601 475.898 619.566 475.898 616.283 472.615 616.283 468.579 616.283 468.027 615.836 467.579 615.283 467.579 614.73 467.579 614.283 468.027 614.283 468.579 614.283 473.718 618.464 477.898 623.601 477.898 627.237 477.898 630.385 475.8 631.92 472.755 633.455 475.8 636.603 477.898 640.239 477.898 645.377 477.898 649.557 473.718 649.557 468.579 649.557 468.027 649.109 467.579 648.557 467.579Z" fill="#FFFFFF"/></g><g><path d="M502.512 624.717C501.959 624.717 501.512 625.164 501.512 625.717 501.512 629.752 498.229 633.035 494.193 633.035 490.158 633.035 486.875 629.752 486.875 625.717 486.875 625.164 486.428 624.717 485.875 624.717 485.322 624.717 484.875 625.164 484.875 625.717 484.875 629.752 481.592 633.035 477.556 633.035 473.52 633.035 470.237 629.752 470.237 625.717 470.237 625.164 469.789 624.717 469.237 624.717 468.685 624.717 468.237 625.164 468.237 625.717 468.237 630.855 472.417 635.035 477.556 635.035 481.192 635.035 484.34 632.937 485.875 629.892 487.41 632.936 490.558 635.035 494.193 635.035 499.332 635.035 503.512 630.854 503.512 625.717 503.512 625.164 503.064 624.717 502.512 624.717Z" fill="#FFFFFF"/><path d="M444.278 635.035C439.139 635.035 434.959 630.854 434.959 625.717 434.959 625.164 435.407 624.717 435.959 624.717 436.511 624.717 436.959 625.164 436.959 625.717 436.959 629.752 440.242 633.035 444.278 633.035 448.314 633.035 451.597 629.752 451.597 625.717 451.597 625.164 452.045 624.717 452.597 624.717 453.149 624.717 453.597 625.164 453.597 625.717 453.598 630.854 449.417 635.035 444.278 635.035Z" fill="#FFFFFF"/><path d="M444.278 614.7C439.139 614.7 434.959 610.519 434.959 605.381 434.959 604.828 435.407 604.381 435.959 604.381 436.511 604.381 436.959 604.828 436.959 605.381 436.959 609.417 440.242 612.7 444.278 612.7 448.314 612.7 451.597 609.417 451.597 605.381 451.597 604.828 452.045 604.381 452.597 604.381 453.149 604.381 453.597 604.828 453.597 605.381 453.598 610.52 449.417 614.7 444.278 614.7Z" fill="#FFFFFF"/><path d="M527.469 654.446C522.33 654.446 518.15 650.265 518.15 645.128 518.15 644.575 518.597 644.128 519.15 644.128 519.703 644.128 520.15 644.575 520.15 645.128 520.15 649.163 523.433 652.446 527.469 652.446 531.505 652.446 534.788 649.163 534.788 645.128 534.788 644.575 535.235 644.128 535.788 644.128 536.341 644.128 536.788 644.575 536.788 645.128 536.788 650.266 532.607 654.446 527.469 654.446Z" fill="#FFFFFF"/><path d="M494.192 654.446C489.054 654.446 484.874 650.265 484.874 645.128 484.874 644.575 485.321 644.128 485.874 644.128 486.427 644.128 486.874 644.575 486.874 645.128 486.874 649.163 490.157 652.446 494.192 652.446 498.228 652.446 501.511 649.163 501.511 645.128 501.511 644.575 501.958 644.128 502.511 644.128 503.064 644.128 503.511 644.575 503.511 645.128 503.512 650.266 499.331 654.446 494.192 654.446Z" fill="#FFFFFF"/></g></g><g><circle cx="618.979" cy="416.816" r="9.243" fill="#505050"/><circle cx="633.999" cy="414.737" r="3.466" fill="#505050"/></g><g><circle cx="413.544" cy="256.213" r="3.466" fill="#505050"/><circle cx="426.716" cy="271.695" r="8.319" fill="#505050"/></g><g><circle cx="568.856" cy="168.885" r="3.489" fill="#737373"/><circle cx="556.332" cy="184.092" r="3.489" fill="#737373"/><circle cx="577.437" cy="190.3" r="8.373" fill="#737373"/></g><g><circle cx="679.986" cy="548.072" r="9.243" fill="#505050"/><circle cx="696.853" cy="531.665" r="3.466" fill="#505050"/><circle cx="679.984" cy="515.72" r="8.319" fill="#505050"/></g><g><path d="M575.24 121.15 562.377 106.938 559.163 103.388C558.231 102.405 557.325 101.383 556.323 100.459 554.361 98.568 552.259 96.795 549.996 95.232 545.506 92.047 540.468 89.574 535.137 87.858 532.464 87.029 529.722 86.383 526.933 85.929 525.535 85.751 524.132 85.538 522.716 85.456L521.654 85.368 520.473 85.305 518.08 85.186 498.935 84.232 489.348 83.751C485.851 83.583 482.384 83.099 478.994 82.347 475.604 81.592 472.291 80.554 469.1 79.253 465.916 77.932 462.857 76.348 459.963 74.528 457.07 72.708 454.338 70.655 451.81 68.392 450.567 67.236 449.338 66.073 448.192 64.83 447.025 63.608 446.022 62.451 444.929 61.258 443.809 60.036 443.891 58.137 445.113 57.017 446.257 55.968 447.995 55.974 449.131 56.982L449.17 57.017C450.346 58.068 451.558 59.208 452.704 60.185 453.829 61.186 455.021 62.103 456.211 63.011 458.634 64.777 461.197 66.325 463.855 67.647 466.514 68.968 469.272 70.061 472.089 70.913 474.913 71.745 477.793 72.335 480.687 72.68 483.582 73.023 486.491 73.135 489.377 72.983L498.935 72.51 518.08 71.556 520.473 71.437 521.685 71.381 523.016 71.353C524.794 71.284 526.57 71.359 528.354 71.415 531.913 71.626 535.468 72.088 538.987 72.806 546.007 74.297 552.865 76.831 559.2 80.414 562.385 82.176 565.416 84.231 568.296 86.491 569.757 87.599 571.119 88.826 572.503 90.036L576.059 93.254 590.271 106.117C594.629 110.061 594.964 116.792 591.02 121.15 587.076 125.508 580.345 125.843 575.987 121.899 575.728 121.663 575.472 121.405 575.24 121.15Z" fill="#D2D2D2"/><path d="M637.949 128.414C626.597 128.414 615.663 124.137 607.325 116.434 594.944 104.996 578.708 98.644 561.852 98.644L541.496 99.461 534.638 93.254 531.082 90.036C529.698 88.826 528.336 87.599 526.875 86.491 523.995 84.232 520.964 82.176 517.779 80.414 511.444 76.831 504.586 74.297 497.566 72.806 494.047 72.089 490.493 71.626 486.933 71.415 485.149 71.359 483.373 71.284 481.595 71.353L476.659 71.557 457.514 72.511 447.957 72.984C445.071 73.136 442.162 73.023 439.267 72.681 436.373 72.335 433.493 71.745 430.669 70.913 427.852 70.062 425.094 68.969 422.435 67.647 419.776 66.325 417.214 64.777 414.791 63.011 413.6 62.103 412.409 61.186 411.284 60.185 410.139 59.208 408.926 58.068 407.751 57.017L407.712 56.982C406.576 55.974 404.838 55.968 403.694 57.017 402.472 58.137 402.389 60.036 403.51 61.258 404.603 62.451 405.606 63.608 406.774 64.83 407.92 66.073 409.148 67.236 410.392 68.392 412.92 70.655 415.651 72.708 418.545 74.528 421.439 76.348 424.498 77.932 427.682 79.253 430.873 80.554 434.186 81.591 437.576 82.347 440.966 83.099 444.433 83.584 447.93 83.751L457.517 84.232 476.662 85.186 481.298 85.456C482.714 85.538 484.116 85.75 485.515 85.929 488.304 86.384 491.045 87.029 493.719 87.858 499.049 89.574 504.088 92.047 508.578 95.232 510.841 96.795 512.943 98.568 514.905 100.459 515.907 101.383 516.813 102.404 517.745 103.388L520.958 106.938 533.821 121.15C534.053 121.405 538.02 125.318 539.112 126.442 550.694 138.369 566.892 145.786 584.832 145.786 588.159 145.786 591.425 145.529 594.612 145.036 604.003 143.582 613.584 143.655 622.828 145.857 625.665 146.533 628.652 146.824 631.731 146.67 643.615 146.077 653.864 138.726 658.657 128.414L637.949 128.414Z" fill="#737373"/><path d="M554.275 114.634C553.983 114.634 553.694 114.507 553.496 114.262L541.521 99.428C541.174 98.998 541.242 98.369 541.671 98.022 542.101 97.675 542.73 97.743 543.077 98.172L555.052 113.006C555.399 113.436 555.331 114.065 554.902 114.412 554.718 114.561 554.495 114.634 554.275 114.634Z" fill="#FFFFFF"/><circle cx="678.172" cy="134.196" r="5.582" fill="#505050"/><circle cx="700.284" cy="134.196" r="5.582" fill="#505050"/><g><path d="M604.774 125.823C604.774 128.568 595.996 130.04 586.966 130.058 583.066 130.066 574.933 128.233 573.999 124.533 573.185 121.307 576.499 116.866 580.634 116.05 582.374 115.706 584.24 115.59 586.167 115.59 596.444 115.59 604.774 120.172 604.774 125.823Z" fill="#FFFFFF"/><path d="M587.106 130.053C587.693 128.763 588.029 127.333 588.029 125.823 588.029 121.205 584.969 117.305 580.767 116.031 573.127 117.304 567.563 121.205 567.563 125.823 567.562 128.744 577.501 130.152 587.106 130.053Z" fill="#505050"/></g><path d="M569.2 150.351C555.883 144.74 541.879 140.621 527.553 138.463 520.395 137.366 513.166 136.735 505.92 136.663 502.289 136.695 498.668 136.601 495.021 136.932L492.291 137.111C491.836 137.144 491.381 137.163 490.927 137.209L489.563 137.385 484.114 138.095C476.872 139.306 469.745 141.345 463.004 143.922 456.245 146.473 449.886 149.411 443.475 151.604 437.073 153.83 430.516 155.231 423.776 155.711 422.107 155.936 420.4 155.879 418.709 155.95L416.167 156.018C415.319 156.049 414.47 155.983 413.621 155.971 410.219 155.92 406.848 155.569 403.489 155.158 396.791 154.19 390.225 152.462 383.876 149.963 377.515 147.496 371.354 144.334 365.166 141.043 358.979 137.746 352.728 134.352 346.233 131.351 339.75 128.335 333.017 125.759 326.134 123.72 312.324 119.71 298.005 117.992 283.765 117.864 269.508 117.791 255.269 119.433 241.431 122.661 240.436 122.892 239.817 123.885 240.047 124.88 240.275 125.863 241.251 126.478 242.234 126.27 255.863 123.361 269.807 122.025 283.696 122.357 297.578 122.743 311.433 124.686 324.602 128.782 331.175 130.867 337.576 133.452 343.796 136.489 350.026 139.511 356.09 142.949 362.257 146.387 368.427 149.817 374.747 153.226 381.464 155.98 388.162 158.765 395.252 160.785 402.467 161.962 406.079 162.478 409.712 162.919 413.348 163.045 414.257 163.076 415.165 163.16 416.076 163.147L418.811 163.129C420.635 163.089 422.458 163.175 424.287 162.972 431.597 162.595 438.955 161.163 445.888 158.892 452.842 156.651 459.336 153.789 465.791 151.501 472.241 149.178 478.74 147.463 485.406 146.469L490.437 145.913 491.694 145.772C492.115 145.738 492.541 145.73 492.963 145.707L495.503 145.591C498.877 145.34 502.298 145.501 505.702 145.531 512.526 145.725 519.344 146.451 526.074 147.613 539.551 149.904 552.686 154.036 565.199 159.586L565.204 159.589C567.745 160.716 570.718 159.57 571.845 157.029 572.972 154.488 571.826 151.515 569.285 150.388 569.266 150.379 569.221 150.359 569.2 150.351Z" fill="#505050"/></g></svg>