<?xml version="1.0" encoding="iso-8859-1"?>
<!-- Generator: Adobe Illustrator 19.0.0, SVG Export Plug-In . SVG Version: 6.00 Build 0)  -->
<svg version="1.1" id="Layer_1" xmlns="http://www.w3.org/2000/svg" xmlns:xlink="http://www.w3.org/1999/xlink" x="0px" y="0px"
	 viewBox="0 0 503.467 503.467" style="enable-background:new 0 0 503.467 503.467;" xml:space="preserve">
<path style="fill:#E4F2DE;" d="M413.013,21.333c0,0,34.133,51.2,34.133,187.733s-34.133,273.067-34.133,273.067
	c-68.267,0-68.267,17.067-162.133,17.067s-93.867-17.067-162.133-17.067c0,0-34.133-136.533-34.133-273.067
	S88.747,21.333,88.747,21.333s51.2-17.067,162.133-17.067S413.013,21.333,413.013,21.333"/>
<path style="fill:#51565F;" d="M250.88,503.467c-51.2,0-75.093-5.12-96.427-9.387c-17.92-3.413-34.987-7.68-65.707-7.68
	c-1.707,0-3.413-1.707-4.267-3.413c0-1.707-34.133-138.24-34.133-273.92c0-136.533,33.28-187.733,34.987-190.293
	c0.853-0.853,1.707-1.707,2.56-1.707C89.6,16.213,140.8,0,251.733,0s161.28,16.213,163.84,17.067c0.853,0,1.707,0.853,2.56,1.707
	c1.707,2.56,34.987,53.76,34.987,190.293c0,135.68-34.133,273.067-34.133,273.92c-0.853,1.707-2.56,3.413-4.267,3.413
	c-30.72,0-47.787,3.413-65.707,7.68C325.973,498.347,302.08,503.467,250.88,503.467z M92.16,477.867c29.867,0,46.933,3.413,64,7.68
	c22.187,4.267,44.373,9.387,94.72,9.387c50.347,0,72.533-5.12,94.72-9.387c17.92-3.413,34.133-7.68,64-7.68
	c5.12-21.333,33.28-145.92,33.28-268.8c0-122.027-28.16-175.787-32.427-184.32c-9.387-2.56-60.587-16.213-159.573-16.213
	c-98.986,0-150.187,13.653-159.573,16.213C86.187,33.28,58.88,87.04,58.88,209.067C58.88,331.947,87.04,456.533,92.16,477.867z
	 M387.413,247.467c-2.56,0-4.267-1.707-4.267-4.267v-21.333h-25.6V243.2c0,2.56-1.707,4.267-4.267,4.267s-4.267-1.707-4.267-4.267
	v-25.6c0-2.56,1.707-4.267,4.267-4.267h34.133c2.56,0,4.267,1.707,4.267,4.267v25.6C391.68,245.76,389.973,247.467,387.413,247.467z
	 M327.68,247.467h-34.133c-2.56,0-4.267-1.707-4.267-4.267V192c0-2.56,1.707-4.267,4.267-4.267s4.267,1.707,4.267,4.267v46.933
	h29.867c2.56,0,4.267,1.707,4.267,4.267S330.24,247.467,327.68,247.467z M267.947,247.467h-34.133c-2.56,0-4.267-1.707-4.267-4.267
	s1.707-4.267,4.267-4.267h29.867v-17.067h-29.867c-2.56,0-4.267-1.707-4.267-4.267V192c0-2.56,1.707-4.267,4.267-4.267h34.133
	c2.56,0,4.267,1.707,4.267,4.267c0,2.56-1.707,4.267-4.267,4.267H238.08v17.067h29.867c2.56,0,4.267,1.707,4.267,4.267v25.6
	C272.213,245.76,270.507,247.467,267.947,247.467z M208.213,247.467H174.08c-2.56,0-4.267-1.707-4.267-4.267
	s1.707-4.267,4.267-4.267h34.133c2.56,0,4.267,1.707,4.267,4.267S210.773,247.467,208.213,247.467z M131.413,247.467
	c-2.56,0-4.267-1.707-4.267-4.267v-46.933h-12.8c-2.56,0-4.267-1.707-4.267-4.267c0-2.56,1.707-4.267,4.267-4.267h34.133
	c2.56,0,4.267,1.707,4.267,4.267c0,2.56-1.707,4.267-4.267,4.267h-12.8V243.2C135.68,245.76,133.973,247.467,131.413,247.467z
	 M208.213,221.867H174.08c-2.56,0-4.267-1.707-4.267-4.267c0-2.56,1.707-4.267,4.267-4.267h34.133c2.56,0,4.267,1.707,4.267,4.267
	C212.48,220.16,210.773,221.867,208.213,221.867z M387.413,196.267H353.28c-2.56,0-4.267-1.707-4.267-4.267
	c0-2.56,1.707-4.267,4.267-4.267h34.133c2.56,0,4.267,1.707,4.267,4.267C391.68,194.56,389.973,196.267,387.413,196.267z
	 M208.213,196.267H174.08c-2.56,0-4.267-1.707-4.267-4.267c0-2.56,1.707-4.267,4.267-4.267h34.133c2.56,0,4.267,1.707,4.267,4.267
	C212.48,194.56,210.773,196.267,208.213,196.267z"/>
<g>
</g>
<g>
</g>
<g>
</g>
<g>
</g>
<g>
</g>
<g>
</g>
<g>
</g>
<g>
</g>
<g>
</g>
<g>
</g>
<g>
</g>
<g>
</g>
<g>
</g>
<g>
</g>
<g>
</g>
</svg>
