<?xml version="1.0" encoding="iso-8859-1"?>
<!-- Generator: Adobe Illustrator 19.0.0, SVG Export Plug-In . SVG Version: 6.00 Build 0)  -->
<svg version="1.1" id="Layer_1" xmlns="http://www.w3.org/2000/svg" xmlns:xlink="http://www.w3.org/1999/xlink" x="0px" y="0px"
	 viewBox="0 0 495 495" style="enable-background:new 0 0 495 495;" xml:space="preserve">
<g>
	<polygon style="fill:#FF9811;" points="247.5,0 247.5,40 455,40 455,455 247.5,455 247.5,495 495,495 495,0 	"/>
	<polygon style="fill:#FFB655;" points="40,455 40,40 247.5,40 247.5,0 0,0 0,495 247.5,495 247.5,455 	"/>
	<path style="fill:#FFB655;" d="M255.2,179.221c-8.483-0.672-26.942-0.9-55.381,5.001c-40.523,8.416-59.224,45.826-59.224,75.132
		c0,29.297,28.05,63.278,70.134,63.278c32.204,0,50.361-19.359,57.097-28.45c1.508-2.016,4.554-1.918,5.923,0.208
		c1.669,2.602,4.046,6.05,7.114,9.846c3.288,4.079,7.68,8.147,11.237,11.196c3.438,2.949,8.558,2.777,11.845-0.336l27.895-26.576
		c3.232-3.079,3.679-8.069,1.03-11.659c-1.538-2.083-3.479-4.773-5.878-8.155c-7.483-10.599-7.169-19.015-7.169-19.015v-98.509
		c0-11.843-7.169-60.468-82.607-60.468c-61.606,0-80.382,43.863-85.197,59.949c-0.922,3.079,1.083,6.248,4.251,6.778l38.255,6.464
		c2.321,0.392,4.632-0.769,5.673-2.885c4.198-8.491,16.391-29.166,35.458-29.166c24.013,0.011,24.946,19.645,24.946,19.645v22.7
		C260.601,177.127,258.13,179.449,255.2,179.221z M261.231,215.654v28.722c0,15-10.327,28.147-24.968,31.399
		c-3.787,0.847-8.114,1.346-13.073,1.346c-31.79,0-25.868-40.837-11.215-52.996c11.107-9.219,33.667-12.343,43.941-13.309
		C258.768,210.545,261.231,212.791,261.231,215.654z"/>
	<path style="fill:#FFB655;" d="M233.495,404.286c57.03,0,81.035-11.834,105.667-25.546c24.621-13.719,29.297-24.002,25.87-30.435
		c-3.429-6.431-17.465,0.197-29.927,5.49c-12.473,5.304-50.805,19.959-105.981,19.959c-55.176,0-110.665-38.974-122.51-47.226
		c-11.845-8.266-16.052,0-16.052,0s-3.579,6.853,7.333,20.262C108.794,360.195,164.197,404.286,233.495,404.286z"/>
	<path style="fill:#FFB655;" d="M350.529,335.171c15.433-1.866,22.214-3.807,26.887,0.325c4.676,4.124,3.038,12.54,0,22.127
		c-3.035,9.577-10.54,17.571-3.274,21.508c8.491,4.598,41.184-37.68,27.592-58.68c-11.301-17.463-58.688,2.104-62.192,4.437
		c-3.504,2.344-3.504,5.14-3.504,5.14S335.105,337.048,350.529,335.171z"/>
</g>
<g>
</g>
<g>
</g>
<g>
</g>
<g>
</g>
<g>
</g>
<g>
</g>
<g>
</g>
<g>
</g>
<g>
</g>
<g>
</g>
<g>
</g>
<g>
</g>
<g>
</g>
<g>
</g>
<g>
</g>
</svg>
