<svg width="64px" height="64px" viewBox="0 0 64 64" xmlns="http://www.w3.org/2000/svg"><title>london</title><g id="london"><circle cx="39.5" cy="22.5" r="21.5" style="fill:#eaeaea"/><circle cx="56" cy="12" r="2" style="fill:none;stroke:#4c241d;stroke-linecap:round;stroke-linejoin:round;stroke-width:2px"/><path d="M8.632,51.5A1.132,1.132,0,1,1,7.5,50.368,1.132,1.132,0,0,1,8.632,51.5Z" style="fill:#4c241d"/><path d="M52.632,2.5A1.132,1.132,0,1,1,51.5,1.368,1.132,1.132,0,0,1,52.632,2.5Z" style="fill:#4c241d"/><path d="M32,8A24,24,0,1,0,56,32,24,24,0,0,0,32,8Zm0,40A16,16,0,1,1,48,32,16,16,0,0,1,32,48Z" style="fill:#e66353;stroke:#4c241d;stroke-linecap:round;stroke-linejoin:round;stroke-width:2px"/><rect x="5" y="26" width="54" height="12" style="fill:#9dc1e4;stroke:#4c241d;stroke-linecap:round;stroke-linejoin:round;stroke-width:2px"/><polyline points="14 29 14 35 17 35" style="fill:#9dc1e4;stroke:#4c241d;stroke-linecap:round;stroke-linejoin:round;stroke-width:2px"/><rect x="20" y="29" width="3" height="6" rx="1.021" ry="1.021" style="fill:#9dc1e4;stroke:#4c241d;stroke-linecap:round;stroke-linejoin:round;stroke-width:2px"/><path d="M34,29h1.738A1.262,1.262,0,0,1,37,30.262v3.476A1.262,1.262,0,0,1,35.738,35H34a0,0,0,0,1,0,0V29A0,0,0,0,1,34,29Z" style="fill:#9dc1e4;stroke:#4c241d;stroke-linecap:round;stroke-linejoin:round;stroke-width:2px"/><rect x="41" y="29" width="3" height="6" rx="1.021" ry="1.021" style="fill:#9dc1e4;stroke:#4c241d;stroke-linecap:round;stroke-linejoin:round;stroke-width:2px"/><polyline points="27 35 27 29 30 35 30 29" style="fill:#9dc1e4;stroke:#4c241d;stroke-linecap:round;stroke-linejoin:round;stroke-width:2px"/><polyline points="48 35 48 29 51 35 51 29" style="fill:#9dc1e4;stroke:#4c241d;stroke-linecap:round;stroke-linejoin:round;stroke-width:2px"/><path d="M50.431,21.928A21.092,21.092,0,0,0,41,13.021" style="fill:none;stroke:#fff;stroke-linecap:round;stroke-linejoin:round;stroke-width:2px"/></g></svg>