<?xml version="1.0" encoding="iso-8859-1"?>
<!-- Generator: Adobe Illustrator 19.0.0, SVG Export Plug-In . SVG Version: 6.00 Build 0)  -->
<svg version="1.1" id="Layer_1" xmlns="http://www.w3.org/2000/svg" xmlns:xlink="http://www.w3.org/1999/xlink" x="0px" y="0px"
	 viewBox="0 0 512 512" style="enable-background:new 0 0 512 512;" xml:space="preserve">
<circle style="fill:#BEEBFF;" cx="256" cy="256" r="256"/>
<path style="fill:#00C85F;" d="M188.402,73.43l-19.85,9.604l-8.905-1.113c-3.409-0.426-6.372,2.337-6.186,5.767l1.022,18.795
	l-20.414,13.793l-7.591-10.436c-2.086-2.868-5.69-4.2-9.14-3.377l-11.774,2.809c-4.083,0.974-7.112,4.408-7.57,8.58l-1.719,15.665
	l2.407,5.25c2.377,5.187,3.006,11.006,1.792,16.582l-4.199,19.272l-10.698,2.958c-9.422,2.606-16.733,10.053-19.162,19.523
	l-1.428,5.565c-1.657,6.46-0.079,13.321,4.233,18.407l14.642,17.271l33.655,4.138l28.966-13.241l2.527,15.808
	c1.323,8.275,7.249,15.071,15.267,17.508l32.872,9.993l1.249,17.731c0.34,4.829,4.14,8.694,8.962,9.118l0,0
	c7.542,0.662,13.842,6.019,15.705,13.357l1.318,5.186c0.963,3.794,1.259,7.725,0.873,11.62l-3.095,31.264l15.774,1.333
	c6.355,0.537,11.882,4.566,14.338,10.451l8.682,20.801c3.01,7.212,1.368,15.529-4.159,21.055l-19.407,19.409
	c-2.994,2.994-2.653,7.943,0.724,10.498l35.911,27.167l33.4-41.205c3.87-4.773,6.118-10.656,6.417-16.793l0.361-7.386
	c0.397-8.145,5.434-15.338,12.952-18.497l24.542-10.312c4.532-1.905,9.496-2.543,14.364-1.847l2.221,0.318
	c6.721,0.96,13.418-1.902,17.368-7.425l16.628-23.244c7.943-11.103,13.257-23.865,15.542-37.323l6.458-38.033l3.033-0.971
	c6.906-2.21,12.697-6.995,16.17-13.361l7.831-14.358l4.681-5.094c9.042-9.839,13.976-22.764,13.793-36.125l-0.108-7.857
	c-0.093-6.788-4.884-12.605-11.529-13.995l-6.239-1.305c-4.043-0.846-7.896-2.425-11.371-4.659l-25.641-16.483l-43.586-7.172
	l-31.231-17.351c-5.57-3.094-11.837-4.718-18.208-4.718h-25.596l6.805-21.885l-11.58-23.449c-1.329-2.691-5.13-2.794-6.602-0.178
	l-9.773,17.374l-13.387-0.817c-11.061-0.674-22.141,0.97-32.529,4.829l-22.866,8.493l-10.269-33.919
	C195.094,73.553,191.449,71.955,188.402,73.43z"/>
<g>
	<path style="fill:#FFF046;" d="M234.092,251.663c-20.213,0-36.657-16.448-36.657-36.662s16.444-36.652,36.657-36.652
		c20.209,0,36.652,16.439,36.652,36.652S254.301,251.663,234.092,251.663z M234.092,188.013c-14.887,0-26.994,12.107-26.994,26.989
		c0,14.891,12.107,26.998,26.994,26.998c14.881,0,26.989-12.107,26.989-26.998C261.081,200.12,248.974,188.013,234.092,188.013z"/>
	<path style="fill:#FFF046;" d="M307.411,251.663c-20.213,0-36.657-16.448-36.657-36.662s16.444-36.652,36.657-36.652
		c20.209,0,36.652,16.439,36.652,36.652S327.619,251.663,307.411,251.663z M307.411,188.013c-14.887,0-26.994,12.107-26.994,26.989
		c0,14.891,12.107,26.998,26.994,26.998c14.882,0,26.989-12.107,26.989-26.998C334.4,200.12,322.293,188.013,307.411,188.013z"/>
	<path style="fill:#FFF046;" d="M380.73,251.663c-20.213,0-36.657-16.448-36.657-36.662s16.444-36.652,36.657-36.652
		c20.209,0,36.652,16.439,36.652,36.652S400.939,251.663,380.73,251.663z M380.73,188.013c-14.887,0-26.994,12.107-26.994,26.989
		c0,14.891,12.107,26.998,26.994,26.998c14.881,0,26.989-12.107,26.989-26.998C407.719,200.12,395.612,188.013,380.73,188.013z"/>
	<path style="fill:#FFF046;" d="M270.793,283.167c-20.209,0-36.652-16.439-36.652-36.652s16.444-36.662,36.652-36.662
		c20.213,0,36.657,16.448,36.657,36.662S291.006,283.167,270.793,283.167z M270.793,219.517c-14.881,0-26.989,12.107-26.989,26.998
		c0,14.881,12.107,26.989,26.989,26.989c14.887,0,26.994-12.107,26.994-26.989C297.786,231.624,285.679,219.517,270.793,219.517z"/>
	<path style="fill:#FFF046;" d="M344.024,283.167c-20.213,0-36.657-16.439-36.657-36.652s16.444-36.662,36.657-36.662
		c20.209,0,36.652,16.448,36.652,36.662S364.233,283.167,344.024,283.167z M344.024,219.517c-14.887,0-26.994,12.107-26.994,26.998
		c0,14.881,12.107,26.989,26.994,26.989c14.882,0,26.989-12.107,26.989-26.989C371.013,231.624,358.906,219.517,344.024,219.517z"/>
</g>
<g>
</g>
<g>
</g>
<g>
</g>
<g>
</g>
<g>
</g>
<g>
</g>
<g>
</g>
<g>
</g>
<g>
</g>
<g>
</g>
<g>
</g>
<g>
</g>
<g>
</g>
<g>
</g>
<g>
</g>
</svg>
