<?xml version="1.0" encoding="iso-8859-1"?>
<!-- Generator: Adobe Illustrator 19.0.0, SVG Export Plug-In . SVG Version: 6.00 Build 0)  -->
<svg version="1.1" id="Layer_1" xmlns="http://www.w3.org/2000/svg" xmlns:xlink="http://www.w3.org/1999/xlink" x="0px" y="0px"
	 viewBox="0 0 512 512" style="enable-background:new 0 0 512 512;" xml:space="preserve">
<path style="fill:#F8E99B;" d="M403.064,186.336V65.362h-32.681v120.975c-27.889,26.489-81.702,43.222-81.702,107.791
	c0,30.802,14.209,58.281,36.425,76.255h123.235c22.216-17.974,36.425-45.454,36.425-76.255
	C484.766,229.558,430.953,212.825,403.064,186.336z"/>
<path style="fill:#F6E27D;" d="M403.064,186.336V65.362h-16.342v305.021h61.619c22.216-17.974,36.425-45.454,36.425-76.255
	C484.766,229.558,430.953,212.825,403.064,186.336z"/>
<rect x="354.043" y="98.043" style="fill:#ECB45C;" width="65.362" height="32.681"/>
<rect x="386.723" y="98.043" style="fill:#E9A440;" width="32.681" height="32.681"/>
<path style="fill:#AEDEBA;" d="M302.507,344.343c5.657,9.465,12.869,17.892,21.276,24.941l136.992-136.992
	c-7.605-8.112-16.302-14.923-25.007-21.211L302.507,344.343z"/>
<path style="fill:#95D5A7;" d="M435.769,211.081l-49.045,49.044v46.217l74.052-74.052
	C453.17,224.179,444.473,217.368,435.769,211.081z"/>
<path style="fill:#F8F8F9;" d="M141.617,142.762V21.787h-32.681v120.975c-27.889,26.489-81.702,43.222-81.702,107.791
	c0,30.802,14.209,58.281,36.425,76.255h123.235c22.215-17.974,36.425-45.454,36.425-76.255
	C223.319,185.983,169.506,169.251,141.617,142.762z"/>
<path style="fill:#EDEDED;" d="M141.617,142.762V21.787h-16.342v305.021h61.619c22.215-17.974,36.425-45.454,36.425-76.255
	C223.319,185.983,169.506,169.251,141.617,142.762z"/>
<rect x="92.596" y="54.468" style="fill:#F8E99B;" width="65.362" height="32.681"/>
<rect x="125.277" y="54.468" style="fill:#F6E27D;" width="32.681" height="32.681"/>
<path style="fill:#D1E5F5;" d="M41.06,300.768c5.657,9.465,12.869,17.892,21.276,24.941l136.992-136.992
	c-7.605-8.112-16.302-14.923-25.007-21.211L41.06,300.768z"/>
<rect x="190.638" y="217.872" style="fill:#E07188;" width="130.723" height="294.128"/>
<rect x="256" y="217.872" style="fill:#E02753;" width="65.362" height="294.128"/>
<path style="fill:#B4D8F1;" d="M174.321,167.507l-49.044,49.044v46.217l74.052-74.052
	C191.723,180.604,183.026,173.793,174.321,167.507z"/>
<polygon style="fill:#AEDEBA;" points="272.34,119.83 272.34,0 239.66,0 239.66,119.83 190.638,217.872 321.362,217.872 "/>
<polygon style="fill:#95D5A7;" points="272.34,119.83 272.34,0 256,0 256,87.149 256,141.617 256,217.872 321.362,217.872 "/>
<rect x="223.319" y="32.681" style="fill:#F8E99B;" width="65.362" height="32.681"/>
<rect x="256" y="32.681" style="fill:#F6E27D;" width="32.681" height="32.681"/>
<rect x="59.915" y="326.809" style="fill:#E07188;" width="141.617" height="185.191"/>
<g>
	<rect x="125.277" y="326.809" style="fill:#E02753;" width="65.362" height="185.191"/>
	<rect x="310.468" y="370.383" style="fill:#E02753;" width="141.617" height="141.617"/>
</g>
<rect x="321.362" y="370.383" style="fill:#C5142C;" width="65.362" height="141.617"/>
<g>
	<path style="fill:#454449;" d="M386.723,468.426c-9.024,0-16.34,7.316-16.34,16.34V512h32.681v-27.234
		C403.064,475.742,395.748,468.426,386.723,468.426z"/>
	<rect x="239.66" y="315.915" style="fill:#454449;" width="32.681" height="65.362"/>
</g>
<rect x="59.915" y="375.83" style="fill:#AEDEBA;" width="130.723" height="32.681"/>
<rect x="125.277" y="375.83" style="fill:#95D5A7;" width="65.362" height="32.681"/>
<path style="fill:#454449;" d="M141.617,512v-59.915c0-9.024-7.316-16.34-16.34-16.34s-16.34,7.316-16.34,16.34V512H141.617z"/>
<g>
</g>
<g>
</g>
<g>
</g>
<g>
</g>
<g>
</g>
<g>
</g>
<g>
</g>
<g>
</g>
<g>
</g>
<g>
</g>
<g>
</g>
<g>
</g>
<g>
</g>
<g>
</g>
<g>
</g>
</svg>
