<svg viewBox="0 0 960 960" xmlns="http://www.w3.org/2000/svg" xmlns:xlink="http://www.w3.org/1999/xlink" id="d5ebae30-3055-4dc9-87f4-13b972e47dea" overflow="hidden"><style>
.MsftOfcResponsive_Stroke_ffc000 {
 stroke:#FFC000; 
}
</style>
<path d="M754 273.811 754 177.811 692 177.811 692 294.811 773.533 294.811 779.636 288.067 779.636 273.811Z" class="st0 MsftOfcResponsive_Stroke_ffc000" stroke="#FFC000" stroke-width="8.44444" fill="#FFFFFF"/><g><rect x="628" y="119.811" width="76" height="600" class="st1 MsftOfcResponsive_Stroke_ffc000" stroke="#FFC000" stroke-width="8.44444" fill="#737373"/><rect x="691" y="131.811" width="2" height="228" class="st2 MsftOfcResponsive_Stroke_ffc000" stroke="#FFC000" stroke-width="8.44444" fill="#505050"/><rect x="683" y="131.811" width="2" height="228" class="st2 MsftOfcResponsive_Stroke_ffc000" stroke="#FFC000" stroke-width="8.44444" fill="#505050"/><g><rect x="628" y="131.311" width="76" height="1" class="st3 MsftOfcResponsive_Stroke_ffc000" stroke="#FFC000" stroke-width="8.44444" fill="#D2D2D2"/><rect x="628" y="143.311" width="76" height="1" class="st3 MsftOfcResponsive_Stroke_ffc000" stroke="#FFC000" stroke-width="8.44444" fill="#D2D2D2"/><rect x="628" y="155.311" width="76" height="1" class="st3 MsftOfcResponsive_Stroke_ffc000" stroke="#FFC000" stroke-width="8.44444" fill="#D2D2D2"/><rect x="628" y="167.311" width="76" height="1" class="st3 MsftOfcResponsive_Stroke_ffc000" stroke="#FFC000" stroke-width="8.44444" fill="#D2D2D2"/><rect x="628" y="125.311" width="76" height="1" class="st3 MsftOfcResponsive_Stroke_ffc000" stroke="#FFC000" stroke-width="8.44444" fill="#D2D2D2"/><rect x="628" y="137.311" width="76" height="1" class="st3 MsftOfcResponsive_Stroke_ffc000" stroke="#FFC000" stroke-width="8.44444" fill="#D2D2D2"/><rect x="628" y="149.311" width="76" height="1" class="st3 MsftOfcResponsive_Stroke_ffc000" stroke="#FFC000" stroke-width="8.44444" fill="#D2D2D2"/><rect x="628" y="161.311" width="76" height="1" class="st3 MsftOfcResponsive_Stroke_ffc000" stroke="#FFC000" stroke-width="8.44444" fill="#D2D2D2"/></g></g><g><path d="M659.96 238.811 659.96 179.811 536 179.811 536 583 646 583 646 238.811Z" class="st4 MsftOfcResponsive_Stroke_ffc000" stroke="#FFC000" stroke-width="8.44444" fill="#E6E6E6"/><path d="M660 210.811 660 208.811 629 208.811 629 179.811 627 179.811 627 208.811 600.531 208.811 600.531 179.811 598.531 179.811 598.531 208.811 571 208.811 571 179.811 569 179.811 569 208.811 536 208.811 536 210.811 569 210.811 569 238.811 536 238.811 536 240.811 569 240.811 569 268.811 536 268.811 536 270.811 569 270.811 569 298.811 536 298.811 536 300.811 569 300.811 569 328.811 536 328.811 536 330.811 569 330.811 569 358.811 536 358.811 536 360.811 569 360.811 569 388.811 536 388.811 536 390.811 569 390.811 569 418.811 536 418.811 536 420.811 569 420.811 569 448.811 536 448.811 536 450.811 569 450.811 569 479.811 571 479.811 571 450.811 598.531 450.811 598.531 479.811 600.531 479.811 600.531 450.811 627 450.811 627 479.811 629 479.811 629 450.811 646 450.811 646 448.811 629 448.811 629 420.811 646 420.811 646 418.811 629 418.811 629 390.811 646 390.811 646 388.811 629 388.811 629 360.811 646 360.811 646 358.811 629 358.811 629 330.811 646 330.811 646 328.811 629 328.811 629 300.811 646 300.811 646 298.811 629 298.811 629 270.811 646 270.811 646 268.811 629 268.811 629 240.811 646 240.811 646 238.811 629 238.811 629 210.811 660 210.811ZM571 210.811 598.531 210.811 598.531 238.811 571 238.811 571 210.811ZM571 240.811 598.531 240.811 598.531 268.811 571 268.811 571 240.811ZM571 270.811 598.531 270.811 598.531 298.811 571 298.811 571 270.811ZM571 300.811 598.531 300.811 598.531 328.811 571 328.811 571 300.811ZM571 330.811 598.531 330.811 598.531 358.811 571 358.811 571 330.811ZM571 360.811 598.531 360.811 598.531 388.811 571 388.811 571 360.811ZM571 390.811 598.531 390.811 598.531 418.811 571 418.811 571 390.811ZM571 448.811 571 420.811 598.531 420.811 598.531 448.811 571 448.811ZM627 448.811 600.531 448.811 600.531 420.811 627 420.811 627 448.811ZM627 418.811 600.531 418.811 600.531 390.811 627 390.811 627 418.811ZM627 388.811 600.531 388.811 600.531 360.811 627 360.811 627 388.811ZM627 358.811 600.531 358.811 600.531 330.811 627 330.811 627 358.811ZM627 328.811 600.531 328.811 600.531 300.811 627 300.811 627 328.811ZM627 298.811 600.531 298.811 600.531 270.811 627 270.811 627 298.811ZM627 268.811 600.531 268.811 600.531 240.811 627 240.811 627 268.811ZM627 238.81 600.531 238.81 600.531 210.81 627 210.81 627 238.81Z" class="st0 MsftOfcResponsive_Stroke_ffc000" stroke="#FFC000" stroke-width="8.44444" fill="#FFFFFF"/></g><path d="M162.832 645.408C189.787 642.922 210.786 619.875 209.977 592.089 209.182 564.762 186.872 542.455 159.545 541.662 145.959 541.268 133.51 546.09 124.041 554.271 118.513 559.046 111.511 561.67 104.207 561.64 104.138 561.64 104.069 561.64 104 561.64 75.281 561.64 52 584.921 52 613.64 52 613.695 52 613.75 52 613.805 52.03 623.407 47.711 632.535 39.95 638.188 15.49 656.004-0.327 687.347 0 720 0.001 720.001 59.993 720 59.993 720L158.6 697.4C158.6 697.4 182.221 663.336 162.832 645.408Z" class="st2 MsftOfcResponsive_Stroke_ffc000" stroke="#FFC000" stroke-width="8.44444" fill="#505050"/><g><path d="M130.867 550.81 191.073 550.81 191.073 442.067 180.067 431.811 120.073 431.811 120.073 540.031Z" class="st1 MsftOfcResponsive_Stroke_ffc000" stroke="#FFC000" stroke-width="8.44444" fill="#737373"/><rect x="120.484" y="479.811" width="66.516" height="30" class="st2 MsftOfcResponsive_Stroke_ffc000" stroke="#FFC000" stroke-width="8.44444" fill="#505050"/></g><g><path d="M459.949 715.912 310 715.81 310 275.709 373.98 275.811 373.98 239.811 459.949 239.811Z" class="st1 MsftOfcResponsive_Stroke_ffc000" stroke="#FFC000" stroke-width="8.44444" fill="#737373"/><path d="M460 717.811 459.406 251.811 420 251.811 420 279.811 348.173 279.811 348 717.811Z" class="st5 MsftOfcResponsive_Stroke_ffc000" stroke="#FFC000" stroke-width="8.44444" fill="#F2F2F2"/><g><rect x="362" y="297.811" width="12" height="12" class="st0 MsftOfcResponsive_Stroke_ffc000" stroke="#FFC000" stroke-width="8.44444" fill="#FFFFFF"/><rect x="392" y="297.811" width="12" height="12" class="st0 MsftOfcResponsive_Stroke_ffc000" stroke="#FFC000" stroke-width="8.44444" fill="#FFFFFF"/><rect x="420" y="297.811" width="12" height="12" class="st0 MsftOfcResponsive_Stroke_ffc000" stroke="#FFC000" stroke-width="8.44444" fill="#FFFFFF"/><rect x="362" y="323.811" width="12" height="12" class="MsftOfcResponsive_Stroke_ffc000" stroke="#FFC000" stroke-width="8.44444" fill="#ED7D31"/><rect x="392" y="323.811" width="12" height="12" class="st0 MsftOfcResponsive_Stroke_ffc000" stroke="#FFC000" stroke-width="8.44444" fill="#FFFFFF"/><rect x="420" y="323.811" width="12" height="12" class="st0 MsftOfcResponsive_Stroke_ffc000" stroke="#FFC000" stroke-width="8.44444" fill="#FFFFFF"/><rect x="362" y="347.811" width="12" height="12" class="st0 MsftOfcResponsive_Stroke_ffc000" stroke="#FFC000" stroke-width="8.44444" fill="#FFFFFF"/><rect x="392" y="347.811" width="12" height="12" class="st0 MsftOfcResponsive_Stroke_ffc000" stroke="#FFC000" stroke-width="8.44444" fill="#FFFFFF"/><rect x="420" y="347.811" width="12" height="12" class="st0 MsftOfcResponsive_Stroke_ffc000" stroke="#FFC000" stroke-width="8.44444" fill="#FFFFFF"/><rect x="362" y="373.811" width="12" height="12" class="st0 MsftOfcResponsive_Stroke_ffc000" stroke="#FFC000" stroke-width="8.44444" fill="#FFFFFF"/><rect x="392" y="373.811" width="12" height="12" class="MsftOfcResponsive_Stroke_ffc000" stroke="#FFC000" stroke-width="8.44444" fill="#ED7D31"/><rect x="420" y="373.811" width="12" height="12" class="st0 MsftOfcResponsive_Stroke_ffc000" stroke="#FFC000" stroke-width="8.44444" fill="#FFFFFF"/><rect x="362" y="397.811" width="12" height="12" class="st0 MsftOfcResponsive_Stroke_ffc000" stroke="#FFC000" stroke-width="8.44444" fill="#FFFFFF"/><rect x="392" y="397.811" width="12" height="12" class="st0 MsftOfcResponsive_Stroke_ffc000" stroke="#FFC000" stroke-width="8.44444" fill="#FFFFFF"/><rect x="420" y="397.811" width="12" height="12" class="st0 MsftOfcResponsive_Stroke_ffc000" stroke="#FFC000" stroke-width="8.44444" fill="#FFFFFF"/></g></g><g><path d="M334.4 447.192 293 447.192 293 189.8 300 179.811 314 179.811 314 239.85C314 239.85 311.533 241.533 311.533 245.933 311.533 250.333 314 251.8 314 251.8L314 299.85C314 299.85 311.8 301.8 311.8 305.533 311.8 309.266 314 311.783 314 311.783L314 359.833C314 359.833 311.533 361.533 311.533 365.666 311.533 369.799 314 371.8 314 371.8L314 420.2 334.4 447.192Z" class="st3 MsftOfcResponsive_Stroke_ffc000" stroke="#FFC000" stroke-width="8.44444" fill="#D2D2D2"/><path d="M250 167.912 250 157.811 200 157.811 200 186.811 275.181 186.811 275.181 167.912Z" class="st3 MsftOfcResponsive_Stroke_ffc000" stroke="#FFC000" stroke-width="8.44444" fill="#D2D2D2"/><path d="M300 717.912 180 717.912 180 167.811 239.98 167.912 239.98 179.811 300 179.811Z" class="st4 MsftOfcResponsive_Stroke_ffc000" stroke="#FFC000" stroke-width="8.44444" fill="#E6E6E6"/><g><path d="M314 239.811 300 239.811C300 239.811 296.6 241.2 296.6 245.8 296.6 250.4 300 251.811 300 251.811L314 251.811 314 239.811Z" class="st4 MsftOfcResponsive_Stroke_ffc000" stroke="#FFC000" stroke-width="8.44444" fill="#E6E6E6"/><path d="M314 311.811 314 299.811 300 299.811C300 299.811 297 302.4 297 305.8 297 309.2 300 311.811 300 311.811L314 311.811Z" class="st4 MsftOfcResponsive_Stroke_ffc000" stroke="#FFC000" stroke-width="8.44444" fill="#E6E6E6"/><path d="M314 371.811 314 359.811 300 359.811C300 359.811 296.85 361.6 296.85 365.5 296.85 369.4 300 371.811 300 371.811L314 371.811Z" class="st4 MsftOfcResponsive_Stroke_ffc000" stroke="#FFC000" stroke-width="8.44444" fill="#E6E6E6"/><rect x="180" y="239.811" width="120" height="12" class="st5 MsftOfcResponsive_Stroke_ffc000" stroke="#FFC000" stroke-width="8.44444" fill="#F2F2F2"/><rect x="180" y="359.811" width="120" height="12" class="st5 MsftOfcResponsive_Stroke_ffc000" stroke="#FFC000" stroke-width="8.44444" fill="#F2F2F2"/><rect x="180" y="299.811" width="120" height="12" class="st5 MsftOfcResponsive_Stroke_ffc000" stroke="#FFC000" stroke-width="8.44444" fill="#F2F2F2"/></g><g><rect x="180" y="191.311" width="134" height="1" class="st3 MsftOfcResponsive_Stroke_ffc000" stroke="#FFC000" stroke-width="8.44444" fill="#D2D2D2"/><rect x="180" y="203.311" width="134" height="1" class="st3 MsftOfcResponsive_Stroke_ffc000" stroke="#FFC000" stroke-width="8.44444" fill="#D2D2D2"/><rect x="180" y="215.311" width="134" height="1" class="st3 MsftOfcResponsive_Stroke_ffc000" stroke="#FFC000" stroke-width="8.44444" fill="#D2D2D2"/><rect x="180" y="227.311" width="134" height="1" class="st3 MsftOfcResponsive_Stroke_ffc000" stroke="#FFC000" stroke-width="8.44444" fill="#D2D2D2"/><rect x="180" y="263.311" width="134" height="1" class="st3 MsftOfcResponsive_Stroke_ffc000" stroke="#FFC000" stroke-width="8.44444" fill="#D2D2D2"/><rect x="180" y="275.311" width="134" height="1" class="st3 MsftOfcResponsive_Stroke_ffc000" stroke="#FFC000" stroke-width="8.44444" fill="#D2D2D2"/><rect x="180" y="287.311" width="134" height="1" class="st3 MsftOfcResponsive_Stroke_ffc000" stroke="#FFC000" stroke-width="8.44444" fill="#D2D2D2"/><rect x="180" y="323.311" width="134" height="1" class="st3 MsftOfcResponsive_Stroke_ffc000" stroke="#FFC000" stroke-width="8.44444" fill="#D2D2D2"/><rect x="180" y="335.311" width="134" height="1" class="st3 MsftOfcResponsive_Stroke_ffc000" stroke="#FFC000" stroke-width="8.44444" fill="#D2D2D2"/><rect x="180" y="347.311" width="134" height="1" class="st3 MsftOfcResponsive_Stroke_ffc000" stroke="#FFC000" stroke-width="8.44444" fill="#D2D2D2"/></g></g><g><path d="M669.8 308.811 780 308.811 780 287.811 660 287.811 660 299.9Z" class="st2 MsftOfcResponsive_Stroke_ffc000" stroke="#FFC000" stroke-width="8.44444" fill="#505050"/><path d="M820.295 719.811 660 719.811 660 299.811 821.448 299.811Z" class="st3 MsftOfcResponsive_Stroke_ffc000" stroke="#FFC000" stroke-width="8.44444" fill="#D2D2D2"/><rect x="779" y="299.811" width="2" height="240" class="st4 MsftOfcResponsive_Stroke_ffc000" stroke="#FFC000" stroke-width="8.44444" fill="#E6E6E6"/><rect x="787" y="299.811" width="2" height="240" class="st4 MsftOfcResponsive_Stroke_ffc000" stroke="#FFC000" stroke-width="8.44444" fill="#E6E6E6"/><rect x="795" y="299.811" width="2" height="240" class="st4 MsftOfcResponsive_Stroke_ffc000" stroke="#FFC000" stroke-width="8.44444" fill="#E6E6E6"/><rect x="660" y="359.811" width="120" height="12" class="st4 MsftOfcResponsive_Stroke_ffc000" stroke="#FFC000" stroke-width="8.44444" fill="#E6E6E6"/><rect x="660" y="383.811" width="120" height="12" class="st4 MsftOfcResponsive_Stroke_ffc000" stroke="#FFC000" stroke-width="8.44444" fill="#E6E6E6"/><rect x="660" y="409.811" width="120" height="12" class="st4 MsftOfcResponsive_Stroke_ffc000" stroke="#FFC000" stroke-width="8.44444" fill="#E6E6E6"/><rect x="660" y="433.811" width="120" height="12" class="st4 MsftOfcResponsive_Stroke_ffc000" stroke="#FFC000" stroke-width="8.44444" fill="#E6E6E6"/></g><path d="M874.63 521.884C859.563 521.045 845.974 527.469 837.012 537.964 834.135 529.085 829.188 520.73 822.135 513.677 812.117 503.66 799.483 497.86 786.432 496.27 775.947 494.993 766.341 489.465 760.741 480.509 749.965 463.275 730.825 451.81 709 451.81 702.666 451.81 696.558 452.776 690.814 454.568 680.967 457.64 670.185 455.377 662.218 448.825 649.523 438.385 633.119 432.295 615.274 432.845 578.084 433.992 547.896 464.413 547.02 501.61 546.085 541.323 577.998 573.811 617.5 573.811 635.891 573.811 652.632 566.763 665.184 555.228 676.273 566.681 691.8 573.811 709 573.811 712.805 573.811 716.522 573.445 720.135 572.779 722.824 582.729 728.057 592.134 735.867 599.945 759.689 623.767 798.313 623.767 822.135 599.945 825.605 596.476 828.553 592.686 831.011 588.681 838.619 603.593 854.112 613.811 872 613.811 897.999 613.811 918.96 592.242 917.966 566.022 917.074 542.496 898.136 523.194 874.63 521.884Z" class="st2 MsftOfcResponsive_Stroke_ffc000" stroke="#FFC000" stroke-width="8.44444" fill="#505050"/><g><path d="M498.5 107.811 498.5 83.811 497.5 83.811 497.5 107.811 488.5 107.811 488.5 83.811 487.5 83.811 487.5 107.811 470 107.811 470 122.811 518 122.811 518 107.811Z" class="st2 MsftOfcResponsive_Stroke_ffc000" stroke="#FFC000" stroke-width="8.44444" fill="#505050"/><path d="M455.949 715.811 455.949 119.811 512.2 119.811 538 129.811 538 715.81Z" class="st3 MsftOfcResponsive_Stroke_ffc000" stroke="#FFC000" stroke-width="8.44444" fill="#D2D2D2"/><path d="M491 487.811 481 480.811 481 131.811 491 131.811Z" class="st5 MsftOfcResponsive_Stroke_ffc000" stroke="#FFC000" stroke-width="8.44444" fill="#F2F2F2"/><path d="M512 119.811 512 379.811 526 379.811 526 487.811 540 487.811 540 119.811Z" class="st2 MsftOfcResponsive_Stroke_ffc000" stroke="#FFC000" stroke-width="8.44444" fill="#505050"/></g><g><path d="M481 720 419.667 720 314.343 707.4 314 420 481 420Z" class="st3 MsftOfcResponsive_Stroke_ffc000" stroke="#FFC000" stroke-width="8.44444" fill="#D2D2D2"/><rect x="438" y="479.811" width="8" height="30" class="st0 MsftOfcResponsive_Stroke_ffc000" stroke="#FFC000" stroke-width="8.44444" fill="#FFFFFF"/><rect x="438" y="539.811" width="8" height="30" class="st0 MsftOfcResponsive_Stroke_ffc000" stroke="#FFC000" stroke-width="8.44444" fill="#FFFFFF"/><rect x="438" y="599.811" width="8" height="30" class="st0 MsftOfcResponsive_Stroke_ffc000" stroke="#FFC000" stroke-width="8.44444" fill="#FFFFFF"/></g><g><path d="M245.073 454.811 380.073 454.811 380.073 439.541 240.073 439.541 240.073 450Z" class="st1 MsftOfcResponsive_Stroke_ffc000" stroke="#FFC000" stroke-width="8.44444" fill="#737373"/><path d="M240.073 450 240.073 540 120.073 540 120.073 600 60.073 600.158 60 720 420.073 720 420.073 450Z" class="st0 MsftOfcResponsive_Stroke_ffc000" stroke="#FFC000" stroke-width="8.44444" fill="#FFFFFF"/><rect x="161.992" y="630.153" width="28.082" height="29.657" class="st1 MsftOfcResponsive_Stroke_ffc000" stroke="#FFC000" stroke-width="8.44444" fill="#737373"/><rect x="120.073" y="630.153" width="29.702" height="29.657" class="st1 MsftOfcResponsive_Stroke_ffc000" stroke="#FFC000" stroke-width="8.44444" fill="#737373"/><rect x="161.992" y="659.811" width="28.082" height="29.657" class="st3 MsftOfcResponsive_Stroke_ffc000" stroke="#FFC000" stroke-width="8.44444" fill="#D2D2D2"/><rect x="120.073" y="659.811" width="29.702" height="29.657" class="st3 MsftOfcResponsive_Stroke_ffc000" stroke="#FFC000" stroke-width="8.44444" fill="#D2D2D2"/><g><rect x="351.992" y="689" width="28.082" height="31" class="st3 MsftOfcResponsive_Stroke_ffc000" stroke="#FFC000" stroke-width="8.44444" fill="#D2D2D2"/><rect x="351.992" y="660.343" width="28.082" height="29.657" class="st1 MsftOfcResponsive_Stroke_ffc000" stroke="#FFC000" stroke-width="8.44444" fill="#737373"/></g><g><rect x="311.992" y="689" width="28.082" height="31" class="st3 MsftOfcResponsive_Stroke_ffc000" stroke="#FFC000" stroke-width="8.44444" fill="#D2D2D2"/><rect x="311.992" y="660.343" width="28.082" height="29.657" class="st1 MsftOfcResponsive_Stroke_ffc000" stroke="#FFC000" stroke-width="8.44444" fill="#737373"/></g><g><rect x="240.073" y="689" width="59.702" height="31" class="st3 MsftOfcResponsive_Stroke_ffc000" stroke="#FFC000" stroke-width="8.44444" fill="#D2D2D2"/><rect x="240.073" y="660.343" width="59.702" height="29.657" class="st1 MsftOfcResponsive_Stroke_ffc000" stroke="#FFC000" stroke-width="8.44444" fill="#737373"/></g><path d="M240.028 629.811 380.028 629.811 380.028 599.811 319.855 599.811 315.555 596 240.028 595.81Z" class="st3 MsftOfcResponsive_Stroke_ffc000" stroke="#FFC000" stroke-width="8.44444" fill="#D2D2D2"/><path d="M240.028 569.811 380.028 569.811 380.028 539.811 319.888 539.811 313.355 534.81 240.028 534.81Z" class="st3 MsftOfcResponsive_Stroke_ffc000" stroke="#FFC000" stroke-width="8.44444" fill="#D2D2D2"/><rect x="240.028" y="479.811" width="140" height="30" class="st3 MsftOfcResponsive_Stroke_ffc000" stroke="#FFC000" stroke-width="8.44444" fill="#D2D2D2"/><rect x="180.073" y="589.811" width="140" height="10" class="st1 MsftOfcResponsive_Stroke_ffc000" stroke="#FFC000" stroke-width="8.44444" fill="#737373"/><rect x="179.073" y="530" width="141" height="10" class="st1 MsftOfcResponsive_Stroke_ffc000" stroke="#FFC000" stroke-width="8.44444" fill="#737373"/></g><g><path d="M708 655.816 490 656.159 490 714.73 496.35 720 703.635 719.83 708 716.805Z" class="st3 MsftOfcResponsive_Stroke_ffc000" stroke="#FFC000" stroke-width="8.44444" fill="#D2D2D2"/><rect x="821.7" y="547.662" width="58" height="4.296" class="st1 MsftOfcResponsive_Stroke_ffc000" stroke="#FFC000" stroke-width="8.44444" fill="#737373"/><path d="M946.825 540 946.825 569.811 892 569.811 892 540 878 540 878 569.811 823.249 569.811 823.249 540 720 540 660 480.028 481 480.028 481 720 496.368 720 496.368 659.811 584 659.811 584 720 600.368 720 600.368 659.811 613.632 659.811 613.632 720 630 720 630 659.811 703.632 659.811 703.632 720 960 720 960 540Z" class="st0 MsftOfcResponsive_Stroke_ffc000" stroke="#FFC000" stroke-width="8.44444" fill="#FFFFFF"/><rect x="498" y="539.811" width="140" height="30" class="st5 MsftOfcResponsive_Stroke_ffc000" stroke="#FFC000" stroke-width="8.44444" fill="#F2F2F2"/><rect x="498" y="599.811" width="140" height="30" class="st5 MsftOfcResponsive_Stroke_ffc000" stroke="#FFC000" stroke-width="8.44444" fill="#F2F2F2"/><rect x="662.318" y="599.811" width="297.682" height="30" class="st5 MsftOfcResponsive_Stroke_ffc000" stroke="#FFC000" stroke-width="8.44444" fill="#F2F2F2"/><rect x="816" y="659.811" width="144" height="9.819" class="st5 MsftOfcResponsive_Stroke_ffc000" stroke="#FFC000" stroke-width="8.44444" fill="#F2F2F2"/><rect x="660" y="480.028" width="60" height="59.972" class="st5 MsftOfcResponsive_Stroke_ffc000" stroke="#FFC000" stroke-width="8.44444" fill="#F2F2F2"/><rect x="891.931" y="547.811" width="68.069" height="4" class="st4 MsftOfcResponsive_Stroke_ffc000" stroke="#FFC000" stroke-width="8.44444" fill="#E6E6E6"/></g></svg>